<?xml version="1.0" standalone="no"?>
<!DOCTYPE svg PUBLIC "-//W3C//DTD SVG 1.1//EN" "http://www.w3.org/Graphics/SVG/1.1/DTD/svg11.dtd" >
<svg>
<metadata>
Created by FontForge 20090622 at Fri Sep 22 22:42:51 2017
 By deploy user
Copyright &#194;&#169; 2017 Dubai Executive Council. All rights reserved.
</metadata>
<defs>
<font id="Dubai-Medium" horiz-adv-x="0" >
  <font-face 
    font-family="Dubai Medium"
    font-weight="500"
    font-stretch="normal"
    units-per-em="1000"
    panose-1="2 11 6 3 3 4 3 3 2 4"
    ascent="800"
    descent="-200"
    x-height="443"
    cap-height="648"
    bbox="-657 -530 1330 1107"
    underline-thickness="50"
    underline-position="-50"
    unicode-range="U+000D-U+FEFF"
  />
<missing-glyph horiz-adv-x="540" 
d="M80 0v688h380v-688h-380zM156 72h227v544h-227v-544z" />
    <glyph glyph-name="fi" unicode="fi" horiz-adv-x="573" 
d="M216.5 582.5q-17.5 -20.5 -17.5 -60.5v-79h124l-11 -85h-113v-358h-108v358h-74v85h74v77q0 52 19.5 91t57.5 61t91 22q52 0 97 -21l-34 -82q-23 12 -54 12q-34 0 -51.5 -20.5zM415.5 532.5q-16.5 9.5 -26.5 26t-10 35.5t10 35.5t26.5 26.5t35.5 10q20 0 37 -10t27 -26.5
t10 -35.5t-10 -35.5t-27 -26t-37 -9.5q-19 0 -35.5 9.5zM399 0v442l108 11v-453h-108z" />
    <glyph glyph-name="fl" unicode="fl" horiz-adv-x="573" 
d="M399 688l108 11v-699h-108v688zM110.5 611q19.5 39 57.5 61t91 22q52 0 97 -21l-34 -82q-23 12 -54 12q-34 0 -51.5 -20.5t-17.5 -60.5v-79h110l-11 -85h-99v-358h-108v358h-74v85h74v77q0 52 19.5 91z" />
    <glyph glyph-name="uniFEFB" unicode="&#xfedf;&#xfe8e;" horiz-adv-x="463" arabic-form="isolated" 
d="M341 268q53 -75 53 -135q0 -45 -19 -74.5t-61.5 -44t-112.5 -14.5h-137l5 95q56 36 100 74.5t76 85.5q-45 44 -104 90t-117 84l34 99l6 3q147 -117 221 -196q18 51 18 112q0 48 -9 105.5t-18 89.5l88 45l8 -2q9 -50 17 -108t8 -99q0 -115 -56 -210zM293 200
q-46 -54 -112 -101h30q49 0 75.5 5t40.5 16q0 33 -34 80z" />
    <glyph glyph-name="uniFEFC" unicode="&#xfee0;&#xfe8e;" horiz-adv-x="537" arabic-form="final" 
d="M591 90.5q9 -8.5 9 -24.5q0 -29 -14.5 -47.5t-48.5 -18.5q-72 0 -117.5 27.5t-60.5 88.5q-103 -119 -294 -119l-45 93l4 6q148 3 238 53q-39 67 -95 130.5t-145 145.5l34 102l7 3q86 -80 156.5 -172.5t105.5 -160.5q17 19 27 35v431l91 24l8 -5v-491q0 -37 10.5 -56.5
t34 -27.5t64.5 -8q22 0 31 -8.5z" />
    <glyph glyph-name="uniFEF7" unicode="&#xfedf;&#xfe84;" horiz-adv-x="492" arabic-form="isolated" 
d="M370 268q53 -75 53 -135q0 -45 -19 -74.5t-61.5 -44t-112.5 -14.5h-137l5 95q56 36 100 74.5t76 85.5q-45 44 -104 90t-117 84l34 99l6 3q147 -117 221 -196q18 51 18 112q0 48 -9 105.5t-18 89.5l88 45l8 -2q9 -50 17 -108t8 -99q0 -115 -56 -210zM322 200
q-46 -54 -112 -101h30q49 0 75.5 5t40.5 16q0 33 -34 80zM194 615q-79 -10 -193 -14l-6 62q30 0 46 1q-10 13 -15 28.5t-5 31.5q0 37 22.5 59.5t62.5 22.5q34 0 72 -15l-16 -58q-30 10 -45 10q-17 0 -26.5 -10t-9.5 -25q0 -11 5 -22t14 -19q62 4 89 7z" />
    <glyph glyph-name="uniFEF8" unicode="&#xfee0;&#xfe84;" horiz-adv-x="584" arabic-form="final" 
d="M638 90.5q9 -8.5 9 -24.5q0 -29 -14.5 -47.5t-48.5 -18.5q-72 0 -117.5 27.5t-60.5 88.5q-103 -119 -294 -119l-45 93l4 6q148 3 238 53q-39 67 -95 130.5t-145 145.5l34 102l7 3q86 -80 156.5 -172.5t105.5 -160.5q17 19 27 35v431l91 24l8 -5v-491q0 -37 10.5 -56.5
t34 -27.5t64.5 -8q22 0 31 -8.5zM223 616q-79 -10 -193 -14l-6 62q30 0 46 1q-10 13 -15 28.5t-5 31.5q0 37 22.5 59.5t62.5 22.5q34 0 72 -15l-16 -58q-30 10 -45 10q-17 0 -26.5 -10t-9.5 -25q0 -11 5 -22t14 -19q62 4 89 7z" />
    <glyph glyph-name="uniFEF9" unicode="&#xfedf;&#xfe88;" horiz-adv-x="463" arabic-form="isolated" 
d="M341 268q53 -75 53 -135q0 -45 -19 -74.5t-61.5 -44t-112.5 -14.5h-137l5 95q56 36 100 74.5t76 85.5q-45 44 -104 90t-117 84l34 99l6 3q147 -117 221 -196q18 51 18 112q0 48 -9 105.5t-18 89.5l88 45l8 -2q9 -50 17 -108t8 -99q0 -115 -56 -210zM293 200
q-46 -54 -112 -101h30q49 0 75.5 5t40.5 16q0 33 -34 80zM245 -250q-79 -10 -193 -14l-6 61q30 0 46 1q-9 13 -14.5 29t-5.5 32q0 37 22.5 59.5t62.5 22.5q35 0 72 -15l-16 -58q-30 10 -45 10q-17 0 -26.5 -10t-9.5 -25q0 -11 5.5 -22.5t14.5 -19.5q62 4 88 7z" />
    <glyph glyph-name="uniFEFA" unicode="&#xfee0;&#xfe88;" horiz-adv-x="537" arabic-form="final" 
d="M591 90.5q9 -8.5 9 -24.5q0 -29 -14.5 -47.5t-48.5 -18.5q-72 0 -117.5 27.5t-60.5 88.5q-103 -119 -294 -119l-45 93l4 6q148 3 238 53q-39 67 -95 130.5t-145 145.5l34 102l7 3q86 -80 156.5 -172.5t105.5 -160.5q17 19 27 35v431l91 24l8 -5v-491q0 -37 10.5 -56.5
t34 -27.5t64.5 -8q22 0 31 -8.5zM265 -250q-79 -10 -193 -14l-6 61q30 0 46 1q-9 13 -14.5 29t-5.5 32q0 37 22.5 59.5t62.5 22.5q35 0 72 -15l-16 -58q-30 10 -45 10q-17 0 -26.5 -10t-9.5 -25q0 -11 5.5 -22.5t14.5 -19.5q62 4 88 7z" />
    <glyph glyph-name="uniFEF5" unicode="&#xfedf;&#xfe82;" horiz-adv-x="493" arabic-form="isolated" 
d="M371 268q53 -75 53 -135q0 -45 -19 -74.5t-61.5 -44t-112.5 -14.5h-137l5 95q56 36 100 74.5t76 85.5q-45 44 -104 90t-117 84l34 99l6 3q147 -117 221 -196q18 51 18 112q0 48 -9 105.5t-18 89.5l88 45l8 -2q9 -50 17 -108t8 -99q0 -115 -56 -210zM323 200
q-46 -54 -112 -101h30q49 0 75.5 5t40.5 16q0 33 -34 80zM149.5 591.5q-13.5 3.5 -29.5 9.5q-18 6 -29.5 9t-28.5 3q-36 0 -77 -26l-31 50q26 24 50.5 34t48.5 10q18 0 33 -3.5t32 -9.5q15 -5 32.5 -9t35.5 -4q24 0 44 8l21 -58q-33 -17 -69 -17q-19 0 -32.5 3.5z" />
    <glyph glyph-name="uniFEF6" unicode="&#xfee0;&#xfe82;" horiz-adv-x="585" arabic-form="final" 
d="M639 90.5q9 -8.5 9 -24.5q0 -29 -14.5 -47.5t-48.5 -18.5q-72 0 -117.5 27.5t-60.5 88.5q-103 -119 -294 -119l-45 93l4 6q148 3 238 53q-39 67 -95 130.5t-145 145.5l34 102l7 3q86 -80 156.5 -172.5t105.5 -160.5q17 19 27 35v431l91 24l8 -5v-491q0 -37 10.5 -56.5
t34 -27.5t64.5 -8q22 0 31 -8.5zM178.5 592.5q-13.5 3.5 -29.5 9.5q-18 6 -29.5 9t-28.5 3q-36 0 -77 -26l-31 50q26 24 50.5 34t48.5 10q18 0 33 -3.5t32 -9.5q15 -5 32.5 -9t35.5 -4q24 0 44 8l21 -58q-33 -17 -69 -17q-19 0 -32.5 3.5z" />
    <glyph glyph-name="uni06440671" unicode="&#xfedf;&#xfb51;" horiz-adv-x="476" 
d="M369 268q53 -75 53 -135q0 -45 -19 -74.5t-61.5 -44t-112.5 -14.5h-137l5 95q56 36 100 74.5t76 85.5q-45 44 -104 90t-117 84l34 99l6 3q147 -117 221 -196q18 51 18 112q0 48 -9 105.5t-18 89.5l88 45l8 -2q9 -50 17 -108t8 -99q0 -115 -56 -210zM321 200
q-46 -54 -112 -101h30q49 0 75.5 5t40.5 16q0 33 -34 80zM184 710q12 -8 18.5 -21t6.5 -27q0 -28 -20.5 -46t-70.5 -18q-37 0 -60 5t-39 13q-22 -17 -56 -17l9 37q12 0 18 2t12 8q8 11 18 45l40 5l3 -2q-12 -33 -22 -50q3 0 9 -1.5t11 -1.5q32 41 52.5 59t42.5 18
q16 0 28 -8zM174 654q0 11 -5 18t-15 7q-11 0 -23 -10t-32 -32h19q17 0 33.5 1.5t21.5 4.5q1 4 1 11z" />
    <glyph glyph-name="uni06440671.fina" unicode="&#xfee0;&#xfb51;" horiz-adv-x="583" 
d="M637 90.5q9 -8.5 9 -24.5q0 -29 -14.5 -47.5t-48.5 -18.5q-72 0 -117.5 27.5t-60.5 88.5q-103 -119 -294 -119l-45 93l4 6q148 3 238 53q-39 67 -95 130.5t-145 145.5l34 102l7 3q86 -80 156.5 -172.5t105.5 -160.5q17 19 27 35v431l91 24l8 -5v-491q0 -37 10.5 -56.5
t34 -27.5t64.5 -8q22 0 31 -8.5zM213 711q12 -8 18.5 -21t6.5 -27q0 -28 -20.5 -46t-70.5 -18q-37 0 -60 5t-39 13q-22 -17 -56 -17l9 37q12 0 18 2t12 8q8 11 18 45l40 5l3 -2q-12 -33 -22 -50q3 0 9 -1.5t11 -1.5q32 41 52.5 59t42.5 18q16 0 28 -8zM203 655q0 11 -5 18
t-15 7q-11 0 -23 -10t-32 -32h19q17 0 33.5 1.5t21.5 4.5q1 4 1 11z" />
    <glyph glyph-name="uniFDF2" unicode="&#x627;&#xfedf;&#xfee0;&#xfeea;" horiz-adv-x="1262" arabic-form="isolated" 
d="M651 943v-126h-70v126h70zM491 649.5q-19 23.5 -19 59.5q0 26 8 53l56 2q-4 -21 -4 -42q0 -19 6.5 -28t20.5 -9q16 0 23.5 16t8.5 58l54 4q-1 -18 -1 -40q0 -35 31 -35q27 0 27 36q0 25 -12 59l57 14q15 -43 15 -75q0 -41 -21.5 -67.5t-62.5 -26.5q-19 0 -34.5 6.5
t-24.5 18.5q-11 -13 -28 -20t-36 -7q-45 0 -64 23.5zM961 682v-482q0 -77 -25.5 -121t-72 -61.5t-117.5 -17.5h-1v0h-1v0q-36 0 -70 13t-55 45q-26 -32 -66.5 -45t-107.5 -13h-2q-60 0 -100.5 17t-61.5 57q-37 -12 -82 -12q-52 0 -91 14.5t-60 41.5t-21 63q0 40 27 81.5
t80 77.5t127 60v47l91 38l8 -2v-306q0 -33 10.5 -49.5t33 -22.5t64.5 -6q28 0 50 3t38 13q7 30 7 77v351l90 23l9 -4v-363q0 -44 11.5 -65.5t33 -28t60.5 -6.5q28 0 50 3t38 13q7 30 7 77v471l90 24zM261 163v14v126q-61 -17 -102.5 -43.5t-50.5 -54.5q8 -22 37.5 -34.5
t62.5 -12.5q25 0 53 5zM1106 -6l-7 4v665l92 24l7 -5l-1 -669z" />
    <glyph glyph-name="uniFC09.rlig" unicode="&#xfe91;&#xfef0;" horiz-adv-x="757" 
d="M660 -93q-51 -45 -137.5 -69t-195.5 -24q-94 0 -158 26t-95.5 72t-31.5 105q0 29 4.5 58.5t11.5 53.5l81 28l9 -5q-11 -52 -11 -89q0 -48 19 -81t65.5 -51t124.5 -18q68 0 127.5 9.5t99.5 26t52 38.5q0 19 -33.5 39t-129.5 42l28 88q60 22 87 44q-3 33 -16 68.5t-36 83.5
l80 64h11q26 -62 39.5 -107t13.5 -76q0 -33 -16 -59.5t-53 -50.5q45 -17 70.5 -34t35.5 -35.5t10 -40.5q-5 -61 -56 -106zM717 -259l-58 -87l-93 65l58 85z" />
    <glyph glyph-name="uniFC0A.rlig" unicode="&#xfe91;&#xfef2;" horiz-adv-x="757" 
d="M660 -93q-51 -45 -137.5 -69t-195.5 -24q-94 0 -158 26t-95.5 72t-31.5 105q0 29 4.5 58.5t11.5 53.5l81 28l9 -5q-11 -52 -11 -89q0 -48 19 -81t65.5 -51t124.5 -18q68 0 127.5 9.5t99.5 26t52 38.5q0 19 -33.5 39t-129.5 42l28 88q60 22 87 44q-3 33 -16 68.5t-36 83.5
l80 64h11q26 -62 39.5 -107t13.5 -76q0 -33 -16 -59.5t-53 -50.5q45 -17 70.5 -34t35.5 -35.5t10 -40.5q-5 -61 -56 -106zM717 -259l-58 -87l-93 65l58 85zM327 -323l-55 -85l-91 63l56 84zM381 -261l90 -62l-56 -85l-90 63z" />
    <glyph glyph-name="uni06280626.rlig" unicode="&#xfe91;&#xfe8a;" horiz-adv-x="757" 
d="M74 305q30 0 46 1q-10 13 -15 28.5t-5 31.5q0 37 22.5 59.5t62.5 22.5q34 0 72 -15l-16 -58q-30 10 -45 10q-17 0 -26.5 -10t-9.5 -25q0 -11 5 -22t14 -19q62 4 89 7l5 -59q-79 -10 -193 -14zM660 -93q-51 -45 -137.5 -69t-195.5 -24q-94 0 -158 26t-95.5 72t-31.5 105
q0 29 4.5 58.5t11.5 53.5l81 28l9 -5q-11 -52 -11 -89q0 -48 19 -81t65.5 -51t124.5 -18q68 0 127.5 9.5t99.5 26t52 38.5q0 19 -33.5 39t-129.5 42l28 88q60 22 87 44q-3 33 -16 68.5t-36 83.5l80 64h11q26 -62 39.5 -107t13.5 -76q0 -33 -16 -59.5t-53 -50.5
q45 -17 70.5 -34t35.5 -35.5t10 -40.5q-5 -61 -56 -106zM717 -259l-58 -87l-93 65l58 85z" />
    <glyph glyph-name="uniFC0F.rlig" unicode="&#xfe97;&#xfef0;" horiz-adv-x="757" 
d="M513 473l-90 63l55 84l90 -62zM564 536l56 84l90 -62l-56 -85zM670.5 89q25.5 -17 35.5 -35.5t10 -40.5q-5 -61 -56 -106t-137.5 -69t-195.5 -24q-94 0 -158 26t-95.5 72t-31.5 105q0 29 4.5 58.5t11.5 53.5l81 28l9 -5q-11 -52 -11 -89q0 -48 19 -81t65.5 -51t124.5 -18
q68 0 127.5 9.5t99.5 26t52 38.5q0 19 -33.5 39t-129.5 42l28 88q60 22 87 44q-3 33 -16 68.5t-36 83.5l80 64h11q26 -62 39.5 -107t13.5 -76q0 -33 -16 -59.5t-53 -50.5q45 -17 70.5 -34z" />
    <glyph glyph-name="uniFC10.rlig" unicode="&#xfe97;&#xfef2;" horiz-adv-x="757" 
d="M513 473l-90 63l55 84l90 -62zM564 536l56 84l90 -62l-56 -85zM670.5 89q25.5 -17 35.5 -35.5t10 -40.5q-5 -61 -56 -106t-137.5 -69t-195.5 -24q-94 0 -158 26t-95.5 72t-31.5 105q0 29 4.5 58.5t11.5 53.5l81 28l9 -5q-11 -52 -11 -89q0 -48 19 -81t65.5 -51t124.5 -18
q68 0 127.5 9.5t99.5 26t52 38.5q0 19 -33.5 39t-129.5 42l28 88q60 22 87 44q-3 33 -16 68.5t-36 83.5l80 64h11q26 -62 39.5 -107t13.5 -76q0 -33 -16 -59.5t-53 -50.5q45 -17 70.5 -34zM327 -323l-55 -85l-91 63l56 84zM381 -261l90 -62l-56 -85l-90 63z" />
    <glyph glyph-name="uni062A0626.rlig" unicode="&#xfe97;&#xfe8a;" horiz-adv-x="757" 
d="M513 473l-90 63l55 84l90 -62zM564 536l56 84l90 -62l-56 -85zM74 305q30 0 46 1q-10 13 -15 28.5t-5 31.5q0 37 22.5 59.5t62.5 22.5q34 0 72 -15l-16 -58q-30 10 -45 10q-17 0 -26.5 -10t-9.5 -25q0 -11 5 -22t14 -19q62 4 89 7l5 -59q-79 -10 -193 -14zM670.5 89
q25.5 -17 35.5 -35.5t10 -40.5q-5 -61 -56 -106t-137.5 -69t-195.5 -24q-94 0 -158 26t-95.5 72t-31.5 105q0 29 4.5 58.5t11.5 53.5l81 28l9 -5q-11 -52 -11 -89q0 -48 19 -81t65.5 -51t124.5 -18q68 0 127.5 9.5t99.5 26t52 38.5q0 19 -33.5 39t-129.5 42l28 88
q60 22 87 44q-3 33 -16 68.5t-36 83.5l80 64h11q26 -62 39.5 -107t13.5 -76q0 -33 -16 -59.5t-53 -50.5q45 -17 70.5 -34z" />
    <glyph glyph-name="uniFC13.rlig" unicode="&#xfe9b;&#xfef0;" horiz-adv-x="757" 
d="M575 599l-91 64l57 83l90 -61zM519 473l-91 63l56 84l90 -62zM627 620l90 -62l-57 -85l-90 63zM670.5 89q25.5 -17 35.5 -35.5t10 -40.5q-5 -61 -56 -106t-137.5 -69t-195.5 -24q-94 0 -158 26t-95.5 72t-31.5 105q0 29 4.5 58.5t11.5 53.5l81 28l9 -5q-11 -52 -11 -89
q0 -48 19 -81t65.5 -51t124.5 -18q68 0 127.5 9.5t99.5 26t52 38.5q0 19 -33.5 39t-129.5 42l28 88q60 22 87 44q-3 33 -16 68.5t-36 83.5l80 64h11q26 -62 39.5 -107t13.5 -76q0 -33 -16 -59.5t-53 -50.5q45 -17 70.5 -34z" />
    <glyph glyph-name="uniFC14.rlig" unicode="&#xfe9b;&#xfef2;" horiz-adv-x="757" 
d="M575 599l-91 64l57 83l90 -61zM519 473l-91 63l56 84l90 -62zM627 620l90 -62l-57 -85l-90 63zM670.5 89q25.5 -17 35.5 -35.5t10 -40.5q-5 -61 -56 -106t-137.5 -69t-195.5 -24q-94 0 -158 26t-95.5 72t-31.5 105q0 29 4.5 58.5t11.5 53.5l81 28l9 -5q-11 -52 -11 -89
q0 -48 19 -81t65.5 -51t124.5 -18q68 0 127.5 9.5t99.5 26t52 38.5q0 19 -33.5 39t-129.5 42l28 88q60 22 87 44q-3 33 -16 68.5t-36 83.5l80 64h11q26 -62 39.5 -107t13.5 -76q0 -33 -16 -59.5t-53 -50.5q45 -17 70.5 -34zM327 -323l-55 -85l-91 63l56 84zM381 -261l90 -62
l-56 -85l-90 63z" />
    <glyph glyph-name="uni062B0626.rlig" unicode="&#xfe9b;&#xfe8a;" horiz-adv-x="757" 
d="M575 599l-91 64l57 83l90 -61zM519 473l-91 63l56 84l90 -62zM627 620l90 -62l-57 -85l-90 63zM74 305q30 0 46 1q-10 13 -15 28.5t-5 31.5q0 37 22.5 59.5t62.5 22.5q34 0 72 -15l-16 -58q-30 10 -45 10q-17 0 -26.5 -10t-9.5 -25q0 -11 5 -22t14 -19q62 4 89 7l5 -59
q-79 -10 -193 -14zM670.5 89q25.5 -17 35.5 -35.5t10 -40.5q-5 -61 -56 -106t-137.5 -69t-195.5 -24q-94 0 -158 26t-95.5 72t-31.5 105q0 29 4.5 58.5t11.5 53.5l81 28l9 -5q-11 -52 -11 -89q0 -48 19 -81t65.5 -51t124.5 -18q68 0 127.5 9.5t99.5 26t52 38.5
q0 19 -33.5 39t-129.5 42l28 88q60 22 87 44q-3 33 -16 68.5t-36 83.5l80 64h11q26 -62 39.5 -107t13.5 -76q0 -33 -16 -59.5t-53 -50.5q45 -17 70.5 -34z" />
    <glyph glyph-name="uniFC31.rlig" unicode="&#xfed3;&#xfef0;" horiz-adv-x="779" 
d="M560 652l-93 65l58 86l93 -64zM696 67.5q20 -23.5 20 -54.5q-5 -61 -56 -106t-137.5 -69t-195.5 -24q-94 0 -158 26t-95.5 72t-31.5 105q0 29 4.5 58.5t11.5 53.5l81 28l9 -5q-11 -52 -11 -89q0 -48 19 -81t65.5 -51t124.5 -18q68 0 127.5 9.5t99.5 26t52 38.5
q0 19 -33.5 39t-129.5 42l28 88q73 16 131 53q4 13 7 44q-46 -11 -100 -11q-66 0 -99 31t-33 87q0 46 21.5 92t57 75.5t76.5 29.5q48 0 84.5 -34t56 -91t19.5 -123q0 -78 -21 -122.5t-67 -73.5q53 -22 73 -45.5zM492.5 342q18.5 -10 55.5 -10q46 0 82 7q-4 32 -16 60
t-30 45.5t-39 17.5q-18 0 -34.5 -12.5t-26.5 -33t-10 -42.5t18.5 -32z" />
    <glyph glyph-name="uniFC32.rlig" unicode="&#xfed3;&#xfef2;" horiz-adv-x="779" 
d="M560 652l-93 65l58 86l93 -64zM696 67.5q20 -23.5 20 -54.5q-5 -61 -56 -106t-137.5 -69t-195.5 -24q-94 0 -158 26t-95.5 72t-31.5 105q0 29 4.5 58.5t11.5 53.5l81 28l9 -5q-11 -52 -11 -89q0 -48 19 -81t65.5 -51t124.5 -18q68 0 127.5 9.5t99.5 26t52 38.5
q0 19 -33.5 39t-129.5 42l28 88q73 16 131 53q4 13 7 44q-46 -11 -100 -11q-66 0 -99 31t-33 87q0 46 21.5 92t57 75.5t76.5 29.5q48 0 84.5 -34t56 -91t19.5 -123q0 -78 -21 -122.5t-67 -73.5q53 -22 73 -45.5zM492.5 342q18.5 -10 55.5 -10q46 0 82 7q-4 32 -16 60
t-30 45.5t-39 17.5q-18 0 -34.5 -12.5t-26.5 -33t-10 -42.5t18.5 -32zM327 -323l-55 -85l-91 63l56 84zM381 -261l90 -62l-56 -85l-90 63z" />
    <glyph glyph-name="uni06410626.rlig" unicode="&#xfed3;&#xfe8a;" horiz-adv-x="779" 
d="M560 652l-93 65l58 86l93 -64zM696 67.5q20 -23.5 20 -54.5q-5 -61 -56 -106t-137.5 -69t-195.5 -24q-94 0 -158 26t-95.5 72t-31.5 105q0 29 4.5 58.5t11.5 53.5l81 28l9 -5q-11 -52 -11 -89q0 -48 19 -81t65.5 -51t124.5 -18q68 0 127.5 9.5t99.5 26t52 38.5
q0 19 -33.5 39t-129.5 42l28 88q73 16 131 53q4 13 7 44q-46 -11 -100 -11q-66 0 -99 31t-33 87q0 46 21.5 92t57 75.5t76.5 29.5q48 0 84.5 -34t56 -91t19.5 -123q0 -78 -21 -122.5t-67 -73.5q53 -22 73 -45.5zM492.5 342q18.5 -10 55.5 -10q46 0 82 7q-4 32 -16 60
t-30 45.5t-39 17.5q-18 0 -34.5 -12.5t-26.5 -33t-10 -42.5t18.5 -32zM74 305q30 0 46 1q-10 13 -15 28.5t-5 31.5q0 37 22.5 59.5t62.5 22.5q34 0 72 -15l-16 -58q-30 10 -45 10q-17 0 -26.5 -10t-9.5 -25q0 -11 5 -22t14 -19q62 4 89 7l5 -59q-79 -10 -193 -14z" />
    <glyph glyph-name="uni06A40649.rlig" unicode="&#xfb6c;&#xfef0;" horiz-adv-x="779" 
d="M549 780l-91 64l57 83l90 -61zM493 654l-91 63l56 84l90 -62zM601 801l90 -62l-57 -85l-90 63zM696 67.5q20 -23.5 20 -54.5q-5 -61 -56 -106t-137.5 -69t-195.5 -24q-94 0 -158 26t-95.5 72t-31.5 105q0 29 4.5 58.5t11.5 53.5l81 28l9 -5q-11 -52 -11 -89q0 -48 19 -81
t65.5 -51t124.5 -18q68 0 127.5 9.5t99.5 26t52 38.5q0 19 -33.5 39t-129.5 42l28 88q73 16 131 53q4 13 7 44q-46 -11 -100 -11q-66 0 -99 31t-33 87q0 46 21.5 92t57 75.5t76.5 29.5q48 0 84.5 -34t56 -91t19.5 -123q0 -78 -21 -122.5t-67 -73.5q53 -22 73 -45.5z
M492.5 342q18.5 -10 55.5 -10q46 0 82 7q-4 32 -16 60t-30 45.5t-39 17.5q-18 0 -34.5 -12.5t-26.5 -33t-10 -42.5t18.5 -32z" />
    <glyph glyph-name="uni06A4064A.rlig" unicode="&#xfb6c;&#xfef2;" horiz-adv-x="779" 
d="M549 780l-91 64l57 83l90 -61zM493 654l-91 63l56 84l90 -62zM601 801l90 -62l-57 -85l-90 63zM696 67.5q20 -23.5 20 -54.5q-5 -61 -56 -106t-137.5 -69t-195.5 -24q-94 0 -158 26t-95.5 72t-31.5 105q0 29 4.5 58.5t11.5 53.5l81 28l9 -5q-11 -52 -11 -89q0 -48 19 -81
t65.5 -51t124.5 -18q68 0 127.5 9.5t99.5 26t52 38.5q0 19 -33.5 39t-129.5 42l28 88q73 16 131 53q4 13 7 44q-46 -11 -100 -11q-66 0 -99 31t-33 87q0 46 21.5 92t57 75.5t76.5 29.5q48 0 84.5 -34t56 -91t19.5 -123q0 -78 -21 -122.5t-67 -73.5q53 -22 73 -45.5z
M492.5 342q18.5 -10 55.5 -10q46 0 82 7q-4 32 -16 60t-30 45.5t-39 17.5q-18 0 -34.5 -12.5t-26.5 -33t-10 -42.5t18.5 -32zM327 -323l-55 -85l-91 63l56 84zM381 -261l90 -62l-56 -85l-90 63z" />
    <glyph glyph-name="uni06A40626.rlig" unicode="&#xfb6c;&#xfe8a;" horiz-adv-x="779" 
d="M549 780l-91 64l57 83l90 -61zM493 654l-91 63l56 84l90 -62zM601 801l90 -62l-57 -85l-90 63zM696 67.5q20 -23.5 20 -54.5q-5 -61 -56 -106t-137.5 -69t-195.5 -24q-94 0 -158 26t-95.5 72t-31.5 105q0 29 4.5 58.5t11.5 53.5l81 28l9 -5q-11 -52 -11 -89q0 -48 19 -81
t65.5 -51t124.5 -18q68 0 127.5 9.5t99.5 26t52 38.5q0 19 -33.5 39t-129.5 42l28 88q73 16 131 53q4 13 7 44q-46 -11 -100 -11q-66 0 -99 31t-33 87q0 46 21.5 92t57 75.5t76.5 29.5q48 0 84.5 -34t56 -91t19.5 -123q0 -78 -21 -122.5t-67 -73.5q53 -22 73 -45.5z
M492.5 342q18.5 -10 55.5 -10q46 0 82 7q-4 32 -16 60t-30 45.5t-39 17.5q-18 0 -34.5 -12.5t-26.5 -33t-10 -42.5t18.5 -32zM74 305q30 0 46 1q-10 13 -15 28.5t-5 31.5q0 37 22.5 59.5t62.5 22.5q34 0 72 -15l-16 -58q-30 10 -45 10q-17 0 -26.5 -10t-9.5 -25q0 -11 5 -22
t14 -19q62 4 89 7l5 -59q-79 -10 -193 -14z" />
    <glyph glyph-name="uniFC35.rlig" unicode="&#xfed7;&#xfef0;" horiz-adv-x="779" 
d="M487 654l-90 63l55 84l90 -62zM538 717l56 84l90 -62l-56 -85zM696 67.5q20 -23.5 20 -54.5q-5 -61 -56 -106t-137.5 -69t-195.5 -24q-94 0 -158 26t-95.5 72t-31.5 105q0 29 4.5 58.5t11.5 53.5l81 28l9 -5q-11 -52 -11 -89q0 -48 19 -81t65.5 -51t124.5 -18
q68 0 127.5 9.5t99.5 26t52 38.5q0 19 -33.5 39t-129.5 42l28 88q73 16 131 53q4 13 7 44q-46 -11 -100 -11q-66 0 -99 31t-33 87q0 46 21.5 92t57 75.5t76.5 29.5q48 0 84.5 -34t56 -91t19.5 -123q0 -78 -21 -122.5t-67 -73.5q53 -22 73 -45.5zM492.5 342
q18.5 -10 55.5 -10q46 0 82 7q-4 32 -16 60t-30 45.5t-39 17.5q-18 0 -34.5 -12.5t-26.5 -33t-10 -42.5t18.5 -32z" />
    <glyph glyph-name="uniFC36.rlig" unicode="&#xfed7;&#xfef2;" horiz-adv-x="779" 
d="M487 654l-90 63l55 84l90 -62zM538 717l56 84l90 -62l-56 -85zM696 67.5q20 -23.5 20 -54.5q-5 -61 -56 -106t-137.5 -69t-195.5 -24q-94 0 -158 26t-95.5 72t-31.5 105q0 29 4.5 58.5t11.5 53.5l81 28l9 -5q-11 -52 -11 -89q0 -48 19 -81t65.5 -51t124.5 -18
q68 0 127.5 9.5t99.5 26t52 38.5q0 19 -33.5 39t-129.5 42l28 88q73 16 131 53q4 13 7 44q-46 -11 -100 -11q-66 0 -99 31t-33 87q0 46 21.5 92t57 75.5t76.5 29.5q48 0 84.5 -34t56 -91t19.5 -123q0 -78 -21 -122.5t-67 -73.5q53 -22 73 -45.5zM492.5 342
q18.5 -10 55.5 -10q46 0 82 7q-4 32 -16 60t-30 45.5t-39 17.5q-18 0 -34.5 -12.5t-26.5 -33t-10 -42.5t18.5 -32zM327 -323l-55 -85l-91 63l56 84zM381 -261l90 -62l-56 -85l-90 63z" />
    <glyph glyph-name="uni06420626.rlig" unicode="&#xfed7;&#xfe8a;" horiz-adv-x="779" 
d="M487 654l-90 63l55 84l90 -62zM538 717l56 84l90 -62l-56 -85zM696 67.5q20 -23.5 20 -54.5q-5 -61 -56 -106t-137.5 -69t-195.5 -24q-94 0 -158 26t-95.5 72t-31.5 105q0 29 4.5 58.5t11.5 53.5l81 28l9 -5q-11 -52 -11 -89q0 -48 19 -81t65.5 -51t124.5 -18
q68 0 127.5 9.5t99.5 26t52 38.5q0 19 -33.5 39t-129.5 42l28 88q73 16 131 53q4 13 7 44q-46 -11 -100 -11q-66 0 -99 31t-33 87q0 46 21.5 92t57 75.5t76.5 29.5q48 0 84.5 -34t56 -91t19.5 -123q0 -78 -21 -122.5t-67 -73.5q53 -22 73 -45.5zM492.5 342
q18.5 -10 55.5 -10q46 0 82 7q-4 32 -16 60t-30 45.5t-39 17.5q-18 0 -34.5 -12.5t-26.5 -33t-10 -42.5t18.5 -32zM74 305q30 0 46 1q-10 13 -15 28.5t-5 31.5q0 37 22.5 59.5t62.5 22.5q34 0 72 -15l-16 -58q-30 10 -45 10q-17 0 -26.5 -10t-9.5 -25q0 -11 5 -22t14 -19
q62 4 89 7l5 -59q-79 -10 -193 -14z" />
    <glyph glyph-name="uniFC43.rlig" unicode="&#xfedf;&#xfef0;" horiz-adv-x="782" 
d="M699 178q-19 -41 -65 -70q46 -21 64 -43.5t18 -51.5q-5 -61 -56 -106t-137.5 -69t-195.5 -24q-94 0 -158 26t-95.5 72t-31.5 105q0 29 4.5 58.5t11.5 53.5l81 28l9 -5q-11 -52 -11 -89q0 -48 19 -81t65.5 -51t124.5 -18q68 0 127.5 9.5t99.5 26t52 38.5q0 19 -33.5 39
t-129.5 42l28 88l2 -1q39 8 68 16.5t53 23.5q7 32 7 84v397l90 23l8 -4v-419q0 -57 -19 -98z" />
    <glyph glyph-name="uniFC44.rlig" unicode="&#xfedf;&#xfef2;" horiz-adv-x="782" 
d="M699 178q-19 -41 -65 -70q46 -21 64 -43.5t18 -51.5q-5 -61 -56 -106t-137.5 -69t-195.5 -24q-94 0 -158 26t-95.5 72t-31.5 105q0 29 4.5 58.5t11.5 53.5l81 28l9 -5q-11 -52 -11 -89q0 -48 19 -81t65.5 -51t124.5 -18q68 0 127.5 9.5t99.5 26t52 38.5q0 19 -33.5 39
t-129.5 42l28 88l2 -1q39 8 68 16.5t53 23.5q7 32 7 84v397l90 23l8 -4v-419q0 -57 -19 -98zM327 -323l-55 -85l-91 63l56 84zM381 -261l90 -62l-56 -85l-90 63z" />
    <glyph glyph-name="uni06440626.rlig" unicode="&#xfedf;&#xfe8a;" horiz-adv-x="782" 
d="M699 178q-19 -41 -65 -70q46 -21 64 -43.5t18 -51.5q-5 -61 -56 -106t-137.5 -69t-195.5 -24q-94 0 -158 26t-95.5 72t-31.5 105q0 29 4.5 58.5t11.5 53.5l81 28l9 -5q-11 -52 -11 -89q0 -48 19 -81t65.5 -51t124.5 -18q68 0 127.5 9.5t99.5 26t52 38.5q0 19 -33.5 39
t-129.5 42l28 88l2 -1q39 8 68 16.5t53 23.5q7 32 7 84v397l90 23l8 -4v-419q0 -57 -19 -98zM74 305q30 0 46 1q-10 13 -15 28.5t-5 31.5q0 37 22.5 59.5t62.5 22.5q34 0 72 -15l-16 -58q-30 10 -45 10q-17 0 -26.5 -10t-9.5 -25q0 -11 5 -22t14 -19q62 4 89 7l5 -59
q-79 -10 -193 -14z" />
    <glyph glyph-name="uniFC4F.rlig" unicode="&#xfee7;&#xfef0;" horiz-adv-x="757" 
d="M586 471l-93 65l58 86l93 -64zM670.5 89q25.5 -17 35.5 -35.5t10 -40.5q-5 -61 -56 -106t-137.5 -69t-195.5 -24q-94 0 -158 26t-95.5 72t-31.5 105q0 29 4.5 58.5t11.5 53.5l81 28l9 -5q-11 -52 -11 -89q0 -48 19 -81t65.5 -51t124.5 -18q68 0 127.5 9.5t99.5 26
t52 38.5q0 19 -33.5 39t-129.5 42l28 88q60 22 87 44q-3 33 -16 68.5t-36 83.5l80 64h11q26 -62 39.5 -107t13.5 -76q0 -33 -16 -59.5t-53 -50.5q45 -17 70.5 -34z" />
    <glyph glyph-name="uniFC50.rlig" unicode="&#xfee7;&#xfef2;" horiz-adv-x="757" 
d="M586 471l-93 65l58 86l93 -64zM670.5 89q25.5 -17 35.5 -35.5t10 -40.5q-5 -61 -56 -106t-137.5 -69t-195.5 -24q-94 0 -158 26t-95.5 72t-31.5 105q0 29 4.5 58.5t11.5 53.5l81 28l9 -5q-11 -52 -11 -89q0 -48 19 -81t65.5 -51t124.5 -18q68 0 127.5 9.5t99.5 26
t52 38.5q0 19 -33.5 39t-129.5 42l28 88q60 22 87 44q-3 33 -16 68.5t-36 83.5l80 64h11q26 -62 39.5 -107t13.5 -76q0 -33 -16 -59.5t-53 -50.5q45 -17 70.5 -34zM327 -323l-55 -85l-91 63l56 84zM381 -261l90 -62l-56 -85l-90 63z" />
    <glyph glyph-name="uni06460626.rlig" unicode="&#xfee7;&#xfe8a;" horiz-adv-x="757" 
d="M586 471l-93 65l58 86l93 -64zM74 305q30 0 46 1q-10 13 -15 28.5t-5 31.5q0 37 22.5 59.5t62.5 22.5q34 0 72 -15l-16 -58q-30 10 -45 10q-17 0 -26.5 -10t-9.5 -25q0 -11 5 -22t14 -19q62 4 89 7l5 -59q-79 -10 -193 -14zM670.5 89q25.5 -17 35.5 -35.5t10 -40.5
q-5 -61 -56 -106t-137.5 -69t-195.5 -24q-94 0 -158 26t-95.5 72t-31.5 105q0 29 4.5 58.5t11.5 53.5l81 28l9 -5q-11 -52 -11 -89q0 -48 19 -81t65.5 -51t124.5 -18q68 0 127.5 9.5t99.5 26t52 38.5q0 19 -33.5 39t-129.5 42l28 88q60 22 87 44q-3 33 -16 68.5t-36 83.5
l80 64h11q26 -62 39.5 -107t13.5 -76q0 -33 -16 -59.5t-53 -50.5q45 -17 70.5 -34z" />
    <glyph glyph-name="uniFC59.rlig" unicode="&#xfef3;&#xfef0;" horiz-adv-x="757" 
d="M660 -93q-51 -45 -137.5 -69t-195.5 -24q-94 0 -158 26t-95.5 72t-31.5 105q0 29 4.5 58.5t11.5 53.5l81 28l9 -5q-11 -52 -11 -89q0 -48 19 -81t65.5 -51t124.5 -18q68 0 127.5 9.5t99.5 26t52 38.5q0 19 -33.5 39t-129.5 42l28 88q60 22 87 44q-3 33 -16 68.5t-36 83.5
l80 64h11q26 -62 39.5 -107t13.5 -76q0 -33 -16 -59.5t-53 -50.5q45 -17 70.5 -34t35.5 -35.5t10 -40.5q-5 -61 -56 -106zM639 -258l-55 -85l-91 63l56 84zM783 -258l-56 -85l-90 63l56 84z" />
    <glyph glyph-name="uniFC5A.rlig" unicode="&#xfef3;&#xfef2;" horiz-adv-x="757" 
d="M660 -93q-51 -45 -137.5 -69t-195.5 -24q-94 0 -158 26t-95.5 72t-31.5 105q0 29 4.5 58.5t11.5 53.5l81 28l9 -5q-11 -52 -11 -89q0 -48 19 -81t65.5 -51t124.5 -18q68 0 127.5 9.5t99.5 26t52 38.5q0 19 -33.5 39t-129.5 42l28 88q60 22 87 44q-3 33 -16 68.5t-36 83.5
l80 64h11q26 -62 39.5 -107t13.5 -76q0 -33 -16 -59.5t-53 -50.5q45 -17 70.5 -34t35.5 -35.5t10 -40.5q-5 -61 -56 -106zM639 -258l-55 -85l-91 63l56 84zM783 -258l-56 -85l-90 63l56 84zM327 -323l-55 -85l-91 63l56 84zM381 -261l90 -62l-56 -85l-90 63z" />
    <glyph glyph-name="uni064A0626.rlig" unicode="&#xfef3;&#xfe8a;" horiz-adv-x="757" 
d="M74 305q30 0 46 1q-10 13 -15 28.5t-5 31.5q0 37 22.5 59.5t62.5 22.5q34 0 72 -15l-16 -58q-30 10 -45 10q-17 0 -26.5 -10t-9.5 -25q0 -11 5 -22t14 -19q62 4 89 7l5 -59q-79 -10 -193 -14zM660 -93q-51 -45 -137.5 -69t-195.5 -24q-94 0 -158 26t-95.5 72t-31.5 105
q0 29 4.5 58.5t11.5 53.5l81 28l9 -5q-11 -52 -11 -89q0 -48 19 -81t65.5 -51t124.5 -18q68 0 127.5 9.5t99.5 26t52 38.5q0 19 -33.5 39t-129.5 42l28 88q60 22 87 44q-3 33 -16 68.5t-36 83.5l80 64h11q26 -62 39.5 -107t13.5 -76q0 -33 -16 -59.5t-53 -50.5
q45 -17 70.5 -34t35.5 -35.5t10 -40.5q-5 -61 -56 -106zM639 -258l-55 -85l-91 63l56 84zM783 -258l-56 -85l-90 63l56 84z" />
    <glyph glyph-name="uniFC03.rlig" unicode="&#xfe8b;&#xfef0;" horiz-adv-x="757" 
d="M466 575q30 0 46 1q-10 13 -15 28.5t-5 31.5q0 37 22.5 59.5t62.5 22.5q35 0 72 -15l-16 -58q-30 10 -45 10q-17 0 -26.5 -10t-9.5 -25q0 -11 5 -22t14 -19q62 4 89 7l5 -59q-79 -10 -193 -14zM670.5 89q25.5 -17 35.5 -35.5t10 -40.5q-5 -61 -56 -106t-137.5 -69
t-195.5 -24q-94 0 -158 26t-95.5 72t-31.5 105q0 29 4.5 58.5t11.5 53.5l81 28l9 -5q-11 -52 -11 -89q0 -48 19 -81t65.5 -51t124.5 -18q68 0 127.5 9.5t99.5 26t52 38.5q0 19 -33.5 39t-129.5 42l28 88q60 22 87 44q-3 33 -16 68.5t-36 83.5l80 64h11q26 -62 39.5 -107
t13.5 -76q0 -33 -16 -59.5t-53 -50.5q45 -17 70.5 -34z" />
    <glyph glyph-name="uniFC04.rlig" unicode="&#xfe8b;&#xfef2;" horiz-adv-x="757" 
d="M466 575q30 0 46 1q-10 13 -15 28.5t-5 31.5q0 37 22.5 59.5t62.5 22.5q35 0 72 -15l-16 -58q-30 10 -45 10q-17 0 -26.5 -10t-9.5 -25q0 -11 5 -22t14 -19q62 4 89 7l5 -59q-79 -10 -193 -14zM670.5 89q25.5 -17 35.5 -35.5t10 -40.5q-5 -61 -56 -106t-137.5 -69
t-195.5 -24q-94 0 -158 26t-95.5 72t-31.5 105q0 29 4.5 58.5t11.5 53.5l81 28l9 -5q-11 -52 -11 -89q0 -48 19 -81t65.5 -51t124.5 -18q68 0 127.5 9.5t99.5 26t52 38.5q0 19 -33.5 39t-129.5 42l28 88q60 22 87 44q-3 33 -16 68.5t-36 83.5l80 64h11q26 -62 39.5 -107
t13.5 -76q0 -33 -16 -59.5t-53 -50.5q45 -17 70.5 -34zM327 -323l-55 -85l-91 63l56 84zM381 -261l90 -62l-56 -85l-90 63z" />
    <glyph glyph-name="uni06260626.rlig" unicode="&#xfe8b;&#xfe8a;" horiz-adv-x="757" 
d="M466 575q30 0 46 1q-10 13 -15 28.5t-5 31.5q0 37 22.5 59.5t62.5 22.5q35 0 72 -15l-16 -58q-30 10 -45 10q-17 0 -26.5 -10t-9.5 -25q0 -11 5 -22t14 -19q62 4 89 7l5 -59q-79 -10 -193 -14zM74 305q30 0 46 1q-10 13 -15 28.5t-5 31.5q0 37 22.5 59.5t62.5 22.5
q34 0 72 -15l-16 -58q-30 10 -45 10q-17 0 -26.5 -10t-9.5 -25q0 -11 5 -22t14 -19q62 4 89 7l5 -59q-79 -10 -193 -14zM670.5 89q25.5 -17 35.5 -35.5t10 -40.5q-5 -61 -56 -106t-137.5 -69t-195.5 -24q-94 0 -158 26t-95.5 72t-31.5 105q0 29 4.5 58.5t11.5 53.5l81 28
l9 -5q-11 -52 -11 -89q0 -48 19 -81t65.5 -51t124.5 -18q68 0 127.5 9.5t99.5 26t52 38.5q0 19 -33.5 39t-129.5 42l28 88q60 22 87 44q-3 33 -16 68.5t-36 83.5l80 64h11q26 -62 39.5 -107t13.5 -76q0 -33 -16 -59.5t-53 -50.5q45 -17 70.5 -34z" />
    <glyph glyph-name="uniFE8E" unicode="&#x627;" horiz-adv-x="248" arabic-form="final" 
d="M110.5 42q-47.5 42 -47.5 140v481l91 24l8 -5v-491q0 -37 10.5 -56.5t34 -27.5t64.5 -8q22 0 31 -8.5t9 -24.5q0 -29 -14.5 -47.5t-48.5 -18.5q-90 0 -137.5 42z" />
    <glyph glyph-name="uniFE84" unicode="&#x623;" horiz-adv-x="248" arabic-form="final" 
d="M110.5 42q-47.5 42 -47.5 140v481l91 24l8 -5v-491q0 -37 10.5 -56.5t34 -27.5t64.5 -8q22 0 31 -8.5t9 -24.5q0 -29 -14.5 -47.5t-48.5 -18.5q-90 0 -137.5 42zM208 758q-79 -10 -193 -14l-6 62q30 0 46 1q-10 13 -15 28.5t-5 31.5q0 37 22.5 59.5t62.5 22.5
q34 0 72 -15l-16 -58q-30 10 -45 10q-17 0 -26.5 -10t-9.5 -25q0 -11 5 -22t14 -19q62 4 89 7z" />
    <glyph glyph-name="uniFE88" unicode="&#x625;" horiz-adv-x="248" arabic-form="final" 
d="M110.5 42q-47.5 42 -47.5 140v481l91 24l8 -5v-491q0 -37 10.5 -56.5t34 -27.5t64.5 -8q22 0 31 -8.5t9 -24.5q0 -29 -14.5 -47.5t-48.5 -18.5q-90 0 -137.5 42zM215 -250q-79 -10 -193 -14l-6 61q30 0 46 1q-9 13 -14.5 29t-5.5 32q0 37 22.5 59.5t62.5 22.5
q35 0 72 -15l-16 -58q-30 10 -45 10q-17 0 -26.5 -10t-9.5 -25q0 -11 5.5 -22.5t14.5 -19.5q62 4 88 7z" />
    <glyph glyph-name="uniFE82" unicode="&#x622;" horiz-adv-x="248" arabic-form="final" 
d="M110.5 42q-47.5 42 -47.5 140v481l91 24l8 -5v-491q0 -37 10.5 -56.5t34 -27.5t64.5 -8q22 0 31 -8.5t9 -24.5q0 -29 -14.5 -47.5t-48.5 -18.5q-90 0 -137.5 42zM162.5 734.5q-13.5 3.5 -29.5 9.5q-18 6 -29.5 9t-28.5 3q-36 0 -77 -26l-31 50q26 24 50.5 34t48.5 10
q18 0 33 -3.5t32 -9.5q15 -5 32.5 -9t35.5 -4q24 0 44 8l21 -58q-33 -17 -69 -17q-19 0 -32.5 3.5z" />
    <glyph glyph-name="uniFB51" unicode="&#x671;" horiz-adv-x="248" arabic-form="final" 
d="M110.5 42q-47.5 42 -47.5 140v481l91 24l8 -5v-491q0 -37 10.5 -56.5t34 -27.5t64.5 -8q22 0 31 -8.5t9 -24.5q0 -29 -14.5 -47.5t-48.5 -18.5q-90 0 -137.5 42zM199 853q12 -8 18.5 -21t6.5 -27q0 -28 -20.5 -46t-70.5 -18q-37 0 -60 5t-39 13q-22 -17 -56 -17l9 37
q12 0 18 2t12 8q8 11 18 45l40 5l3 -2q-12 -33 -22 -50q3 0 9 -1.5t11 -1.5q32 41 52.5 59t42.5 18q16 0 28 -8zM189 797q0 11 -5 18t-15 7q-11 0 -23 -10t-32 -32h19q17 0 33.5 1.5t21.5 4.5q1 4 1 11z" />
    <glyph glyph-name="uni066E.init" unicode="&#x66e;" horiz-adv-x="285" 
d="M23 99h9q80 0 102 10q3 11 3 24q0 30 -14 68t-40 92l82 64h10q25 -51 39 -104t14 -87q0 -36 -13 -69.5t-37 -57.5q-23 -22 -59 -30.5t-108 -8.5h-11z" />
    <glyph glyph-name="uni066E.medi" unicode="&#x66e;" horiz-adv-x="324" 
d="M378 90.5q9 -8.5 9 -24.5q0 -28 -14 -47t-49 -19q-38 0 -79 12t-70 36q-27 -24 -65 -36t-90 -12h-20l23 99h20q60 0 82 16q9 16 18.5 50.5t23.5 96.5l100 24l10 -7q-12 -52 -23 -89t-25 -66q48 -25 118 -25q22 0 31 -8.5z" />
    <glyph glyph-name="uni066E.fina" unicode="&#x66e;" horiz-adv-x="875" 
d="M929 90.5q9 -8.5 9 -24.5q0 -28 -14 -47t-49 -19q-38 0 -79 12t-70 37q-7 -7 -21 -17q-30 -19 -109 -31t-150 -12h-65q-168 0 -253.5 44.5t-85.5 140.5q0 63 16 116l73 28l8 -5q-9 -49 -9 -87q0 -55 30.5 -85t91 -42t160.5 -12h63q54 0 113.5 6.5t84.5 17.5
q11 24 23.5 66t21.5 85l100 24l10 -7q-22 -93 -51 -154q50 -26 121 -26q22 0 31 -8.5z" />
    <glyph glyph-name="uniFE90" unicode="&#x628;" horiz-adv-x="875" arabic-form="final" 
d="M929 90.5q9 -8.5 9 -24.5q0 -28 -14 -47t-49 -19q-38 0 -79 12t-70 37q-7 -7 -21 -17q-30 -19 -109 -31t-150 -12h-65q-168 0 -253.5 44.5t-85.5 140.5q0 63 16 116l73 28l8 -5q-9 -49 -9 -87q0 -55 30.5 -85t91 -42t160.5 -12h63q54 0 113.5 6.5t84.5 17.5
q11 24 23.5 66t21.5 85l100 24l10 -7q-22 -93 -51 -154q50 -26 121 -26q22 0 31 -8.5zM430 -236l-93 65l58 85l93 -63z" />
    <glyph glyph-name="uniFE92" unicode="&#x628;" horiz-adv-x="324" arabic-form="medial" 
d="M378 90.5q9 -8.5 9 -24.5q0 -28 -14 -47t-49 -19q-38 0 -79 12t-70 36q-27 -24 -65 -36t-90 -12h-20l23 99h20q60 0 82 16q9 16 18.5 50.5t23.5 96.5l100 24l10 -7q-12 -52 -23 -89t-25 -66q48 -25 118 -25q22 0 31 -8.5zM195 -225l-93 65l58 85l93 -63z" />
    <glyph glyph-name="uniFE91" unicode="&#x628;" horiz-adv-x="285" arabic-form="initial" 
d="M23 99h9q80 0 102 10q3 11 3 24q0 30 -14 68t-40 92l82 64h10q25 -51 39 -104t14 -87q0 -36 -13 -69.5t-37 -57.5q-23 -22 -59 -30.5t-108 -8.5h-11zM157 -225l-93 65l58 85l93 -63z" />
    <glyph glyph-name="uniFB57" unicode="&#x67e;" horiz-adv-x="875" arabic-form="final" 
d="M929 90.5q9 -8.5 9 -24.5q0 -28 -14 -47t-49 -19q-38 0 -79 12t-70 37q-7 -7 -21 -17q-30 -19 -109 -31t-150 -12h-65q-168 0 -253.5 44.5t-85.5 140.5q0 63 16 116l73 28l8 -5q-9 -49 -9 -87q0 -55 30.5 -85t91 -42t160.5 -12h63q54 0 113.5 6.5t84.5 17.5
q11 24 23.5 66t21.5 85l100 24l10 -7q-22 -93 -51 -154q50 -26 121 -26q22 0 31 -8.5zM360 -231l-90 62l57 85l90 -64zM503 -231l-89 62l54 85l91 -64zM445 -346l-91 61l57 86l90 -64z" />
    <glyph glyph-name="uniFB59" unicode="&#x67e;" horiz-adv-x="347" arabic-form="medial" 
d="M401 90.5q9 -8.5 9 -24.5q0 -28 -13.5 -47t-48.5 -19q-53 0 -98 11.5t-74 35.5q-26 -24 -60.5 -35.5t-81.5 -11.5h-34l23 99h27q22 0 42 4t31 12q19 36 42 147l100 24l10 -7q-12 -51 -23 -88.5t-24 -66.5q48 -25 142 -25q22 0 31 -8.5zM128 -220l-90 62l57 85l90 -64z
M271 -220l-89 62l54 85l91 -64zM213 -335l-91 61l57 86l90 -64z" />
    <glyph glyph-name="uniFB58" unicode="&#x67e;" horiz-adv-x="305" arabic-form="initial" 
d="M23 99h29q80 0 102 10q4 11 4 27q0 30 -14 68.5t-38 88.5l79 64h10q24 -53 38.5 -105.5t14.5 -85.5q0 -36 -13 -70t-37 -57q-23 -22 -59 -30.5t-108 -8.5h-31zM100 -220l-90 62l57 85l90 -64zM243 -220l-89 62l54 85l91 -64zM185 -335l-91 61l57 86l90 -64z" />
    <glyph glyph-name="uniFE96" unicode="&#x62a;" horiz-adv-x="875" arabic-form="final" 
d="M929 90.5q9 -8.5 9 -24.5q0 -28 -14 -47t-49 -19q-38 0 -79 12t-70 37q-7 -7 -21 -17q-30 -19 -109 -31t-150 -12h-65q-168 0 -253.5 44.5t-85.5 140.5q0 63 16 116l73 28l8 -5q-9 -49 -9 -87q0 -55 30.5 -85t91 -42t160.5 -12h63q54 0 113.5 6.5t84.5 17.5
q11 24 23.5 66t21.5 85l100 24l10 -7q-22 -93 -51 -154q50 -26 121 -26q22 0 31 -8.5zM396 386l-90 63l55 84l90 -62zM537 386l-90 63l56 84l90 -62z" />
    <glyph glyph-name="uniFE98" unicode="&#x62a;" horiz-adv-x="347" arabic-form="medial" 
d="M401 90.5q9 -8.5 9 -24.5q0 -28 -13.5 -47t-48.5 -19q-53 0 -98 11.5t-74 35.5q-26 -24 -60.5 -35.5t-81.5 -11.5h-34l23 99h27q22 0 42 4t31 12q19 36 42 147l100 24l10 -7q-12 -51 -23 -88.5t-24 -66.5q48 -25 142 -25q22 0 31 -8.5zM163 393l-90 63l55 84l90 -62z
M304 393l-90 63l56 84l90 -62z" />
    <glyph glyph-name="uniFE97" unicode="&#x62a;" horiz-adv-x="305" arabic-form="initial" 
d="M23 99h29q80 0 102 10q4 11 4 27q0 30 -14 68.5t-38 88.5l79 64h10q24 -53 38.5 -105.5t14.5 -85.5q0 -36 -13 -70t-37 -57q-23 -22 -59 -30.5t-108 -8.5h-31zM102 456l-90 63l55 84l90 -62zM243 456l-90 63l56 84l90 -62z" />
    <glyph glyph-name="uniFE9A" unicode="&#x62b;" horiz-adv-x="875" arabic-form="final" 
d="M929 90.5q9 -8.5 9 -24.5q0 -28 -14 -47t-49 -19q-38 0 -79 12t-70 37q-7 -7 -21 -17q-30 -19 -109 -31t-150 -12h-65q-168 0 -253.5 44.5t-85.5 140.5q0 63 16 116l73 28l8 -5q-9 -49 -9 -87q0 -55 30.5 -85t91 -42t160.5 -12h63q54 0 113.5 6.5t84.5 17.5
q11 24 23.5 66t21.5 85l100 24l10 -7q-22 -93 -51 -154q50 -26 121 -26q22 0 31 -8.5zM458 512l-91 64l57 83l90 -61zM402 386l-91 63l56 84l90 -62zM543 386l-90 63l57 84l90 -62z" />
    <glyph glyph-name="uniFE9C" unicode="&#x62b;" horiz-adv-x="347" arabic-form="medial" 
d="M401 90.5q9 -8.5 9 -24.5q0 -28 -13.5 -47t-48.5 -19q-53 0 -98 11.5t-74 35.5q-26 -24 -60.5 -35.5t-81.5 -11.5h-34l23 99h27q22 0 42 4t31 12q19 36 42 147l100 24l10 -7q-12 -51 -23 -88.5t-24 -66.5q48 -25 142 -25q22 0 31 -8.5zM225 519l-91 64l57 83l90 -61z
M169 393l-91 63l56 84l90 -62zM310 393l-90 63l57 84l90 -62z" />
    <glyph glyph-name="uniFE9B" unicode="&#x62b;" horiz-adv-x="305" arabic-form="initial" 
d="M23 99h29q80 0 102 10q4 11 4 27q0 30 -14 68.5t-38 88.5l79 64h10q24 -53 38.5 -105.5t14.5 -85.5q0 -36 -13 -70t-37 -57q-23 -22 -59 -30.5t-108 -8.5h-31zM164 582l-91 64l57 83l90 -61zM108 456l-91 63l56 84l90 -62zM249 456l-90 63l57 84l90 -62z" />
    <glyph glyph-name="uniFB67" unicode="&#x679;" horiz-adv-x="875" arabic-form="final" 
d="M929 90.5q9 -8.5 9 -24.5q0 -28 -14 -47t-49 -19q-38 0 -79 12t-70 37q-7 -7 -21 -17q-30 -19 -109 -31t-150 -12h-65q-168 0 -253.5 44.5t-85.5 140.5q0 63 16 116l73 28l8 -5q-9 -49 -9 -87q0 -55 30.5 -85t91 -42t160.5 -12h63q54 0 113.5 6.5t84.5 17.5
q11 24 23.5 66t21.5 85l100 24l10 -7q-22 -93 -51 -154q50 -26 121 -26q22 0 31 -8.5zM536 565q18 -12 29 -31.5t11 -41.5q0 -42 -31 -69t-106 -27q-64 0 -108 2l-18 53l3 6h36l16 20v172h58v-106q19 17 36 25.5t36 8.5q20 0 38 -12zM527 476q0 17 -9.5 29t-23.5 12
q-16 0 -35.5 -15t-48.5 -46h32q25 0 50.5 1.5t32.5 4.5q2 10 2 14z" />
    <glyph glyph-name="uniFB69" unicode="&#x679;" horiz-adv-x="347" arabic-form="medial" 
d="M401 90.5q9 -8.5 9 -24.5q0 -28 -13.5 -47t-48.5 -19q-53 0 -98 11.5t-74 35.5q-26 -24 -60.5 -35.5t-81.5 -11.5h-34l23 99h27q22 0 42 4t31 12q19 36 42 147l100 24l10 -7q-12 -51 -23 -88.5t-24 -66.5q48 -25 142 -25q22 0 31 -8.5zM303 572q18 -12 29 -31.5t11 -41.5
q0 -42 -31 -69t-106 -27q-64 0 -108 2l-18 53l3 6h36l16 20v172h58v-106q19 17 36 25.5t36 8.5q20 0 38 -12zM294 483q0 17 -9.5 29t-23.5 12q-16 0 -35.5 -15t-48.5 -46h32q25 0 50.5 1.5t32.5 4.5q2 10 2 14z" />
    <glyph glyph-name="uniFB68" unicode="&#x679;" horiz-adv-x="305" arabic-form="initial" 
d="M23 99h29q80 0 102 10q4 11 4 27q0 30 -14 68.5t-38 88.5l79 64h10q24 -53 38.5 -105.5t14.5 -85.5q0 -36 -13 -70t-37 -57q-23 -22 -59 -30.5t-108 -8.5h-31zM242 635q18 -12 29 -31.5t11 -41.5q0 -42 -31 -69t-106 -27q-64 0 -108 2l-18 53l3 6h36l16 20v172h58v-106
q19 17 36 25.5t36 8.5q20 0 38 -12zM233 546q0 17 -9.5 29t-23.5 12q-16 0 -35.5 -15t-48.5 -46h32q25 0 50.5 1.5t32.5 4.5q2 10 2 14z" />
    <glyph glyph-name="uniFE9E" unicode="&#x62c;" horiz-adv-x="686" arabic-form="final" 
d="M740 90.5q9 -8.5 9 -24.5q0 -28 -14 -47t-49 -19q-62 0 -108 15.5t-80.5 53.5t-57.5 103q-91 -23 -160.5 -68.5t-107.5 -105.5t-38 -125q0 -61 35 -103.5t99 -64.5t152 -22q48 0 99.5 8t100.5 24l6 -6l-28 -82q-32 -19 -88.5 -31t-116.5 -12q-103 0 -182.5 31.5
t-124 90.5t-44.5 138q0 81 43 155.5t114 133.5t156 98l-10 3q-55 16 -91 22.5t-67 6.5q-34 0 -69.5 -6t-64.5 -16l-4 5l36 88q21 11 51.5 17.5t58.5 6.5q27 0 57 -5.5t78 -19.5q79 -24 143 -33.5t137 -9.5l-24 -98q-40 -2 -61 -4q16 -33 39 -52.5t58 -28t87 -8.5
q22 0 31 -8.5zM379 -182l-92 66l58 85l93 -63z" />
    <glyph glyph-name="uniFEA0" unicode="&#x62c;" horiz-adv-x="617" arabic-form="medial" 
d="M671.5 90.5q8.5 -8.5 8.5 -24.5q0 -66 -61 -66q-73 0 -120 11.5t-75.5 34t-47.5 57.5q-33 -11 -79 -30q-99 -41 -164 -57t-133 -16l22 99q61 0 113.5 10t133.5 38q71 24 123 36l-21 10t-32 16q-60 30 -97 42t-70 12q-27 0 -53 -5t-53 -14l-4 4l36 90q18 9 42 14.5t47 5.5
q30 0 67.5 -13t99.5 -44q74 -37 122 -52.5t91 -17.5l-19 -89q-46 -4 -80 -12q22 -18 61 -24.5t112 -6.5q22 0 30.5 -8.5zM277 -225l-93 65l58 85l93 -63z" />
    <glyph glyph-name="uniFE9F" unicode="&#x62c;" horiz-adv-x="597" arabic-form="initial" 
d="M487.5 236.5q43.5 -16.5 78.5 -18.5l-25 -93q-115 -13 -268 -66q-98 -33 -158 -46t-115 -13l22 99q55 0 105.5 8.5t135.5 33.5q79 23 135 35q-24 11 -60 30q-57 32 -94.5 44.5t-71.5 12.5q-27 0 -53 -5t-53 -14l-4 5l36 89q18 9 42 14.5t47 5.5q33 0 71.5 -14.5
t110.5 -52.5q75 -38 118.5 -54.5zM280 -225l-93 65l58 85l93 -63z" />
    <glyph glyph-name="uniFB7B" unicode="&#x686;" horiz-adv-x="686" arabic-form="final" 
d="M740 90.5q9 -8.5 9 -24.5q0 -28 -14 -47t-49 -19q-62 0 -108 15.5t-80.5 53.5t-57.5 103q-91 -23 -160.5 -68.5t-107.5 -105.5t-38 -125q0 -61 35 -103.5t99 -64.5t152 -22q48 0 99.5 8t100.5 24l6 -6l-28 -82q-32 -19 -88.5 -31t-116.5 -12q-103 0 -182.5 31.5
t-124 90.5t-44.5 138q0 81 43 155.5t114 133.5t156 98l-10 3q-55 16 -91 22.5t-67 6.5q-34 0 -69.5 -6t-64.5 -16l-4 5l36 88q21 11 51.5 17.5t58.5 6.5q27 0 57 -5.5t78 -19.5q79 -24 143 -33.5t137 -9.5l-24 -98q-40 -2 -61 -4q16 -33 39 -52.5t58 -28t87 -8.5
q22 0 31 -8.5zM326 -130l-86 58l53 81l86 -60zM466 -130l-84 58l51 81l86 -60zM410 -249l-86 57l54 83l85 -62z" />
    <glyph glyph-name="uniFB7D" unicode="&#x686;" horiz-adv-x="617" arabic-form="medial" 
d="M671.5 90.5q8.5 -8.5 8.5 -24.5q0 -66 -61 -66q-73 0 -120 11.5t-75.5 34t-47.5 57.5q-33 -11 -79 -30q-99 -41 -164 -57t-133 -16l22 99q61 0 113.5 10t133.5 38q71 24 123 36l-21 10t-32 16q-60 30 -97 42t-70 12q-27 0 -53 -5t-53 -14l-4 4l36 90q18 9 42 14.5t47 5.5
q30 0 67.5 -13t99.5 -44q74 -37 122 -52.5t91 -17.5l-19 -89q-46 -4 -80 -12q22 -18 61 -24.5t112 -6.5q22 0 30.5 -8.5zM207 -220l-90 62l57 85l90 -64zM350 -220l-89 62l54 85l91 -64zM292 -335l-91 61l57 86l90 -64z" />
    <glyph glyph-name="uniFB7C" unicode="&#x686;" horiz-adv-x="597" arabic-form="initial" 
d="M487.5 236.5q43.5 -16.5 78.5 -18.5l-25 -93q-115 -13 -268 -66q-98 -33 -158 -46t-115 -13l22 99q55 0 105.5 8.5t135.5 33.5q79 23 135 35q-24 11 -60 30q-57 32 -94.5 44.5t-71.5 12.5q-27 0 -53 -5t-53 -14l-4 5l36 89q18 9 42 14.5t47 5.5q33 0 71.5 -14.5
t110.5 -52.5q75 -38 118.5 -54.5zM210 -220l-90 62l57 85l90 -64zM353 -220l-89 62l54 85l91 -64zM295 -335l-91 61l57 86l90 -64z" />
    <glyph glyph-name="uniFEA2" unicode="&#x62d;" horiz-adv-x="686" arabic-form="final" 
d="M740 90.5q9 -8.5 9 -24.5q0 -28 -14 -47t-49 -19q-62 0 -108 15.5t-80.5 53.5t-57.5 103q-91 -23 -160.5 -68.5t-107.5 -105.5t-38 -125q0 -61 35 -103.5t99 -64.5t152 -22q48 0 99.5 8t100.5 24l6 -6l-28 -82q-32 -19 -88.5 -31t-116.5 -12q-103 0 -182.5 31.5
t-124 90.5t-44.5 138q0 81 43 155.5t114 133.5t156 98l-10 3q-55 16 -91 22.5t-67 6.5q-34 0 -69.5 -6t-64.5 -16l-4 5l36 88q21 11 51.5 17.5t58.5 6.5q27 0 57 -5.5t78 -19.5q79 -24 143 -33.5t137 -9.5l-24 -98q-40 -2 -61 -4q16 -33 39 -52.5t58 -28t87 -8.5
q22 0 31 -8.5z" />
    <glyph glyph-name="uniFEA4" unicode="&#x62d;" horiz-adv-x="617" arabic-form="medial" 
d="M671.5 90.5q8.5 -8.5 8.5 -24.5q0 -66 -61 -66q-73 0 -120 11.5t-75.5 34t-47.5 57.5q-33 -11 -79 -30q-99 -41 -164 -57t-133 -16l22 99q61 0 113.5 10t133.5 38q71 24 123 36l-21 10t-32 16q-60 30 -97 42t-70 12q-27 0 -53 -5t-53 -14l-4 4l36 90q18 9 42 14.5t47 5.5
q30 0 67.5 -13t99.5 -44q74 -37 122 -52.5t91 -17.5l-19 -89q-46 -4 -80 -12q22 -18 61 -24.5t112 -6.5q22 0 30.5 -8.5z" />
    <glyph glyph-name="uniFEA3" unicode="&#x62d;" horiz-adv-x="597" arabic-form="initial" 
d="M487.5 236.5q43.5 -16.5 78.5 -18.5l-25 -93q-115 -13 -268 -66q-98 -33 -158 -46t-115 -13l22 99q55 0 105.5 8.5t135.5 33.5q79 23 135 35q-24 11 -60 30q-57 32 -94.5 44.5t-71.5 12.5q-27 0 -53 -5t-53 -14l-4 5l36 89q18 9 42 14.5t47 5.5q33 0 71.5 -14.5
t110.5 -52.5q75 -38 118.5 -54.5z" />
    <glyph glyph-name="uniFEA6" unicode="&#x62e;" horiz-adv-x="686" arabic-form="final" 
d="M740 90.5q9 -8.5 9 -24.5q0 -28 -14 -47t-49 -19q-62 0 -108 15.5t-80.5 53.5t-57.5 103q-91 -23 -160.5 -68.5t-107.5 -105.5t-38 -125q0 -61 35 -103.5t99 -64.5t152 -22q48 0 99.5 8t100.5 24l6 -6l-28 -82q-32 -19 -88.5 -31t-116.5 -12q-103 0 -182.5 31.5
t-124 90.5t-44.5 138q0 81 43 155.5t114 133.5t156 98l-10 3q-55 16 -91 22.5t-67 6.5q-34 0 -69.5 -6t-64.5 -16l-4 5l36 88q21 11 51.5 17.5t58.5 6.5q27 0 57 -5.5t78 -19.5q79 -24 143 -33.5t137 -9.5l-24 -98q-40 -2 -61 -4q16 -33 39 -52.5t58 -28t87 -8.5
q22 0 31 -8.5zM343 463l-93 65l58 86l93 -64z" />
    <glyph glyph-name="uniFEA8" unicode="&#x62e;" horiz-adv-x="617" arabic-form="medial" 
d="M671.5 90.5q8.5 -8.5 8.5 -24.5q0 -66 -61 -66q-73 0 -120 11.5t-75.5 34t-47.5 57.5q-33 -11 -79 -30q-99 -41 -164 -57t-133 -16l22 99q61 0 113.5 10t133.5 38q71 24 123 36l-21 10t-32 16q-60 30 -97 42t-70 12q-27 0 -53 -5t-53 -14l-4 4l36 90q18 9 42 14.5t47 5.5
q30 0 67.5 -13t99.5 -44q74 -37 122 -52.5t91 -17.5l-19 -89q-46 -4 -80 -12q22 -18 61 -24.5t112 -6.5q22 0 30.5 -8.5zM203 463l-93 65l58 86l93 -64z" />
    <glyph glyph-name="uniFEA7" unicode="&#x62e;" horiz-adv-x="597" arabic-form="initial" 
d="M487.5 236.5q43.5 -16.5 78.5 -18.5l-25 -93q-115 -13 -268 -66q-98 -33 -158 -46t-115 -13l22 99q55 0 105.5 8.5t135.5 33.5q79 23 135 35q-24 11 -60 30q-57 32 -94.5 44.5t-71.5 12.5q-27 0 -53 -5t-53 -14l-4 5l36 89q18 9 42 14.5t47 5.5q33 0 71.5 -14.5
t110.5 -52.5q75 -38 118.5 -54.5zM203 463l-93 65l58 86l93 -64z" />
    <glyph glyph-name="uniFEAA" unicode="&#x62f;" horiz-adv-x="473" arabic-form="final" 
d="M536 66q0 -28 -15 -47t-50 -19q-43 0 -70.5 11t-47.5 39q-31 -28 -83.5 -42.5t-122.5 -14.5q-22 0 -56.5 3t-58.5 9l14 94l5 4q22 -5 52.5 -7t53.5 -2q44 0 87 7.5t69 21.5l-1 1l-23 45l-46.5 90t-57.5 106l73 80h9l59 -135l52 -116q19 -41 34.5 -61t33.5 -27t48 -7
q42 0 42 -33z" />
    <glyph glyph-name="uniFEAC" unicode="&#x630;" horiz-adv-x="473" arabic-form="final" 
d="M536 66q0 -28 -15 -47t-50 -19q-43 0 -70.5 11t-47.5 39q-31 -28 -83.5 -42.5t-122.5 -14.5q-22 0 -56.5 3t-58.5 9l14 94l5 4q22 -5 52.5 -7t53.5 -2q44 0 87 7.5t69 21.5l-1 1l-23 45l-46.5 90t-57.5 106l73 80h9l59 -135l52 -116q19 -41 34.5 -61t33.5 -27t48 -7
q42 0 42 -33zM264 550l-93 65l58 86l93 -64z" />
    <glyph glyph-name="uniFB89" unicode="&#x688;" horiz-adv-x="473" arabic-form="final" 
d="M536 66q0 -28 -15 -47t-50 -19q-43 0 -70.5 11t-47.5 39q-31 -28 -83.5 -42.5t-122.5 -14.5q-22 0 -56.5 3t-58.5 9l14 94l5 4q22 -5 52.5 -7t53.5 -2q44 0 87 7.5t69 21.5l-1 1l-23 45l-46.5 90t-57.5 106l73 80h9l59 -135l52 -116q19 -41 34.5 -61t33.5 -27t48 -7
q42 0 42 -33zM331 731q18 -12 29 -31.5t11 -41.5q0 -42 -31 -69t-106 -27q-64 0 -108 2l-18 53l3 6h36l16 20v172h58v-106q19 17 36 25.5t36 8.5q20 0 38 -12zM322 642q0 17 -9.5 29t-23.5 12q-16 0 -35.5 -15t-48.5 -46h32q25 0 50.5 1.5t32.5 4.5q2 10 2 14z" />
    <glyph glyph-name="uniFEAE" unicode="&#x631;" horiz-adv-x="363" arabic-form="final" 
d="M417 90.5q9 -8.5 9 -24.5q0 -28 -14 -47t-49 -19q-51 0 -83 22q-17 -48 -58.5 -89t-103 -70.5t-138.5 -42.5l-53 73l6 9q124 23 192.5 70.5t89.5 106.5q-23 59 -76 164l72 79h11l41 -111l11 -29q14 -37 26.5 -54t31 -23t53.5 -6q23 0 32 -8.5z" />
    <glyph glyph-name="uniFEB0" unicode="&#x632;" horiz-adv-x="363" arabic-form="final" 
d="M417 90.5q9 -8.5 9 -24.5q0 -28 -14 -47t-49 -19q-51 0 -83 22q-17 -48 -58.5 -89t-103 -70.5t-138.5 -42.5l-53 73l6 9q124 23 192.5 70.5t89.5 106.5q-23 59 -76 164l72 79h11l41 -111l11 -29q14 -37 26.5 -54t31 -23t53.5 -6q23 0 32 -8.5zM214 427l-93 65l58 86
l93 -64z" />
    <glyph glyph-name="uniFB8D" unicode="&#x691;" horiz-adv-x="363" arabic-form="final" 
d="M417 90.5q9 -8.5 9 -24.5q0 -28 -14 -47t-49 -19q-51 0 -83 22q-17 -48 -58.5 -89t-103 -70.5t-138.5 -42.5l-53 73l6 9q124 23 192.5 70.5t89.5 106.5q-23 59 -76 164l72 79h11l41 -111l11 -29q14 -37 26.5 -54t31 -23t53.5 -6q23 0 32 -8.5zM281 608q18 -12 29 -31.5
t11 -41.5q0 -42 -31 -69t-106 -27q-64 0 -108 2l-18 53l3 6h36l16 20v172h58v-106q19 17 36 25.5t36 8.5q20 0 38 -12zM272 519q0 17 -9.5 29t-23.5 12q-16 0 -35.5 -15t-48.5 -46h32q25 0 50.5 1.5t32.5 4.5q2 10 2 14z" />
    <glyph glyph-name="uniFB8B" unicode="&#x698;" horiz-adv-x="363" arabic-form="final" 
d="M417 90.5q9 -8.5 9 -24.5q0 -28 -14 -47t-49 -19q-51 0 -83 22q-17 -48 -58.5 -89t-103 -70.5t-138.5 -42.5l-53 73l6 9q124 23 192.5 70.5t89.5 106.5q-23 59 -76 164l72 79h11l41 -111l11 -29q14 -37 26.5 -54t31 -23t53.5 -6q23 0 32 -8.5zM203 555l-91 64l57 83
l90 -61zM147 429l-91 63l56 84l90 -62zM288 429l-90 63l57 84l90 -62z" />
    <glyph glyph-name="uniFEB2" unicode="&#x633;" horiz-adv-x="1128" arabic-form="final" 
d="M1182 90.5q9 -8.5 9 -24.5q0 -28 -14 -47t-49 -19q-36 0 -74.5 10.5t-67.5 32.5q-44 -43 -123 -43q-67 0 -120 25q-34 -25 -88 -25q-19 0 -39.5 6t-38.5 17q-14 -72 -56 -118.5t-103.5 -68.5t-136.5 -22q-76 0 -130 26t-81.5 72.5t-27.5 108.5q0 30 5 63.5t12 52.5l75 28
l9 -4q-9 -52 -9 -93q0 -75 37.5 -115t129.5 -40q125 0 182 73q9 22 9 48q0 38 -14.5 80.5t-43.5 106.5l87 62h6q3 -6 13 -39q8 -26 18 -53.5t18 -41.5q13 -26 33.5 -38t49.5 -12q13 0 25 2.5t19 7.5q7 9 17.5 43l21.5 72l100 16l4 -4q-28 -87 -45 -127q38 -10 72 -10
q18 0 35 3.5t28 9.5q5 11 8.5 30t3.5 45q0 32 -6 71l95 35l8 -3q3 -28 3 -54q0 -65 -14 -113q50 -24 117 -24q22 0 31 -8.5z" />
    <glyph glyph-name="uniFEB4" unicode="&#x633;" horiz-adv-x="821" arabic-form="medial" 
d="M875 90.5q9 -8.5 9 -24.5q0 -28 -14 -47t-49 -19q-36 0 -74.5 10.5t-67.5 32.5q-46 -43 -124 -43q-64 0 -121 26q-35 -26 -93 -26q-47 0 -87.5 12.5t-67.5 31.5q-29 -23 -73 -33.5t-113 -10.5l22 99q48 0 76.5 4t43.5 12q8 12 15.5 38.5t18.5 70.5l107 16l4 -5
l-22.5 -64.5t-22.5 -51.5q24 -9 54 -14.5t56 -5.5q30 0 44 10q7 9 17.5 43l21.5 72l100 16l4 -4q-28 -87 -45 -127q37 -10 72 -10q18 0 34.5 3.5t27.5 9.5q12 26 12 74q0 29 -5 72l95 35l8 -3q3 -28 3 -54q0 -65 -14 -113q50 -24 117 -24q22 0 31 -8.5z" />
    <glyph glyph-name="uniFEB3" unicode="&#x633;" horiz-adv-x="810" arabic-form="initial" 
d="M753 165q0 -84 -53 -124.5t-145 -40.5q-64 0 -121 26q-35 -26 -93 -26q-47 0 -87.5 12.5t-67.5 31.5q-29 -23 -73 -33.5t-113 -10.5l22 99q48 0 76.5 4t43.5 12q8 12 15.5 38.5t18.5 70.5l107 16l4 -5l-22.5 -64.5t-22.5 -51.5q24 -9 54 -14.5t56 -5.5q30 0 44 10
q7 9 17.5 43l21.5 72l100 16l4 -4q-28 -87 -45 -127q37 -10 72 -10q64 0 91 12q4 16 4 26q0 30 -13.5 69.5t-35.5 86.5l85 65l6 -1q50 -122 50 -192z" />
    <glyph glyph-name="uniFEB6" unicode="&#x634;" horiz-adv-x="1128" arabic-form="final" 
d="M1182 90.5q9 -8.5 9 -24.5q0 -28 -14 -47t-49 -19q-36 0 -74.5 10.5t-67.5 32.5q-44 -43 -123 -43q-67 0 -120 25q-34 -25 -88 -25q-19 0 -39.5 6t-38.5 17q-14 -72 -56 -118.5t-103.5 -68.5t-136.5 -22q-76 0 -130 26t-81.5 72.5t-27.5 108.5q0 30 5 63.5t12 52.5l75 28
l9 -4q-9 -52 -9 -93q0 -75 37.5 -115t129.5 -40q125 0 182 73q9 22 9 48q0 38 -14.5 80.5t-43.5 106.5l87 62h6q3 -6 13 -39q8 -26 18 -53.5t18 -41.5q13 -26 33.5 -38t49.5 -12q13 0 25 2.5t19 7.5q7 9 17.5 43l21.5 72l100 16l4 -4q-28 -87 -45 -127q38 -10 72 -10
q18 0 35 3.5t28 9.5q5 11 8.5 30t3.5 45q0 32 -6 71l95 35l8 -3q3 -28 3 -54q0 -65 -14 -113q50 -24 117 -24q22 0 31 -8.5zM782 524l-91 64l57 83l90 -61zM726 398l-91 63l56 84l90 -62zM867 398l-90 63l57 84l90 -62z" />
    <glyph glyph-name="uniFEB8" unicode="&#x634;" horiz-adv-x="821" arabic-form="medial" 
d="M875 90.5q9 -8.5 9 -24.5q0 -28 -14 -47t-49 -19q-36 0 -74.5 10.5t-67.5 32.5q-46 -43 -124 -43q-64 0 -121 26q-35 -26 -93 -26q-47 0 -87.5 12.5t-67.5 31.5q-29 -23 -73 -33.5t-113 -10.5l22 99q48 0 76.5 4t43.5 12q8 12 15.5 38.5t18.5 70.5l107 16l4 -5
l-22.5 -64.5t-22.5 -51.5q24 -9 54 -14.5t56 -5.5q30 0 44 10q7 9 17.5 43l21.5 72l100 16l4 -4q-28 -87 -45 -127q37 -10 72 -10q18 0 34.5 3.5t27.5 9.5q12 26 12 74q0 29 -5 72l95 35l8 -3q3 -28 3 -54q0 -65 -14 -113q50 -24 117 -24q22 0 31 -8.5zM457 519l-91 64
l57 83l90 -61zM401 393l-91 63l56 84l90 -62zM542 393l-90 63l57 84l90 -62z" />
    <glyph glyph-name="uniFEB7" unicode="&#x634;" horiz-adv-x="810" arabic-form="initial" 
d="M753 165q0 -84 -53 -124.5t-145 -40.5q-64 0 -121 26q-35 -26 -93 -26q-47 0 -87.5 12.5t-67.5 31.5q-29 -23 -73 -33.5t-113 -10.5l22 99q48 0 76.5 4t43.5 12q8 12 15.5 38.5t18.5 70.5l107 16l4 -5l-22.5 -64.5t-22.5 -51.5q24 -9 54 -14.5t56 -5.5q30 0 44 10
q7 9 17.5 43l21.5 72l100 16l4 -4q-28 -87 -45 -127q37 -10 72 -10q64 0 91 12q4 16 4 26q0 30 -13.5 69.5t-35.5 86.5l85 65l6 -1q50 -122 50 -192zM457 519l-91 64l57 83l90 -61zM401 393l-91 63l56 84l90 -62zM542 393l-90 63l57 84l90 -62z" />
    <glyph glyph-name="uniFEBA" unicode="&#x635;" horiz-adv-x="1242" arabic-form="final" 
d="M1296 90.5q9 -8.5 9 -24.5q0 -28 -14 -47t-49 -19t-73 10.5t-67 30.5q-36 -25 -92 -33t-162 -8h-72q-63 0 -96.5 1.5t-58.5 6.5t-43 17q-14 -72 -55.5 -119t-103.5 -69.5t-138 -22.5t-130 26t-81.5 72.5t-27.5 108.5q0 60 17 116l75 28l9 -4q-9 -52 -9 -93
q0 -75 37.5 -115t129.5 -40q125 0 182 73q8 27 8 51q0 38 -14 78.5t-43 105.5l87 62h6l11 -31q24 -73 38 -103q13 -25 31.5 -35.5t57.5 -13.5q91 89 152.5 142t113 81.5t94.5 28.5t77 -24.5t53.5 -63t19.5 -79.5q0 -37 -14 -68q45 -18 104 -18q22 0 31 -8.5zM971.5 100.5
q41.5 1.5 65.5 5t40 11.5q6 10 9.5 23.5t3.5 28.5q0 20 -10 40.5t-27.5 34t-39.5 13.5q-39 0 -98 -40.5t-141 -117.5h81q75 0 116.5 1.5z" />
    <glyph glyph-name="uniFEBC" unicode="&#x635;" horiz-adv-x="852" arabic-form="medial" 
d="M906 90.5q9 -8.5 9 -24.5q0 -28 -14 -47t-49 -19t-73.5 10.5t-67.5 31.5q-25 -18 -58.5 -27t-79 -12t-117.5 -3h-111q-83 0 -130.5 6t-92.5 24q-46 -30 -122 -30l22 99q22 0 42.5 2.5t28.5 7.5q8 14 18 43t20 65l103 17l4 -4q-24 -72 -49 -119q31 -9 84 -11
q92 89 153.5 142t113 81.5t94.5 28.5t77 -24.5t53.5 -63t19.5 -79.5q0 -35 -14 -68q45 -18 105 -18q22 0 31 -8.5zM619 102.5q43 3.5 66 14.5q6 9 10 23t4 29q0 19 -10 40t-28 34.5t-39 13.5q-39 0 -98.5 -41t-140.5 -117h91q102 0 145 3.5z" />
    <glyph glyph-name="uniFEBB" unicode="&#x635;" horiz-adv-x="834" arabic-form="initial" 
d="M711 327.5q34 -24.5 53.5 -63t19.5 -79.5q0 -42 -18 -77.5t-45 -58.5q-26 -21 -60 -31.5t-81.5 -14t-123.5 -3.5h-111q-83 0 -130.5 6t-92.5 24q-46 -30 -122 -30l22 99q22 0 42.5 2.5t28.5 7.5q8 14 18 43t20 65l103 17l4 -4q-24 -72 -49 -119q31 -9 84 -11
q92 89 153.5 142t113 81.5t94.5 28.5t77 -24.5zM695 140q4 14 4 29q0 19 -10 40t-28 34.5t-39 13.5q-39 0 -98.5 -41t-140.5 -117h91q102 0 145 3.5t66 14.5q6 9 10 23z" />
    <glyph glyph-name="uniFEBE" unicode="&#x636;" horiz-adv-x="1242" arabic-form="final" 
d="M1296 90.5q9 -8.5 9 -24.5q0 -28 -14 -47t-49 -19t-73 10.5t-67 30.5q-36 -25 -92 -33t-162 -8h-72q-63 0 -96.5 1.5t-58.5 6.5t-43 17q-14 -72 -55.5 -119t-103.5 -69.5t-138 -22.5t-130 26t-81.5 72.5t-27.5 108.5q0 60 17 116l75 28l9 -4q-9 -52 -9 -93
q0 -75 37.5 -115t129.5 -40q125 0 182 73q8 27 8 51q0 38 -14 78.5t-43 105.5l87 62h6l11 -31q24 -73 38 -103q13 -25 31.5 -35.5t57.5 -13.5q91 89 152.5 142t113 81.5t94.5 28.5t77 -24.5t53.5 -63t19.5 -79.5q0 -37 -14 -68q45 -18 104 -18q22 0 31 -8.5zM971.5 100.5
q41.5 1.5 65.5 5t40 11.5q6 10 9.5 23.5t3.5 28.5q0 20 -10 40.5t-27.5 34t-39.5 13.5q-39 0 -98 -40.5t-141 -117.5h81q75 0 116.5 1.5zM1020 457l-93 65l58 86l93 -64z" />
    <glyph glyph-name="uniFEC0" unicode="&#x636;" horiz-adv-x="852" arabic-form="medial" 
d="M906 90.5q9 -8.5 9 -24.5q0 -28 -14 -47t-49 -19t-73.5 10.5t-67.5 31.5q-25 -18 -58.5 -27t-79 -12t-117.5 -3h-111q-83 0 -130.5 6t-92.5 24q-46 -30 -122 -30l22 99q22 0 42.5 2.5t28.5 7.5q8 14 18 43t20 65l103 17l4 -4q-24 -72 -49 -119q31 -9 84 -11
q92 89 153.5 142t113 81.5t94.5 28.5t77 -24.5t53.5 -63t19.5 -79.5q0 -35 -14 -68q45 -18 105 -18q22 0 31 -8.5zM619 102.5q43 3.5 66 14.5q6 9 10 23t4 29q0 19 -10 40t-28 34.5t-39 13.5q-39 0 -98.5 -41t-140.5 -117h91q102 0 145 3.5zM620 457l-93 65l58 86l93 -64z
" />
    <glyph glyph-name="uniFEBF" unicode="&#x636;" horiz-adv-x="834" arabic-form="initial" 
d="M711 327.5q34 -24.5 53.5 -63t19.5 -79.5q0 -42 -18 -77.5t-45 -58.5q-26 -21 -60 -31.5t-81.5 -14t-123.5 -3.5h-111q-83 0 -130.5 6t-92.5 24q-46 -30 -122 -30l22 99q22 0 42.5 2.5t28.5 7.5q8 14 18 43t20 65l103 17l4 -4q-24 -72 -49 -119q31 -9 84 -11
q92 89 153.5 142t113 81.5t94.5 28.5t77 -24.5zM695 140q4 14 4 29q0 19 -10 40t-28 34.5t-39 13.5q-39 0 -98.5 -41t-140.5 -117h91q102 0 145 3.5t66 14.5q6 9 10 23zM620 457l-93 65l58 86l93 -64z" />
    <glyph glyph-name="uniFEC2" unicode="&#x637;" horiz-adv-x="732" arabic-form="final" 
d="M786 90.5q9 -8.5 9 -24.5q0 -28 -14 -47t-49 -19t-73 10.5t-67 30.5q-36 -25 -92 -33t-162 -8h-246l-45 86l3 13h103l43 41v523l91 24l8 -5l-1 -452q70 62 123.5 92t97.5 30q43 0 77 -24.5t53.5 -63t19.5 -79.5q0 -37 -14 -68q45 -18 104 -18q22 0 31 -8.5zM461.5 100.5
q41.5 1.5 65.5 5t40 11.5q6 10 9.5 23.5t3.5 28.5q0 20 -10 40.5t-27.5 34t-39.5 13.5q-39 0 -98 -40.5t-141 -117.5h81q75 0 116.5 1.5z" />
    <glyph glyph-name="uniFEC4" unicode="&#x637;" horiz-adv-x="643" arabic-form="medial" 
d="M697 90.5q9 -8.5 9 -24.5q0 -28 -14 -47t-49 -19t-73 10.5t-67 30.5q-36 -25 -92 -33t-162 -8h-249l23 99h41l44 42v522l91 24l7 -5l-1 -452q70 62 123.5 92t97.5 30q43 0 77 -24.5t53.5 -63t19.5 -79.5q0 -37 -14 -68q45 -18 104 -18q22 0 31 -8.5zM372.5 100.5
q41.5 1.5 65.5 5t40 11.5q6 10 9.5 23.5t3.5 28.5q0 20 -10 40.5t-27.5 34t-39.5 13.5q-39 0 -98 -40.5t-141 -117.5h81q75 0 116.5 1.5z" />
    <glyph glyph-name="uniFEC3" unicode="&#x637;" horiz-adv-x="627" arabic-form="initial" 
d="M503 327.5q34 -24.5 53.5 -63t19.5 -79.5q0 -42 -18 -77.5t-45 -58.5q-26 -21 -60 -31.5t-81 -14t-123 -3.5h-249l23 99h41l44 42v522l91 24l7 -5l-1 -452q70 62 123.5 92t97.5 30q43 0 77 -24.5zM487.5 140.5q3.5 13.5 3.5 28.5q0 20 -10 40.5t-27.5 34t-39.5 13.5
q-39 0 -98 -40.5t-141 -117.5h81q75 0 116.5 1.5t65.5 5t40 11.5q6 10 9.5 23.5z" />
    <glyph glyph-name="uniFEC6" unicode="&#x638;" horiz-adv-x="732" arabic-form="final" 
d="M786 90.5q9 -8.5 9 -24.5q0 -28 -14 -47t-49 -19t-73 10.5t-67 30.5q-36 -25 -92 -33t-162 -8h-246l-45 86l3 13h103l43 41v523l91 24l8 -5l-1 -452q70 62 123.5 92t97.5 30q43 0 77 -24.5t53.5 -63t19.5 -79.5q0 -37 -14 -68q45 -18 104 -18q22 0 31 -8.5zM461.5 100.5
q41.5 1.5 65.5 5t40 11.5q6 10 9.5 23.5t3.5 28.5q0 20 -10 40.5t-27.5 34t-39.5 13.5q-39 0 -98 -40.5t-141 -117.5h81q75 0 116.5 1.5zM525 457l-93 65l58 86l93 -64z" />
    <glyph glyph-name="uniFEC8" unicode="&#x638;" horiz-adv-x="643" arabic-form="medial" 
d="M697 90.5q9 -8.5 9 -24.5q0 -28 -14 -47t-49 -19t-73 10.5t-67 30.5q-36 -25 -92 -33t-162 -8h-249l23 99h41l44 42v522l91 24l7 -5l-1 -452q70 62 123.5 92t97.5 30q43 0 77 -24.5t53.5 -63t19.5 -79.5q0 -37 -14 -68q45 -18 104 -18q22 0 31 -8.5zM372.5 100.5
q41.5 1.5 65.5 5t40 11.5q6 10 9.5 23.5t3.5 28.5q0 20 -10 40.5t-27.5 34t-39.5 13.5q-39 0 -98 -40.5t-141 -117.5h81q75 0 116.5 1.5zM436 457l-93 65l58 86l93 -64z" />
    <glyph glyph-name="uniFEC7" unicode="&#x638;" horiz-adv-x="627" arabic-form="initial" 
d="M503 327.5q34 -24.5 53.5 -63t19.5 -79.5q0 -42 -18 -77.5t-45 -58.5q-26 -21 -60 -31.5t-81 -14t-123 -3.5h-249l23 99h41l44 42v522l91 24l7 -5l-1 -452q70 62 123.5 92t97.5 30q43 0 77 -24.5zM487.5 140.5q3.5 13.5 3.5 28.5q0 20 -10 40.5t-27.5 34t-39.5 13.5
q-39 0 -98 -40.5t-141 -117.5h81q75 0 116.5 1.5t65.5 5t40 11.5q6 10 9.5 23.5zM436 457l-93 65l58 86l93 -64z" />
    <glyph glyph-name="uniFECA" unicode="&#x639;" horiz-adv-x="580" arabic-form="final" 
d="M210.5 -13.5q-38.5 -38.5 -60 -78t-21.5 -84.5q0 -70 65 -107t181 -37q48 0 103 7.5t96 19.5l8 -5l-29 -86q-86 -32 -207 -32q-95 0 -166 26t-109.5 77t-38.5 122q0 67 30.5 124.5t77.5 103t115 97.5q-34 37 -67 64.5t-72 48.5l-4 9l37 96q39 19 87.5 29t100.5 10
q56 0 106.5 -12.5t91.5 -38.5l3 -9l-25 -89q-60 -53 -128 -106q41 -19 97 -28t120 -9q41 0 41 -34q0 -27 -14 -46t-49 -19q-85 0 -150.5 20t-115.5 58q-65 -53 -103.5 -91.5zM260.5 241q25.5 -23 59.5 -58q41 31 67 52.5t46 43.5q-51 17 -106 17q-53 0 -116 -18
q24 -14 49.5 -37z" />
    <glyph glyph-name="uniFECC" unicode="&#x639;" horiz-adv-x="559" arabic-form="medial" 
d="M613 90q9 -9 9 -25q0 -27 -14.5 -46t-49.5 -19q-78 0 -144.5 19.5t-117.5 56.5q-59 -36 -130.5 -56t-165.5 -20l22 99q121 0 210 41q-65 72 -138 107l-3 9l37 96q39 19 88.5 29t102.5 10q55 0 107 -12.5t92 -38.5l3 -10l-24 -88q-17 -12 -35.5 -28t-29 -26.5t-15.5 -14.5
l-46 -41q41 -17 95 -25t115 -8q23 0 32 -9zM240 242q25 -23 62 -62q54 38 109 99q-56 18 -107 18q-57 0 -113 -18q24 -14 49 -37z" />
    <glyph glyph-name="uniFECB" unicode="&#x639;" horiz-adv-x="523" arabic-form="initial" 
d="M477 114l-30 -89q-63 -12 -167 -18.5t-280 -6.5l22 99h94q-35 56 -35 115q0 55 26 95t71.5 61t102.5 21q34 0 72 -8.5t67 -22.5l-12 -86l-4 -3q-63 24 -111 24t-74.5 -22.5t-26.5 -64.5q0 -25 12 -53t35 -53q132 3 232 17z" />
    <glyph glyph-name="uniFECE" unicode="&#x63a;" horiz-adv-x="580" arabic-form="final" 
d="M210.5 -13.5q-38.5 -38.5 -60 -78t-21.5 -84.5q0 -70 65 -107t181 -37q48 0 103 7.5t96 19.5l8 -5l-29 -86q-86 -32 -207 -32q-95 0 -166 26t-109.5 77t-38.5 122q0 67 30.5 124.5t77.5 103t115 97.5q-34 37 -67 64.5t-72 48.5l-4 9l37 96q39 19 87.5 29t100.5 10
q56 0 106.5 -12.5t91.5 -38.5l3 -9l-25 -89q-60 -53 -128 -106q41 -19 97 -28t120 -9q41 0 41 -34q0 -27 -14 -46t-49 -19q-85 0 -150.5 20t-115.5 58q-65 -53 -103.5 -91.5zM260.5 241q25.5 -23 59.5 -58q41 31 67 52.5t46 43.5q-51 17 -106 17q-53 0 -116 -18
q24 -14 49.5 -37zM352 496l-93 65l58 86l93 -64z" />
    <glyph glyph-name="uniFED0" unicode="&#x63a;" horiz-adv-x="559" arabic-form="medial" 
d="M613 90q9 -9 9 -25q0 -27 -14.5 -46t-49.5 -19q-78 0 -144.5 19.5t-117.5 56.5q-59 -36 -130.5 -56t-165.5 -20l22 99q121 0 210 41q-65 72 -138 107l-3 9l37 96q39 19 88.5 29t102.5 10q55 0 107 -12.5t92 -38.5l3 -10l-24 -88q-17 -12 -35.5 -28t-29 -26.5t-15.5 -14.5
l-46 -41q41 -17 95 -25t115 -8q23 0 32 -9zM240 242q25 -23 62 -62q54 38 109 99q-56 18 -107 18q-57 0 -113 -18q24 -14 49 -37zM335 496l-93 65l58 86l93 -64z" />
    <glyph glyph-name="uniFECF" unicode="&#x63a;" horiz-adv-x="523" arabic-form="initial" 
d="M477 114l-30 -89q-63 -12 -167 -18.5t-280 -6.5l22 99h94q-35 56 -35 115q0 55 26 95t71.5 61t102.5 21q34 0 72 -8.5t67 -22.5l-12 -86l-4 -3q-63 24 -111 24t-74.5 -22.5t-26.5 -64.5q0 -25 12 -53t35 -53q132 3 232 17zM297 496l-93 65l58 86l93 -64z" />
    <glyph glyph-name="uniFED2" unicode="&#x641;" horiz-adv-x="959" arabic-form="final" 
d="M1013 90.5q9 -8.5 9 -24.5q0 -28 -14.5 -47t-49.5 -19h-68q-82 0 -152 29q-104 -40 -292 -40h-65q-168 0 -253.5 44.5t-85.5 140.5q0 63 16 116l73 28l8 -5q-9 -49 -9 -87q0 -55 30.5 -85t91 -42t160.5 -12h63q81 0 158 10q-44 47 -44 104q0 45 23 89.5t61.5 72.5
t80.5 28q37 0 69.5 -24.5t52 -62t19.5 -74.5q0 -36 -12 -68.5t-35 -59.5q27 -3 56 -3h77q23 0 32 -8.5zM708.5 283q-17.5 -12 -29 -31.5t-11.5 -38.5q0 -25 19.5 -47t55.5 -38q35 16 53 39.5t18 50.5q0 18 -11 36t-27.5 29.5t-32.5 11.5q-17 0 -34.5 -12zM764 489l-93 65
l58 86l93 -64z" />
    <glyph glyph-name="uniFED4" unicode="&#x641;" horiz-adv-x="445" arabic-form="medial" 
d="M499.5 90.5q8.5 -8.5 8.5 -24.5q0 -28 -14 -47t-49 -19h-63q-37 0 -75.5 8t-74.5 22q-78 -30 -178 -30h-54l23 99h90h12q-44 49 -44 102q0 45 23.5 89.5t62 72.5t80.5 28q37 0 69.5 -24.5t51.5 -62t19 -74.5q0 -74 -46 -128q27 -3 56 -3h71q23 0 31.5 -8.5zM180.5 165
q19.5 -22 56.5 -38q32 16 50.5 39.5t18.5 50.5q0 19 -11 37t-27.5 29.5t-32.5 11.5q-17 0 -34.5 -12t-28.5 -31.5t-11 -38.5q0 -26 19.5 -48zM257 490l-93 65l58 86l93 -64z" />
    <glyph glyph-name="uniFED3" unicode="&#x641;" horiz-adv-x="446" arabic-form="initial" 
d="M313.5 439.5q36.5 -34.5 56 -91.5t19.5 -123q0 -67 -16 -115.5t-46 -70.5q-26 -16 -64 -24.5t-98 -11.5t-165 -3l23 99q133 0 192.5 5t84.5 15q3 13 7 50q-46 -11 -101 -11q-65 0 -98.5 31.5t-33.5 86.5q0 46 21.5 92t57 76t76.5 30q48 0 84.5 -34.5zM170.5 259
q18.5 -10 55.5 -10q46 0 82 7q-4 31 -16 59t-30 45.5t-38 17.5q-18 0 -34.5 -12.5t-27 -33t-10.5 -42.5q0 -21 18.5 -31zM240 567l-93 65l58 86l93 -64z" />
    <glyph glyph-name="uniFB6B" unicode="&#x6a4;" horiz-adv-x="959" arabic-form="final" 
d="M1013 90.5q9 -8.5 9 -24.5q0 -28 -14.5 -47t-49.5 -19h-68q-82 0 -152 29q-104 -40 -292 -40h-65q-168 0 -253.5 44.5t-85.5 140.5q0 63 16 116l73 28l8 -5q-9 -49 -9 -87q0 -55 30.5 -85t91 -42t160.5 -12h63q81 0 158 10q-44 47 -44 104q0 45 23 89.5t61.5 72.5
t80.5 28q37 0 69.5 -24.5t52 -62t19.5 -74.5q0 -36 -12 -68.5t-35 -59.5q27 -3 56 -3h77q23 0 32 -8.5zM708.5 283q-17.5 -12 -29 -31.5t-11.5 -38.5q0 -25 19.5 -47t55.5 -38q35 16 53 39.5t18 50.5q0 18 -11 36t-27.5 29.5t-32.5 11.5q-17 0 -34.5 -12zM753 617l-91 64
l57 83l90 -61zM697 491l-91 63l56 84l90 -62zM838 491l-90 63l57 84l90 -62z" />
    <glyph glyph-name="uniFB6D" unicode="&#x6a4;" horiz-adv-x="445" arabic-form="medial" 
d="M499.5 90.5q8.5 -8.5 8.5 -24.5q0 -28 -14 -47t-49 -19h-63q-37 0 -75.5 8t-74.5 22q-78 -30 -178 -30h-54l23 99h90h12q-44 49 -44 102q0 45 23.5 89.5t62 72.5t80.5 28q37 0 69.5 -24.5t51.5 -62t19 -74.5q0 -74 -46 -128q27 -3 56 -3h71q23 0 31.5 -8.5zM180.5 165
q19.5 -22 56.5 -38q32 16 50.5 39.5t18.5 50.5q0 19 -11 37t-27.5 29.5t-32.5 11.5q-17 0 -34.5 -12t-28.5 -31.5t-11 -38.5q0 -26 19.5 -48zM246 618l-91 64l57 83l90 -61zM190 492l-91 63l56 84l90 -62zM331 492l-90 63l57 84l90 -62z" />
    <glyph glyph-name="uniFB6C" unicode="&#x6a4;" horiz-adv-x="446" arabic-form="initial" 
d="M313.5 439.5q36.5 -34.5 56 -91.5t19.5 -123q0 -67 -16 -115.5t-46 -70.5q-26 -16 -64 -24.5t-98 -11.5t-165 -3l23 99q133 0 192.5 5t84.5 15q3 13 7 50q-46 -11 -101 -11q-65 0 -98.5 31.5t-33.5 86.5q0 46 21.5 92t57 76t76.5 30q48 0 84.5 -34.5zM170.5 259
q18.5 -10 55.5 -10q46 0 82 7q-4 31 -16 59t-30 45.5t-38 17.5q-18 0 -34.5 -12.5t-27 -33t-10.5 -42.5q0 -21 18.5 -31zM229 695l-91 64l57 83l90 -61zM173 569l-91 63l56 84l90 -62zM314 569l-90 63l57 84l90 -62z" />
    <glyph glyph-name="uni06A1.init" unicode="&#x6a1;" horiz-adv-x="446" 
d="M313.5 439.5q36.5 -34.5 56 -91.5t19.5 -123q0 -67 -16 -115.5t-46 -70.5q-26 -16 -64 -24.5t-98 -11.5t-165 -3l23 99q133 0 192.5 5t84.5 15q3 13 7 50q-46 -11 -101 -11q-65 0 -98.5 31.5t-33.5 86.5q0 46 21.5 92t57 76t76.5 30q48 0 84.5 -34.5zM170.5 259
q18.5 -10 55.5 -10q46 0 82 7q-4 31 -16 59t-30 45.5t-38 17.5q-18 0 -34.5 -12.5t-27 -33t-10.5 -42.5q0 -21 18.5 -31z" />
    <glyph glyph-name="uni06A1.medi" unicode="&#x6a1;" horiz-adv-x="445" 
d="M499.5 90.5q8.5 -8.5 8.5 -24.5q0 -28 -14 -47t-49 -19h-63q-37 0 -75.5 8t-74.5 22q-78 -30 -178 -30h-54l23 99h90h12q-44 49 -44 102q0 45 23.5 89.5t62 72.5t80.5 28q37 0 69.5 -24.5t51.5 -62t19 -74.5q0 -74 -46 -128q27 -3 56 -3h71q23 0 31.5 -8.5zM180.5 165
q19.5 -22 56.5 -38q32 16 50.5 39.5t18.5 50.5q0 19 -11 37t-27.5 29.5t-32.5 11.5q-17 0 -34.5 -12t-28.5 -31.5t-11 -38.5q0 -26 19.5 -48z" />
    <glyph glyph-name="uni06A1.fina" unicode="&#x6a1;" horiz-adv-x="959" 
d="M1013 90.5q9 -8.5 9 -24.5q0 -28 -14.5 -47t-49.5 -19h-68q-82 0 -152 29q-104 -40 -292 -40h-65q-168 0 -253.5 44.5t-85.5 140.5q0 63 16 116l73 28l8 -5q-9 -49 -9 -87q0 -55 30.5 -85t91 -42t160.5 -12h63q81 0 158 10q-44 47 -44 104q0 45 23 89.5t61.5 72.5
t80.5 28q37 0 69.5 -24.5t52 -62t19.5 -74.5q0 -36 -12 -68.5t-35 -59.5q27 -3 56 -3h77q23 0 32 -8.5zM708.5 283q-17.5 -12 -29 -31.5t-11.5 -38.5q0 -25 19.5 -47t55.5 -38q35 16 53 39.5t18 50.5q0 18 -11 36t-27.5 29.5t-32.5 11.5q-17 0 -34.5 -12z" />
    <glyph glyph-name="uni066F.fina" unicode="&#x66f;" horiz-adv-x="722" 
d="M775.5 90.5q9.5 -8.5 9.5 -24.5q0 -28 -14.5 -47t-49.5 -19h-59q-24 -92 -107 -139t-228 -47q-94 0 -158 26t-95.5 72t-31.5 105q0 29 4.5 58.5t11.5 53.5l81 28l9 -5q-11 -52 -11 -89q0 -48 19 -81t65.5 -51t124.5 -18q59 0 106 9.5t79 25.5t46 36l4 16h-33
q-96 0 -143.5 35t-47.5 97q0 48 21 96t57 78.5t78 30.5q46 0 82 -32.5t56 -87t22 -118.5h70q23 0 32.5 -8.5zM462 111q27 -12 90 -12h41q0 34 -12 67t-31.5 54t-42.5 21q-17 0 -34 -13.5t-27.5 -35t-10.5 -44.5q0 -25 27 -37z" />
    <glyph glyph-name="uniFED6" unicode="&#x642;" horiz-adv-x="722" arabic-form="final" 
d="M775.5 90.5q9.5 -8.5 9.5 -24.5q0 -28 -14.5 -47t-49.5 -19h-59q-24 -92 -107 -139t-228 -47q-94 0 -158 26t-95.5 72t-31.5 105q0 29 4.5 58.5t11.5 53.5l81 28l9 -5q-11 -52 -11 -89q0 -48 19 -81t65.5 -51t124.5 -18q59 0 106 9.5t79 25.5t46 36l4 16h-33
q-96 0 -143.5 35t-47.5 97q0 48 21 96t57 78.5t78 30.5q46 0 82 -32.5t56 -87t22 -118.5h70q23 0 32.5 -8.5zM462 111q27 -12 90 -12h41q0 34 -12 67t-31.5 54t-42.5 21q-17 0 -34 -13.5t-27.5 -35t-10.5 -44.5q0 -25 27 -37zM446 441l-90 63l55 84l90 -62zM587 441l-90 63
l56 84l90 -62z" />
    <glyph glyph-name="uniFED8" unicode="&#x642;" horiz-adv-x="445" arabic-form="medial" 
d="M499.5 90.5q8.5 -8.5 8.5 -24.5q0 -28 -14 -47t-49 -19h-63q-37 0 -75.5 8t-74.5 22q-78 -30 -178 -30h-54l23 99h90h12q-44 49 -44 102q0 45 23.5 89.5t62 72.5t80.5 28q37 0 69.5 -24.5t51.5 -62t19 -74.5q0 -74 -46 -128q27 -3 56 -3h71q23 0 31.5 -8.5zM180.5 165
q19.5 -22 56.5 -38q32 16 50.5 39.5t18.5 50.5q0 19 -11 37t-27.5 29.5t-32.5 11.5q-17 0 -34.5 -12t-28.5 -31.5t-11 -38.5q0 -26 19.5 -48zM184 492l-90 63l55 84l90 -62zM325 492l-90 63l56 84l90 -62z" />
    <glyph glyph-name="uniFED7" unicode="&#x642;" horiz-adv-x="446" arabic-form="initial" 
d="M313.5 439.5q36.5 -34.5 56 -91.5t19.5 -123q0 -67 -16 -115.5t-46 -70.5q-26 -16 -64 -24.5t-98 -11.5t-165 -3l23 99q133 0 192.5 5t84.5 15q3 13 7 50q-46 -11 -101 -11q-65 0 -98.5 31.5t-33.5 86.5q0 46 21.5 92t57 76t76.5 30q48 0 84.5 -34.5zM170.5 259
q18.5 -10 55.5 -10q46 0 82 7q-4 31 -16 59t-30 45.5t-38 17.5q-18 0 -34.5 -12.5t-27 -33t-10.5 -42.5q0 -21 18.5 -31zM167 569l-90 63l55 84l90 -62zM308 569l-90 63l56 84l90 -62z" />
    <glyph glyph-name="uniFEDA" unicode="&#x643;" horiz-adv-x="841" arabic-form="final" 
d="M895.5 90.5q8.5 -8.5 8.5 -24.5q0 -28 -14 -47t-49 -19q-42 0 -75.5 14.5t-52.5 41.5q-30 -35 -92.5 -51t-174.5 -16h-65q-168 0 -253.5 44.5t-85.5 140.5q0 63 16 116l73 28l8 -5q-9 -49 -9 -87q0 -55 30.5 -85t91 -42t160.5 -12h63q61 0 110.5 8t66.5 20q7 30 7 77v471
l91 24l8 -5v-471q0 -44 9 -67.5t31.5 -34t65.5 -10.5q23 0 31.5 -8.5zM315 328q30 0 46 1q-9 14 -14.5 30t-5.5 31q0 37 23.5 59.5t62.5 22.5q31 0 71 -16l-15 -53q-27 9 -47 9q-40 0 -40 -35q0 -13 5.5 -25t15.5 -21q44 3 92 8l5 -55q-79 -10 -193 -14z" />
    <glyph glyph-name="uniFEDC" unicode="&#x643;" horiz-adv-x="496" arabic-form="medial" 
d="M550 90.5q9 -8.5 9 -24.5q0 -28 -14 -47t-49 -19q-41 0 -78.5 20t-69.5 58q-17 -32 -51.5 -49t-87 -23t-132.5 -6h-77l22 99h105q81 0 117 9.5t48 25.5q-23 36 -89 96.5t-136 115.5l-5 6l25 119l336 183l8 -5l-33 -121l-237 -127q64 -57 108 -100l92 -93q36 -40 58 -61
t47 -34.5t53 -13.5q22 0 31 -8.5z" />
    <glyph glyph-name="uniFEDB" unicode="&#x643;" horiz-adv-x="426" arabic-form="initial" 
d="M398 528l-239 -126q86 -57 133 -101.5t63 -78t16 -66.5q0 -73 -65 -114.5t-209 -41.5h-97l22 99h71q67 0 123 10t76 23q0 31 -30 65.5t-77.5 69t-117.5 79.5l-5 6l25 119l336 183l8 -5z" />
    <glyph glyph-name="uniFB8F" unicode="&#x6a9;" horiz-adv-x="950" arabic-form="final" 
d="M1004 90.5q9 -8.5 9 -24.5q0 -28 -14 -47t-49 -19q-81 0 -148 78q-18 -37 -58.5 -56t-109.5 -26t-188 -7h-65q-168 0 -253.5 44.5t-85.5 140.5q0 63 16 116l73 28l8 -5q-9 -49 -9 -87q0 -55 30.5 -85t91 -42t160.5 -12h63q91 0 144 3.5t84 13t43 28.5q-21 36 -87 97
t-138 117l-5 6l26 119l336 183l7 -5l-32 -121l-238 -127q64 -57 108.5 -100.5l91.5 -92.5q36 -40 58 -61t47 -34.5t53 -13.5q22 0 31 -8.5z" />
    <glyph glyph-name="uniFB91" unicode="&#x6a9;" horiz-adv-x="496" arabic-form="medial" 
d="M550 90.5q9 -8.5 9 -24.5q0 -28 -14 -47t-49 -19q-41 0 -78.5 20t-69.5 58q-17 -32 -51.5 -49t-87 -23t-132.5 -6h-77l22 99h105q81 0 117 9.5t48 25.5q-23 36 -89 96.5t-136 115.5l-5 6l25 119l336 183l8 -5l-33 -121l-237 -127q64 -57 108 -100l92 -93q36 -40 58 -61
t47 -34.5t53 -13.5q22 0 31 -8.5z" />
    <glyph glyph-name="uniFB90" unicode="&#x6a9;" horiz-adv-x="426" arabic-form="initial" 
d="M398 528l-239 -126q86 -57 133 -101.5t63 -78t16 -66.5q0 -73 -65 -114.5t-209 -41.5h-97l22 99h71q67 0 123 10t76 23q0 31 -30 65.5t-77.5 69t-117.5 79.5l-5 6l25 119l336 183l8 -5z" />
    <glyph glyph-name="uniFB93" unicode="&#x6af;" horiz-adv-x="934" arabic-form="final" 
d="M863 724l-321 -176l-7 6l20 94l327 175l8 -4zM1004 90.5q9 -8.5 9 -24.5q0 -28 -14 -47t-49 -19q-81 0 -148 78q-18 -37 -58.5 -56t-109.5 -26t-188 -7h-65q-168 0 -253.5 44.5t-85.5 140.5q0 63 16 116l73 28l8 -5q-9 -49 -9 -87q0 -55 30.5 -85t91 -42t160.5 -12h63
q91 0 144 3.5t84 13t43 28.5q-21 36 -87 97t-138 117l-5 6l26 119l336 183l7 -5l-32 -121l-238 -127q64 -57 108.5 -100.5l91.5 -92.5q36 -40 58 -61t47 -34.5t53 -13.5q22 0 31 -8.5z" />
    <glyph glyph-name="uniFB95" unicode="&#x6af;" horiz-adv-x="492" arabic-form="medial" 
d="M423 724l-321 -176l-7 6l20 94l327 175l8 -4zM550 90.5q9 -8.5 9 -24.5q0 -28 -14 -47t-49 -19q-41 0 -78.5 20t-69.5 58q-17 -32 -51.5 -49t-87 -23t-132.5 -6h-77l22 99h105q81 0 117 9.5t48 25.5q-23 36 -89 96.5t-136 115.5l-5 6l25 119l336 183l8 -5l-33 -121
l-237 -127q64 -57 108 -100l92 -93q36 -40 58 -61t47 -34.5t53 -13.5q22 0 31 -8.5z" />
    <glyph glyph-name="uniFB94" unicode="&#x6af;" horiz-adv-x="426" arabic-form="initial" 
d="M421 724l-321 -176l-7 6l20 94l327 175l8 -4zM423 654l8 -5l-33 -121l-239 -126q86 -57 133 -101.5t63 -78t16 -66.5q0 -73 -65 -114.5t-209 -41.5h-97l22 99h71q67 0 123 10t76 23q0 31 -30 65.5t-77.5 69t-117.5 79.5l-5 6l25 119z" />
    <glyph glyph-name="uniFEDE" unicode="&#x644;" horiz-adv-x="676" arabic-form="final" 
d="M730 90.5q9 -8.5 9 -24.5q0 -28 -14 -47t-49 -19q-58 0 -95 31q-46 -217 -300 -217q-76 0 -130 26t-81.5 72.5t-27.5 108.5q0 31 4.5 61.5t12.5 54.5l75 28l9 -4q-9 -48 -9 -93q0 -77 38.5 -116t128.5 -39q60 0 103.5 16t71.5 51q18 56 18 145v538l90 24l8 -5v-483
q0 -44 11.5 -65.5t33 -28t61.5 -6.5q23 0 32 -8.5z" />
    <glyph glyph-name="uniFEE0" unicode="&#x644;" horiz-adv-x="300" arabic-form="medial" 
d="M354 90.5q9 -8.5 9 -24.5q0 -28 -14 -47t-49 -19q-37 0 -71 13t-55 45q-26 -32 -66.5 -45t-107.5 -13l23 99q28 0 50 3t38 13q7 30 7 77v471l90 24l9 -5v-483q0 -44 11.5 -65.5t33 -28t61.5 -6.5q22 0 31 -8.5z" />
    <glyph glyph-name="uniFEDF" unicode="&#x644;" horiz-adv-x="280" arabic-form="initial" 
d="M23 99q28 0 50 3t38 13q7 30 7 77v471l90 24l9 -5v-482q0 -78 -25.5 -121.5t-72.5 -61t-119 -17.5z" />
    <glyph glyph-name="uniFEE2" unicode="&#x645;" horiz-adv-x="567" arabic-form="final" 
d="M631 66q0 -31 -17 -48.5t-48 -17.5q-34 0 -59 9t-45 29q-17 -25 -37 -37.5t-45 -12.5q-100 0 -217 135q-18 -22 -27 -35q-2 -16 -2 -33q0 -57 11.5 -161t29.5 -216l-82 -40l-9 6q-19 121 -30.5 213.5t-11.5 136.5q0 66 15.5 111.5t51.5 88.5q32 39 71.5 71.5t78 51.5
t69.5 19t53.5 -15.5t43 -46.5t50.5 -90q20 -38 33 -55t31 -23.5t51 -6.5q41 0 41 -33zM415 108l-5 9q-30 66 -51.5 95t-39.5 29q-17 0 -43 -15.5t-55 -41.5q41 -48 79.5 -74.5t66.5 -26.5q26 0 48 25z" />
    <glyph glyph-name="uniFEE4" unicode="&#x645;" horiz-adv-x="532" arabic-form="medial" 
d="M595 66q0 -30 -17 -48t-48 -18q-32 0 -56.5 8t-44.5 26q-13 -23 -33 -34.5t-49 -11.5q-39 0 -90 19t-99 53q-20 -25 -41 -38t-48 -17.5t-69 -4.5l24 99q22 0 35 4.5t23.5 15.5t25.5 35l18 31q28 48 49.5 78t50.5 51.5t64 21.5t61 -19.5t44.5 -49.5t44.5 -83
q18 -37 32 -54.5t32 -24t49 -6.5q42 0 42 -33zM380 104l-6 13q-28 65 -48.5 94.5t-38.5 29.5q-20 0 -41 -28t-46 -78q35 -24 70.5 -38t59.5 -14q32 0 50 21z" />
    <glyph glyph-name="uniFEE3" unicode="&#x645;" horiz-adv-x="513" arabic-form="initial" 
d="M373 304q40 -32 64 -84t24 -109q0 -56 -27.5 -89.5t-80.5 -33.5q-42 0 -94.5 18t-104.5 54q-27 -34 -63.5 -47t-90.5 -13l22 99q22 0 36 6t25.5 20t26.5 41q4 8 32 57.5t66 81t80 31.5q45 0 85 -32zM360.5 154.5q-12.5 34.5 -33 60.5t-41.5 26q-15 0 -28.5 -12.5
t-25.5 -32t-33 -59.5q38 -24 72.5 -37.5t58.5 -13.5q26 0 41 11q2 23 -10.5 57.5z" />
    <glyph glyph-name="uniFEE6" unicode="&#x646;" horiz-adv-x="652" arabic-form="final" 
d="M715 66q0 -28 -14.5 -47t-49.5 -19q-19 0 -38.5 6t-35.5 16q-13 -69 -54 -115.5t-102.5 -69.5t-139.5 -23q-76 0 -130 26t-81.5 72.5t-27.5 108.5q0 31 5 62.5t12 53.5l75 28l9 -4q-9 -54 -9 -93q0 -75 37.5 -115t129.5 -40q125 0 182 73q8 27 8 51q0 38 -14 78.5
t-43 105.5l87 62h6q7 -18 14 -41q4 -10 14.5 -42.5t19.5 -49.5q14 -27 36 -39t57 -12q47 0 47 -33zM309 316l-93 65l58 86l93 -64z" />
    <glyph glyph-name="uniFEE8" unicode="&#x646;" horiz-adv-x="324" arabic-form="medial" 
d="M378 90.5q9 -8.5 9 -24.5q0 -28 -14 -47t-49 -19q-38 0 -79 12t-70 36q-27 -24 -65 -36t-90 -12h-20l23 99h20q60 0 82 16q9 16 18.5 50.5t23.5 96.5l100 24l10 -7q-12 -52 -23 -89t-25 -66q48 -25 118 -25q22 0 31 -8.5zM229 386l-93 65l58 86l93 -64z" />
    <glyph glyph-name="uniFEE7" unicode="&#x646;" horiz-adv-x="285" arabic-form="initial" 
d="M23 99h9q80 0 102 10q3 11 3 24q0 30 -14 68t-40 92l82 64h10q25 -51 39 -104t14 -87q0 -36 -13 -69.5t-37 -57.5q-23 -22 -59 -30.5t-108 -8.5h-11zM150 454l-93 65l58 86l93 -64z" />
    <glyph glyph-name="uniFB9F" unicode="&#x6ba;" horiz-adv-x="652" arabic-form="final" 
d="M715 66q0 -28 -14.5 -47t-49.5 -19q-19 0 -38.5 6t-35.5 16q-13 -69 -54 -115.5t-102.5 -69.5t-139.5 -23q-76 0 -130 26t-81.5 72.5t-27.5 108.5q0 31 5 62.5t12 53.5l75 28l9 -4q-9 -54 -9 -93q0 -75 37.5 -115t129.5 -40q125 0 182 73q8 27 8 51q0 38 -14 78.5
t-43 105.5l87 62h6q7 -18 14 -41q4 -10 14.5 -42.5t19.5 -49.5q14 -27 36 -39t57 -12q47 0 47 -33z" />
    <glyph glyph-name="uniFEEA" unicode="&#x647;" horiz-adv-x="445" arabic-form="final" 
d="M499.5 90.5q8.5 -8.5 8.5 -24.5q0 -28 -15 -47t-50 -19q-60 0 -100.5 17t-61.5 57q-37 -12 -82 -12q-52 0 -91 14.5t-60 41.5t-21 63q0 40 27 81.5t80 77.5t127 60v47l91 38l8 -2v-306q0 -33 10.5 -49.5t33 -22.5t64.5 -6q23 0 31.5 -8.5zM261 163v14v126
q-61 -17 -102.5 -43.5t-50.5 -54.5q8 -22 37.5 -34.5t62.5 -12.5q25 0 53 5z" />
    <glyph glyph-name="uniFEEC" unicode="&#x647;" horiz-adv-x="446" arabic-form="medial" 
d="M509 65q0 -30 -17 -47.5t-46 -17.5h-63q13 -18 20.5 -39.5t7.5 -42.5q0 -33 -19 -59.5t-50.5 -41.5t-69.5 -15q-59 0 -104.5 23.5t-73 68.5t-32.5 106h-62l22 99h47q12 64 44.5 130.5t78.5 121.5l63 44l8 1q69 -63 97 -105t28 -82q0 -28 -14 -60t-35 -50h129q41 0 41 -34
zM161 94q59 2 95 29.5t36 74.5q0 21 -10.5 43t-34.5 50q-69 -93 -86 -197zM316.5 -42.5q-15.5 22.5 -44 35.5t-66.5 13q-27 0 -49 -8q7 -49 41.5 -77t84.5 -28q15 0 28 4t21 10q0 28 -15.5 50.5z" />
    <glyph glyph-name="uniFEEB" unicode="&#x647;" horiz-adv-x="541" arabic-form="initial" 
d="M307 336.5q77 -51.5 134.5 -113t57.5 -119.5q0 -54 -37.5 -81t-110.5 -27q-86 0 -154 30q-63 -26 -145 -26h-52l19 99h85q-32 44 -32 98q0 39 18 76.5t49 58.5q-44 21 -47 22l30 89l8 2q100 -57 177 -108.5zM237 150q11 23 11 51q0 22 -7 41t-18 30t-24 11t-25 -10.5
t-19 -28.5t-7 -39q0 -28 13.5 -52.5t43.5 -40.5q21 15 32 38zM395 87.5q19 3.5 25 9.5q-4 25 -30 55.5t-68 63.5q1 -5 1 -14q0 -31 -10 -60t-31 -53q33 -5 69 -5q25 0 44 3.5z" />
    <glyph glyph-name="uniFBA7" unicode="&#x6c1;" horiz-adv-x="466" arabic-form="final" 
d="M393 17q-30 17 -49 41t-41 61q-21 35 -36 51.5t-36 16.5q-38 0 -78.5 -30.5t-71.5 -77.5h-8l-49 55q22 37 55 71t77 57.5t93 23.5q29 0 50.5 -13t36.5 -31.5t35 -50.5q20 -31 34.5 -49t35 -30.5t48.5 -12.5q22 0 31 -9t9 -25q0 -28 -14 -46.5t-49 -18.5q-43 0 -73 17z
" />
    <glyph glyph-name="uniFBA9" unicode="&#x6c1;" horiz-adv-x="550" arabic-form="medial" 
d="M605 90q8 -9 8 -25q0 -29 -11.5 -47t-47.5 -18h-59q-37 0 -64 -22.5t-40.5 -64t-13.5 -97.5q0 -62 18 -132l-73 -28q-104 44 -163.5 123t-59.5 187q0 20 3 43q-43 -9 -102 -9l24 99q46 0 78.5 9.5t56.5 31t43 58.5l69 -28l3 -9q-25 -65 -70 -103q-11 -39 -11 -76
q0 -48 16 -93.5t44.5 -82t64.5 -57.5q-15 63 -15 121q0 68 21.5 119.5t64.5 80.5t106 29h81q21 0 29 -9z" />
    <glyph glyph-name="uniFBA8" unicode="&#x6c1;" horiz-adv-x="281" arabic-form="initial" 
d="M23 99h9q80 0 102 10q3 11 3 24q0 30 -14 68t-40 92l82 64h10q25 -51 39 -104t14 -87q0 -36 -13 -69.5t-37 -57.5q-23 -22 -59 -30.5t-108 -8.5h-11zM99.5 -149.5q-13.5 12.5 -13.5 35.5q0 26 14 53t37 52l39 -25q-14 -18 -22 -30.5t-8 -20.5q0 -6 6 -9q10 -6 15.5 -12.5
t5.5 -20.5q0 -16 -12 -25.5t-32 -9.5q-16 0 -29.5 12.5z" />
    <glyph glyph-name="uni06C2.fina" unicode="&#x6c2;" horiz-adv-x="466" 
d="M393 17q-30 17 -49 41t-41 61q-21 35 -36 51.5t-36 16.5q-38 0 -78.5 -30.5t-71.5 -77.5h-8l-49 55q22 37 55 71t77 57.5t93 23.5q29 0 50.5 -13t36.5 -31.5t35 -50.5q20 -31 34.5 -49t35 -30.5t48.5 -12.5q22 0 31 -9t9 -25q0 -28 -14 -46.5t-49 -18.5q-43 0 -73 17z
M344 447q-79 -10 -193 -14l-6 62q30 0 46 1q-10 13 -15 28.5t-5 31.5q0 37 22.5 59.5t62.5 22.5q34 0 72 -15l-16 -58q-30 10 -45 10q-17 0 -26.5 -10t-9.5 -25q0 -11 5 -22t14 -19q62 4 89 7z" />
    <glyph glyph-name="uniFBAB" unicode="&#x6be;" horiz-adv-x="536" arabic-form="final" 
d="M589 90.5q10 -8.5 10 -25.5q0 -30 -17 -47.5t-46 -17.5h-63q13 -17 20.5 -38.5t7.5 -43.5q0 -33 -19 -59.5t-50.5 -41.5t-69.5 -15q-59 0 -104 23.5t-72.5 68t-32.5 105.5q-26 -3 -45 -11t-43 -25h-8l-37 70q20 27 56 44.5t83 20.5q13 65 45 131t78 122l64 44l7 1
q69 -63 97.5 -105t28.5 -82q0 -28 -14 -60t-35 -50h128q21 0 31 -8.5zM251 94q60 2 96 29.5t36 74.5q0 21 -10.5 43t-35.5 50q-69 -96 -86 -197zM406.5 -42.5q-15.5 22.5 -44 35.5t-66.5 13q-25 0 -49 -8q7 -49 41.5 -77t84.5 -28q15 0 28 4t21 10q0 28 -15.5 50.5z" />
    <glyph glyph-name="uniFBAD" unicode="&#x6be;" horiz-adv-x="446" arabic-form="medial" 
d="M509 65q0 -30 -17 -47.5t-46 -17.5h-63q13 -18 20.5 -39.5t7.5 -42.5q0 -33 -19 -59.5t-50.5 -41.5t-69.5 -15q-59 0 -104.5 23.5t-73 68.5t-32.5 106h-62l22 99h47q12 64 44.5 130.5t78.5 121.5l63 44l8 1q69 -63 97 -105t28 -82q0 -28 -14 -60t-35 -50h129q41 0 41 -34
zM161 94q59 2 95 29.5t36 74.5q0 21 -10.5 43t-34.5 50q-69 -93 -86 -197zM316.5 -42.5q-15.5 22.5 -44 35.5t-66.5 13q-27 0 -49 -8q7 -49 41.5 -77t84.5 -28q15 0 28 4t21 10q0 28 -15.5 50.5z" />
    <glyph glyph-name="uniFBAC" unicode="&#x6be;" horiz-adv-x="541" arabic-form="initial" 
d="M307 336.5q77 -51.5 134.5 -113t57.5 -119.5q0 -54 -37.5 -81t-110.5 -27q-86 0 -154 30q-63 -26 -145 -26h-52l19 99h85q-32 44 -32 98q0 39 18 76.5t49 58.5q-44 21 -47 22l30 89l8 2q100 -57 177 -108.5zM237 150q11 23 11 51q0 22 -7 41t-18 30t-24 11t-25 -10.5
t-19 -28.5t-7 -39q0 -28 13.5 -52.5t43.5 -40.5q21 15 32 38zM395 87.5q19 3.5 25 9.5q-4 25 -30 55.5t-68 63.5q1 -5 1 -14q0 -31 -10 -60t-31 -53q33 -5 69 -5q25 0 44 3.5z" />
    <glyph glyph-name="uniFE94" unicode="&#x629;" horiz-adv-x="445" arabic-form="final" 
d="M499.5 90.5q8.5 -8.5 8.5 -24.5q0 -28 -15 -47t-50 -19q-60 0 -100.5 17t-61.5 57q-37 -12 -82 -12q-52 0 -91 14.5t-60 41.5t-21 63q0 40 27 81.5t80 77.5t127 60v47l91 38l8 -2v-306q0 -33 10.5 -49.5t33 -22.5t64.5 -6q23 0 31.5 -8.5zM261 163v14v126
q-61 -17 -102.5 -43.5t-50.5 -54.5q8 -22 37.5 -34.5t62.5 -12.5q25 0 53 5zM165 552l-90 63l55 84l90 -62zM306 552l-90 63l56 84l90 -62z" />
    <glyph glyph-name="uni06C3.fina" unicode="&#x6c3;" horiz-adv-x="466" 
d="M393 17q-30 17 -49 41t-41 61q-21 35 -36 51.5t-36 16.5q-38 0 -78.5 -30.5t-71.5 -77.5h-8l-49 55q22 37 55 71t77 57.5t93 23.5q29 0 50.5 -13t36.5 -31.5t35 -50.5q20 -31 34.5 -49t35 -30.5t48.5 -12.5q22 0 31 -9t9 -25q0 -28 -14 -46.5t-49 -18.5q-43 0 -73 17z
M192 393l-90 63l55 84l90 -62zM333 393l-90 63l56 84l90 -62z" />
    <glyph glyph-name="uniFEEE" unicode="&#x648;" horiz-adv-x="429" arabic-form="final" 
d="M483 90.5q9 -8.5 9 -24.5q0 -28 -14.5 -47t-49.5 -19h-69q-19 -50 -58 -89.5t-100 -63t-142 -24.5l-50 74l6 9q93 2 158 26t96 68h-18q-95 0 -142 35.5t-47 100.5q0 47 21 93.5t56.5 76.5t76.5 30q46 0 82 -32t56.5 -86.5t21.5 -118.5h74q24 0 33 -8.5zM166 111.5
q27 -12.5 89 -12.5h42q0 37 -13 70t-32.5 52.5t-39.5 19.5q-18 0 -35 -12t-27.5 -33t-10.5 -46q0 -26 27 -38.5z" />
    <glyph glyph-name="uniFE86" unicode="&#x624;" horiz-adv-x="429" arabic-form="final" 
d="M103 500q32 0 50 1q-10 14 -16 31.5t-6 34.5q0 41 25 66t69 25q17 0 38 -4.5t41 -12.5l-17 -64q-31 11 -50 11t-29 -11t-10 -28q0 -12 5.5 -23.5t16.5 -21.5q43 3 96 8l6 -65q-83 -11 -213 -15zM483 90.5q9 -8.5 9 -24.5q0 -28 -14.5 -47t-49.5 -19h-69
q-19 -50 -58 -89.5t-100 -63t-142 -24.5l-50 74l6 9q93 2 158 26t96 68h-18q-95 0 -142 35.5t-47 100.5q0 47 21 93.5t56.5 76.5t76.5 30q46 0 82 -32t56.5 -86.5t21.5 -118.5h74q24 0 33 -8.5zM166 111.5q27 -12.5 89 -12.5h42q0 37 -13 70t-32.5 52.5t-39.5 19.5
q-18 0 -35 -12t-27.5 -33t-10.5 -46q0 -26 27 -38.5z" />
    <glyph glyph-name="uniFEF0" unicode="&#x649;" horiz-adv-x="758" arabic-form="final" 
d="M169 -160q-64 26 -95.5 72t-31.5 105q0 29 4.5 58.5t11.5 53.5l81 28l9 -5q-11 -52 -11 -89q0 -48 19 -81t65.5 -51t124.5 -18q68 0 128.5 10t101.5 27.5t53 39.5q0 14 -14.5 26t-47.5 24t-91 27l29 93q21 -6 37 -11t28 -8q73 -22 118.5 -32t92.5 -10q23 0 31.5 -9
t8.5 -25q0 -28 -14 -46.5t-50 -18.5h-41q-7 -58 -58 -100t-136.5 -64t-194.5 -22q-94 0 -158 26z" />
    <glyph glyph-name="uniFEF2" unicode="&#x64a;" horiz-adv-x="758" arabic-form="final" 
d="M169 -160q-64 26 -95.5 72t-31.5 105q0 29 4.5 58.5t11.5 53.5l81 28l9 -5q-11 -52 -11 -89q0 -48 19 -81t65.5 -51t124.5 -18q68 0 128.5 10t101.5 27.5t53 39.5q0 14 -14.5 26t-47.5 24t-91 27l29 93q21 -6 37 -11t28 -8q73 -22 118.5 -32t92.5 -10q23 0 31.5 -9
t8.5 -25q0 -28 -14 -46.5t-50 -18.5h-41q-7 -58 -58 -100t-136.5 -64t-194.5 -22q-94 0 -158 26zM271 -408l-91 63l56 84l90 -62zM414 -408l-90 63l56 84l90 -62z" />
    <glyph glyph-name="uniFEF4" unicode="&#x64a;" horiz-adv-x="347" arabic-form="medial" 
d="M401 90.5q9 -8.5 9 -24.5q0 -28 -13.5 -47t-48.5 -19q-53 0 -98 11.5t-74 35.5q-26 -24 -60.5 -35.5t-81.5 -11.5h-34l23 99h27q22 0 42 4t31 12q19 36 42 147l100 24l10 -7q-12 -51 -23 -88.5t-24 -66.5q48 -25 142 -25q22 0 31 -8.5zM123 -222l-91 63l56 84l90 -62z
M266 -222l-90 63l56 84l90 -62z" />
    <glyph glyph-name="uniFEF3" unicode="&#x64a;" horiz-adv-x="305" arabic-form="initial" 
d="M23 99h29q80 0 102 10q4 11 4 27q0 30 -14 68.5t-38 88.5l79 64h10q24 -53 38.5 -105.5t14.5 -85.5q0 -36 -13 -70t-37 -57q-23 -22 -59 -30.5t-108 -8.5h-31zM95 -222l-91 63l56 84l90 -62zM238 -222l-90 63l56 84l90 -62z" />
    <glyph glyph-name="uniFE8A" unicode="&#x626;" horiz-adv-x="758" arabic-form="final" 
d="M68 314q32 0 50 1q-10 14 -16 31.5t-6 34.5q0 41 25 66t69 25q17 0 38 -4.5t41 -12.5l-17 -64q-31 11 -50 11t-29 -11t-10 -28q0 -12 5.5 -23.5t16.5 -21.5q43 3 96 8l6 -65q-83 -11 -213 -15zM812.5 90q8.5 -9 8.5 -25q0 -28 -14 -46.5t-50 -18.5h-41q-7 -58 -58 -100
t-136.5 -64t-194.5 -22q-94 0 -158 26t-95.5 72t-31.5 105q0 29 4.5 58.5t11.5 53.5l81 28l9 -5q-11 -52 -11 -89q0 -48 19 -81t65.5 -51t124.5 -18q68 0 128.5 10t101.5 27.5t53 39.5q0 14 -14.5 26t-47.5 24t-91 27l29 93q21 -6 37 -11t28 -8q73 -22 118.5 -32t92.5 -10
q23 0 31.5 -9z" />
    <glyph glyph-name="uniFE8C" unicode="&#x626;" horiz-adv-x="347" arabic-form="medial" 
d="M107 450q32 0 50 1q-10 14 -16 31.5t-6 34.5q0 41 25 66t69 25q17 0 38 -4.5t41 -12.5l-17 -64q-31 11 -50 11t-29 -11t-10 -28q0 -12 5.5 -23.5t16.5 -21.5q43 3 96 8l6 -65q-83 -11 -213 -15zM401 90.5q9 -8.5 9 -24.5q0 -28 -13.5 -47t-48.5 -19q-53 0 -98 11.5
t-74 35.5q-26 -24 -60.5 -35.5t-81.5 -11.5h-34l23 99h27q22 0 42 4t31 12q19 36 42 147l100 24l10 -7q-12 -51 -23 -88.5t-24 -66.5q48 -25 142 -25q22 0 31 -8.5z" />
    <glyph glyph-name="uniFE8B" unicode="&#x626;" horiz-adv-x="305" arabic-form="initial" 
d="M46 513q32 0 50 1q-11 14 -16.5 31.5t-5.5 34.5q0 41 25 66t69 25q17 0 38 -4.5t41 -12.5l-17 -64q-31 11 -50 11t-29 -11t-10 -28q0 -12 5.5 -23.5t16.5 -21.5q43 3 96 8l6 -65q-83 -11 -213 -15zM195 357q24 -53 38.5 -105.5t14.5 -85.5q0 -36 -13 -70t-37 -57
q-23 -22 -59 -30.5t-108 -8.5h-31l23 99h29q80 0 102 10q4 11 4 27q0 30 -14 68.5t-38 88.5l79 64h10z" />
    <glyph glyph-name="uniFBFD" unicode="&#x6cc;" horiz-adv-x="758" arabic-form="final" 
d="M169 -160q-64 26 -95.5 72t-31.5 105q0 29 4.5 58.5t11.5 53.5l81 28l9 -5q-11 -52 -11 -89q0 -48 19 -81t65.5 -51t124.5 -18q68 0 128.5 10t101.5 27.5t53 39.5q0 14 -14.5 26t-47.5 24t-91 27l29 93q21 -6 37 -11t28 -8q73 -22 118.5 -32t92.5 -10q23 0 31.5 -9
t8.5 -25q0 -28 -14 -46.5t-50 -18.5h-41q-7 -58 -58 -100t-136.5 -64t-194.5 -22q-94 0 -158 26z" />
    <glyph glyph-name="uniFBFF" unicode="&#x6cc;" horiz-adv-x="347" arabic-form="medial" 
d="M401 90.5q9 -8.5 9 -24.5q0 -28 -13.5 -47t-48.5 -19q-53 0 -98 11.5t-74 35.5q-26 -24 -60.5 -35.5t-81.5 -11.5h-34l23 99h27q22 0 42 4t31 12q19 36 42 147l100 24l10 -7q-12 -51 -23 -88.5t-24 -66.5q48 -25 142 -25q22 0 31 -8.5zM123 -222l-91 63l56 84l90 -62z
M266 -222l-90 63l56 84l90 -62z" />
    <glyph glyph-name="uniFBFE" unicode="&#x6cc;" horiz-adv-x="305" arabic-form="initial" 
d="M23 99h29q80 0 102 10q4 11 4 27q0 30 -14 68.5t-38 88.5l79 64h10q24 -53 38.5 -105.5t14.5 -85.5q0 -36 -13 -70t-37 -57q-23 -22 -59 -30.5t-108 -8.5h-31zM95 -222l-91 63l56 84l90 -62zM238 -222l-90 63l56 84l90 -62z" />
    <glyph glyph-name="uniFBAF" unicode="&#x6d2;" horiz-adv-x="609" arabic-form="final" 
d="M246 -252.5q-117 12.5 -176.5 42.5t-59.5 84q0 71 42 121.5t121.5 77t191.5 26.5h267q23 0 31.5 -8.5t8.5 -26.5q0 -26 -13.5 -45t-50.5 -19h-243q-133 0 -204 -28.5t-71 -87.5q32 -24 170 -38t329 -14l4 -6l-42 -91q-188 0 -305 12.5z" />
    <glyph glyph-name="uniFBB1" unicode="&#x6d3;" horiz-adv-x="609" arabic-form="final" 
d="M246 -252.5q-117 12.5 -176.5 42.5t-59.5 84q0 71 42 121.5t121.5 77t191.5 26.5h267q23 0 31.5 -8.5t8.5 -26.5q0 -26 -13.5 -45t-50.5 -19h-243q-133 0 -204 -28.5t-71 -87.5q32 -24 170 -38t329 -14l4 -6l-42 -91q-188 0 -305 12.5zM282 260q-79 -10 -193 -14l-6 62
q30 0 46 1q-10 13 -15 28.5t-5 31.5q0 37 22.5 59.5t62.5 22.5q34 0 72 -15l-16 -58q-30 10 -45 10q-17 0 -26.5 -10t-9.5 -25q0 -11 5 -22t14 -19q62 4 89 7z" />
    <glyph glyph-name="uniFDFC" unicode="&#xfdfc;" horiz-adv-x="961" arabic-form="isolated" 
d="M501.5 167.5q-35.5 32.5 -35.5 98.5v278l67 19l4 -3v-286q0 -35 19.5 -51t63.5 -16q27 0 49 6.5t28 13.5q2 14 -6 33t-30 60l62 46h5q14 -33 22.5 -65.5t8.5 -53.5q0 -24 -8 -44t-23 -33q-37 -35 -114 -35t-112.5 32.5zM401 531l4 -3l-1 -441q0 -110 -52 -160.5
t-144 -50.5q-58 0 -98 19t-60 52.5t-20 77.5q0 16 3 36.5t7 36.5l60 13l5 -3q-7 -29 -7 -65q0 -50 33 -72.5t84 -22.5q43 0 68.5 12.5t39.5 37.5q5 21 7.5 46.5t2.5 69.5v398zM898.5 123q12.5 -38 12.5 -66q0 -15 -4.5 -31.5t-12.5 -31.5q-25 -41 -71.5 -69t-111.5 -41
l-30 59l3 5q48 9 85 26t57.5 36.5t20.5 36.5q0 16 -12.5 43t-33.5 58l56 55h5q24 -42 36.5 -80zM516 46l38 55l60 -39l-37 -58zM723 62l-38 -58l-60 42l37 55z" />
    <glyph glyph-name=".notdef" horiz-adv-x="540" 
d="M80 0v688h380v-688h-380zM156 72h227v544h-227v-544z" />
    <glyph glyph-name="NULL" 
 />
    <glyph glyph-name="NULL" 
 />
    <glyph glyph-name="CR" unicode="&#xd;" horiz-adv-x="233" 
 />
    <glyph glyph-name="space" unicode=" " horiz-adv-x="233" 
 />
    <glyph glyph-name="A" unicode="A" horiz-adv-x="648" 
d="M394 648l239 -641v-7h-120l-61 172h-260l-60 -172h-117v7l238 641h141zM224 264h195l-98 278z" />
    <glyph glyph-name="Aacute" unicode="&#xc1;" horiz-adv-x="648" 
d="M394 648l239 -641v-7h-120l-61 172h-260l-60 -172h-117v7l238 641h141zM224 264h195l-98 278zM272 694l-38 50l166 131l58 -87z" />
    <glyph glyph-name="Acircumflex" unicode="&#xc2;" horiz-adv-x="648" 
d="M394 648l239 -641v-7h-120l-61 172h-260l-60 -172h-117v7l238 641h141zM224 264h195l-98 278zM222 691l-45 43l104 107h88l104 -107l-44 -44l-103 69z" />
    <glyph glyph-name="Adieresis" unicode="&#xc4;" horiz-adv-x="648" 
d="M394 648l239 -641v-7h-120l-61 172h-260l-60 -172h-117v7l238 641h141zM224 264h195l-98 278zM198.5 721.5q-14.5 8.5 -23.5 22.5t-9 31t9 31t23.5 22.5t31.5 8.5t31.5 -8.5t23.5 -22.5t9 -31t-9 -31t-23.5 -22.5t-31.5 -8.5t-31.5 8.5zM388.5 721.5
q-14.5 8.5 -23.5 22.5t-9 31t9 31t23.5 22.5t31.5 8.5t31.5 -8.5t23.5 -22.5t9 -31t-9 -31t-23.5 -22.5t-31.5 -8.5t-31.5 8.5z" />
    <glyph glyph-name="Agrave" unicode="&#xc0;" horiz-adv-x="648" 
d="M394 648l239 -641v-7h-120l-61 172h-260l-60 -172h-117v7l238 641h141zM224 264h195l-98 278zM378 694l-187 94l59 87l166 -131z" />
    <glyph glyph-name="Aring" unicode="&#xc5;" horiz-adv-x="648" 
d="M394 648l239 -641v-7h-120l-61 172h-260l-60 -172h-117v7l238 641h141zM224 264h195l-98 278zM237.5 708q-34.5 28 -34.5 82q0 56 34 84.5t88 28.5t88.5 -28.5t34.5 -84.5q0 -36 -16.5 -61t-44 -37t-62.5 -12q-53 0 -87.5 28zM359 755q14 11 14 35q0 26 -14 37t-34 11
t-33.5 -11t-13.5 -37q0 -24 13.5 -35t33.5 -11t34 11z" />
    <glyph glyph-name="Atilde" unicode="&#xc3;" horiz-adv-x="648" 
d="M394 648l239 -641v-7h-120l-61 172h-260l-60 -172h-117v7l238 641h141zM224 264h195l-98 278zM335.5 711.5q-17.5 8.5 -36.5 23.5q-12 9 -20 13.5t-16 4.5q-14 0 -25.5 -10t-24.5 -34l-57 22q21 54 49 81t68 27q25 0 42.5 -8.5t36.5 -22.5q12 -9 20 -13.5t16 -4.5
q14 0 25.5 9.5t24.5 33.5l57 -21q-20 -54 -49 -81.5t-69 -27.5q-24 0 -41.5 8.5z" />
    <glyph glyph-name="AE" unicode="&#xc6;" horiz-adv-x="899" 
d="M606 95h269v-95h-362l-48 172h-261l-73 -172h-116v7l284 641h514v-94h-345l53 -178h263l-13 -92h-222zM244 264h196l-78 278z" />
    <glyph glyph-name="B" unicode="B" horiz-adv-x="602" 
d="M503.5 305.5q29.5 -24.5 43 -55.5t13.5 -65q0 -56 -27.5 -97.5t-81.5 -64.5t-131 -23h-243v648h231q72 0 123 -21.5t77.5 -59.5t26.5 -88q0 -46 -26 -82.5t-80 -55.5q45 -11 74.5 -35.5zM191 556v-180h103q56 0 90.5 22t34.5 72q0 39 -29 62.5t-82 23.5h-117zM412.5 120
q29.5 27 29.5 69q0 45 -31 71.5t-93 26.5h-127v-194h125q67 0 96.5 27z" />
    <glyph glyph-name="C" unicode="C" horiz-adv-x="575" 
d="M174 28.5q-68 41.5 -100 116.5t-32 176q0 120 41.5 196t109.5 110t151 34q61 0 112.5 -15t100.5 -44l-46 -85q-78 47 -161 47q-97 0 -142.5 -62.5t-45.5 -174.5q0 -115 50 -178.5t144 -63.5q48 0 85 12.5t76 35.5l45 -82q-54 -32 -104.5 -48t-110.5 -16q-105 0 -173 41.5
z" />
    <glyph glyph-name="Ccedilla" unicode="&#xc7;" horiz-adv-x="575" 
d="M468 -131q0 -48 -33.5 -72.5t-91.5 -24.5q-57 0 -105 24l24 62q39 -16 69 -16q22 0 32 7.5t10 23.5q0 13 -9 20t-28.5 10t-53.5 4l11 83q-128 16 -189.5 103t-61.5 228q0 120 41.5 196t109.5 110t151 34q61 0 112.5 -15t100.5 -44l-46 -85q-78 47 -161 47
q-97 0 -142.5 -62.5t-45.5 -174.5q0 -115 50 -178.5t144 -63.5q48 0 85 12.5t76 35.5l45 -82q-48 -28 -93 -44t-97 -19v-30q96 -9 96 -89z" />
    <glyph glyph-name="D" unicode="D" horiz-adv-x="669" 
d="M538 572.5q90 -75.5 90 -248.5q0 -109 -46.5 -181.5t-127.5 -107.5t-184 -35h-193v648h204q167 0 257 -75.5zM392.5 116q54.5 19 84 68.5t29.5 139.5q0 120 -54.5 173.5t-168.5 53.5h-92v-454h62q85 0 139.5 19z" />
    <glyph glyph-name="Eth" unicode="&#xd0;" horiz-adv-x="669" 
d="M538 572.5q90 -75.5 90 -248.5q0 -109 -46.5 -181.5t-127.5 -107.5t-184 -35h-193v282h-49v85h49v281h204q167 0 257 -75.5zM392.5 116q54.5 19 84 68.5t29.5 139.5q0 120 -54.5 173.5t-168.5 53.5h-92v-184h157v-85h-157v-185h62q85 0 139.5 19z" />
    <glyph glyph-name="E" unicode="E" horiz-adv-x="546" 
d="M191 95h309v-95h-423v648h418v-94h-304v-178h264l-13 -92h-251v-189z" />
    <glyph glyph-name="Eacute" unicode="&#xc9;" horiz-adv-x="546" 
d="M191 95h309v-95h-423v648h418v-94h-304v-178h264l-13 -92h-251v-189zM240 694l-38 50l166 131l58 -87z" />
    <glyph glyph-name="Ecircumflex" unicode="&#xca;" horiz-adv-x="546" 
d="M191 95h309v-95h-423v648h418v-94h-304v-178h264l-13 -92h-251v-189zM190 691l-45 43l104 107h88l104 -107l-44 -44l-103 69z" />
    <glyph glyph-name="Edieresis" unicode="&#xcb;" horiz-adv-x="546" 
d="M191 95h309v-95h-423v648h418v-94h-304v-178h264l-13 -92h-251v-189zM166.5 721.5q-14.5 8.5 -23.5 22.5t-9 31t9 31t23.5 22.5t31.5 8.5t31.5 -8.5t23.5 -22.5t9 -31t-9 -31t-23.5 -22.5t-31.5 -8.5t-31.5 8.5zM356.5 721.5q-14.5 8.5 -23.5 22.5t-9 31t9 31t23.5 22.5
t31.5 8.5t31.5 -8.5t23.5 -22.5t9 -31t-9 -31t-23.5 -22.5t-31.5 -8.5t-31.5 8.5z" />
    <glyph glyph-name="Egrave" unicode="&#xc8;" horiz-adv-x="546" 
d="M191 95h309v-95h-423v648h418v-94h-304v-178h264l-13 -92h-251v-189zM346 694l-187 94l59 87l166 -131z" />
    <glyph glyph-name="F" unicode="F" horiz-adv-x="522" 
d="M495 554h-304v-194h263l-12 -94h-251v-266h-114v648h418v-94z" />
    <glyph glyph-name="G" unicode="G" horiz-adv-x="645" 
d="M591 365v-319q-63 -31 -118 -45t-120 -14q-109 0 -178 43t-101 117.5t-32 174.5q0 117 42.5 193t113.5 111t159 35q123 0 218 -60l-48 -84q-75 48 -162 48q-105 0 -154.5 -63t-49.5 -175q0 -119 46.5 -180.5t150.5 -61.5q61 0 119 21v165h-154l13 94h255z" />
    <glyph glyph-name="H" unicode="H" horiz-adv-x="712" 
d="M521 648h114v-648h-114v281h-330v-281h-114v648h114v-270h330v270z" />
    <glyph glyph-name="I" unicode="I" horiz-adv-x="269" 
d="M77 0v648h114v-648h-114z" />
    <glyph glyph-name="Iacute" unicode="&#xcd;" horiz-adv-x="269" 
d="M77 0v648h114v-648h-114zM81 694l-38 50l166 131l58 -87z" />
    <glyph glyph-name="Icircumflex" unicode="&#xce;" horiz-adv-x="269" 
d="M77 0v648h114v-648h-114zM31 691l-45 43l104 107h88l104 -107l-44 -44l-103 69z" />
    <glyph glyph-name="Idieresis" unicode="&#xcf;" horiz-adv-x="269" 
d="M77 0v648h114v-648h-114zM7.5 721.5q-14.5 8.5 -23.5 22.5t-9 31t9 31t23.5 22.5t31.5 8.5t31.5 -8.5t23.5 -22.5t9 -31t-9 -31t-23.5 -22.5t-31.5 -8.5t-31.5 8.5zM197.5 721.5q-14.5 8.5 -23.5 22.5t-9 31t9 31t23.5 22.5t31.5 8.5t31.5 -8.5t23.5 -22.5t9 -31t-9 -31
t-23.5 -22.5t-31.5 -8.5t-31.5 8.5z" />
    <glyph glyph-name="Igrave" unicode="&#xcc;" horiz-adv-x="269" 
d="M77 0v648h114v-648h-114zM187 694l-187 94l59 87l166 -131z" />
    <glyph glyph-name="J" unicode="J" horiz-adv-x="461" 
d="M-2 49l58 80q28 -22 55.5 -32.5t61.5 -10.5q51 0 77.5 30.5t26.5 84.5v447h114v-450q0 -77 -30 -124t-76.5 -67t-101.5 -20q-107 0 -185 62z" />
    <glyph glyph-name="K" unicode="K" horiz-adv-x="615" 
d="M319 340l287 -333v-7h-139l-276 327v-327h-114v648h114v-305l273 305h129v-7z" />
    <glyph glyph-name="L" unicode="L" horiz-adv-x="515" 
d="M191 99h308v-99h-422v648h114v-549z" />
    <glyph glyph-name="Lslash" unicode="&#x141;" horiz-adv-x="538" 
d="M214 99h308v-99h-422v192l-36 -26l-54 77l90 60v345h114v-252l115 83l55 -74l-170 -121v-185z" />
    <glyph glyph-name="M" unicode="M" horiz-adv-x="831" 
d="M754 648v-648h-112v455q-17 -45 -41 -92l-137 -269h-98l-135 269q-32 62 -44 94v-457h-110v648h123l147 -285q51 -101 69 -155q19 59 69 155l148 285h121z" />
    <glyph glyph-name="N" unicode="N" horiz-adv-x="705" 
d="M628 648v-648h-125l-249 368q-5 8 -19.5 29.5t-26 41t-20.5 39.5v-478h-111v648h122l261 -386l18 -26.5t23 -36t17 -32.5v481h110z" />
    <glyph glyph-name="Ntilde" unicode="&#xd1;" horiz-adv-x="705" 
d="M628 648v-648h-125l-249 368q-5 8 -19.5 29.5t-26 41t-20.5 39.5v-478h-111v648h122l261 -386l18 -26.5t23 -36t17 -32.5v481h110zM362.5 711.5q-17.5 8.5 -36.5 23.5q-12 9 -20 13.5t-16 4.5q-14 0 -25.5 -10t-24.5 -34l-57 22q21 54 49 81t68 27q25 0 42.5 -8.5
t36.5 -22.5q12 -9 20 -13.5t16 -4.5q14 0 25.5 9.5t24.5 33.5l57 -21q-20 -54 -49 -81.5t-69 -27.5q-24 0 -41.5 8.5z" />
    <glyph glyph-name="O" unicode="O" horiz-adv-x="712" 
d="M183 29.5q-70 42.5 -105.5 119t-35.5 177.5q0 112 43 187.5t115 111.5t160 36q100 0 170 -42.5t105 -119t35 -177.5q0 -112 -43 -187.5t-114.5 -111.5t-159.5 -36q-100 0 -170 42.5zM463 112q45 30 67 83.5t22 125.5q0 74 -21 129t-64 85.5t-107 30.5q-66 0 -111 -30
t-67 -83.5t-22 -125.5q0 -113 49 -179t144 -66q65 0 110 30z" />
    <glyph glyph-name="Oacute" unicode="&#xd3;" horiz-adv-x="712" 
d="M183 29.5q-70 42.5 -105.5 119t-35.5 177.5q0 112 43 187.5t115 111.5t160 36q100 0 170 -42.5t105 -119t35 -177.5q0 -112 -43 -187.5t-114.5 -111.5t-159.5 -36q-100 0 -170 42.5zM463 112q45 30 67 83.5t22 125.5q0 74 -21 129t-64 85.5t-107 30.5q-66 0 -111 -30
t-67 -83.5t-22 -125.5q0 -113 49 -179t144 -66q65 0 110 30zM303 694l-38 50l166 131l58 -87z" />
    <glyph glyph-name="Ocircumflex" unicode="&#xd4;" horiz-adv-x="712" 
d="M183 29.5q-70 42.5 -105.5 119t-35.5 177.5q0 112 43 187.5t115 111.5t160 36q100 0 170 -42.5t105 -119t35 -177.5q0 -112 -43 -187.5t-114.5 -111.5t-159.5 -36q-100 0 -170 42.5zM463 112q45 30 67 83.5t22 125.5q0 74 -21 129t-64 85.5t-107 30.5q-66 0 -111 -30
t-67 -83.5t-22 -125.5q0 -113 49 -179t144 -66q65 0 110 30zM253 691l-45 43l104 107h88l104 -107l-44 -44l-103 69z" />
    <glyph glyph-name="Odieresis" unicode="&#xd6;" horiz-adv-x="712" 
d="M183 29.5q-70 42.5 -105.5 119t-35.5 177.5q0 112 43 187.5t115 111.5t160 36q100 0 170 -42.5t105 -119t35 -177.5q0 -112 -43 -187.5t-114.5 -111.5t-159.5 -36q-100 0 -170 42.5zM463 112q45 30 67 83.5t22 125.5q0 74 -21 129t-64 85.5t-107 30.5q-66 0 -111 -30
t-67 -83.5t-22 -125.5q0 -113 49 -179t144 -66q65 0 110 30zM229.5 721.5q-14.5 8.5 -23.5 22.5t-9 31t9 31t23.5 22.5t31.5 8.5t31.5 -8.5t23.5 -22.5t9 -31t-9 -31t-23.5 -22.5t-31.5 -8.5t-31.5 8.5zM419.5 721.5q-14.5 8.5 -23.5 22.5t-9 31t9 31t23.5 22.5t31.5 8.5
t31.5 -8.5t23.5 -22.5t9 -31t-9 -31t-23.5 -22.5t-31.5 -8.5t-31.5 8.5z" />
    <glyph glyph-name="Ograve" unicode="&#xd2;" horiz-adv-x="712" 
d="M183 29.5q-70 42.5 -105.5 119t-35.5 177.5q0 112 43 187.5t115 111.5t160 36q100 0 170 -42.5t105 -119t35 -177.5q0 -112 -43 -187.5t-114.5 -111.5t-159.5 -36q-100 0 -170 42.5zM463 112q45 30 67 83.5t22 125.5q0 74 -21 129t-64 85.5t-107 30.5q-66 0 -111 -30
t-67 -83.5t-22 -125.5q0 -113 49 -179t144 -66q65 0 110 30zM409 694l-187 94l59 87l166 -131z" />
    <glyph glyph-name="Oslash" unicode="&#xd8;" horiz-adv-x="712" 
d="M646.5 470q23.5 -66 23.5 -148q0 -112 -43 -187.5t-114.5 -111.5t-159.5 -36q-81 0 -144 29l-41 -62l-78 46l44 68q-45 45 -68.5 110.5t-23.5 147.5q0 112 43 187.5t115 111.5t160 36q82 0 145 -29l41 62l77 -46l-45 -67q45 -45 68.5 -111zM249 536q-45 -30 -67 -83.5
t-22 -125.5q0 -106 42 -169l252 386q-41 22 -94 22q-66 0 -111 -30zM463 112q45 30 67 83.5t22 125.5q0 106 -42 169l-251 -386q41 -22 94 -22q65 0 110 30z" />
    <glyph glyph-name="Otilde" unicode="&#xd5;" horiz-adv-x="712" 
d="M183 29.5q-70 42.5 -105.5 119t-35.5 177.5q0 112 43 187.5t115 111.5t160 36q100 0 170 -42.5t105 -119t35 -177.5q0 -112 -43 -187.5t-114.5 -111.5t-159.5 -36q-100 0 -170 42.5zM463 112q45 30 67 83.5t22 125.5q0 74 -21 129t-64 85.5t-107 30.5q-66 0 -111 -30
t-67 -83.5t-22 -125.5q0 -113 49 -179t144 -66q65 0 110 30zM366.5 711.5q-17.5 8.5 -36.5 23.5q-12 9 -20 13.5t-16 4.5q-14 0 -25.5 -10t-24.5 -34l-57 22q21 54 49 81t68 27q25 0 42.5 -8.5t36.5 -22.5q12 -9 20 -13.5t16 -4.5q14 0 25.5 9.5t24.5 33.5l57 -21
q-20 -54 -49 -81.5t-69 -27.5q-24 0 -41.5 8.5z" />
    <glyph glyph-name="OE" unicode="&#x152;" horiz-adv-x="919" 
d="M873 95v-95h-402q-46 -13 -115 -13q-105 0 -175 44t-104.5 120t-34.5 175q0 114 44 189.5t117 110.5t162 35q62 0 110 -13h393v-94h-293v-178h253l-13 -92h-240v-189h298zM209.5 147q49.5 -65 149.5 -65q57 0 105 12v459q-23 7 -47.5 10t-57.5 3q-65 0 -109.5 -29.5
t-67 -83t-22.5 -126.5q0 -115 49.5 -180z" />
    <glyph glyph-name="P" unicode="P" horiz-adv-x="569" 
d="M434 622.5q55 -25.5 82.5 -71t27.5 -105.5q0 -62 -28 -111t-85 -77.5t-139 -28.5h-101v-229h-114v648h221q81 0 136 -25.5zM426 442q0 55 -33 83.5t-97 28.5h-105v-231h91q144 0 144 119z" />
    <glyph glyph-name="Thorn" unicode="&#xde;" horiz-adv-x="582" 
d="M434 512.5q55 -25.5 82.5 -71t27.5 -105.5q0 -62 -28 -111t-85 -77.5t-139 -28.5h-101v-119h-114v648h114v-110h107q81 0 136 -25.5zM426 332q0 55 -33 83.5t-97 28.5h-105v-231h91q144 0 144 119z" />
    <glyph glyph-name="Q" unicode="Q" horiz-adv-x="712" 
d="M625 -155l-227 145q-22 -3 -45 -3q-100 0 -170 42.5t-105.5 119t-35.5 177.5q0 112 43 187.5t115 111.5t160 36q100 0 170 -42.5t105 -119t35 -177.5q0 -104 -42.5 -179.5t-115.5 -115.5l175 -87zM209 148q49 -66 144 -66q65 0 110 30t67 83.5t22 125.5q0 74 -21 129
t-64 85.5t-107 30.5q-66 0 -111 -30t-67 -83.5t-22 -125.5q0 -113 49 -179z" />
    <glyph glyph-name="R" unicode="R" horiz-adv-x="590" 
d="M573 7v-7h-129l-175 245h-78v-245h-114v648h214q80 0 134.5 -25t82 -69t27.5 -102q0 -69 -37.5 -120.5t-109.5 -72.5zM191 335h86q68 0 104 28.5t36 84.5q0 52 -32.5 79t-94.5 27h-99v-219z" />
    <glyph glyph-name="S" unicode="S" horiz-adv-x="556" 
d="M133 7q-61 20 -108 56l53 80q44 -31 92 -45.5t92 -14.5q66 0 101 22.5t35 67.5q0 27 -12 45t-41 33t-84 35l-19 7q-64 24 -102.5 46t-62.5 57.5t-24 89.5q0 58 32.5 97.5t84.5 58.5t111 19q122 0 223 -68l-52 -80q-45 28 -84.5 41t-87.5 13q-51 0 -81 -19.5t-30 -57.5
q0 -21 11 -36.5t38 -30.5t77 -33l20 -7q65 -23 105 -44.5t68 -60t28 -99.5q0 -62 -31.5 -105.5t-87 -65t-129.5 -21.5t-135 20z" />
    <glyph glyph-name="Scaron" unicode="&#x160;" horiz-adv-x="556" 
d="M133 7q-61 20 -108 56l53 80q44 -31 92 -45.5t92 -14.5q66 0 101 22.5t35 67.5q0 27 -12 45t-41 33t-84 35l-19 7q-64 24 -102.5 46t-62.5 57.5t-24 89.5q0 58 32.5 97.5t84.5 58.5t111 19q122 0 223 -68l-52 -80q-45 28 -84.5 41t-87.5 13q-51 0 -81 -19.5t-30 -57.5
q0 -21 11 -36.5t38 -30.5t77 -33l20 -7q65 -23 105 -44.5t68 -60t28 -99.5q0 -62 -31.5 -105.5t-87 -65t-129.5 -21.5t-135 20zM237 686l-104 108l45 42l104 -67l103 69l44 -44l-104 -108h-88z" />
    <glyph glyph-name="T" unicode="T" horiz-adv-x="577" 
d="M561 648v-98h-214v-550h-114v550h-217v98h545z" />
    <glyph glyph-name="U" unicode="U" horiz-adv-x="680" 
d="M181.5 23q-61.5 36 -90.5 97.5t-29 140.5v387h114v-368q0 -93 39 -144.5t128 -51.5q161 0 161 188v376h114v-384q0 -97 -37 -158.5t-100 -90t-145 -28.5q-93 0 -154.5 36z" />
    <glyph glyph-name="Uacute" unicode="&#xda;" horiz-adv-x="680" 
d="M181.5 23q-61.5 36 -90.5 97.5t-29 140.5v387h114v-368q0 -93 39 -144.5t128 -51.5q161 0 161 188v376h114v-384q0 -97 -37 -158.5t-100 -90t-145 -28.5q-93 0 -154.5 36zM287 694l-38 50l166 131l58 -87z" />
    <glyph glyph-name="Ucircumflex" unicode="&#xdb;" horiz-adv-x="680" 
d="M181.5 23q-61.5 36 -90.5 97.5t-29 140.5v387h114v-368q0 -93 39 -144.5t128 -51.5q161 0 161 188v376h114v-384q0 -97 -37 -158.5t-100 -90t-145 -28.5q-93 0 -154.5 36zM237 691l-45 43l104 107h88l104 -107l-44 -44l-103 69z" />
    <glyph glyph-name="Udieresis" unicode="&#xdc;" horiz-adv-x="680" 
d="M181.5 23q-61.5 36 -90.5 97.5t-29 140.5v387h114v-368q0 -93 39 -144.5t128 -51.5q161 0 161 188v376h114v-384q0 -97 -37 -158.5t-100 -90t-145 -28.5q-93 0 -154.5 36zM213.5 721.5q-14.5 8.5 -23.5 22.5t-9 31t9 31t23.5 22.5t31.5 8.5t31.5 -8.5t23.5 -22.5t9 -31
t-9 -31t-23.5 -22.5t-31.5 -8.5t-31.5 8.5zM403.5 721.5q-14.5 8.5 -23.5 22.5t-9 31t9 31t23.5 22.5t31.5 8.5t31.5 -8.5t23.5 -22.5t9 -31t-9 -31t-23.5 -22.5t-31.5 -8.5t-31.5 8.5z" />
    <glyph glyph-name="Ugrave" unicode="&#xd9;" horiz-adv-x="680" 
d="M181.5 23q-61.5 36 -90.5 97.5t-29 140.5v387h114v-368q0 -93 39 -144.5t128 -51.5q161 0 161 188v376h114v-384q0 -97 -37 -158.5t-100 -90t-145 -28.5q-93 0 -154.5 36zM393 694l-187 94l59 87l166 -131z" />
    <glyph glyph-name="V" unicode="V" horiz-adv-x="638" 
d="M507 648h116v-7l-238 -641h-132l-238 641v7h120l186 -535z" />
    <glyph glyph-name="W" unicode="W" horiz-adv-x="920" 
d="M901 648v-7l-174 -641h-139l-97 379q-18 75 -31 160q-13 -85 -31 -160l-93 -379h-140l-177 641v7h116l99 -383q8 -28 17.5 -72.5t16.5 -86.5q15 102 30 159l100 383h131l100 -380q17 -64 33 -163q14 81 33 163l93 380h113z" />
    <glyph glyph-name="X" unicode="X" horiz-adv-x="603" 
d="M369 340l219 -340h-136l-152 258l-162 -258h-123l216 332l-207 316h135l145 -235l147 235h123z" />
    <glyph glyph-name="Y" unicode="Y" horiz-adv-x="615" 
d="M600 648v-7l-238 -381v-260h-114v261l-233 380v7h127l165 -284l172 284h121z" />
    <glyph glyph-name="Yacute" unicode="&#xdd;" horiz-adv-x="615" 
d="M600 648v-7l-238 -381v-260h-114v261l-233 380v7h127l165 -284l172 284h121zM255 694l-38 50l166 131l58 -87z" />
    <glyph glyph-name="Ydieresis" unicode="&#x178;" horiz-adv-x="615" 
d="M600 648v-7l-238 -381v-260h-114v261l-233 380v7h127l165 -284l172 284h121zM181.5 721.5q-14.5 8.5 -23.5 22.5t-9 31t9 31t23.5 22.5t31.5 8.5t31.5 -8.5t23.5 -22.5t9 -31t-9 -31t-23.5 -22.5t-31.5 -8.5t-31.5 8.5zM371.5 721.5q-14.5 8.5 -23.5 22.5t-9 31t9 31
t23.5 22.5t31.5 8.5t31.5 -8.5t23.5 -22.5t9 -31t-9 -31t-23.5 -22.5t-31.5 -8.5t-31.5 8.5z" />
    <glyph glyph-name="Z" unicode="Z" horiz-adv-x="567" 
d="M525 648v-55l-338 -495h327v-98h-482v55l340 495h-320l12 98h461z" />
    <glyph glyph-name="Zcaron" unicode="&#x17d;" horiz-adv-x="567" 
d="M525 648v-55l-338 -495h327v-98h-482v55l340 495h-320l12 98h461zM239 686l-104 108l45 42l104 -67l103 69l44 -44l-104 -108h-88z" />
    <glyph glyph-name="a" unicode="a" horiz-adv-x="480" 
d="M378 422q41 -35 41 -112v-310h-94l-8 37q-37 -27 -75.5 -38.5t-79.5 -11.5q-40 0 -70.5 15t-47.5 42.5t-17 63.5q0 54 38 90.5t102 54.5t144 20v17q0 43 -16 62t-56 19q-69 0 -148 -51l-44 69q48 34 99 51t109 17q82 0 123 -35zM154.5 83.5q14.5 -12.5 42.5 -12.5
q56 0 114 34v96q-80 -4 -125.5 -24.5t-45.5 -56.5q0 -24 14.5 -36.5z" />
    <glyph glyph-name="aacute" unicode="&#xe1;" horiz-adv-x="480" 
d="M378 422q41 -35 41 -112v-310h-94l-8 37q-37 -27 -75.5 -38.5t-79.5 -11.5q-40 0 -70.5 15t-47.5 42.5t-17 63.5q0 54 38 90.5t102 54.5t144 20v17q0 43 -16 62t-56 19q-69 0 -148 -51l-44 69q48 34 99 51t109 17q82 0 123 -35zM154.5 83.5q14.5 -12.5 42.5 -12.5
q56 0 114 34v96q-80 -4 -125.5 -24.5t-45.5 -56.5q0 -24 14.5 -36.5zM184 489l-38 50l166 131l58 -87z" />
    <glyph glyph-name="acircumflex" unicode="&#xe2;" horiz-adv-x="480" 
d="M378 422q41 -35 41 -112v-310h-94l-8 37q-37 -27 -75.5 -38.5t-79.5 -11.5q-40 0 -70.5 15t-47.5 42.5t-17 63.5q0 54 38 90.5t102 54.5t144 20v17q0 43 -16 62t-56 19q-69 0 -148 -51l-44 69q48 34 99 51t109 17q82 0 123 -35zM154.5 83.5q14.5 -12.5 42.5 -12.5
q56 0 114 34v96q-80 -4 -125.5 -24.5t-45.5 -56.5q0 -24 14.5 -36.5zM134 499l-45 43l104 107h88l104 -107l-44 -44l-103 69z" />
    <glyph glyph-name="adieresis" unicode="&#xe4;" horiz-adv-x="480" 
d="M378 422q41 -35 41 -112v-310h-94l-8 37q-37 -27 -75.5 -38.5t-79.5 -11.5q-40 0 -70.5 15t-47.5 42.5t-17 63.5q0 54 38 90.5t102 54.5t144 20v17q0 43 -16 62t-56 19q-69 0 -148 -51l-44 69q48 34 99 51t109 17q82 0 123 -35zM154.5 83.5q14.5 -12.5 42.5 -12.5
q56 0 114 34v96q-80 -4 -125.5 -24.5t-45.5 -56.5q0 -24 14.5 -36.5zM110.5 528.5q-14.5 8.5 -23.5 22.5t-9 30q0 17 9 31.5t23.5 23t31.5 8.5t31.5 -8.5t23.5 -23t9 -31.5q0 -16 -9 -30t-23.5 -22.5t-31.5 -8.5t-31.5 8.5zM300.5 528.5q-14.5 8.5 -23.5 22.5t-9 30
q0 17 9 31.5t23.5 23t31.5 8.5t31.5 -8.5t23.5 -23t9 -31.5q0 -16 -9 -30t-23.5 -22.5t-31.5 -8.5t-31.5 8.5z" />
    <glyph glyph-name="agrave" unicode="&#xe0;" horiz-adv-x="480" 
d="M378 422q41 -35 41 -112v-310h-94l-8 37q-37 -27 -75.5 -38.5t-79.5 -11.5q-40 0 -70.5 15t-47.5 42.5t-17 63.5q0 54 38 90.5t102 54.5t144 20v17q0 43 -16 62t-56 19q-69 0 -148 -51l-44 69q48 34 99 51t109 17q82 0 123 -35zM154.5 83.5q14.5 -12.5 42.5 -12.5
q56 0 114 34v96q-80 -4 -125.5 -24.5t-45.5 -56.5q0 -24 14.5 -36.5zM289 489l-186 94l58 87l166 -131z" />
    <glyph glyph-name="aring" unicode="&#xe5;" horiz-adv-x="480" 
d="M378 422q41 -35 41 -112v-310h-94l-8 37q-37 -27 -75.5 -38.5t-79.5 -11.5q-40 0 -70.5 15t-47.5 42.5t-17 63.5q0 54 38 90.5t102 54.5t144 20v17q0 43 -16 62t-56 19q-69 0 -148 -51l-44 69q48 34 99 51t109 17q82 0 123 -35zM154.5 83.5q14.5 -12.5 42.5 -12.5
q56 0 114 34v96q-80 -4 -125.5 -24.5t-45.5 -56.5q0 -24 14.5 -36.5zM149.5 517.5q-34.5 28.5 -34.5 82.5q0 55 34.5 83.5t87.5 28.5q35 0 62.5 -12.5t44 -37.5t16.5 -62t-16.5 -62t-44 -37t-62.5 -12q-53 0 -87.5 28.5zM271 564q14 11 14 36t-14 36t-34 11t-33.5 -11
t-13.5 -36t13.5 -36t33.5 -11t34 11z" />
    <glyph glyph-name="atilde" unicode="&#xe3;" horiz-adv-x="480" 
d="M378 422q41 -35 41 -112v-310h-94l-8 37q-37 -27 -75.5 -38.5t-79.5 -11.5q-40 0 -70.5 15t-47.5 42.5t-17 63.5q0 54 38 90.5t102 54.5t144 20v17q0 43 -16 62t-56 19q-69 0 -148 -51l-44 69q48 34 99 51t109 17q82 0 123 -35zM154.5 83.5q14.5 -12.5 42.5 -12.5
q56 0 114 34v96q-80 -4 -125.5 -24.5t-45.5 -56.5q0 -24 14.5 -36.5zM249.5 515.5q-17.5 8.5 -36.5 23.5q-12 9 -20 13.5t-16 4.5q-14 0 -25.5 -10t-24.5 -34l-57 22q21 54 49 81t68 27q25 0 42.5 -8.5t36.5 -22.5q12 -9 20 -13.5t16 -4.5q14 0 25.5 9.5t24.5 33.5l57 -21
q-20 -54 -49 -81.5t-69 -27.5q-24 0 -41.5 8.5z" />
    <glyph glyph-name="ae" unicode="&#xe6;" horiz-adv-x="720" 
d="M684 202h-288q4 -69 36 -99.5t81 -30.5q35 0 63.5 9.5t62.5 30.5l38 -70q-35 -25 -78 -40t-94 -15q-108 0 -160 68q-46 -37 -91 -52.5t-95 -15.5q-39 0 -69 15t-46.5 42.5t-16.5 63.5q0 54 36.5 90.5t98.5 54.5t140 20v17q0 43 -15.5 62t-54.5 19q-66 0 -144 -53l-42 71
q46 33 96.5 50.5t100.5 17.5q47 0 77 -15.5t45 -47.5q48 63 137 63q59 0 101 -24.5t63 -68t21 -97.5q0 -32 -3 -65zM400 273h185q0 106 -84 106q-85 0 -101 -106zM254.5 81q28.5 10 61.5 33q-13 39 -14 87q-78 -3 -121 -24t-43 -57q0 -24 15 -36.5t42 -12.5q31 0 59.5 10z
" />
    <glyph glyph-name="b" unicode="b" horiz-adv-x="527" 
d="M449 397q44 -60 44 -165q0 -88 -37.5 -143t-95.5 -78.5t-123 -23.5q-33 0 -77 6.5t-94 21.5v673l108 11v-284q73 42 143 42q88 0 132 -60zM339.5 110q40.5 39 40.5 124q0 69 -23 102.5t-74 33.5q-47 0 -109 -29v-264q30 -6 58 -6q67 0 107.5 39z" />
    <glyph glyph-name="c" unicode="c" horiz-adv-x="430" 
d="M93.5 39.5q-59.5 52.5 -59.5 171.5q0 84 33 139.5t85 81t110 25.5q37 0 71 -9.5t74 -30.5l-39 -76q-33 16 -57 22.5t-49 6.5q-54 0 -85 -41t-31 -117q0 -136 115 -136q31 0 57.5 10t57.5 28l40 -73q-38 -24 -79 -39t-89 -15q-95 0 -154.5 52.5z" />
    <glyph glyph-name="ccedilla" unicode="&#xe7;" horiz-adv-x="430" 
d="M363 -131q0 -48 -33.5 -72.5t-91.5 -24.5q-57 0 -105 24l24 62q39 -16 69 -16q22 0 32 7.5t10 23.5q0 13 -9 20t-28.5 10t-53.5 4l11 86q-71 14 -112.5 66.5t-41.5 151.5q0 84 33 139.5t85 81t110 25.5q37 0 71 -9.5t74 -30.5l-39 -76q-33 16 -57 22.5t-49 6.5
q-54 0 -85 -41t-31 -117q0 -136 115 -136q31 0 57.5 10t57.5 28l40 -73q-34 -22 -70.5 -36t-78.5 -17v-30q96 -9 96 -89z" />
    <glyph glyph-name="d" unicode="d" horiz-adv-x="525" 
d="M460 699v-699h-95l-7 33q-71 -46 -139 -46q-90 0 -137.5 58.5t-47.5 165.5q0 81 31.5 136.5t83.5 82.5t115 27q42 0 88 -13v244zM248 73q50 0 104 32v259q-35 12 -75 12q-38 0 -67.5 -18t-46 -55t-16.5 -91q0 -139 101 -139z" />
    <glyph glyph-name="eth" unicode="&#xf0;" horiz-adv-x="525" 
d="M453.5 458q34.5 -83 34.5 -203q0 -84 -27.5 -144t-79 -92t-121.5 -32q-63 0 -114 22t-81.5 70.5t-30.5 124.5q0 70 27 118t71.5 71t98.5 23q74 0 136 -38q-20 94 -81 158l-69 -64l-57 50l64 60q-19 9 -43 17.5l-48 16.5l-23 8l37 77q47 -15 80.5 -28t62.5 -31l63 59
l57 -51l-57 -53q66 -56 100.5 -139zM348.5 122q29.5 46 29.5 135q0 24 -1 35q-31 19 -58 29t-57 10q-65 0 -92 -33.5t-27 -97.5q0 -58 29 -91t84 -33q63 0 92.5 46z" />
    <glyph glyph-name="e" unicode="e" horiz-adv-x="476" 
d="M440 200h-298q4 -66 37.5 -97t83.5 -31q36 0 65 9.5t66 30.5l38 -70q-36 -25 -80.5 -40t-96.5 -15q-64 0 -113.5 23t-78.5 74t-29 132q0 70 25 124.5t74 85.5t118 31q62 0 105 -24.5t65 -68t22 -97.5q0 -31 -3 -67zM182 352q-26 -27 -35 -77h192v3q0 52 -23.5 76.5
t-63.5 24.5q-44 0 -70 -27z" />
    <glyph glyph-name="eacute" unicode="&#xe9;" horiz-adv-x="476" 
d="M440 200h-298q4 -66 37.5 -97t83.5 -31q36 0 65 9.5t66 30.5l38 -70q-36 -25 -80.5 -40t-96.5 -15q-64 0 -113.5 23t-78.5 74t-29 132q0 70 25 124.5t74 85.5t118 31q62 0 105 -24.5t65 -68t22 -97.5q0 -31 -3 -67zM182 352q-26 -27 -35 -77h192v3q0 52 -23.5 76.5
t-63.5 24.5q-44 0 -70 -27zM198 489l-38 50l166 131l58 -87z" />
    <glyph glyph-name="ecircumflex" unicode="&#xea;" horiz-adv-x="476" 
d="M440 200h-298q4 -66 37.5 -97t83.5 -31q36 0 65 9.5t66 30.5l38 -70q-36 -25 -80.5 -40t-96.5 -15q-64 0 -113.5 23t-78.5 74t-29 132q0 70 25 124.5t74 85.5t118 31q62 0 105 -24.5t65 -68t22 -97.5q0 -31 -3 -67zM182 352q-26 -27 -35 -77h192v3q0 52 -23.5 76.5
t-63.5 24.5q-44 0 -70 -27zM148 499l-45 43l104 107h88l104 -107l-44 -44l-103 69z" />
    <glyph glyph-name="edieresis" unicode="&#xeb;" horiz-adv-x="476" 
d="M440 200h-298q4 -66 37.5 -97t83.5 -31q36 0 65 9.5t66 30.5l38 -70q-36 -25 -80.5 -40t-96.5 -15q-64 0 -113.5 23t-78.5 74t-29 132q0 70 25 124.5t74 85.5t118 31q62 0 105 -24.5t65 -68t22 -97.5q0 -31 -3 -67zM182 352q-26 -27 -35 -77h192v3q0 52 -23.5 76.5
t-63.5 24.5q-44 0 -70 -27zM124.5 528.5q-14.5 8.5 -23.5 22.5t-9 30q0 17 9 31.5t23.5 23t31.5 8.5t31.5 -8.5t23.5 -23t9 -31.5q0 -16 -9 -30t-23.5 -22.5t-31.5 -8.5t-31.5 8.5zM314.5 528.5q-14.5 8.5 -23.5 22.5t-9 30q0 17 9 31.5t23.5 23t31.5 8.5t31.5 -8.5
t23.5 -23t9 -31.5q0 -16 -9 -30t-23.5 -22.5t-31.5 -8.5t-31.5 8.5z" />
    <glyph glyph-name="egrave" unicode="&#xe8;" horiz-adv-x="476" 
d="M440 200h-298q4 -66 37.5 -97t83.5 -31q36 0 65 9.5t66 30.5l38 -70q-36 -25 -80.5 -40t-96.5 -15q-64 0 -113.5 23t-78.5 74t-29 132q0 70 25 124.5t74 85.5t118 31q62 0 105 -24.5t65 -68t22 -97.5q0 -31 -3 -67zM182 352q-26 -27 -35 -77h192v3q0 52 -23.5 76.5
t-63.5 24.5q-44 0 -70 -27zM303 489l-186 94l58 87l166 -131z" />
    <glyph glyph-name="f" unicode="f" horiz-adv-x="330" 
d="M217 582.5q-18 -22.5 -18 -62.5v-77h127l-11 -85h-116v-358h-108v358h-74v85h74v75q0 52 19.5 92t57.5 62.5t91 22.5q59 0 106 -19l-27 -85q-34 14 -70 14q-33 0 -51 -22.5z" />
    <glyph glyph-name="f.short" horiz-adv-x="330" 
d="M199 443h127l-11 -85h-116v-358h-108v358h-74v85h74v77q0 52 19 91t56 61t89 22q48 0 87 -17l-32 -83q-21 9 -47 9q-64 0 -64 -81v-79z" />
    <glyph glyph-name="g" unicode="g" horiz-adv-x="511" 
d="M420 62q39 -13 59.5 -38t20.5 -66q0 -47 -30.5 -82.5t-87 -55t-133.5 -19.5q-99 0 -160.5 31t-61.5 95q0 37 19 62.5t52 45.5q-29 23 -29 54q0 20 11.5 38t38.5 37q-38 20 -57 54t-19 77q0 56 29 92t76.5 53t105.5 17q30 0 58 -5l153 64l34 -86l-98 -25
q27 -21 40.5 -49.5t13.5 -63.5q0 -55 -29 -89.5t-76 -50t-104 -15.5q-29 0 -61 5q-9 -12 -9 -25q0 -9 6.5 -15t23 -9.5t47.5 -6.5l69 -6q59 -5 98 -18zM176 356q-24 -22 -24 -60q0 -39 24.5 -60t75.5 -21t73 21t22 58q0 40 -25 62t-73 22q-49 0 -73 -22zM347 -104.5
q37 15.5 37 47.5q0 16 -10.5 26t-33.5 16t-63 10l-65 5q-29 3 -53 9q-14 -15 -22 -32.5t-8 -33.5q0 -31 28 -47t94 -16q59 0 96 15.5z" />
    <glyph glyph-name="h" unicode="h" horiz-adv-x="525" 
d="M429 424q36 -33 36 -103v-321h-108v284q0 33 -7 51.5t-22.5 26.5t-42.5 8q-53 0 -111 -30v-340h-108v688l108 11v-285q77 43 154 43q65 0 101 -33z" />
    <glyph glyph-name="i" unicode="i" horiz-adv-x="239" 
d="M82.5 532.5q-16.5 9.5 -26.5 26t-10 35.5t10 35.5t26.5 26.5t35.5 10q20 0 37 -10t27 -26.5t10 -35.5t-10 -35.5t-27 -26t-37 -9.5q-19 0 -35.5 9.5zM66 0v442l108 11v-453h-108z" />
    <glyph glyph-name="dotlessi" unicode="&#x131;" horiz-adv-x="239" 
d="M66 0v442l108 11v-453h-108z" />
    <glyph glyph-name="iacute" unicode="&#xed;" horiz-adv-x="239" 
d="M66 0v442l108 11v-453h-108zM66 489l-38 50l166 131l58 -87z" />
    <glyph glyph-name="icircumflex" unicode="&#xee;" horiz-adv-x="239" 
d="M66 0v442l108 11v-453h-108zM16 499l-45 43l104 107h88l104 -107l-44 -44l-103 69z" />
    <glyph glyph-name="idieresis" unicode="&#xef;" horiz-adv-x="239" 
d="M66 0v442l108 11v-453h-108zM8.5 528q-14.5 8 -23 22t-8.5 31t8.5 31t23 22.5t30.5 8.5q17 0 31.5 -8t23 -22.5t8.5 -31.5q0 -26 -18.5 -43.5t-44.5 -17.5q-16 0 -30.5 8zM167.5 528q-14.5 8 -23 22t-8.5 31t8.5 31.5t23 22.5t30.5 8t30.5 -8t23.5 -22.5t9 -31.5t-9 -31
t-23.5 -22t-30.5 -8t-30.5 8z" />
    <glyph glyph-name="igrave" unicode="&#xec;" horiz-adv-x="239" 
d="M66 0v442l108 11v-453h-108zM171 489l-186 94l58 87l166 -131z" />
    <glyph glyph-name="j" unicode="j" horiz-adv-x="239" 
d="M83.5 532.5q-16.5 9.5 -26.5 26t-10 35.5t10 35.5t26.5 26.5t35.5 10q20 0 37 -10t27 -26.5t10 -35.5t-10 -35.5t-27 -26t-37 -9.5q-19 0 -35.5 9.5zM-75 -179l26 78q33 -11 56 -11q30 0 44.5 17t14.5 52v486l108 12v-493q0 -80 -40 -120.5t-110 -40.5q-50 0 -99 20z" />
    <glyph glyph-name="j.short" horiz-adv-x="239" 
d="M82.5 532.5q-16.5 9.5 -26.5 26t-10 35.5t10 35.5t26.5 26.5t36.5 10t36.5 -10t26.5 -26.5t10 -35.5t-10 -35.5t-26.5 -26t-36.5 -9.5t-36.5 9.5zM-18 -188l24 80q9 -3 20 -3q19 0 29.5 14t10.5 39v501l108 12v-506q0 -72 -35.5 -110t-94.5 -38q-34 0 -62 11z" />
    <glyph glyph-name="k" unicode="k" horiz-adv-x="485" 
d="M292 238l183 -231v-7h-129l-172 227v-227h-108v688l108 11v-457l175 201h117v-6z" />
    <glyph glyph-name="l" unicode="l" horiz-adv-x="239" 
d="M66 0v688l108 11v-699h-108z" />
    <glyph glyph-name="lslash" unicode="&#x142;" horiz-adv-x="328" 
d="M318 407l-102 -70v-337h-108v251l-48 -34l-50 71l98 68v332l108 11v-259l52 36z" />
    <glyph glyph-name="m" unicode="m" horiz-adv-x="782" 
d="M687.5 423.5q33.5 -33.5 33.5 -102.5v-321h-108v284q0 33 -6 51.5t-19 26.5t-36 8q-49 0 -106 -30q1 -6 1 -19v-321h-108v284q0 33 -6 51.5t-19 26.5t-36 8q-24 0 -51 -8t-53 -22v-340h-108v442l108 11v-39q75 43 146 43q76 0 106 -50q38 22 81 36t87 14q60 0 93.5 -33.5
z" />
    <glyph glyph-name="n" unicode="n" horiz-adv-x="527" 
d="M430.5 423.5q35.5 -33.5 35.5 -104.5v-319h-108v284q0 33 -6.5 51.5t-22 26.5t-42.5 8q-51 0 -113 -31v-339h-108v442l108 11v-43q81 47 156 47q65 0 100.5 -33.5z" />
    <glyph glyph-name="ntilde" unicode="&#xf1;" horiz-adv-x="527" 
d="M430.5 423.5q35.5 -33.5 35.5 -104.5v-319h-108v284q0 33 -6.5 51.5t-22 26.5t-42.5 8q-51 0 -113 -31v-339h-108v442l108 11v-43q81 47 156 47q65 0 100.5 -33.5zM282.5 515.5q-17.5 8.5 -36.5 23.5q-12 9 -20 13.5t-16 4.5q-14 0 -25.5 -10t-24.5 -34l-57 22
q21 54 49 81t68 27q25 0 42.5 -8.5t36.5 -22.5q12 -9 20 -13.5t16 -4.5q14 0 25.5 9.5t24.5 33.5l57 -21q-20 -54 -49 -81.5t-69 -27.5q-24 0 -41.5 8.5z" />
    <glyph glyph-name="o" unicode="o" horiz-adv-x="522" 
d="M132 18.5q-49 31.5 -73.5 85t-24.5 119.5q0 83 31.5 135t84.5 75.5t119 23.5q73 0 122 -30.5t73.5 -83.5t24.5 -121q0 -82 -31.5 -134.5t-84.5 -76.5t-120 -24q-72 0 -121 31.5zM349.5 111.5q26.5 40.5 26.5 111.5t-27.5 110.5t-84.5 39.5q-63 0 -90.5 -39t-27.5 -111
q0 -70 28.5 -111t86.5 -41q62 0 88.5 40.5z" />
    <glyph glyph-name="oacute" unicode="&#xf3;" horiz-adv-x="522" 
d="M132 18.5q-49 31.5 -73.5 85t-24.5 119.5q0 83 31.5 135t84.5 75.5t119 23.5q73 0 122 -30.5t73.5 -83.5t24.5 -121q0 -82 -31.5 -134.5t-84.5 -76.5t-120 -24q-72 0 -121 31.5zM349.5 111.5q26.5 40.5 26.5 111.5t-27.5 110.5t-84.5 39.5q-63 0 -90.5 -39t-27.5 -111
q0 -70 28.5 -111t86.5 -41q62 0 88.5 40.5zM209 489l-38 50l166 131l58 -87z" />
    <glyph glyph-name="ocircumflex" unicode="&#xf4;" horiz-adv-x="522" 
d="M132 18.5q-49 31.5 -73.5 85t-24.5 119.5q0 83 31.5 135t84.5 75.5t119 23.5q73 0 122 -30.5t73.5 -83.5t24.5 -121q0 -82 -31.5 -134.5t-84.5 -76.5t-120 -24q-72 0 -121 31.5zM349.5 111.5q26.5 40.5 26.5 111.5t-27.5 110.5t-84.5 39.5q-63 0 -90.5 -39t-27.5 -111
q0 -70 28.5 -111t86.5 -41q62 0 88.5 40.5zM159 499l-45 43l104 107h88l104 -107l-44 -44l-103 69z" />
    <glyph glyph-name="odieresis" unicode="&#xf6;" horiz-adv-x="522" 
d="M132 18.5q-49 31.5 -73.5 85t-24.5 119.5q0 83 31.5 135t84.5 75.5t119 23.5q73 0 122 -30.5t73.5 -83.5t24.5 -121q0 -82 -31.5 -134.5t-84.5 -76.5t-120 -24q-72 0 -121 31.5zM349.5 111.5q26.5 40.5 26.5 111.5t-27.5 110.5t-84.5 39.5q-63 0 -90.5 -39t-27.5 -111
q0 -70 28.5 -111t86.5 -41q62 0 88.5 40.5zM135.5 528.5q-14.5 8.5 -23.5 22.5t-9 30q0 17 9 31.5t23.5 23t31.5 8.5t31.5 -8.5t23.5 -23t9 -31.5q0 -16 -9 -30t-23.5 -22.5t-31.5 -8.5t-31.5 8.5zM325.5 528.5q-14.5 8.5 -23.5 22.5t-9 30q0 17 9 31.5t23.5 23t31.5 8.5
t31.5 -8.5t23.5 -23t9 -31.5q0 -16 -9 -30t-23.5 -22.5t-31.5 -8.5t-31.5 8.5z" />
    <glyph glyph-name="ograve" unicode="&#xf2;" horiz-adv-x="522" 
d="M132 18.5q-49 31.5 -73.5 85t-24.5 119.5q0 83 31.5 135t84.5 75.5t119 23.5q73 0 122 -30.5t73.5 -83.5t24.5 -121q0 -82 -31.5 -134.5t-84.5 -76.5t-120 -24q-72 0 -121 31.5zM349.5 111.5q26.5 40.5 26.5 111.5t-27.5 110.5t-84.5 39.5q-63 0 -90.5 -39t-27.5 -111
q0 -70 28.5 -111t86.5 -41q62 0 88.5 40.5zM314 489l-186 94l58 87l166 -131z" />
    <glyph glyph-name="oslash" unicode="&#xf8;" horiz-adv-x="522" 
d="M472.5 324q16.5 -46 16.5 -102q0 -82 -31.5 -134.5t-84.5 -76.5t-120 -24q-48 0 -90 16l-39 -59l-76 45l42 64q-28 32 -42 75.5t-14 94.5q0 83 31.5 135t84.5 75.5t119 23.5q43 0 79 -11l33 51l75 -45l-33 -50q33 -32 49.5 -78zM169 340q-29 -41 -29 -117q0 -49 14 -88
l154 239q-23 7 -44 7q-66 0 -95 -41zM354.5 105.5q27.5 42.5 27.5 117.5q0 64 -20 101l-160 -247q25 -14 59 -14q66 0 93.5 42.5z" />
    <glyph glyph-name="otilde" unicode="&#xf5;" horiz-adv-x="522" 
d="M132 18.5q-49 31.5 -73.5 85t-24.5 119.5q0 83 31.5 135t84.5 75.5t119 23.5q73 0 122 -30.5t73.5 -83.5t24.5 -121q0 -82 -31.5 -134.5t-84.5 -76.5t-120 -24q-72 0 -121 31.5zM349.5 111.5q26.5 40.5 26.5 111.5t-27.5 110.5t-84.5 39.5q-63 0 -90.5 -39t-27.5 -111
q0 -70 28.5 -111t86.5 -41q62 0 88.5 40.5zM274.5 515.5q-17.5 8.5 -36.5 23.5q-12 9 -20 13.5t-16 4.5q-14 0 -25.5 -10t-24.5 -34l-57 22q21 54 49 81t68 27q25 0 42.5 -8.5t36.5 -22.5q12 -9 20 -13.5t16 -4.5q14 0 25.5 9.5t24.5 33.5l57 -21q-20 -54 -49 -81.5
t-69 -27.5q-24 0 -41.5 8.5z" />
    <glyph glyph-name="oe" unicode="&#x153;" horiz-adv-x="783" 
d="M746 202h-288q4 -69 36 -99.5t81 -30.5q35 0 63 9.5t64 30.5l37 -70q-77 -55 -172 -55q-53 0 -93.5 18.5t-66.5 56.5q-27 -38 -69.5 -56.5t-93.5 -18.5q-68 0 -115.5 31.5t-71 85t-23.5 119.5q0 82 30.5 134.5t80.5 76t111 23.5q54 0 93.5 -21.5t64.5 -60.5q50 82 152 82
q58 0 99.5 -25t62.5 -68t21 -97q0 -32 -3 -65zM462 273h185q0 106 -83 106q-84 0 -102 -106zM336.5 111.5q25.5 40.5 25.5 111.5q0 150 -108 150q-57 0 -82.5 -39t-25.5 -111q0 -70 26.5 -111t78.5 -41q60 0 85.5 40.5z" />
    <glyph glyph-name="p" unicode="p" horiz-adv-x="527" 
d="M413 428.5q41 -28.5 60.5 -79t19.5 -116.5q0 -81 -32 -136.5t-84.5 -82.5t-116.5 -27q-40 0 -86 12v-185h-108v628l108 11v-39q34 21 69 32t68 11q61 0 102 -28.5zM343.5 110q36.5 41 36.5 122q0 73 -25.5 105.5t-77.5 32.5q-49 0 -103 -31v-260q38 -10 72 -10
q61 0 97.5 41z" />
    <glyph glyph-name="thorn" unicode="&#xfe;" horiz-adv-x="527" 
d="M413 428.5q41 -28.5 60.5 -79t19.5 -116.5q0 -81 -32 -136.5t-84.5 -82.5t-116.5 -27q-40 0 -86 12v-185h-108v874l108 11v-285q34 21 69 32t68 11q61 0 102 -28.5zM343.5 110q36.5 41 36.5 122q0 73 -25.5 105.5t-77.5 32.5q-49 0 -103 -31v-260q38 -10 72 -10
q61 0 97.5 41z" />
    <glyph glyph-name="q" unicode="q" horiz-adv-x="525" 
d="M363 449.5q40 -6.5 97 -24.5v-611h-108v213q-69 -40 -137 -40q-59 0 -99.5 27.5t-61 77t-20.5 116.5q0 90 38 145.5t95.5 79t119.5 23.5q36 0 76 -6.5zM352 103v264q-31 7 -62 7q-63 0 -103 -40t-40 -127q0 -65 24.5 -99.5t73.5 -34.5q48 0 107 30z" />
    <glyph glyph-name="r" unicode="r" horiz-adv-x="371" 
d="M358 448l-18 -110q-16 6 -30 9t-31 3q-29 0 -54.5 -13t-50.5 -49v-288h-108v443l108 10v-63q24 33 56.5 50t69.5 17q28 0 58 -9z" />
    <glyph glyph-name="s" unicode="s" horiz-adv-x="428" 
d="M106.5 2q-48.5 15 -90.5 45l46 73q71 -51 151 -51q39 0 59.5 13t20.5 37q0 14 -7.5 24.5t-27.5 20.5t-57 20l-30 8q-71 19 -103 50t-32 82q0 39 22 69t61.5 47t89.5 17q95 0 177 -48l-42 -72q-42 22 -71 30t-62 8q-31 0 -48 -12t-17 -32q0 -12 6 -20.5t21 -15t43 -13.5
l32 -8q81 -22 117.5 -56.5t36.5 -88.5q0 -41 -21 -73t-63 -50.5t-102 -18.5q-61 0 -109.5 15z" />
    <glyph glyph-name="scaron" unicode="&#x161;" horiz-adv-x="428" 
d="M106.5 2q-48.5 15 -90.5 45l46 73q71 -51 151 -51q39 0 59.5 13t20.5 37q0 14 -7.5 24.5t-27.5 20.5t-57 20l-30 8q-71 19 -103 50t-32 82q0 39 22 69t61.5 47t89.5 17q95 0 177 -48l-42 -72q-42 22 -71 30t-62 8q-31 0 -48 -12t-17 -32q0 -12 6 -20.5t21 -15t43 -13.5
l32 -8q81 -22 117.5 -56.5t36.5 -88.5q0 -41 -21 -73t-63 -50.5t-102 -18.5q-61 0 -109.5 15zM166 498l-104 107l45 43l104 -68l103 69l44 -44l-104 -107h-88z" />
    <glyph glyph-name="germandbls" unicode="&#xdf;" horiz-adv-x="548" 
d="M446 317.5q39 -36.5 53.5 -75.5t14.5 -83q0 -56 -22.5 -94.5t-62.5 -58t-94 -19.5q-35 0 -65 7t-58 22l33 76q38 -19 80 -19q36 0 57 20t21 65q0 61 -37.5 106t-128.5 75v47q45 42 67.5 83t22.5 74q0 70 -73 70q-35 0 -57.5 -18.5t-22.5 -57.5v-537h-108v520
q0 59 26 98.5t69.5 58t95.5 18.5q83 0 131.5 -37.5t48.5 -107.5q0 -42 -26.5 -82.5t-72.5 -81.5q69 -32 108 -68.5z" />
    <glyph glyph-name="t" unicode="t" horiz-adv-x="366" 
d="M354 17q-58 -30 -120 -30q-39 0 -70 15t-49 47t-18 80v229h-85v85h85v100l108 16v-116h138l-11 -85h-127v-212q0 -37 13.5 -54t39.5 -17q15 0 30 4t36 12z" />
    <glyph glyph-name="u" unicode="u" horiz-adv-x="524" 
d="M458 453v-453h-94l-8 34q-78 -47 -157 -47q-63 0 -100.5 36t-37.5 103v316l108 11v-295q0 -30 6.5 -48t22.5 -26.5t44 -8.5q44 0 108 34v333z" />
    <glyph glyph-name="uacute" unicode="&#xfa;" horiz-adv-x="524" 
d="M458 453v-453h-94l-8 34q-78 -47 -157 -47q-63 0 -100.5 36t-37.5 103v316l108 11v-295q0 -30 6.5 -48t22.5 -26.5t44 -8.5q44 0 108 34v333zM208 489l-38 50l166 131l58 -87z" />
    <glyph glyph-name="ucircumflex" unicode="&#xfb;" horiz-adv-x="524" 
d="M458 453v-453h-94l-8 34q-78 -47 -157 -47q-63 0 -100.5 36t-37.5 103v316l108 11v-295q0 -30 6.5 -48t22.5 -26.5t44 -8.5q44 0 108 34v333zM158 499l-45 43l104 107h88l104 -107l-44 -44l-103 69z" />
    <glyph glyph-name="udieresis" unicode="&#xfc;" horiz-adv-x="524" 
d="M458 453v-453h-94l-8 34q-78 -47 -157 -47q-63 0 -100.5 36t-37.5 103v316l108 11v-295q0 -30 6.5 -48t22.5 -26.5t44 -8.5q44 0 108 34v333zM134.5 528.5q-14.5 8.5 -23.5 22.5t-9 30q0 17 9 31.5t23.5 23t31.5 8.5t31.5 -8.5t23.5 -23t9 -31.5q0 -16 -9 -30
t-23.5 -22.5t-31.5 -8.5t-31.5 8.5zM324.5 528.5q-14.5 8.5 -23.5 22.5t-9 30q0 17 9 31.5t23.5 23t31.5 8.5t31.5 -8.5t23.5 -23t9 -31.5q0 -16 -9 -30t-23.5 -22.5t-31.5 -8.5t-31.5 8.5z" />
    <glyph glyph-name="ugrave" unicode="&#xf9;" horiz-adv-x="524" 
d="M458 453v-453h-94l-8 34q-78 -47 -157 -47q-63 0 -100.5 36t-37.5 103v316l108 11v-295q0 -30 6.5 -48t22.5 -26.5t44 -8.5q44 0 108 34v333zM313 489l-186 94l58 87l166 -131z" />
    <glyph glyph-name="v" unicode="v" horiz-adv-x="462" 
d="M457 443v-6l-172 -437h-104l-176 437v6h117l93 -263q14 -39 21 -72q2 9 7 26.5l13 45.5l84 263h117z" />
    <glyph glyph-name="w" unicode="w" horiz-adv-x="676" 
d="M668 443v-6l-131 -437h-103l-73 246q-15 51 -20 82q-6 -39 -19 -82l-70 -247h-103l-140 438v6h117l65 -247q8 -30 14 -69q11 51 16 69l69 247h109l70 -244q12 -45 18 -80q4 38 13 80l59 244h109z" />
    <glyph glyph-name="x" unicode="x" horiz-adv-x="470" 
d="M304 230l154 -223v-7h-126l-98 159l-107 -159h-115v7l157 221l-148 209v6h124l94 -145l95 145h112v-6z" />
    <glyph glyph-name="y" unicode="y" horiz-adv-x="459" 
d="M453 443v-6l-153 -447q-23 -68 -51 -109.5t-65 -60.5t-88 -19q-45 0 -93 16l28 79q28 -9 56 -9q24 0 42 7t34.5 28.5t32.5 63.5l5 14h-29l-168 437v6h114l92 -263q16 -44 25 -80q16 58 23 80l84 263h111z" />
    <glyph glyph-name="yacute" unicode="&#xfd;" horiz-adv-x="459" 
d="M453 443v-6l-153 -447q-23 -68 -51 -109.5t-65 -60.5t-88 -19q-45 0 -93 16l28 79q28 -9 56 -9q24 0 42 7t34.5 28.5t32.5 63.5l5 14h-29l-168 437v6h114l92 -263q16 -44 25 -80q16 58 23 80l84 263h111zM178 489l-38 50l166 131l58 -87z" />
    <glyph glyph-name="ydieresis" unicode="&#xff;" horiz-adv-x="459" 
d="M453 443v-6l-153 -447q-23 -68 -51 -109.5t-65 -60.5t-88 -19q-45 0 -93 16l28 79q28 -9 56 -9q24 0 42 7t34.5 28.5t32.5 63.5l5 14h-29l-168 437v6h114l92 -263q16 -44 25 -80q16 58 23 80l84 263h111zM104.5 528.5q-14.5 8.5 -23.5 22.5t-9 30q0 17 9 31.5t23.5 23
t31.5 8.5t31.5 -8.5t23.5 -23t9 -31.5q0 -16 -9 -30t-23.5 -22.5t-31.5 -8.5t-31.5 8.5zM294.5 528.5q-14.5 8.5 -23.5 22.5t-9 30q0 17 9 31.5t23.5 23t31.5 8.5t31.5 -8.5t23.5 -23t9 -31.5q0 -16 -9 -30t-23.5 -22.5t-31.5 -8.5t-31.5 8.5z" />
    <glyph glyph-name="z" unicode="z" horiz-adv-x="431" 
d="M403 443v-47l-227 -305h226v-91h-380v49l230 303h-214l12 91h353z" />
    <glyph glyph-name="zcaron" unicode="&#x17e;" horiz-adv-x="431" 
d="M403 443v-47l-227 -305h226v-91h-380v49l230 303h-214l12 91h353zM175 498l-104 107l45 43l104 -68l103 69l44 -44l-104 -107h-88z" />
    <glyph glyph-name="ordfeminine" unicode="&#xaa;" horiz-adv-x="402" 
d="M358 539v-257h-82l-8 29q-31 -22 -62 -31t-66 -9q-34 0 -59.5 13t-40 36.5t-14.5 54.5q0 44 31 74.5t84.5 46t120.5 17.5v16q0 31 -13 45t-46 14q-26 0 -58 -11t-65 -32l-40 59q86 57 177 57q141 0 141 -122zM138.5 356q12.5 -9 34.5 -9t43.5 6t45.5 20v75
q-67 -4 -101.5 -21t-34.5 -44q0 -18 12.5 -27z" />
    <glyph glyph-name="ordmasculine" unicode="&#xba;" horiz-adv-x="436" 
d="M109.5 297q-41.5 26 -62 70.5t-20.5 99.5q0 67 26.5 110.5t71.5 63.5t100 20q60 0 101.5 -26t62.5 -70t21 -99q0 -67 -27 -110.5t-72 -64t-100 -20.5q-60 0 -101.5 26zM286.5 379q20.5 32 20.5 88q0 54 -21.5 86t-65.5 32q-48 0 -69 -31.5t-21 -86.5t22 -87.5t66 -32.5
q48 0 68.5 32z" />
    <glyph glyph-name="uni0394" unicode="&#x394;" horiz-adv-x="648" 
d="M394 648l239 -641v-7h-618v7l238 641h141zM164 93h316l-159 449z" />
    <glyph glyph-name="uni03A9" unicode="&#x3a9;" horiz-adv-x="731" 
d="M564 92q62 5 112 5v-97h-231v84q67 32 92.5 97t25.5 149q0 68 -21.5 121.5t-66.5 84t-111 30.5t-110 -30.5t-65 -82.5t-21 -119q0 -85 25 -150t94 -100v-84h-231v97q50 0 112 -5q-59 36 -88.5 96.5t-29.5 144.5q0 109 44 182.5t116.5 109.5t159.5 36q97 0 167 -42.5
t107 -117t37 -170.5q0 -169 -117 -239z" />
    <glyph glyph-name="uni03BC" unicode="&#x3bc;" horiz-adv-x="529" 
d="M463 453v-453h-94l-7 34q-31 -20 -64.5 -31t-65.5 -11q-40 0 -69 18q11 -42 11 -84v-112h-108v628l108 11v-295q0 -30 6.5 -48t22.5 -26.5t44 -8.5q44 0 108 34v333z" />
    <glyph glyph-name="pi" unicode="&#x3c0;" horiz-adv-x="540" 
d="M530 443l-11 -85h-53v-358h-108v358h-164v-358h-108v358h-61v85h505z" />
    <glyph glyph-name="uni0621" unicode="&#x621;" horiz-adv-x="397" 
d="M356 19q-82 -9 -151 -13.5t-178 -10.5l-6 84l83 4q-30 43 -30 92q0 39 18 71t50.5 50t73.5 18q28 0 56.5 -6t51.5 -18l-26 -80q-41 16 -71 16t-46.5 -17.5t-16.5 -45.5q0 -19 8.5 -38.5t23.5 -35.5q98 7 151 13z" />
    <glyph glyph-name="uni0627" unicode="&#x627;" horiz-adv-x="226" 
d="M70 -6l-7 4v665l92 24l7 -5l-1 -669z" />
    <glyph glyph-name="uni0627.short" horiz-adv-x="226" 
d="M70 -6l-7 4v665l92 24l7 -5l-1 -669z" />
    <glyph glyph-name="uniFE8E.short" horiz-adv-x="226" 
d="M70 -6l-7 4v665l92 24l7 -5l-1 -669z" />
    <glyph glyph-name="uni0623" unicode="&#x623;" horiz-adv-x="226" 
d="M70 -6l-7 4v665l92 24l7 -5l-1 -669zM208 758q-79 -10 -193 -14l-6 62q30 0 46 1q-10 13 -15 28.5t-5 31.5q0 37 22.5 59.5t62.5 22.5q34 0 72 -15l-16 -58q-30 10 -45 10q-17 0 -26.5 -10t-9.5 -25q0 -11 5 -22t14 -19q62 4 89 7z" />
    <glyph glyph-name="uni0625" unicode="&#x625;" horiz-adv-x="226" 
d="M70 -6l-7 4v665l92 24l7 -5l-1 -669zM212 -250q-79 -10 -193 -14l-6 61q30 0 46 1q-9 13 -14.5 29t-5.5 32q0 37 22.5 59.5t62.5 22.5q35 0 72 -15l-16 -58q-30 10 -45 10q-17 0 -26.5 -10t-9.5 -25q0 -11 5.5 -22.5t14.5 -19.5q62 4 88 7z" />
    <glyph glyph-name="uni0622" unicode="&#x622;" horiz-adv-x="226" 
d="M70 -6l-7 4v665l92 24l7 -5l-1 -669zM162.5 734.5q-13.5 3.5 -29.5 9.5q-18 6 -29.5 9t-28.5 3q-36 0 -77 -26l-31 50q26 24 50.5 34t48.5 10q18 0 33 -3.5t32 -9.5q15 -5 32.5 -9t35.5 -4q24 0 44 8l21 -58q-33 -17 -69 -17q-19 0 -32.5 3.5z" />
    <glyph glyph-name="uni0671" unicode="&#x671;" horiz-adv-x="226" 
d="M70 -6l-7 4v665l92 24l7 -5l-1 -669zM199 853q12 -8 18.5 -21t6.5 -27q0 -28 -20.5 -46t-70.5 -18q-37 0 -60 5t-39 13q-22 -17 -56 -17l9 37q12 0 18 2t12 8q8 11 18 45l40 5l3 -2q-12 -33 -22 -50q3 0 9 -1.5t11 -1.5q32 41 52.5 59t42.5 18q16 0 28 -8zM189 797
q0 11 -5 18t-15 7q-11 0 -23 -10t-32 -32h19q17 0 33.5 1.5t21.5 4.5q1 4 1 11z" />
    <glyph glyph-name="uni066E" unicode="&#x66e;" horiz-adv-x="850" 
d="M781.5 255q11.5 -49 11.5 -82q0 -43 -17.5 -80.5t-51.5 -58.5q-37 -23 -109 -34t-169 -11h-65q-168 0 -253.5 44.5t-85.5 140.5q0 63 16 116l73 28l8 -5q-9 -49 -9 -87q0 -55 30.5 -85t91 -42t160.5 -12h63q72 0 135.5 7.5t93.5 19.5q1 5 1 17q0 30 -12.5 66t-39.5 95
l84 65h10q23 -53 34.5 -102z" />
    <glyph glyph-name="uni066E.medi.wide" horiz-adv-x="347" 
d="M401 90.5q9 -8.5 9 -24.5q0 -28 -13.5 -47t-48.5 -19q-53 0 -98 11.5t-74 35.5q-26 -24 -60.5 -35.5t-81.5 -11.5h-34l23 99h27q22 0 42 4t31 12q19 36 42 147l100 24l10 -7q-12 -51 -23 -88.5t-24 -66.5q48 -25 142 -25q22 0 31 -8.5z" />
    <glyph glyph-name="uni066E.init.wide" horiz-adv-x="305" 
d="M23 99h29q80 0 102 10q4 11 4 27q0 30 -14 68.5t-38 88.5l79 64h10q24 -53 38.5 -105.5t14.5 -85.5q0 -36 -13 -70t-37 -57q-23 -22 -59 -30.5t-108 -8.5h-31z" />
    <glyph glyph-name="uni0628" unicode="&#x628;" horiz-adv-x="850" 
d="M781.5 255q11.5 -49 11.5 -82q0 -43 -17.5 -80.5t-51.5 -58.5q-37 -23 -109 -34t-169 -11h-65q-168 0 -253.5 44.5t-85.5 140.5q0 63 16 116l73 28l8 -5q-9 -49 -9 -87q0 -55 30.5 -85t91 -42t160.5 -12h63q72 0 135.5 7.5t93.5 19.5q1 5 1 17q0 30 -12.5 66t-39.5 95
l84 65h10q23 -53 34.5 -102zM430 -236l-93 65l58 85l93 -63z" />
    <glyph glyph-name="uniFE91.yeh" horiz-adv-x="267" 
d="M0 30q60 22 87 44q-3 33 -16 68.5t-36 83.5l80 64h11q26 -62 39.5 -107t13.5 -76q0 -37 -20.5 -66.5t-69.5 -56.5l-51 -1zM169 -472l-93 65l58 85l93 -63z" />
    <glyph glyph-name="uni067E" unicode="&#x67e;" horiz-adv-x="850" 
d="M781.5 255q11.5 -49 11.5 -82q0 -43 -17.5 -80.5t-51.5 -58.5q-37 -23 -109 -34t-169 -11h-65q-168 0 -253.5 44.5t-85.5 140.5q0 63 16 116l73 28l8 -5q-9 -49 -9 -87q0 -55 30.5 -85t91 -42t160.5 -12h63q72 0 135.5 7.5t93.5 19.5q1 5 1 17q0 30 -12.5 66t-39.5 95
l84 65h10q23 -53 34.5 -102zM360 -231l-90 62l57 85l90 -64zM503 -231l-89 62l54 85l91 -64zM445 -346l-91 61l57 86l90 -64z" />
    <glyph glyph-name="uniFBE8.yeh" horiz-adv-x="267" 
d="M0 30q60 22 87 44q-3 33 -16 68.5t-36 83.5l80 64h11q26 -62 39.5 -107t13.5 -76q0 -37 -20.5 -66.5t-69.5 -56.5l-51 -1z" />
    <glyph glyph-name="uni062A" unicode="&#x62a;" horiz-adv-x="850" 
d="M781.5 255q11.5 -49 11.5 -82q0 -43 -17.5 -80.5t-51.5 -58.5q-37 -23 -109 -34t-169 -11h-65q-168 0 -253.5 44.5t-85.5 140.5q0 63 16 116l73 28l8 -5q-9 -49 -9 -87q0 -55 30.5 -85t91 -42t160.5 -12h63q72 0 135.5 7.5t93.5 19.5q1 5 1 17q0 30 -12.5 66t-39.5 95
l84 65h10q23 -53 34.5 -102zM376 386l-90 63l55 84l90 -62zM517 386l-90 63l56 84l90 -62z" />
    <glyph glyph-name="uniFE97.yeh" horiz-adv-x="267" 
d="M0 30q60 22 87 44q-3 33 -16 68.5t-36 83.5l80 64h11q26 -62 39.5 -107t13.5 -76q0 -37 -20.5 -66.5t-69.5 -56.5l-51 -1zM23 374l-90 63l55 84l90 -62zM164 374l-90 63l56 84l90 -62z" />
    <glyph glyph-name="uni062B" unicode="&#x62b;" horiz-adv-x="850" 
d="M781.5 255q11.5 -49 11.5 -82q0 -43 -17.5 -80.5t-51.5 -58.5q-37 -23 -109 -34t-169 -11h-65q-168 0 -253.5 44.5t-85.5 140.5q0 63 16 116l73 28l8 -5q-9 -49 -9 -87q0 -55 30.5 -85t91 -42t160.5 -12h63q72 0 135.5 7.5t93.5 19.5q1 5 1 17q0 30 -12.5 66t-39.5 95
l84 65h10q23 -53 34.5 -102zM438 512l-91 64l57 83l90 -61zM382 386l-91 63l56 84l90 -62zM523 386l-90 63l57 84l90 -62z" />
    <glyph glyph-name="uniFE9B.yeh" horiz-adv-x="267" 
d="M0 30q60 22 87 44q-3 33 -16 68.5t-36 83.5l80 64h11q26 -62 39.5 -107t13.5 -76q0 -37 -20.5 -66.5t-69.5 -56.5l-51 -1zM85 500l-91 64l57 83l90 -61zM29 374l-91 63l56 84l90 -62zM170 374l-90 63l57 84l90 -62z" />
    <glyph glyph-name="uni0679" unicode="&#x679;" horiz-adv-x="850" 
d="M781.5 255q11.5 -49 11.5 -82q0 -43 -17.5 -80.5t-51.5 -58.5q-37 -23 -109 -34t-169 -11h-65q-168 0 -253.5 44.5t-85.5 140.5q0 63 16 116l73 28l8 -5q-9 -49 -9 -87q0 -55 30.5 -85t91 -42t160.5 -12h63q72 0 135.5 7.5t93.5 19.5q1 5 1 17q0 30 -12.5 66t-39.5 95
l84 65h10q23 -53 34.5 -102zM516 565q18 -12 29 -31.5t11 -41.5q0 -42 -31 -69t-106 -27q-64 0 -108 2l-18 53l3 6h36l16 20v172h58v-106q19 17 36 25.5t36 8.5q20 0 38 -12zM507 476q0 17 -9.5 29t-23.5 12q-16 0 -35.5 -15t-48.5 -46h32q25 0 50.5 1.5t32.5 4.5q2 10 2 14
z" />
    <glyph glyph-name="uni062C" unicode="&#x62c;" horiz-adv-x="647" 
d="M626 -291l-28 -82q-32 -19 -88.5 -31t-116.5 -12q-103 0 -182.5 31.5t-124 90.5t-44.5 138q0 81 43 155.5t114 133.5t156 98l-10 3q-55 16 -91 22.5t-67 6.5q-34 0 -69.5 -6t-64.5 -16l-4 5l36 88q21 11 51.5 17.5t58.5 6.5q27 0 57 -5.5t78 -19.5q79 -24 143 -33.5
t137 -9.5l-24 -98q-128 -3 -231.5 -48.5t-162 -117.5t-58.5 -153q0 -61 35 -103.5t99 -64.5t152 -22q48 0 99.5 8t100.5 24zM383 -181l-92 66l58 85l93 -63z" />
    <glyph glyph-name="uni0686" unicode="&#x686;" horiz-adv-x="647" 
d="M626 -291l-28 -82q-32 -19 -88.5 -31t-116.5 -12q-103 0 -182.5 31.5t-124 90.5t-44.5 138q0 81 43 155.5t114 133.5t156 98l-10 3q-55 16 -91 22.5t-67 6.5q-34 0 -69.5 -6t-64.5 -16l-4 5l36 88q21 11 51.5 17.5t58.5 6.5q27 0 57 -5.5t78 -19.5q79 -24 143 -33.5
t137 -9.5l-24 -98q-128 -3 -231.5 -48.5t-162 -117.5t-58.5 -153q0 -61 35 -103.5t99 -64.5t152 -22q48 0 99.5 8t100.5 24zM348 -116l-86 58l53 81l86 -60zM488 -116l-84 58l51 81l86 -60zM432 -235l-86 57l54 83l85 -62z" />
    <glyph glyph-name="uni062D" unicode="&#x62d;" horiz-adv-x="647" 
d="M626 -291l-28 -82q-32 -19 -88.5 -31t-116.5 -12q-103 0 -182.5 31.5t-124 90.5t-44.5 138q0 81 43 155.5t114 133.5t156 98l-10 3q-55 16 -91 22.5t-67 6.5q-34 0 -69.5 -6t-64.5 -16l-4 5l36 88q21 11 51.5 17.5t58.5 6.5q27 0 57 -5.5t78 -19.5q79 -24 143 -33.5
t137 -9.5l-24 -98q-128 -3 -231.5 -48.5t-162 -117.5t-58.5 -153q0 -61 35 -103.5t99 -64.5t152 -22q48 0 99.5 8t100.5 24z" />
    <glyph glyph-name="uni062E" unicode="&#x62e;" horiz-adv-x="647" 
d="M626 -291l-28 -82q-32 -19 -88.5 -31t-116.5 -12q-103 0 -182.5 31.5t-124 90.5t-44.5 138q0 81 43 155.5t114 133.5t156 98l-10 3q-55 16 -91 22.5t-67 6.5q-34 0 -69.5 -6t-64.5 -16l-4 5l36 88q21 11 51.5 17.5t58.5 6.5q27 0 57 -5.5t78 -19.5q79 -24 143 -33.5
t137 -9.5l-24 -98q-128 -3 -231.5 -48.5t-162 -117.5t-58.5 -153q0 -61 35 -103.5t99 -64.5t152 -22q48 0 99.5 8t100.5 24zM343 463l-93 65l58 86l93 -64z" />
    <glyph glyph-name="uni062F" unicode="&#x62f;" horiz-adv-x="445" 
d="M92 -4q-37 3 -60 9l14 94l5 4q19 -4 53.5 -6.5t59.5 -2.5q48 0 94.5 8t61.5 22q-10 49 -54 111.5t-104 118.5l57 91h8q79 -83 124.5 -158.5t45.5 -136.5q0 -78 -63 -117.5t-178 -39.5q-27 0 -64 3z" />
    <glyph glyph-name="uni0630" unicode="&#x630;" horiz-adv-x="445" 
d="M92 -4q-37 3 -60 9l14 94l5 4q19 -4 53.5 -6.5t59.5 -2.5q48 0 94.5 8t61.5 22q-10 49 -54 111.5t-104 118.5l57 91h8q79 -83 124.5 -158.5t45.5 -136.5q0 -78 -63 -117.5t-178 -39.5q-27 0 -64 3zM222 550l-93 65l58 86l93 -64z" />
    <glyph glyph-name="uni0688" unicode="&#x688;" horiz-adv-x="445" 
d="M92 -4q-37 3 -60 9l14 94l5 4q19 -4 53.5 -6.5t59.5 -2.5q48 0 94.5 8t61.5 22q-10 49 -54 111.5t-104 118.5l57 91h8q79 -83 124.5 -158.5t45.5 -136.5q0 -78 -63 -117.5t-178 -39.5q-27 0 -64 3zM289 731q18 -12 29 -31.5t11 -41.5q0 -42 -31 -69t-106 -27
q-64 0 -108 2l-18 53l3 6h36l16 20v172h58v-106q19 17 36 25.5t36 8.5q20 0 38 -12zM280 642q0 17 -9.5 29t-23.5 12q-16 0 -35.5 -15t-48.5 -46h32q25 0 50.5 1.5t32.5 4.5q2 10 2 14z" />
    <glyph glyph-name="uni0631" unicode="&#x631;" horiz-adv-x="348" 
d="M-73 -107l6 9q84 15 147.5 44t97.5 62t34 58q-2 26 -22.5 75.5t-49.5 101.5l72 79h9q32 -59 51 -122.5t19 -109.5q0 -56 -28 -108q-20 -37 -61.5 -69.5t-98.5 -56.5t-123 -36z" />
    <glyph glyph-name="uni0631.beh" horiz-adv-x="351" 
d="M-4 -94l4 10q66 19 115 46t74.5 54.5t25.5 49.5q-2 26 -22.5 75.5t-49.5 101.5l71 79h9q33 -59 52 -122.5t19 -109.5q0 -33 -10 -65t-26 -56q-28 -42 -82.5 -77.5t-131.5 -56.5z" />
    <glyph glyph-name="uniFEAE.beh" horiz-adv-x="366" 
d="M420 90.5q9 -8.5 9 -24.5q0 -28 -14.5 -47t-49.5 -19q-50 0 -82 22q-21 -61 -85.5 -111t-153.5 -76l-48 71l4 10q98 28 148.5 68.5t69.5 94.5q-25 63 -76 164l72 79h10l41 -111l11 -29q15 -37 27 -54t31 -23t54 -6q23 0 32 -8.5z" />
    <glyph glyph-name="uni0632" unicode="&#x632;" horiz-adv-x="348" 
d="M-73 -107l6 9q84 15 147.5 44t97.5 62t34 58q-2 26 -22.5 75.5t-49.5 101.5l72 79h9q32 -59 51 -122.5t19 -109.5q0 -56 -28 -108q-20 -37 -61.5 -69.5t-98.5 -56.5t-123 -36zM214 427l-93 65l58 86l93 -64z" />
    <glyph glyph-name="uniFEB0.beh" horiz-adv-x="366" 
d="M420 90.5q9 -8.5 9 -24.5q0 -28 -14.5 -47t-49.5 -19q-50 0 -82 22q-21 -61 -85.5 -111t-153.5 -76l-48 71l4 10q98 28 148.5 68.5t69.5 94.5q-25 63 -76 164l72 79h10l41 -111l11 -29q15 -37 27 -54t31 -23t54 -6q23 0 32 -8.5zM217 427l-93 65l58 86l93 -64z" />
    <glyph glyph-name="uni0632.beh" horiz-adv-x="351" 
d="M-4 -94l4 10q66 19 115 46t74.5 54.5t25.5 49.5q-2 26 -22.5 75.5t-49.5 101.5l71 79h9q33 -59 52 -122.5t19 -109.5q0 -33 -10 -65t-26 -56q-28 -42 -82.5 -77.5t-131.5 -56.5zM217 427l-93 65l58 86l93 -64z" />
    <glyph glyph-name="uni0691" unicode="&#x691;" horiz-adv-x="348" 
d="M-73 -107l6 9q84 15 147.5 44t97.5 62t34 58q-2 26 -22.5 75.5t-49.5 101.5l72 79h9q32 -59 51 -122.5t19 -109.5q0 -56 -28 -108q-20 -37 -61.5 -69.5t-98.5 -56.5t-123 -36zM281 608q18 -12 29 -31.5t11 -41.5q0 -42 -31 -69t-106 -27q-64 0 -108 2l-18 53l3 6h36
l16 20v172h58v-106q19 17 36 25.5t36 8.5q20 0 38 -12zM272 519q0 17 -9.5 29t-23.5 12q-16 0 -35.5 -15t-48.5 -46h32q25 0 50.5 1.5t32.5 4.5q2 10 2 14z" />
    <glyph glyph-name="uni0698" unicode="&#x698;" horiz-adv-x="348" 
d="M-73 -107l6 9q84 15 147.5 44t97.5 62t34 58q-2 26 -22.5 75.5t-49.5 101.5l72 79h9q32 -59 51 -122.5t19 -109.5q0 -56 -28 -108q-20 -37 -61.5 -69.5t-98.5 -56.5t-123 -36zM203 555l-91 64l57 83l90 -61zM147 429l-91 63l56 84l90 -62zM288 429l-90 63l57 84l90 -62z
" />
    <glyph glyph-name="uni0633" unicode="&#x633;" horiz-adv-x="1116" 
d="M1059 165q0 -84 -52.5 -124.5t-143.5 -40.5q-67 0 -120 25q-34 -25 -88 -25q-19 0 -39.5 6t-38.5 17q-14 -71 -55.5 -118t-103.5 -69t-137 -22q-76 0 -130 26t-81.5 72.5t-27.5 108.5q0 30 5 63.5t12 52.5l75 28l9 -4q-9 -52 -9 -93q0 -75 37.5 -115t129.5 -40
q125 0 182 73q8 27 8 51q0 38 -14 78.5t-43 105.5l87 62h6q3 -6 13 -39q8 -26 18 -53.5t18 -41.5q13 -26 33.5 -38t49.5 -12q13 0 25 2.5t19 7.5q7 9 17.5 43l21.5 72l100 16l4 -4q-28 -87 -45 -127q38 -10 72 -10q63 0 90 12q4 11 4 28q0 30 -12.5 67t-35.5 87l84 65l7 -1
q49 -124 49 -192z" />
    <glyph glyph-name="uni0634" unicode="&#x634;" horiz-adv-x="1116" 
d="M1059 165q0 -84 -52.5 -124.5t-143.5 -40.5q-67 0 -120 25q-34 -25 -88 -25q-19 0 -39.5 6t-38.5 17q-14 -71 -55.5 -118t-103.5 -69t-137 -22q-76 0 -130 26t-81.5 72.5t-27.5 108.5q0 30 5 63.5t12 52.5l75 28l9 -4q-9 -52 -9 -93q0 -75 37.5 -115t129.5 -40
q125 0 182 73q8 27 8 51q0 38 -14 78.5t-43 105.5l87 62h6q3 -6 13 -39q8 -26 18 -53.5t18 -41.5q13 -26 33.5 -38t49.5 -12q13 0 25 2.5t19 7.5q7 9 17.5 43l21.5 72l100 16l4 -4q-28 -87 -45 -127q38 -10 72 -10q63 0 90 12q4 11 4 28q0 30 -12.5 67t-35.5 87l84 65l7 -1
q49 -124 49 -192zM782 524l-91 64l57 83l90 -61zM726 398l-91 63l56 84l90 -62zM867 398l-90 63l57 84l90 -62z" />
    <glyph glyph-name="uni0635" unicode="&#x635;" horiz-adv-x="1226" 
d="M1102 327.5q34 -24.5 53.5 -63t19.5 -79.5q0 -42 -18 -77.5t-45 -58.5q-26 -21 -60 -31.5t-81 -14t-123 -3.5h-72q-63 0 -96.5 1.5t-58.5 6.5t-43 17q-14 -72 -55.5 -119t-103.5 -69.5t-138 -22.5t-130 26t-81.5 72.5t-27.5 108.5q0 60 17 116l75 28l9 -4q-9 -52 -9 -93
q0 -75 37.5 -115t129.5 -40q125 0 182 73q8 27 8 51q0 38 -14 78.5t-43 105.5l87 62h6l11 -31q24 -73 38 -103q13 -25 31.5 -35.5t57.5 -13.5q91 89 152.5 142t113 81.5t94.5 28.5t77 -24.5zM1086.5 140.5q3.5 13.5 3.5 28.5q0 20 -10 40.5t-27.5 34t-39.5 13.5
q-39 0 -98 -40.5t-141 -117.5h81q75 0 116.5 1.5t65.5 5t40 11.5q6 10 9.5 23.5z" />
    <glyph glyph-name="uni0636" unicode="&#x636;" horiz-adv-x="1226" 
d="M1102 327.5q34 -24.5 53.5 -63t19.5 -79.5q0 -42 -18 -77.5t-45 -58.5q-26 -21 -60 -31.5t-81 -14t-123 -3.5h-72q-63 0 -96.5 1.5t-58.5 6.5t-43 17q-14 -72 -55.5 -119t-103.5 -69.5t-138 -22.5t-130 26t-81.5 72.5t-27.5 108.5q0 60 17 116l75 28l9 -4q-9 -52 -9 -93
q0 -75 37.5 -115t129.5 -40q125 0 182 73q8 27 8 51q0 38 -14 78.5t-43 105.5l87 62h6l11 -31q24 -73 38 -103q13 -25 31.5 -35.5t57.5 -13.5q91 89 152.5 142t113 81.5t94.5 28.5t77 -24.5zM1086.5 140.5q3.5 13.5 3.5 28.5q0 20 -10 40.5t-27.5 34t-39.5 13.5
q-39 0 -98 -40.5t-141 -117.5h81q75 0 116.5 1.5t65.5 5t40 11.5q6 10 9.5 23.5zM1020 457l-93 65l58 86l93 -64z" />
    <glyph glyph-name="uni0637" unicode="&#x637;" horiz-adv-x="716" 
d="M592 327.5q34 -24.5 53.5 -63t19.5 -79.5q0 -42 -18 -77.5t-45 -58.5q-26 -21 -60 -31.5t-81 -14t-123 -3.5h-246l-45 86l3 13h103l43 41v523l91 24l8 -5l-1 -452q70 62 123.5 92t97.5 30q43 0 77 -24.5zM576.5 140.5q3.5 13.5 3.5 28.5q0 20 -10 40.5t-27.5 34
t-39.5 13.5q-39 0 -98 -40.5t-141 -117.5h81q75 0 116.5 1.5t65.5 5t40 11.5q6 10 9.5 23.5z" />
    <glyph glyph-name="uni0638" unicode="&#x638;" horiz-adv-x="716" 
d="M592 327.5q34 -24.5 53.5 -63t19.5 -79.5q0 -42 -18 -77.5t-45 -58.5q-26 -21 -60 -31.5t-81 -14t-123 -3.5h-246l-45 86l3 13h103l43 41v523l91 24l8 -5l-1 -452q70 62 123.5 92t97.5 30q43 0 77 -24.5zM576.5 140.5q3.5 13.5 3.5 28.5q0 20 -10 40.5t-27.5 34
t-39.5 13.5q-39 0 -98 -40.5t-141 -117.5h81q75 0 116.5 1.5t65.5 5t40 11.5q6 10 9.5 23.5zM525 457l-93 65l58 86l93 -64z" />
    <glyph glyph-name="uni0639" unicode="&#x639;" horiz-adv-x="536" 
d="M593 -370q-49 -21 -109.5 -33.5t-128.5 -12.5q-96 0 -169.5 27.5t-113.5 79t-40 122.5q0 62 35 115.5t105 98.5q-46 37 -72.5 87t-26.5 100q0 55 26.5 95t72 61t102.5 21q36 0 74 -9t64 -22l-11 -86l-4 -3q-65 24 -112 24q-48 0 -74 -23t-26 -64q0 -33 19.5 -69.5
t55.5 -63.5q78 36 180 66l6 -2l-7 -103q-156 -40 -233 -88.5t-77 -116.5q0 -46 30.5 -80t87.5 -52t135 -18q48 0 97.5 7t89.5 19l8 -5z" />
    <glyph glyph-name="uni063A" unicode="&#x63a;" horiz-adv-x="536" 
d="M593 -370q-49 -21 -109.5 -33.5t-128.5 -12.5q-96 0 -169.5 27.5t-113.5 79t-40 122.5q0 62 35 115.5t105 98.5q-46 37 -72.5 87t-26.5 100q0 55 26.5 95t72 61t102.5 21q36 0 74 -9t64 -22l-11 -86l-4 -3q-65 24 -112 24q-48 0 -74 -23t-26 -64q0 -33 19.5 -69.5
t55.5 -63.5q78 36 180 66l6 -2l-7 -103q-156 -40 -233 -88.5t-77 -116.5q0 -46 30.5 -80t87.5 -52t135 -18q48 0 97.5 7t89.5 19l8 -5zM290 496l-93 65l58 86l93 -64z" />
    <glyph glyph-name="uni0641" unicode="&#x641;" horiz-adv-x="904" 
d="M771.5 439.5q36.5 -34.5 56 -91.5t19.5 -123q0 -68 -15.5 -116t-46.5 -70q-39 -29 -120.5 -39.5t-218.5 -10.5h-65q-168 0 -253.5 44.5t-85.5 140.5q0 63 16 116l73 28l8 -5q-9 -49 -9 -87q0 -55 30.5 -85t91 -42t160.5 -12h63q123 0 192.5 8.5t90.5 23.5q3 13 7 50
q-47 -11 -101 -11q-66 0 -99 31t-33 87q0 46 21.5 92t57 76t76.5 30q48 0 84.5 -34.5zM628.5 258q18.5 -10 55.5 -10q46 0 82 7q-4 32 -16 60t-30 45.5t-39 17.5q-18 0 -34.5 -12.5t-26.5 -33t-10 -42.5t18.5 -32zM683 569l-93 65l58 86l93 -64z" />
    <glyph glyph-name="uniFED3.yeh" horiz-adv-x="383" 
d="M239.5 460q36.5 -34 56 -91t19.5 -123q0 -75 -19 -119t-57.5 -69.5t-107.5 -49.5l-37 85q73 16 131 53q4 13 7 44q-46 -11 -100 -11q-66 0 -99 31t-33 87q0 46 21.5 92t57 75.5t76.5 29.5q48 0 84.5 -34zM96.5 279q18.5 -10 55.5 -10q46 0 82 7q-4 32 -16 60t-30 45.5
t-39 17.5q-18 0 -34.5 -12.5t-26.5 -33t-10 -42.5t18.5 -32zM164 589l-93 65l58 86l93 -64z" />
    <glyph glyph-name="uni06A4" unicode="&#x6a4;" horiz-adv-x="904" 
d="M771.5 439.5q36.5 -34.5 56 -91.5t19.5 -123q0 -68 -15.5 -116t-46.5 -70q-39 -29 -120.5 -39.5t-218.5 -10.5h-65q-168 0 -253.5 44.5t-85.5 140.5q0 63 16 116l73 28l8 -5q-9 -49 -9 -87q0 -55 30.5 -85t91 -42t160.5 -12h63q123 0 192.5 8.5t90.5 23.5q3 13 7 50
q-47 -11 -101 -11q-66 0 -99 31t-33 87q0 46 21.5 92t57 76t76.5 30q48 0 84.5 -34.5zM628.5 258q18.5 -10 55.5 -10q46 0 82 7q-4 32 -16 60t-30 45.5t-39 17.5q-18 0 -34.5 -12.5t-26.5 -33t-10 -42.5t18.5 -32zM672 697l-91 64l57 83l90 -61zM616 571l-91 63l56 84
l90 -62zM757 571l-90 63l57 84l90 -62z" />
    <glyph glyph-name="uniFB6C.yeh" horiz-adv-x="383" 
d="M239.5 460q36.5 -34 56 -91t19.5 -123q0 -75 -19 -119t-57.5 -69.5t-107.5 -49.5l-37 85q73 16 131 53q4 13 7 44q-46 -11 -100 -11q-66 0 -99 31t-33 87q0 46 21.5 92t57 75.5t76.5 29.5q48 0 84.5 -34zM96.5 279q18.5 -10 55.5 -10q46 0 82 7q-4 32 -16 60t-30 45.5
t-39 17.5q-18 0 -34.5 -12.5t-26.5 -33t-10 -42.5t18.5 -32zM153 717l-91 64l57 83l90 -61zM97 591l-91 63l56 84l90 -62zM238 591l-90 63l57 84l90 -62z" />
    <glyph glyph-name="uni06A1" unicode="&#x6a1;" horiz-adv-x="904" 
d="M771.5 439.5q36.5 -34.5 56 -91.5t19.5 -123q0 -68 -15.5 -116t-46.5 -70q-39 -29 -120.5 -39.5t-218.5 -10.5h-65q-168 0 -253.5 44.5t-85.5 140.5q0 63 16 116l73 28l8 -5q-9 -49 -9 -87q0 -55 30.5 -85t91 -42t160.5 -12h63q123 0 192.5 8.5t90.5 23.5q3 13 7 50
q-47 -11 -101 -11q-66 0 -99 31t-33 87q0 46 21.5 92t57 76t76.5 30q48 0 84.5 -34.5zM628.5 258q18.5 -10 55.5 -10q46 0 82 7q-4 32 -16 60t-30 45.5t-39 17.5q-18 0 -34.5 -12.5t-26.5 -33t-10 -42.5t18.5 -32z" />
    <glyph glyph-name="uni06A1.init.yeh" horiz-adv-x="383" 
d="M239.5 460q36.5 -34 56 -91t19.5 -123q0 -75 -19 -119t-57.5 -69.5t-107.5 -49.5l-37 85q73 16 131 53q4 13 7 44q-46 -11 -100 -11q-66 0 -99 31t-33 87q0 46 21.5 92t57 75.5t76.5 29.5q48 0 84.5 -34zM96.5 279q18.5 -10 55.5 -10q46 0 82 7q-4 32 -16 60t-30 45.5
t-39 17.5q-18 0 -34.5 -12.5t-26.5 -33t-10 -42.5t18.5 -32z" />
    <glyph glyph-name="uni066F" unicode="&#x66f;" horiz-adv-x="730" 
d="M597.5 302.5q36.5 -34.5 56 -91.5t19.5 -123q0 -136 -85 -205t-261 -69q-94 0 -158 26t-95.5 72t-31.5 105q0 29 4.5 58.5t11.5 53.5l81 28l9 -5q-11 -52 -11 -89q0 -48 19 -81t65.5 -51t124.5 -18q59 0 106 10.5t78.5 27.5t46.5 38q1 5 4.5 18t4.5 24q-47 -10 -96 -10
q-66 0 -99 31t-33 87q0 46 21.5 92t57 76t76.5 30q48 0 84.5 -34.5zM454.5 121q18.5 -10 55.5 -10q46 0 82 7q-4 32 -16 60t-30 45.5t-39 17.5q-18 0 -34.5 -12.5t-26.5 -33t-10 -42.5t18.5 -32z" />
    <glyph glyph-name="uni0642" unicode="&#x642;" horiz-adv-x="730" 
d="M597.5 302.5q36.5 -34.5 56 -91.5t19.5 -123q0 -136 -85 -205t-261 -69q-94 0 -158 26t-95.5 72t-31.5 105q0 29 4.5 58.5t11.5 53.5l81 28l9 -5q-11 -52 -11 -89q0 -48 19 -81t65.5 -51t124.5 -18q59 0 106 10.5t78.5 27.5t46.5 38q1 5 4.5 18t4.5 24q-47 -10 -96 -10
q-66 0 -99 31t-33 87q0 46 21.5 92t57 76t76.5 30q48 0 84.5 -34.5zM454.5 121q18.5 -10 55.5 -10q46 0 82 7q-4 32 -16 60t-30 45.5t-39 17.5q-18 0 -34.5 -12.5t-26.5 -33t-10 -42.5t18.5 -32zM449 441l-90 63l55 84l90 -62zM590 441l-90 63l56 84l90 -62z" />
    <glyph glyph-name="uniFED7.yeh" horiz-adv-x="383" 
d="M239.5 460q36.5 -34 56 -91t19.5 -123q0 -75 -19 -119t-57.5 -69.5t-107.5 -49.5l-37 85q73 16 131 53q4 13 7 44q-46 -11 -100 -11q-66 0 -99 31t-33 87q0 46 21.5 92t57 75.5t76.5 29.5q48 0 84.5 -34zM96.5 279q18.5 -10 55.5 -10q46 0 82 7q-4 32 -16 60t-30 45.5
t-39 17.5q-18 0 -34.5 -12.5t-26.5 -33t-10 -42.5t18.5 -32zM91 591l-90 63l55 84l90 -62zM232 591l-90 63l56 84l90 -62z" />
    <glyph glyph-name="uni0643" unicode="&#x643;" horiz-adv-x="821" 
d="M758 682v-482q0 -79 -28 -124.5t-95 -66t-189 -20.5h-65q-168 0 -253.5 44.5t-85.5 140.5q0 63 16 116l73 28l8 -5q-9 -49 -9 -87q0 -55 30.5 -85t91 -42t160.5 -12h63q62 0 110.5 7.5t66.5 19.5q7 30 7 79v470l91 24zM315 328q30 0 46 1q-9 14 -14.5 30t-5.5 31
q0 37 23.5 59.5t62.5 22.5q31 0 71 -16l-15 -53q-27 9 -47 9q-40 0 -40 -35q0 -13 5.5 -25t15.5 -21q44 3 92 8l5 -55q-79 -10 -193 -14z" />
    <glyph glyph-name="uni06A9" unicode="&#x6a9;" horiz-adv-x="881" 
d="M853 528l-240 -126q86 -57 133 -101.5t63 -78t16 -66.5q0 -64 -40.5 -100.5t-122.5 -51.5t-216 -15h-65q-168 0 -253.5 44.5t-85.5 140.5q0 63 16 116l73 28l8 -5q-9 -49 -9 -87q0 -55 30.5 -85t91 -42t160.5 -12h63q217 0 271 45q0 31 -30 65.5t-77.5 69t-117.5 79.5
l-5 6l25 119l336 183l8 -5z" />
    <glyph glyph-name="uni06AF" unicode="&#x6af;" horiz-adv-x="868" 
d="M863 724l-321 -176l-7 6l20 94l327 175l8 -4zM877 654l8 -5l-32 -121l-240 -126q86 -57 133 -101.5t63 -78t16 -66.5q0 -64 -40.5 -100.5t-122.5 -51.5t-216 -15h-65q-168 0 -253.5 44.5t-85.5 140.5q0 63 16 116l73 28l8 -5q-9 -49 -9 -87q0 -55 30.5 -85t91 -42
t160.5 -12h63q217 0 271 45q0 31 -30 65.5t-77.5 69t-117.5 79.5l-5 6l25 119z" />
    <glyph glyph-name="uni0644" unicode="&#x644;" horiz-adv-x="657" 
d="M151 -160q-54 26 -81.5 72.5t-27.5 108.5q0 29 5 63t12 53l75 28l9 -4q-9 -48 -9 -93q0 -77 38.5 -116t128.5 -39q60 0 103.5 16t71.5 51q18 56 18 145v538l91 24l8 -5l-1 -547q0 -164 -80.5 -242.5t-230.5 -78.5q-76 0 -130 26z" />
    <glyph glyph-name="uniFEE0.yeh" horiz-adv-x="444" 
d="M498.5 90.5q8.5 -8.5 8.5 -24.5q0 -28 -13.5 -47t-48.5 -19q-60 0 -101 29t-59 84q-34 -19 -88 -30t-132 -15l-65 82q93 7 160.5 18t93.5 23q8 30 8 79v393l91 24l8 -5v-411q0 -57 8.5 -94t32 -57.5t66.5 -20.5q22 0 30.5 -8.5z" />
    <glyph glyph-name="uniFEDF.yeh" horiz-adv-x="283" 
d="M-9 88q40 8 69.5 16.5t53.5 23.5q7 32 7 84v397l90 23l8 -4v-419q0 -52 -15.5 -90.5t-54 -67.5t-104.5 -45z" />
    <glyph glyph-name="uni0645" unicode="&#x645;" horiz-adv-x="486" 
d="M349.5 301.5q39.5 -34.5 62 -88.5t22.5 -109q0 -58 -15.5 -84t-49.5 -26q-20 0 -64 4q-46 4 -74 4q-23 0 -48 -5t-40 -12q-5 -16 -5 -49q0 -36 6 -78t18 -111q8 -38 12 -69l-86 -40l-8 6l-15 92q-9 52 -16 101t-7 76q0 46 21.5 88.5t66.5 70t113 27.5q47 0 105 -10
q-1 39 -16.5 74t-40 56.5t-51.5 21.5q-26 0 -47 -23.5t-31 -70.5l-47 -6l-10 5q4 59 27.5 102.5t57.5 65.5t71 22q49 0 88.5 -34.5z" />
    <glyph glyph-name="uni0646" unicode="&#x646;" horiz-adv-x="638" 
d="M154 -161q-54 25 -83 71.5t-29 110.5q0 28 5 62t12 54l75 28l9 -4q-9 -43 -9 -93q0 -80 40.5 -117.5t126.5 -37.5q62 0 108 18.5t74 54.5q8 26 8 50q0 33 -13.5 76t-43.5 109l87 62h6q22 -47 38 -107.5t16 -97.5q0 -80 -37 -139.5t-105 -92t-158 -32.5q-73 0 -127 25z
M309 316l-93 65l58 86l93 -64z" />
    <glyph glyph-name="uniFEE7.yeh" horiz-adv-x="267" 
d="M0 30q60 22 87 44q-3 33 -16 68.5t-36 83.5l80 64h11q26 -62 39.5 -107t13.5 -76q0 -37 -20.5 -66.5t-69.5 -56.5l-51 -1zM96 372l-93 65l58 86l93 -64z" />
    <glyph glyph-name="uni06BA" unicode="&#x6ba;" horiz-adv-x="638" 
d="M154 -161q-54 25 -83 71.5t-29 110.5q0 28 5 62t12 54l75 28l9 -4q-9 -43 -9 -93q0 -80 40.5 -117.5t126.5 -37.5q62 0 108 18.5t74 54.5q8 26 8 50q0 33 -13.5 76t-43.5 109l87 62h6q22 -47 38 -107.5t16 -97.5q0 -80 -37 -139.5t-105 -92t-158 -32.5q-73 0 -127 25z
" />
    <glyph glyph-name="uni0647" unicode="&#x647;" horiz-adv-x="410" 
d="M278 319.5q43 -47.5 61.5 -87.5t18.5 -83q0 -45 -21.5 -80.5t-60.5 -55t-89 -19.5q-72 0 -112.5 34.5t-40.5 97.5q0 38 22 85.5t72 112.5l-25 18l48 85l9 5q75 -65 118 -112.5zM249.5 107.5q19.5 15.5 19.5 42.5q0 28 -20.5 58.5t-59.5 65.5q-37 -38 -53 -68.5t-16 -55.5
q0 -26 20 -42t54 -16q36 0 55.5 15.5z" />
    <glyph glyph-name="uni06C1" unicode="&#x6c1;" horiz-adv-x="410" 
d="M278 319.5q43 -47.5 61.5 -87.5t18.5 -83q0 -45 -21.5 -80.5t-60.5 -55t-89 -19.5q-72 0 -112.5 34.5t-40.5 97.5q0 38 22 85.5t72 112.5l-25 18l48 85l9 5q75 -65 118 -112.5zM249.5 107.5q19.5 15.5 19.5 42.5q0 28 -20.5 58.5t-59.5 65.5q-37 -38 -53 -68.5t-16 -55.5
q0 -26 20 -42t54 -16q36 0 55.5 15.5z" />
    <glyph glyph-name="uni06C2" unicode="&#x6c2;" horiz-adv-x="410" 
d="M278 319.5q43 -47.5 61.5 -87.5t18.5 -83q0 -45 -21.5 -80.5t-60.5 -55t-89 -19.5q-72 0 -112.5 34.5t-40.5 97.5q0 38 22 85.5t72 112.5l-25 18l48 85l9 5q75 -65 118 -112.5zM249.5 107.5q19.5 15.5 19.5 42.5q0 28 -20.5 58.5t-59.5 65.5q-37 -38 -53 -68.5t-16 -55.5
q0 -26 20 -42t54 -16q36 0 55.5 15.5zM282 565q-79 -10 -193 -14l-6 62q30 0 46 1q-10 13 -15 28.5t-5 31.5q0 37 22.5 59.5t62.5 22.5q34 0 72 -15l-16 -58q-30 10 -45 10q-17 0 -26.5 -10t-9.5 -25q0 -11 5 -22t14 -19q62 4 89 7z" />
    <glyph glyph-name="uni06BE" unicode="&#x6be;" horiz-adv-x="646" 
d="M413.5 337q75.5 -50 133 -112t57.5 -121q0 -54 -37.5 -81t-109.5 -27q-86 0 -154 30q-22 -10 -49 -15t-70 -9q-38 -4 -64.5 -12.5t-54.5 -26.5h-8l-37 70q21 27 63 44.5t89 18.5l38 2q-33 46 -33 99q0 39 18 76.5t49 58.5q-44 21 -47 22l31 89l8 2q102 -58 177.5 -108z
M342 148.5q11 23.5 11 52.5q0 22 -6.5 41t-18 30t-24.5 11t-24.5 -10.5t-18.5 -28.5t-7 -39q0 -28 13.5 -52.5t43.5 -40.5q20 13 31 36.5zM500 87.5q20 3.5 25 9.5q-4 26 -30 56.5t-67 62.5q1 -5 1 -14q0 -31 -10 -60t-31 -53q33 -5 69 -5q23 0 43 3.5z" />
    <glyph glyph-name="uni0629" unicode="&#x629;" horiz-adv-x="410" 
d="M278 319.5q43 -47.5 61.5 -87.5t18.5 -83q0 -45 -21.5 -80.5t-60.5 -55t-89 -19.5q-72 0 -112.5 34.5t-40.5 97.5q0 38 22 85.5t72 112.5l-25 18l48 85l9 5q75 -65 118 -112.5zM249.5 107.5q19.5 15.5 19.5 42.5q0 28 -20.5 58.5t-59.5 65.5q-37 -38 -53 -68.5t-16 -55.5
q0 -26 20 -42t54 -16q36 0 55.5 15.5zM130 511l-90 63l55 84l90 -62zM271 511l-90 63l56 84l90 -62z" />
    <glyph glyph-name="uni06C3" unicode="&#x6c3;" horiz-adv-x="410" 
d="M278 319.5q43 -47.5 61.5 -87.5t18.5 -83q0 -45 -21.5 -80.5t-60.5 -55t-89 -19.5q-72 0 -112.5 34.5t-40.5 97.5q0 38 22 85.5t72 112.5l-25 18l48 85l9 5q75 -65 118 -112.5zM249.5 107.5q19.5 15.5 19.5 42.5q0 28 -20.5 58.5t-59.5 65.5q-37 -38 -53 -68.5t-16 -55.5
q0 -26 20 -42t54 -16q36 0 55.5 15.5zM130 511l-90 63l55 84l90 -62zM271 511l-90 63l56 84l90 -62z" />
    <glyph glyph-name="uni0648" unicode="&#x648;" horiz-adv-x="433" 
d="M300.5 303q36.5 -34 56 -90.5t19.5 -122.5q0 -69 -35 -129t-106.5 -98t-175.5 -40l-50 74l6 9q105 3 174 35t95 89q-40 -9 -90 -9q-66 0 -99 31.5t-33 86.5q0 46 21 92.5t57 76t77 29.5q47 0 83.5 -34zM158 122q18 -10 55 -10q47 0 83 7q-4 31 -16.5 59.5t-30.5 45.5
t-38 17q-18 0 -34.5 -12.5t-26.5 -33t-10 -42.5q0 -21 18 -31z" />
    <glyph glyph-name="uni0624" unicode="&#x624;" horiz-adv-x="433" 
d="M97 500q32 0 50 1q-10 14 -16 31.5t-6 34.5q0 41 25 66t69 25q17 0 38 -4.5t41 -12.5l-17 -64q-31 11 -50 11t-29 -11t-10 -28q0 -12 5.5 -23.5t16.5 -21.5q43 3 96 8l6 -65q-83 -11 -213 -15zM300.5 303q36.5 -34 56 -90.5t19.5 -122.5q0 -69 -35 -129t-106.5 -98
t-175.5 -40l-50 74l6 9q105 3 174 35t95 89q-40 -9 -90 -9q-66 0 -99 31.5t-33 86.5q0 46 21 92.5t57 76t77 29.5q47 0 83.5 -34zM158 122q18 -10 55 -10q47 0 83 7q-4 31 -16.5 59.5t-30.5 45.5t-38 17q-18 0 -34.5 -12.5t-26.5 -33t-10 -42.5q0 -21 18 -31z" />
    <glyph glyph-name="uni0649" unicode="&#x649;" horiz-adv-x="768" 
d="M168 -131q-64 26 -95 71.5t-31 105.5q0 29 4.5 58.5t11.5 53.5l80 28l9 -5q-10 -54 -10 -89q0 -48 18.5 -81t65 -51t127.5 -18q61 0 116.5 12.5t96 32.5t58.5 41q2 8 2 11q0 15 -17 26t-60 26q-49 17 -73.5 29t-40 34t-15.5 60q0 49 27 103.5t75 91t109 36.5
q30 0 57.5 -7.5t48.5 -18.5l-19 -92l-4 -3q-20 10 -44.5 16t-45.5 6q-34 0 -64 -17t-48 -42.5t-18 -46.5q0 -12 12 -22t33.5 -18.5t67.5 -23.5q48 -17 72.5 -32t33.5 -30t9 -35q0 -64 -53.5 -118t-143 -86t-193.5 -32q-95 0 -159 26z" />
    <glyph glyph-name="uniFEF0.yeh" horiz-adv-x="629" 
d="M169 -160q-64 26 -95.5 72t-31.5 105q0 29 4.5 58.5t11.5 53.5l81 28l9 -5q-11 -52 -11 -89q0 -48 19 -81t65.5 -51t124.5 -18q68 0 127.5 9.5t99.5 26t52 38.5q0 19 -33.5 39t-129.5 42l28 88q91 -23 140 -45.5t67.5 -45t18.5 -52.5q-5 -61 -56 -106t-137.5 -69
t-195.5 -24q-94 0 -158 26z" />
    <glyph glyph-name="uni064A" unicode="&#x64a;" horiz-adv-x="768" 
d="M168 -131q-64 26 -95 71.5t-31 105.5q0 29 4.5 58.5t11.5 53.5l80 28l9 -5q-10 -54 -10 -89q0 -48 18.5 -81t65 -51t127.5 -18q61 0 116.5 12.5t96 32.5t58.5 41q2 8 2 11q0 15 -17 26t-60 26q-49 17 -73.5 29t-40 34t-15.5 60q0 49 27 103.5t75 91t109 36.5
q30 0 57.5 -7.5t48.5 -18.5l-19 -92l-4 -3q-20 10 -44.5 16t-45.5 6q-34 0 -64 -17t-48 -42.5t-18 -46.5q0 -12 12 -22t33.5 -18.5t67.5 -23.5q48 -17 72.5 -32t33.5 -30t9 -35q0 -64 -53.5 -118t-143 -86t-193.5 -32q-95 0 -159 26zM272 -379l-91 63l56 84l90 -62z
M415 -379l-90 63l56 84l90 -62z" />
    <glyph glyph-name="uniFEF2.yeh" horiz-adv-x="629" 
d="M169 -160q-64 26 -95.5 72t-31.5 105q0 29 4.5 58.5t11.5 53.5l81 28l9 -5q-11 -52 -11 -89q0 -48 19 -81t65.5 -51t124.5 -18q68 0 127.5 9.5t99.5 26t52 38.5q0 19 -33.5 39t-129.5 42l28 88q91 -23 140 -45.5t67.5 -45t18.5 -52.5q-5 -61 -56 -106t-137.5 -69
t-195.5 -24q-94 0 -158 26zM272 -408l-91 63l56 84l90 -62zM415 -408l-90 63l56 84l90 -62z" />
    <glyph glyph-name="uniFEF3.yeh" horiz-adv-x="267" 
d="M0 30q60 22 87 44q-3 33 -16 68.5t-36 83.5l80 64h11q26 -62 39.5 -107t13.5 -76q0 -37 -20.5 -66.5t-69.5 -56.5l-51 -1zM94 -469l-91 63l56 84l90 -62zM237 -469l-90 63l56 84l90 -62z" />
    <glyph glyph-name="uni0626" unicode="&#x626;" horiz-adv-x="768" 
d="M57 346q32 0 50 1q-10 14 -16 31.5t-6 34.5q0 41 25 66t69 25q17 0 38 -4.5t41 -12.5l-17 -64q-31 11 -50 11t-29 -11t-10 -28q0 -12 5.5 -23.5t16.5 -21.5q43 3 96 8l6 -65q-83 -11 -213 -15zM674.5 144q24.5 -15 33.5 -30t9 -35q0 -64 -53.5 -118t-143 -86t-193.5 -32
q-95 0 -159 26t-95 71.5t-31 105.5q0 29 4.5 58.5t11.5 53.5l80 28l9 -5q-10 -54 -10 -89q0 -48 18.5 -81t65 -51t127.5 -18q61 0 116.5 12.5t96 32.5t58.5 41q2 8 2 11q0 15 -17 26t-60 26q-49 17 -73.5 29t-40 34t-15.5 60q0 49 27 103.5t75 91t109 36.5q30 0 57.5 -7.5
t48.5 -18.5l-19 -92l-4 -3q-20 10 -44.5 16t-45.5 6q-34 0 -64 -17t-48 -42.5t-18 -46.5q0 -12 12 -22t33.5 -18.5t67.5 -23.5q48 -17 72.5 -32z" />
    <glyph glyph-name="uniFE8A.yeh" horiz-adv-x="629" 
d="M169 -160q-64 26 -95.5 72t-31.5 105q0 29 4.5 58.5t11.5 53.5l81 28l9 -5q-11 -52 -11 -89q0 -48 19 -81t65.5 -51t124.5 -18q68 0 127.5 9.5t99.5 26t52 38.5q0 19 -33.5 39t-129.5 42l28 88q91 -23 140 -45.5t67.5 -45t18.5 -52.5q-5 -61 -56 -106t-137.5 -69
t-195.5 -24q-94 0 -158 26zM273 311q-79 -10 -193 -14l-6 62q30 0 46 1q-10 13 -15 28.5t-5 31.5q0 37 22.5 59.5t62.5 22.5q34 0 72 -15l-16 -58q-30 10 -45 10q-17 0 -26.5 -10t-9.5 -25q0 -11 5 -22t14 -19q62 4 89 7z" />
    <glyph glyph-name="uniFE8B.yeh" horiz-adv-x="267" 
d="M0 30q60 22 87 44q-3 33 -16 68.5t-36 83.5l80 64h11q26 -62 39.5 -107t13.5 -76q0 -37 -20.5 -66.5t-69.5 -56.5l-51 -1zM175 428q-79 -10 -193 -14l-6 62q30 0 46 1q-10 13 -15 28.5t-5 31.5q0 37 22.5 59.5t62.5 22.5q34 0 72 -15l-16 -58q-30 10 -45 10
q-17 0 -26.5 -10t-9.5 -25q0 -11 5 -22t14 -19q62 4 89 7z" />
    <glyph glyph-name="uni06CC" unicode="&#x6cc;" horiz-adv-x="768" 
d="M168 -131q-64 26 -95 71.5t-31 105.5q0 29 4.5 58.5t11.5 53.5l80 28l9 -5q-10 -54 -10 -89q0 -48 18.5 -81t65 -51t127.5 -18q61 0 116.5 12.5t96 32.5t58.5 41q2 8 2 11q0 15 -17 26t-60 26q-49 17 -73.5 29t-40 34t-15.5 60q0 49 27 103.5t75 91t109 36.5
q30 0 57.5 -7.5t48.5 -18.5l-19 -92l-4 -3q-20 10 -44.5 16t-45.5 6q-34 0 -64 -17t-48 -42.5t-18 -46.5q0 -12 12 -22t33.5 -18.5t67.5 -23.5q48 -17 72.5 -32t33.5 -30t9 -35q0 -64 -53.5 -118t-143 -86t-193.5 -32q-95 0 -159 26z" />
    <glyph glyph-name="uni06D2" unicode="&#x6d2;" horiz-adv-x="872" 
d="M329 0q-163 10 -241.5 40t-78.5 91q0 38 21.5 65t50 43t68.5 33q15 6 27.5 12t16.5 11q16 19 32 46q17 28 31 45.5t33.5 29.5t45.5 12q33 0 62.5 -28.5t46 -75.5t14.5 -100l-72 -25l-6 5q-2 28 -9.5 55t-18 47t-20.5 25q-8 0 -14 -9t-17 -31q-12 -24 -22 -41t-25 -30
q-20 -18 -47 -29t-65 -22q-30 -9 -41.5 -14t-11.5 -13q13 -19 89 -30.5t234 -17.5t417 -6l5 -6l-37 -92q-305 0 -468 10z" />
    <glyph glyph-name="uni06D3" unicode="&#x6d3;" horiz-adv-x="872" 
d="M329 0q-163 10 -241.5 40t-78.5 91q0 38 21.5 65t50 43t68.5 33q15 6 27.5 12t16.5 11q16 19 32 46q17 28 31 45.5t33.5 29.5t45.5 12q33 0 62.5 -28.5t46 -75.5t14.5 -100l-72 -25l-6 5q-2 28 -9.5 55t-18 47t-20.5 25q-8 0 -14 -9t-17 -31q-12 -24 -22 -41t-25 -30
q-20 -18 -47 -29t-65 -22q-30 -9 -41.5 -14t-11.5 -13q13 -19 89 -30.5t234 -17.5t417 -6l5 -6l-37 -92q-305 0 -468 10zM229 443q-79 -10 -193 -14l-6 62q30 0 46 1q-10 13 -15 28.5t-5 31.5q0 37 22.5 59.5t62.5 22.5q34 0 72 -15l-16 -58q-30 10 -45 10q-17 0 -26.5 -10
t-9.5 -25q0 -11 5 -22t14 -19q62 4 89 7z" />
    <glyph glyph-name="uni0640" unicode="&#x640;" horiz-adv-x="80" 
d="M22 98h80q23 0 32 -8t9 -24q0 -28 -14 -47t-49 -19h-80z" />
    <glyph glyph-name="zero" unicode="0" horiz-adv-x="540" 
d="M90.5 72q-60.5 85 -60.5 251q0 126 36 201.5t91.5 106t119.5 30.5q111 0 172 -85.5t61 -253.5q0 -127 -35.5 -201.5t-90 -104t-120.5 -29.5q-113 0 -173.5 85zM339.5 106q27.5 24 41 77t13.5 140q0 121 -30 181.5t-91 60.5q-64 0 -95.5 -58t-31.5 -184q0 -123 29.5 -182
t92.5 -59q44 0 71.5 24z" />
    <glyph glyph-name="one" unicode="1" horiz-adv-x="540" 
d="M351 94h130v-94h-408v94h166v434l-136 -71l-44 65l180 126h112v-554z" />
    <glyph glyph-name="two" unicode="2" horiz-adv-x="540" 
d="M475 94v-94h-431v53q128 129 190 197t91.5 117.5t29.5 92.5q0 49 -26 75t-74 26q-75 0 -152 -65l-59 71q46 43 104 68t121 25q58 0 104.5 -21t73 -62.5t26.5 -98.5q0 -55 -24.5 -108t-78.5 -117t-151 -159h256z" />
    <glyph glyph-name="three" unicode="3" horiz-adv-x="540" 
d="M443.5 291.5q32.5 -42.5 32.5 -103.5q0 -57 -26.5 -102.5t-82 -72t-137.5 -26.5q-54 0 -102.5 11.5t-80.5 28.5l38 84q29 -14 65.5 -22t75.5 -8q64 0 98.5 26.5t34.5 75.5q0 36 -13.5 60.5t-47 37.5t-93.5 13h-46l8 84h76q41 16 64 32.5t33 36.5t10 48q0 20 -11.5 37
t-34 27.5t-55.5 10.5q-37 0 -75 -16t-73 -43l-57 64q45 42 98 63.5t112 21.5q67 0 114 -21t70.5 -57.5t23.5 -82.5q0 -50 -31 -87.5t-86 -59.5q66 -18 98.5 -60.5z" />
    <glyph glyph-name="four" unicode="4" horiz-adv-x="540" 
d="M515 239v-93h-85v-146h-114v146h-292v50l182 452h128l-177 -409h159l21 185h93v-185h85z" />
    <glyph glyph-name="five" unicode="5" horiz-adv-x="540" 
d="M381 381.5q50 -23.5 76.5 -68.5t26.5 -109q0 -62 -25.5 -110.5t-80.5 -77t-140 -28.5q-99 0 -183 40l39 84q69 -31 138 -31q45 0 76 15.5t46 41t15 57.5q0 39 -13 65.5t-46 41.5t-91 15q-29 0 -51 -3t-35 -7l-39 35v306h370l-12 -93h-246v-155q30 5 55 5q70 0 120 -23.5z
" />
    <glyph glyph-name="six" unicode="6" horiz-adv-x="540" 
d="M405 396q44 -23 70.5 -70t26.5 -116q0 -80 -34 -130t-85.5 -71.5t-109.5 -21.5q-71 0 -122 33.5t-77 94.5t-26 143q0 132 36.5 222.5t100 135t143.5 44.5q62 0 129 -23l-23 -84q-50 19 -107 19q-136 0 -161 -198q31 20 67 32.5t75 12.5q53 0 97 -23zM363.5 110.5
q30.5 32.5 30.5 91.5q0 66 -26.5 98.5t-90.5 32.5q-29 0 -57.5 -10t-59.5 -29q-1 -12 -1 -36q0 -180 118 -180q56 0 86.5 32.5z" />
    <glyph glyph-name="seven" unicode="7" horiz-adv-x="540" 
d="M495 648v-48q-112 -154 -177 -302t-86 -298h-119q36 272 243 554h-312l12 94h439z" />
    <glyph glyph-name="eight" unicode="8" horiz-adv-x="540" 
d="M447.5 298q31.5 -24 48.5 -55t17 -73q0 -57 -28 -98.5t-82 -63t-130 -21.5t-130.5 21.5t-83.5 61.5t-29 95t33.5 97t109.5 77q-109 64 -109 157q0 52 28 89t76 56t107 19q66 0 112.5 -21.5t70 -57.5t23.5 -79q0 -47 -31.5 -85.5t-84.5 -68.5q51 -26 82.5 -50zM202 552.5
q-25 -21.5 -25 -57.5q0 -33 26.5 -58.5t88.5 -54.5q38 21 57 49t19 58q0 40 -24.5 62.5t-70.5 22.5t-71 -21.5zM342.5 89q27.5 13 40.5 33t13 44q0 34 -17.5 56.5t-46 38.5t-84.5 41q-57 -27 -79.5 -57.5t-22.5 -64.5q0 -29 14 -52.5t42.5 -37.5t70.5 -14t69.5 13z" />
    <glyph glyph-name="nine" unicode="9" horiz-adv-x="540" 
d="M389.5 628q50.5 -32 76.5 -92t26 -143q0 -134 -35 -225t-98 -136t-148 -45q-65 0 -132 25l26 82q25 -10 53 -15.5t54 -5.5q139 0 166 199q-72 -48 -148 -48q-54 0 -97.5 23.5t-69.5 72.5t-26 121q0 71 31.5 120t83.5 74t114 25q73 0 123.5 -32zM322.5 321
q29.5 10 61.5 30q1 13 1 40q0 183 -119 183q-57 0 -90 -34.5t-33 -94.5q0 -65 27.5 -99.5t90.5 -34.5q32 0 61.5 10z" />
    <glyph glyph-name="zero.osf" horiz-adv-x="582" 
d="M158.5 19.5q-52.5 32.5 -79.5 89.5t-27 130q0 91 35 147.5t90.5 81t120.5 24.5q73 0 125.5 -32t79.5 -89.5t27 -132.5q0 -89 -34.5 -145t-89.5 -81t-121 -25q-74 0 -126.5 32.5zM387 116.5q31 43.5 31 122.5q0 80 -32 124t-93 44q-67 0 -98 -44.5t-31 -123.5t32 -122.5
t94 -43.5q66 0 97 43.5z" />
    <glyph glyph-name="one.osf" horiz-adv-x="431" 
d="M296 90h119v-90h-379v90h152v274l-121 -63l-44 62l165 116h108v-389z" />
    <glyph glyph-name="two.osf" horiz-adv-x="452" 
d="M417 90v-90h-392v49q111 86 164.5 131.5t78.5 80.5t25 69q0 69 -84 69q-37 0 -67 -13t-62 -40l-60 66q43 39 93 59.5t111 20.5q85 0 134.5 -38.5t49.5 -110.5q0 -42 -19 -79.5t-60.5 -78.5t-113.5 -95h202z" />
    <glyph glyph-name="three.osf" horiz-adv-x="451" 
d="M384.5 138.5q29.5 -39.5 29.5 -96.5q0 -56 -23.5 -100t-73.5 -69.5t-127 -25.5q-94 0 -164 36l36 81q32 -14 60 -21t63 -7q55 0 86 26.5t31 74.5q0 50 -30.5 77t-107.5 27h-44l7 79h74q51 23 71.5 49.5t20.5 65.5q0 19 -9.5 35.5t-29 26.5t-47.5 10q-67 0 -132 -55
l-57 61q42 39 90 59t104 20q63 0 106 -20t64 -54t21 -77q0 -50 -28.5 -87t-79.5 -58q60 -18 89.5 -57.5z" />
    <glyph glyph-name="four.osf" horiz-adv-x="514" 
d="M489 89v-89h-83v-141h-111v141h-260v49l171 431h120l-167 -391h136l21 175h90v-175h83z" />
    <glyph glyph-name="five.osf" horiz-adv-x="450" 
d="M322 223.5q45 -22.5 70 -65.5t25 -103q0 -58 -22 -104.5t-72 -75t-129 -28.5q-51 0 -91 9t-75 26l36 80q62 -27 119 -27q40 0 67 15t40.5 40t13.5 57q0 54 -30.5 85t-105.5 31q-20 0 -38.5 -2t-28.5 -6l-39 31v294h340l-13 -90h-216v-147q19 3 43 3q61 0 106 -22.5z" />
    <glyph glyph-name="six.osf" horiz-adv-x="541" 
d="M400 378q43 -22 68.5 -67t25.5 -111q0 -77 -33.5 -124.5t-84.5 -68t-106 -20.5q-68 0 -117 32t-75 90.5t-26 136.5q0 126 35.5 212t97 128t139.5 42q59 0 127 -22l-24 -83q-51 18 -104 18q-130 0 -157 -184q30 20 65.5 31.5t74.5 11.5q51 0 94 -22zM357.5 106
q30.5 32 30.5 87q0 60 -26 90.5t-87 30.5q-29 0 -56 -8.5t-59 -27.5q-1 -11 -1 -32q0 -83 29 -127.5t86 -44.5q53 0 83.5 32z" />
    <glyph glyph-name="seven.osf" horiz-adv-x="446" 
d="M430 480v-48q-195 -286 -236 -573h-118q17 128 73 262.5t150 268.5h-282l12 90h401z" />
    <glyph glyph-name="eight.osf" horiz-adv-x="546" 
d="M438.5 285.5q30.5 -24.5 46 -55t15.5 -70.5q0 -54 -26.5 -93t-77 -59.5t-121.5 -20.5t-122 20t-78.5 58t-27.5 90q0 51 31 90.5t105 72.5q-103 63 -103 153q0 50 26.5 85.5t71 53.5t99.5 18q59 0 102.5 -20.5t66.5 -55t23 -75.5q0 -44 -29 -79t-81 -64q49 -24 79.5 -48.5
zM211.5 526q-22.5 -20 -22.5 -54q0 -31 22.5 -54.5t77.5 -50.5q37 19 54 44.5t17 54.5q0 39 -21.5 59.5t-63.5 20.5q-41 0 -63.5 -20zM338.5 83q25.5 12 37.5 31t12 40q0 31 -15.5 53t-42.5 38t-75 38q-53 -26 -74.5 -53t-21.5 -63q0 -26 12.5 -48t38.5 -35t65 -13
q38 0 63.5 12z" />
    <glyph glyph-name="nine.osf" horiz-adv-x="539" 
d="M389.5 461.5q48.5 -30.5 74 -88t25.5 -137.5q0 -128 -34 -215.5t-95 -131t-143 -43.5q-59 0 -129 25l25 81q60 -20 105 -20q130 0 157 187q-67 -45 -141 -45q-52 0 -94.5 23t-67.5 69.5t-25 115.5q0 74 33.5 121t84.5 68t107 21q69 0 117.5 -30.5zM381 196q1 13 1 38
q0 84 -27.5 127.5t-83.5 43.5q-58 0 -88 -32t-30 -88q0 -60 26 -92.5t87 -32.5q57 0 115 36z" />
    <glyph glyph-name="zero.dnom" horiz-adv-x="360" 
d="M58 42q-43 52 -43 158q0 118 49.5 163t119.5 45q77 0 119 -48.5t42 -160.5q0 -118 -50 -163.5t-119 -45.5q-75 0 -118 52zM216.5 85.5q14.5 12.5 21.5 40t7 74.5q0 62 -15 94t-48 32q-24 0 -38.5 -12t-21.5 -40t-7 -75q0 -63 15 -94.5t48 -31.5q24 0 38.5 12.5z" />
    <glyph glyph-name="one.dnom" horiz-adv-x="359" 
d="M150 400h97v-400h-97v300l-80 -31l-38 55z" />
    <glyph glyph-name="two.dnom" horiz-adv-x="360" 
d="M313.5 240q-12.5 -28 -44 -66.5t-90.5 -94.5h144v-79h-288v45q80 78 119.5 121t54 67.5t14.5 44.5q0 23 -14 35t-39 12q-21 0 -41.5 -8.5t-43.5 -26.5l-50 59q30 28 69 43.5t80 15.5q63 0 102.5 -28.5t39.5 -84.5q0 -27 -12.5 -55z" />
    <glyph glyph-name="three.dnom" horiz-adv-x="359" 
d="M309 181q20 -25 20 -61q0 -35 -17 -64t-54.5 -47t-97.5 -18q-39 0 -73 7.5t-56 18.5l33 70q39 -17 90 -17q37 0 56.5 12.5t19.5 36.5q0 25 -19.5 38t-72.5 13h-31l6 70h55q30 11 42 25t12 31q0 15 -13 25.5t-39 10.5q-23 0 -46.5 -8.5t-43.5 -23.5l-50 54q63 54 145 54
q70 0 107.5 -28t37.5 -74q0 -28 -19 -50.5t-52 -36.5q40 -13 60 -38z" />
    <glyph glyph-name="four.dnom" horiz-adv-x="360" 
d="M349 163v-77h-50v-86h-97v86h-192v43l117 271h108l-112 -237h79l19 90h78v-90h50z" />
    <glyph glyph-name="five.dnom" horiz-adv-x="360" 
d="M289 219.5q39 -31.5 39 -90.5q0 -36 -16 -67t-54 -50.5t-100 -19.5q-70 0 -127 25l33 71q42 -17 87 -17q39 0 58.5 15.5t19.5 37.5q0 27 -18.5 42t-68.5 15q-14 0 -28.5 -2t-21.5 -4l-34 28v197h258l-12 -79h-151v-72q20 2 33 2q64 0 103 -31.5z" />
    <glyph glyph-name="six.dnom" horiz-adv-x="360" 
d="M274 250q29 -15 46.5 -44.5t17.5 -72.5q0 -52 -24.5 -83.5t-60.5 -45t-74 -13.5q-49 0 -84.5 21t-54.5 60t-19 92q0 83 26 137.5t69.5 80.5t98.5 26q44 0 92 -15l-21 -71q-33 12 -70 12q-43 0 -64.5 -25.5t-28.5 -69.5q40 26 87 26q35 0 64 -15zM227.5 83.5
q15.5 15.5 15.5 44.5q0 32 -13.5 50t-48.5 18q-15 0 -30 -4.5t-33 -13.5v-14q0 -49 15.5 -72.5t49.5 -23.5q29 0 44.5 15.5z" />
    <glyph glyph-name="seven.dnom" horiz-adv-x="359" 
d="M335 400v-43q-71 -90 -112 -181t-53 -176h-102q8 77 47 161t104 160h-194l10 79h300z" />
    <glyph glyph-name="eight.dnom" horiz-adv-x="359" 
d="M323.5 168.5q22.5 -24.5 22.5 -62.5q0 -55 -43 -85t-123 -30q-78 0 -122 29t-44 81q0 32 20.5 58t70.5 47q-31 19 -49.5 42.5t-18.5 55.5q0 34 20 57.5t52.5 35t72.5 11.5q44 0 76 -13t49 -35t17 -50q0 -52 -72 -92q49 -25 71.5 -49.5zM145.5 329q-12.5 -10 -12.5 -25
q0 -14 13.5 -27.5t46.5 -30.5q18 11 27 25t9 29q0 18 -12 28.5t-36 10.5q-23 0 -35.5 -10zM230 77q16 12 16 30q0 16 -8.5 26.5t-23 19t-46.5 23.5q-31 -15 -42.5 -30.5t-11.5 -32.5q0 -20 16.5 -34t50.5 -14q33 0 49 12z" />
    <glyph glyph-name="nine.dnom" horiz-adv-x="360" 
d="M265 388q35 -20 54 -58.5t19 -91.5q0 -83 -25 -138.5t-69 -82t-101 -26.5q-48 0 -94 16l22 68q36 -12 71 -12q43 0 65.5 25t30.5 70q-41 -25 -87 -25q-36 0 -65.5 15.5t-46.5 46.5t-17 75q0 49 24.5 80t61 44.5t73.5 13.5q49 0 84 -20zM210.5 208q15.5 4 33.5 13v21
q0 46 -15 69.5t-48 23.5q-31 0 -48 -16t-17 -46q0 -32 14 -50.5t48 -18.5q17 0 32.5 4z" />
    <glyph glyph-name="zero.numr" horiz-adv-x="360" 
d="M58 259q-43 52 -43 158q0 118 49.5 163t119.5 45q77 0 119 -48.5t42 -160.5q0 -118 -50 -163.5t-119 -45.5q-75 0 -118 52zM216.5 302.5q14.5 12.5 21.5 40t7 74.5q0 62 -15 94t-48 32q-24 0 -38.5 -12t-21.5 -40t-7 -75q0 -63 15 -94.5t48 -31.5q24 0 38.5 12.5z" />
    <glyph glyph-name="one.numr" horiz-adv-x="359" 
d="M150 617h97v-400h-97v300l-80 -31l-38 55z" />
    <glyph glyph-name="two.numr" horiz-adv-x="360" 
d="M313.5 457q-12.5 -28 -44 -66.5t-90.5 -94.5h144v-79h-288v45q80 78 119.5 121t54 67.5t14.5 44.5q0 23 -14 35t-39 12q-21 0 -41.5 -8.5t-43.5 -26.5l-50 59q30 28 69 43.5t80 15.5q63 0 102.5 -28.5t39.5 -84.5q0 -27 -12.5 -55z" />
    <glyph glyph-name="three.numr" horiz-adv-x="359" 
d="M309 398q20 -25 20 -61q0 -35 -17 -64t-54.5 -47t-97.5 -18q-39 0 -73 7.5t-56 18.5l33 70q39 -17 90 -17q37 0 56.5 12.5t19.5 36.5q0 25 -19.5 38t-72.5 13h-31l6 70h55q30 11 42 25t12 31q0 15 -13 25.5t-39 10.5q-23 0 -46.5 -8.5t-43.5 -23.5l-50 54q63 54 145 54
q70 0 107.5 -28t37.5 -74q0 -28 -19 -50.5t-52 -36.5q40 -13 60 -38z" />
    <glyph glyph-name="four.numr" horiz-adv-x="360" 
d="M349 380v-77h-50v-86h-97v86h-192v43l117 271h108l-112 -237h79l19 90h78v-90h50z" />
    <glyph glyph-name="five.numr" horiz-adv-x="360" 
d="M289 436.5q39 -31.5 39 -90.5q0 -36 -16 -67t-54 -50.5t-100 -19.5q-70 0 -127 25l33 71q42 -17 87 -17q39 0 58.5 15.5t19.5 37.5q0 27 -18.5 42t-68.5 15q-14 0 -28.5 -2t-21.5 -4l-34 28v197h258l-12 -79h-151v-72q20 2 33 2q64 0 103 -31.5z" />
    <glyph glyph-name="six.numr" horiz-adv-x="360" 
d="M274 467q29 -15 46.5 -44.5t17.5 -72.5q0 -52 -24.5 -83.5t-60.5 -45t-74 -13.5q-49 0 -84.5 21t-54.5 60t-19 92q0 83 26 137.5t69.5 80.5t98.5 26q44 0 92 -15l-21 -71q-33 12 -70 12q-43 0 -64.5 -25.5t-28.5 -69.5q40 26 87 26q35 0 64 -15zM227.5 300.5
q15.5 15.5 15.5 44.5q0 32 -13.5 50t-48.5 18q-15 0 -30 -4.5t-33 -13.5v-14q0 -49 15.5 -72.5t49.5 -23.5q29 0 44.5 15.5z" />
    <glyph glyph-name="seven.numr" horiz-adv-x="359" 
d="M335 617v-43q-71 -90 -112 -181t-53 -176h-102q8 77 47 161t104 160h-194l10 79h300z" />
    <glyph glyph-name="eight.numr" horiz-adv-x="359" 
d="M323.5 385.5q22.5 -24.5 22.5 -62.5q0 -55 -43 -85t-123 -30q-78 0 -122 29t-44 81q0 32 20.5 58t70.5 47q-31 19 -49.5 42.5t-18.5 55.5q0 34 20 57.5t52.5 35t72.5 11.5q44 0 76 -13t49 -35t17 -50q0 -52 -72 -92q49 -25 71.5 -49.5zM145.5 546q-12.5 -10 -12.5 -25
q0 -14 13.5 -27.5t46.5 -30.5q18 11 27 25t9 29q0 18 -12 28.5t-36 10.5q-23 0 -35.5 -10zM230 294q16 12 16 30q0 16 -8.5 26.5t-23 19t-46.5 23.5q-31 -15 -42.5 -30.5t-11.5 -32.5q0 -20 16.5 -34t50.5 -14q33 0 49 12z" />
    <glyph glyph-name="nine.numr" horiz-adv-x="360" 
d="M265 605q35 -20 54 -58.5t19 -91.5q0 -83 -25 -138.5t-69 -82t-101 -26.5q-48 0 -94 16l22 68q36 -12 71 -12q43 0 65.5 25t30.5 70q-41 -25 -87 -25q-36 0 -65.5 15.5t-46.5 46.5t-17 75q0 49 24.5 80t61 44.5t73.5 13.5q49 0 84 -20zM210.5 425q15.5 4 33.5 13v21
q0 46 -15 69.5t-48 23.5q-31 0 -48 -16t-17 -46q0 -32 14 -50.5t48 -18.5q17 0 32.5 4z" />
    <glyph glyph-name="onesuperior" unicode="&#xb9;" horiz-adv-x="359" 
d="M150 688h97v-400h-97v300l-80 -31l-38 55z" />
    <glyph glyph-name="twosuperior" unicode="&#xb2;" horiz-adv-x="360" 
d="M313.5 528q-12.5 -28 -44 -66.5t-90.5 -94.5h144v-79h-288v45q80 78 119.5 121t54 67.5t14.5 44.5q0 23 -14 35t-39 12q-21 0 -41.5 -8.5t-43.5 -26.5l-50 59q30 28 69 43.5t80 15.5q63 0 102.5 -28.5t39.5 -84.5q0 -27 -12.5 -55z" />
    <glyph glyph-name="threesuperior" unicode="&#xb3;" horiz-adv-x="359" 
d="M309 469q20 -25 20 -61q0 -35 -17 -64t-54.5 -47t-97.5 -18q-39 0 -73 7.5t-56 18.5l33 70q39 -17 90 -17q37 0 56.5 12.5t19.5 36.5q0 25 -19.5 38t-72.5 13h-31l6 70h55q30 11 42 25t12 31q0 15 -13 25.5t-39 10.5q-23 0 -46.5 -8.5t-43.5 -23.5l-50 54q63 54 145 54
q70 0 107.5 -28t37.5 -74q0 -28 -19 -50.5t-52 -36.5q40 -13 60 -38z" />
    <glyph glyph-name="fraction" unicode="&#x2044;" horiz-adv-x="236" 
d="M-81 -91l-76 41l474 790l76 -40z" />
    <glyph glyph-name="onehalf" unicode="&#xbd;" horiz-adv-x="905" 
d="M150 617h97v-400h-97v300l-80 -31l-38 55zM258 -91l-76 41l474 790l76 -40zM858.5 240q-12.5 -28 -44 -66.5t-90.5 -94.5h144v-79h-288v45q80 78 119.5 121t54 67.5t14.5 44.5q0 23 -14 35t-39 12q-21 0 -41.5 -8.5t-43.5 -26.5l-50 59q30 28 69 43.5t80 15.5
q63 0 102.5 -28.5t39.5 -84.5q0 -27 -12.5 -55z" />
    <glyph glyph-name="onequarter" unicode="&#xbc;" horiz-adv-x="865" 
d="M150 617h97v-400h-97v300l-80 -31l-38 55zM258 -91l-76 41l474 790l76 -40zM854 163v-77h-50v-86h-97v86h-192v43l117 271h108l-112 -237h79l19 90h78v-90h50z" />
    <glyph glyph-name="threequarters" unicode="&#xbe;" horiz-adv-x="885" 
d="M309 398q20 -25 20 -61q0 -35 -17 -64t-54.5 -47t-97.5 -18q-39 0 -73 7.5t-56 18.5l33 70q39 -17 90 -17q37 0 56.5 12.5t19.5 36.5q0 25 -19.5 38t-72.5 13h-31l6 70h55q30 11 42 25t12 31q0 15 -13 25.5t-39 10.5q-23 0 -46.5 -8.5t-43.5 -23.5l-50 54q63 54 145 54
q70 0 107.5 -28t37.5 -74q0 -28 -19 -50.5t-52 -36.5q40 -13 60 -38zM278 -91l-76 41l474 790l76 -40zM874 163v-77h-50v-86h-97v86h-192v43l117 271h108l-112 -237h79l19 90h78v-90h50z" />
    <glyph glyph-name="uni066B" unicode="&#x66b;" horiz-adv-x="240" 
d="M24 -127q50 69 50 102q0 11 -5 17.5t-15 14.5q-13 10 -20 21t-7 32q0 18 9 33.5t25.5 25.5t36.5 10q31 0 51 -22.5t20 -62.5q0 -90 -90 -202z" />
    <glyph glyph-name="uni066C" unicode="&#x66c;" horiz-adv-x="206" 
d="M19 -102q40 55 40 82q0 9 -4 14.5t-12 11.5q-10 8 -15.5 16.5t-5.5 25.5q0 14 7 26.5t20 20.5t29 8q25 0 41 -18t16 -50q0 -72 -72 -161z" />
    <glyph glyph-name="uni0660" unicode="&#x660;" horiz-adv-x="502" 
d="M168 243l75 82q25 -20 48 -43l43 -44l-77 -78z" />
    <glyph glyph-name="uni0660.pnum" horiz-adv-x="333" 
d="M149.5 181.5q-13.5 13.5 -32.5 30.5l-33 31l75 82q42 -35 90 -87l-77 -78q-9 8 -22.5 21.5z" />
    <glyph glyph-name="uni0661" unicode="&#x661;" horiz-adv-x="502" 
d="M244 -8q-11 130 -29 278.5t-38 247.5l86 61l12 -2q14 -74 27.5 -189.5t21.5 -223.5t8 -155l-76 -20z" />
    <glyph glyph-name="uni0661.pnum" horiz-adv-x="297" 
d="M139 -8q-11 130 -29 278.5t-38 247.5l86 61l12 -2q14 -74 27.5 -189.5t21.5 -223.5t8 -155l-76 -20z" />
    <glyph glyph-name="uni0662" unicode="&#x662;" horiz-adv-x="502" 
d="M464 560q-4 -100 -50 -146.5t-122 -46.5q-57 0 -106 23q13 -108 21.5 -220t8.5 -161l-76 -20l-12 3q-11 130 -29 278.5t-38 247.5l86 61l12 -2q5 -22 10 -58l4 -23q22 -15 51 -23t59 -8q32 0 53.5 8t35.5 31t19 65z" />
    <glyph glyph-name="uni0662.pnum" horiz-adv-x="466" 
d="M456 560q-4 -100 -50 -146.5t-122 -46.5q-47 0 -86 15q13 -110 21.5 -218.5t7.5 -154.5l-76 -20l-12 3q-11 130 -29 278.5t-38 247.5l86 61l12 -2q7 -39 15 -92q42 -20 91 -20q31 0 52.5 8t35.5 31t19 65z" />
    <glyph glyph-name="uni0663" unicode="&#x663;" horiz-adv-x="502" 
d="M467 516q8 -31 8 -56q0 -38 -15 -63t-38 -36.5t-48 -11.5q-27 0 -51 9t-39 25q-10 -18 -26 -27.5t-36 -9.5q-29 0 -52 15q11 -106 18.5 -207.5t7.5 -144.5l-76 -20l-12 3q-11 130 -29 278.5t-38 247.5l86 61l12 -2q11 -64 16 -97q6 -20 19.5 -29.5t30.5 -9.5q13 0 22.5 7
t16 26.5t11.5 55.5l63 -8q-2 -10 -4 -23.5t-2 -23.5q0 -14 12 -22.5t34 -8.5q21 0 30 9t9 26q0 23 -18 75l65 25q15 -32 23 -63z" />
    <glyph glyph-name="uni0663.pnum" horiz-adv-x="516" 
d="M498.5 516q7.5 -31 7.5 -56q0 -38 -15 -63t-38.5 -36.5t-48.5 -11.5q-27 0 -50.5 9t-39.5 25q-9 -18 -24.5 -27.5t-36.5 -9.5q-29 0 -52 15q12 -107 19.5 -208.5t6.5 -143.5l-76 -20l-12 3q-11 130 -29 278.5t-38 247.5l86 61l12 -2q6 -28 13 -78l4 -24q6 -17 19.5 -25.5
t28.5 -8.5q13 0 22.5 7t16.5 26.5t12 55.5l62 -8q-1 -6 -3.5 -23t-2.5 -24q0 -14 12.5 -22.5t34.5 -8.5q21 0 30 9t9 26q0 14 -4.5 32t-13.5 43l66 25q15 -32 22.5 -63z" />
    <glyph glyph-name="uni0664" unicode="&#x664;" horiz-adv-x="502" 
d="M445 101l-31 -88q-26 -7 -61.5 -12t-75.5 -5q-87 0 -131.5 30.5t-44.5 86.5q0 40 23.5 79.5t79.5 80.5q-47 17 -74.5 40t-27.5 57q0 40 29.5 82.5t89 76.5t144.5 49l7 -4l-19 -102q-54 -10 -89 -25t-51 -31t-16 -32q0 -12 16 -22.5t50 -16.5t85 -6l6 -9l-20 -76
q-39 -15 -70 -35t-48.5 -40.5t-17.5 -36.5q0 -47 113 -47q23 0 58.5 4t40.5 5l31 3z" />
    <glyph glyph-name="uni0664.pnum" horiz-adv-x="421" 
d="M404 101l-31 -88q-24 -7 -60.5 -12t-76.5 -5q-86 0 -131 30.5t-45 86.5q0 40 23.5 79.5t80.5 80.5q-48 17 -75.5 40t-27.5 57q0 40 29.5 82.5t89 76.5t145.5 49l6 -4l-18 -102q-54 -10 -89.5 -25t-51.5 -31t-16 -32q0 -12 16.5 -22.5t50.5 -16.5t85 -6l6 -9l-20 -76
q-39 -15 -70 -35t-48.5 -40.5t-17.5 -36.5q0 -24 29 -35.5t83 -11.5q23 0 58.5 4t40.5 5l31 3z" />
    <glyph glyph-name="uni0665" unicode="&#x665;" horiz-adv-x="502" 
d="M108.5 50.5q-44.5 55.5 -44.5 152.5q0 69 24.5 132t69 102.5t100.5 39.5t100 -37t68.5 -99.5t24.5 -135.5q0 -95 -44 -152.5t-149 -57.5t-149.5 55.5zM356 194q0 47 -11.5 89.5t-33 69t-52.5 26.5t-53.5 -26.5t-34.5 -69t-12 -89.5q0 -42 21 -71t78 -29q98 0 98 100z" />
    <glyph glyph-name="uni0665.pnum" horiz-adv-x="494" 
d="M97.5 50.5q-44.5 55.5 -44.5 152.5q0 69 24.5 132t69 102.5t100.5 39.5t100 -37t68.5 -99.5t24.5 -135.5q0 -95 -44 -152.5t-149 -57.5t-149.5 55.5zM325 123q21 29 21 71q0 47 -11.5 89.5t-33.5 69t-53 26.5t-53.5 -26.5t-34 -69.5t-11.5 -89q0 -42 21 -71t77 -29
q57 0 78 29z" />
    <glyph glyph-name="uni0666" unicode="&#x666;" horiz-adv-x="502" 
d="M383.5 389.5q11.5 -107.5 27 -213t26.5 -161.5l-91 -30l-9 3l-4 26q-18 131 -29.5 232t-15.5 215q-34 -2 -54 -2q-49 0 -99 4.5t-83 12.5l9 92l6 6q84 -15 192 -15q54 0 112 5q1 -67 12.5 -174.5z" />
    <glyph glyph-name="uni0666.pnum" horiz-adv-x="448" 
d="M355.5 391q11.5 -107 27 -212.5t26.5 -163.5l-91 -30l-9 3q-1 9 -12.5 88.5t-22 187.5t-13.5 197q-34 -2 -54 -2q-50 0 -99.5 4.5t-82.5 12.5l9 92l5 6q84 -15 192 -15q55 0 113 5q0 -66 11.5 -173z" />
    <glyph glyph-name="uni0667" unicode="&#x667;" horiz-adv-x="502" 
d="M411 579l82 -59l-197 -516l-95 -13l-191 544l96 43l9 -1l133 -466l153 466z" />
    <glyph glyph-name="uni0667.pnum" horiz-adv-x="503" 
d="M411 579l82 -59l-197 -516l-94 -13l-192 544l97 43l8 -1l133 -466l154 466z" />
    <glyph glyph-name="uni0668" unicode="&#x668;" horiz-adv-x="502" 
d="M300 579l192 -544l-97 -43l-8 1l-133 465l-154 -466l-9 -1l-82 60l197 515z" />
    <glyph glyph-name="uni0668.pnum" horiz-adv-x="503" 
d="M302 579l191 -544l-96 -43l-9 1l-133 465l-153 -466l-10 -1l-82 60l197 515z" />
    <glyph glyph-name="uni0669" unicode="&#x669;" horiz-adv-x="502" 
d="M426 162.5q13 -93.5 25 -147.5l-87 -30l-9 3q-19 113 -35 266q-42 -11 -79 -11q-73 0 -118.5 33.5t-45.5 98.5q0 49 24.5 96t64.5 76t84 29q77 0 113 -68.5t45 -180.5q5 -71 18 -164.5zM191.5 350q22.5 -12 62.5 -12q25 0 56 7q-9 70 -25 102.5t-46 32.5q-19 0 -35 -13
t-25.5 -33.5t-9.5 -42.5q0 -29 22.5 -41z" />
    <glyph glyph-name="uni0669.pnum" horiz-adv-x="425" 
d="M359 163q13 -93 24 -148l-86 -30l-10 3q-22 142 -35 266q-42 -11 -79 -11q-47 0 -83.5 14.5t-58 44t-21.5 73.5q0 49 24.5 96t64.5 76t83 29q78 0 113.5 -68.5t44.5 -180.5q6 -71 19 -164zM124.5 350q22.5 -12 62.5 -12q25 0 56 7q-9 70 -25 102.5t-46 32.5
q-19 0 -35 -13t-25.5 -33.5t-9.5 -42.5q0 -29 22.5 -41z" />
    <glyph glyph-name="uni06F0" unicode="&#x6f0;" horiz-adv-x="502" 
d="M168 243l75 82q25 -20 48 -43l43 -44l-77 -78z" />
    <glyph glyph-name="uni06F0.pnum" horiz-adv-x="333" 
d="M149.5 181.5q-13.5 13.5 -32.5 30.5l-33 31l75 82q42 -35 90 -87l-77 -78q-9 8 -22.5 21.5z" />
    <glyph glyph-name="uni06F1" unicode="&#x6f1;" horiz-adv-x="502" 
d="M244 -8q-11 130 -29 278.5t-38 247.5l86 61l12 -2q14 -74 27.5 -189.5t21.5 -223.5t8 -155l-76 -20z" />
    <glyph glyph-name="uni06F1.pnum" horiz-adv-x="297" 
d="M139 -8q-11 130 -29 278.5t-38 247.5l86 61l12 -2q14 -74 27.5 -189.5t21.5 -223.5t8 -155l-76 -20z" />
    <glyph glyph-name="uni06F2" unicode="&#x6f2;" horiz-adv-x="502" 
d="M464 560q-4 -100 -50 -146.5t-122 -46.5q-57 0 -106 23q13 -108 21.5 -220t8.5 -161l-76 -20l-12 3q-11 130 -29 278.5t-38 247.5l86 61l12 -2q5 -22 10 -58l4 -23q22 -15 51 -23t59 -8q32 0 53.5 8t35.5 31t19 65z" />
    <glyph glyph-name="uni06F2.pnum" horiz-adv-x="466" 
d="M456 560q-4 -100 -50 -146.5t-122 -46.5q-47 0 -86 15q13 -110 21.5 -218.5t7.5 -154.5l-76 -20l-12 3q-11 130 -29 278.5t-38 247.5l86 61l12 -2q7 -39 15 -92q42 -20 91 -20q31 0 52.5 8t35.5 31t19 65z" />
    <glyph glyph-name="uni06F3" unicode="&#x6f3;" horiz-adv-x="502" 
d="M467 516q8 -31 8 -56q0 -38 -15 -63t-38 -36.5t-48 -11.5q-27 0 -51 9t-39 25q-10 -18 -26 -27.5t-36 -9.5q-29 0 -52 15q11 -106 18.5 -207.5t7.5 -144.5l-76 -20l-12 3q-11 130 -29 278.5t-38 247.5l86 61l12 -2q11 -64 16 -97q6 -20 19.5 -29.5t30.5 -9.5q13 0 22.5 7
t16 26.5t11.5 55.5l63 -8q-2 -10 -4 -23.5t-2 -23.5q0 -14 12 -22.5t34 -8.5q21 0 30 9t9 26q0 23 -18 75l65 25q15 -32 23 -63z" />
    <glyph glyph-name="uni06F3.pnum" horiz-adv-x="516" 
d="M498.5 516q7.5 -31 7.5 -56q0 -38 -15 -63t-38.5 -36.5t-48.5 -11.5q-27 0 -50.5 9t-39.5 25q-9 -18 -24.5 -27.5t-36.5 -9.5q-29 0 -52 15q12 -107 19.5 -208.5t6.5 -143.5l-76 -20l-12 3q-11 130 -29 278.5t-38 247.5l86 61l12 -2q6 -28 13 -78l4 -24q6 -17 19.5 -25.5
t28.5 -8.5q13 0 22.5 7t16.5 26.5t12 55.5l62 -8q-1 -6 -3.5 -23t-2.5 -24q0 -14 12.5 -22.5t34.5 -8.5q21 0 30 9t9 26q0 14 -4.5 32t-13.5 43l66 25q15 -32 22.5 -63z" />
    <glyph glyph-name="uni06F4" unicode="&#x6f4;" horiz-adv-x="502" 
d="M399.5 297q-34.5 -9 -80.5 -9q-51 0 -142 16q9 -92 14.5 -175t5.5 -120l-77 -20l-11 3q-11 132 -29.5 279.5t-38.5 246.5l87 61l12 -2q13 -64 27 -184q31 -6 62 -9q-12 29 -12 60q0 40 16.5 70t44.5 46t64 16t66 -18t46 -48l-57 -51q-23 29 -54 29q-22 0 -36.5 -14.5
t-14.5 -37.5q0 -14 5.5 -30t17.5 -31h12q33 0 59.5 5.5t52.5 17.5l23 -71q-28 -21 -62.5 -30z" />
    <glyph glyph-name="uni06F4.pnum" horiz-adv-x="503" 
d="M430 297q-35 -9 -81 -9q-51 0 -142 16q10 -99 15.5 -179.5t4.5 -115.5l-76 -20l-12 3q-11 130 -29 278.5t-38 247.5l86 61l12 -2q13 -64 27 -184q31 -6 62 -9q-12 29 -12 60q0 40 16.5 70t45 46t64.5 16t65.5 -18t46.5 -48l-58 -51q-23 29 -54 29q-22 0 -36.5 -14.5
t-14.5 -37.5q0 -14 5.5 -30t17.5 -31h13q33 0 59.5 5.5t51.5 17.5l24 -71q-28 -21 -63 -30z" />
    <glyph glyph-name="uni06F4.urdu" horiz-adv-x="502" 
d="M470 556q-33 -66 -55 -125.5t-35 -121.5h-64q-13 54 -35 92.5t-46.5 58t-46.5 19.5q-14 0 -23.5 -10t-9.5 -28q0 -25 16 -78q31 -105 45.5 -174.5t23.5 -159.5l-87 -35l-8 2q-5 61 -16.5 130t-34.5 168q-14 61 -19.5 91.5t-5.5 51.5q0 40 16.5 71.5t45 49t63.5 17.5
q45 0 83.5 -29t60.5 -82q6 25 15.5 54.5t21.5 61.5l8 3z" />
    <glyph glyph-name="uni06F4.urdu.pnum" horiz-adv-x="452" 
d="M442 556q-33 -65 -55 -125t-36 -122h-63q-13 54 -35 92.5t-47 58t-47 19.5q-14 0 -23 -10t-9 -28q0 -25 16 -78q31 -105 45 -175t23 -159l-86 -35l-8 2q-6 62 -17.5 131t-34.5 167q-14 61 -19.5 91.5t-5.5 51.5q0 40 17 71.5t45.5 49t63.5 17.5q45 0 83 -29.5t61 -82.5
q11 49 36 117l8 3z" />
    <glyph glyph-name="uni06F5" unicode="&#x6f5;" horiz-adv-x="502" 
d="M330 479q57 -59 100 -141t43 -172q0 -51 -15.5 -89.5t-45.5 -60t-73 -21.5q-28 0 -51.5 12t-40.5 36q-33 -48 -88 -48q-39 0 -68.5 18.5t-45.5 54t-16 85.5q0 85 44 173.5t108 160.5q-20 16 -29 22l56 71h10q55 -42 112 -101zM373.5 105q13.5 18 13.5 51q0 74 -43 146.5
t-108 136.5q-54 -63 -89 -137.5t-35 -140.5q0 -37 14 -55.5t37 -18.5q49 0 57 86h62q2 -46 16 -66t37 -20q25 0 38.5 18z" />
    <glyph glyph-name="uni06F5.pnum" horiz-adv-x="550" 
d="M354 479q57 -59 100 -141t43 -172q0 -51 -15.5 -89.5t-45.5 -60t-73 -21.5q-28 0 -51.5 12t-40.5 36q-33 -48 -88 -48q-39 0 -68.5 18.5t-45.5 54t-16 85.5q0 85 44 173.5t108 160.5q-20 16 -29 22l56 71h10q55 -42 112 -101zM397.5 105q13.5 18 13.5 51q0 74 -43 146.5
t-108 136.5q-54 -63 -89 -137.5t-35 -140.5q0 -37 14 -55.5t37 -18.5q49 0 57 86h62q2 -46 16 -66t37 -20q25 0 38.5 18z" />
    <glyph glyph-name="uni06F6" unicode="&#x6f6;" horiz-adv-x="502" 
d="M432 371l-9 -105q-72 -29 -118.5 -63.5t-80.5 -85t-66 -129.5l-78 11l-8 7q25 83 62.5 143t89.5 105q-57 31 -87 72.5t-30 90.5q0 42 21 78.5t58 58.5t84 22q45 0 78 -18t52 -48l-58 -52q-15 15 -31 21.5t-35 6.5q-25 0 -42 -10.5t-24.5 -26t-7.5 -31.5q0 -32 25.5 -59.5
t77.5 -45.5q24 15 55.5 30.5l63.5 30.5z" />
    <glyph glyph-name="uni06F6.pnum" horiz-adv-x="435" 
d="M400 371l-10 -105q-72 -29 -118.5 -63.5t-80.5 -85t-66 -129.5l-78 11l-8 7q25 82 62.5 142t89.5 106q-56 31 -86 72t-30 91q0 42 21 78.5t58 58.5t84 22q44 0 77 -18t52 -48l-58 -52q-27 28 -66 28q-25 0 -41.5 -10.5t-24 -26t-7.5 -31.5q0 -32 25.5 -59.5t76.5 -45.5
q24 15 55.5 30.5l63.5 30.5z" />
    <glyph glyph-name="uni06F7" unicode="&#x6f7;" horiz-adv-x="502" 
d="M411 579l82 -59l-197 -516l-95 -13l-191 544l96 43l9 -1l133 -466l153 466z" />
    <glyph glyph-name="uni06F7.pnum" horiz-adv-x="503" 
d="M411 579l82 -59l-197 -516l-94 -13l-192 544l97 43l8 -1l133 -466l154 466z" />
    <glyph glyph-name="uni06F7.urdu" horiz-adv-x="502" 
d="M446 18q-25 -10 -73.5 -16.5t-100.5 -6.5q-81 0 -139.5 17t-58.5 56q0 46 28.5 128.5t87 183.5t144.5 197h10l66 -69q-97 -105 -157 -209t-85 -192q50 -10 107 -10q39 0 78.5 5t69.5 13l7 -4z" />
    <glyph glyph-name="uni06F7.urdu.pnum" horiz-adv-x="438" 
d="M408 18q-25 -10 -73.5 -16.5t-100.5 -6.5q-81 0 -139 17t-58 56q0 47 28 129t86.5 183t144.5 197h10l67 -69q-97 -105 -157.5 -209.5t-84.5 -191.5q50 -10 107 -10q39 0 78 5t69 13l8 -4z" />
    <glyph glyph-name="uni06F8" unicode="&#x6f8;" horiz-adv-x="502" 
d="M300 579l192 -544l-97 -43l-8 1l-133 465l-154 -466l-9 -1l-82 60l197 515z" />
    <glyph glyph-name="uni06F8.pnum" horiz-adv-x="503" 
d="M302 579l191 -544l-96 -43l-9 1l-133 465l-153 -466l-10 -1l-82 60l197 515z" />
    <glyph glyph-name="uni06F9" unicode="&#x6f9;" horiz-adv-x="502" 
d="M426 162.5q13 -93.5 25 -147.5l-87 -30l-9 3q-19 113 -35 266q-42 -11 -79 -11q-73 0 -118.5 33.5t-45.5 98.5q0 49 24.5 96t64.5 76t84 29q77 0 113 -68.5t45 -180.5q5 -71 18 -164.5zM191.5 350q22.5 -12 62.5 -12q25 0 56 7q-9 70 -25 102.5t-46 32.5q-19 0 -35 -13
t-25.5 -33.5t-9.5 -42.5q0 -29 22.5 -41z" />
    <glyph glyph-name="uni06F9.pnum" horiz-adv-x="435" 
d="M359 163q13 -93 24 -148l-86 -30l-10 3q-22 142 -35 266q-42 -11 -79 -11q-47 0 -83.5 14.5t-58 44t-21.5 73.5q0 49 24.5 96t64.5 76t83 29q78 0 113.5 -68.5t44.5 -180.5q6 -71 19 -164zM124.5 350q22.5 -12 62.5 -12q25 0 56 7q-9 70 -25 102.5t-46 32.5
q-19 0 -35 -13t-25.5 -33.5t-9.5 -42.5q0 -29 22.5 -41z" />
    <glyph glyph-name="asterisk" unicode="*" horiz-adv-x="500" 
d="M443 510l-140 -27l99 -102l-86 -59l-66 122l-66 -122l-86 59l99 102l-140 27l33 96l126 -59l-19 141h105l-18 -141l126 59z" />
    <glyph glyph-name="backslash" unicode="\" horiz-adv-x="513" 
d="M376 -141l-334 885l95 31l335 -886z" />
    <glyph glyph-name="periodcentered" unicode="&#xb7;" horiz-adv-x="196" 
d="M62.5 218.5q-16.5 9.5 -26 25.5t-9.5 35t9.5 35t26 25.5t35.5 9.5t35.5 -9.5t26 -25.5t9.5 -35t-9.5 -35t-26 -25.5t-35.5 -9.5t-35.5 9.5z" />
    <glyph glyph-name="bullet" unicode="&#x2022;" horiz-adv-x="336" 
d="M114 203q-25 14 -39.5 38.5t-14.5 53.5t14.5 53.5t39.5 39t54 14.5t54 -14.5t39.5 -39t14.5 -53.5t-14.5 -53.5t-39.5 -38.5t-54 -14t-54 14z" />
    <glyph glyph-name="periodcentered.case" horiz-adv-x="196" 
d="M62.5 263.5q-16.5 9.5 -26 25.5t-9.5 35t9.5 35t26 25.5t35.5 9.5t35.5 -9.5t26 -25.5t9.5 -35t-9.5 -35t-26 -25.5t-35.5 -9.5t-35.5 9.5z" />
    <glyph glyph-name="exclamdown.case" horiz-adv-x="223" 
d="M76 528.5q-16 9.5 -26 26t-10 34.5q0 19 10 35.5t26 26t35 9.5t35.5 -9.5t26.5 -26t10 -35.5q0 -18 -10 -34.5t-26.5 -26t-35.5 -9.5t-35 9.5zM48 0l21 443l85 8l20 -451h-126z" />
    <glyph glyph-name="questiondown.case" horiz-adv-x="463" 
d="M213 528.5q-16 9.5 -26 26t-10 34.5q0 19 10 35.5t26 26t35 9.5t35.5 -9.5t26.5 -26t10 -35.5q0 -18 -10 -34.5t-26.5 -26t-35.5 -9.5t-35 9.5zM128 6.5q-45 18.5 -70.5 55t-25.5 88.5q0 47 18.5 80t64.5 66q45 33 62 61.5t17 69.5v12l107 10v-38q0 -50 -20 -87.5
t-71 -77.5q-34 -27 -47 -46.5t-13 -41.5q0 -35 23.5 -54.5t68.5 -19.5q37 0 74 18t70 47l62 -70q-42 -42 -99.5 -66.5t-118.5 -24.5q-57 0 -102 18.5z" />
    <glyph glyph-name="colon" unicode=":" horiz-adv-x="196" 
d="M62.5 -1.5q-16.5 9.5 -26 25.5t-9.5 35t9.5 35t26 25.5t35.5 9.5t35.5 -9.5t26 -25.5t9.5 -35t-9.5 -35t-26 -25.5t-35.5 -9.5t-35.5 9.5zM62.5 308.5q-16.5 9.5 -26 25.5t-9.5 35t9.5 35t26 25.5t35.5 9.5t35.5 -9.5t26 -25.5t9.5 -35t-9.5 -35t-26 -25.5t-35.5 -9.5
t-35.5 9.5z" />
    <glyph glyph-name="comma" unicode="," horiz-adv-x="196" 
d="M24 -127q50 69 50 102q0 11 -5 17.5t-15 14.5q-13 10 -20 21t-7 32q0 18 9 33.5t25.5 25.5t36.5 10q31 0 51 -22.5t20 -62.5q0 -90 -90 -202z" />
    <glyph glyph-name="ellipsis" unicode="&#x2026;" horiz-adv-x="636" 
d="M502.5 -1.5q-16.5 9.5 -26 25.5t-9.5 35t9.5 35t26 25.5t35.5 9.5t35.5 -9.5t26 -25.5t9.5 -35t-9.5 -35t-26 -25.5t-35.5 -9.5t-35.5 9.5zM282.5 -1.5q-16.5 9.5 -26 25.5t-9.5 35t9.5 35t26 25.5t35.5 9.5t35.5 -9.5t26 -25.5t9.5 -35t-9.5 -35t-26 -25.5t-35.5 -9.5
t-35.5 9.5zM62.5 -1.5q-16.5 9.5 -26 25.5t-9.5 35t9.5 35t26 25.5t35.5 9.5t35.5 -9.5t26 -25.5t9.5 -35t-9.5 -35t-26 -25.5t-35.5 -9.5t-35.5 9.5z" />
    <glyph glyph-name="exclam" unicode="!" horiz-adv-x="223" 
d="M68 198l-20 450h126l-20 -442zM75.5 -1.5q-16.5 9.5 -26 25.5t-9.5 35t9.5 35t26 25.5t35.5 9.5t35.5 -9.5t26 -25.5t9.5 -35t-9.5 -35t-26 -25.5t-35.5 -9.5t-35.5 9.5z" />
    <glyph glyph-name="exclamdown" unicode="&#xa1;" horiz-adv-x="223" 
d="M76 325.5q-16 9.5 -26 26t-10 34.5q0 19 10 35.5t26 26t35 9.5t35.5 -9.5t26.5 -26t10 -35.5q0 -18 -10 -34.5t-26.5 -26t-35.5 -9.5t-35 9.5zM48 -203l21 443l85 8l20 -451h-126z" />
    <glyph glyph-name="numbersign" unicode="#" horiz-adv-x="540" 
d="M525 429h-80l-31 -206h70v-81h-83l-21 -142h-95l21 142h-128l-21 -142h-94l21 142h-69v81h82l31 206h-72v81h84l21 138h94l-21 -138h128l21 138h95l-21 -138h68v-81zM319 223l31 206h-128l-31 -206h128z" />
    <glyph glyph-name="numbersign.osf" horiz-adv-x="633" 
d="M591 408h-90l-30 -199h79v-84h-92l-19 -125h-101l19 125h-136l-19 -125h-101l19 125h-78v84h91l30 199h-80v84h92l19 124h101l-19 -124h136l19 124h101l-19 -124h78v-84zM370 209l30 199h-136l-30 -199h136z" />
    <glyph glyph-name="period" unicode="." horiz-adv-x="196" 
d="M62.5 -1.5q-16.5 9.5 -26 25.5t-9.5 35t9.5 35t26 25.5t35.5 9.5t35.5 -9.5t26 -25.5t9.5 -35t-9.5 -35t-26 -25.5t-35.5 -9.5t-35.5 9.5z" />
    <glyph glyph-name="question" unicode="?" horiz-adv-x="463" 
d="M161 237q0 50 20.5 87.5t70.5 77.5q35 28 47.5 47t12.5 42q0 34 -23.5 53.5t-68.5 19.5q-37 0 -74.5 -18t-69.5 -47l-61 70q41 42 98.5 67t118.5 25q57 0 102 -18.5t71 -55.5t26 -89q0 -46 -18.5 -79t-65.5 -67q-44 -32 -61 -61t-17 -70v-11l-108 -11v38zM178.5 -1.5
q-16.5 9.5 -26 25.5t-9.5 35t9.5 35t26 25.5t35.5 9.5t35.5 -9.5t26 -25.5t9.5 -35t-9.5 -35t-26 -25.5t-35.5 -9.5t-35.5 9.5z" />
    <glyph glyph-name="questiondown" unicode="&#xbf;" horiz-adv-x="463" 
d="M213 325.5q-16 9.5 -26 26t-10 34.5q0 19 10 35.5t26 26t35 9.5t35.5 -9.5t26.5 -26t10 -35.5q0 -18 -10 -34.5t-26.5 -26t-35.5 -9.5t-35 9.5zM128 -196.5q-45 18.5 -70.5 55t-25.5 88.5q0 47 18.5 80t64.5 66q45 33 62 61.5t17 69.5v12l107 10v-38q0 -50 -20 -87.5
t-71 -77.5q-34 -27 -47 -46.5t-13 -41.5q0 -35 23.5 -54.5t68.5 -19.5q37 0 74 18t70 47l62 -70q-42 -42 -99.5 -66.5t-118.5 -24.5q-57 0 -102 18.5z" />
    <glyph glyph-name="quotedbl" unicode="&#x22;" horiz-adv-x="403" 
d="M73 418v230h110l-38 -230h-72zM240 418v230h110l-38 -230h-72z" />
    <glyph glyph-name="quotesingle" unicode="'" horiz-adv-x="237" 
d="M73 418v230h110l-38 -230h-72z" />
    <glyph glyph-name="semicolon" unicode=";" horiz-adv-x="196" 
d="M24 -127q50 69 50 102q0 11 -5 17.5t-15 14.5q-13 10 -20 21t-7 32q0 18 9 33.5t25.5 25.5t36.5 10q31 0 51 -22.5t20 -62.5q0 -90 -90 -202zM62.5 308.5q-16.5 9.5 -26 25.5t-9.5 35t9.5 35t26 25.5t35.5 9.5t35.5 -9.5t26 -25.5t9.5 -35t-9.5 -35t-26 -25.5t-35.5 -9.5
t-35.5 9.5z" />
    <glyph glyph-name="slash" unicode="/" horiz-adv-x="513" 
d="M138 -141l-96 30l335 886l95 -31z" />
    <glyph glyph-name="underscore" unicode="_" horiz-adv-x="540" 
d="M43 -161v91h454v-91h-454z" />
    <glyph glyph-name="braceleft" unicode="{" horiz-adv-x="360" 
d="M167 -83q-54 38 -54 112q0 12 3 37.5t4 37.5q8 58 8 78q0 32 -8.5 49t-27.5 24.5t-52 8.5v88q33 1 52 8.5t27.5 24.5t8.5 49q0 20 -8 78q-1 12 -4 37.5t-3 37.5q0 74 54 112t155 47l18 -95q-46 -2 -72 -11t-37 -25t-11 -42q0 -15 6 -69q7 -52 7 -78q0 -37 -13.5 -62.5
t-35.5 -39t-47 -16.5q25 -3 47 -16.5t35.5 -39.5t13.5 -62q0 -25 -7 -78q-6 -54 -6 -69q0 -26 11 -42.5t37 -27t72 -15.5l-18 -88q-101 9 -155 47z" />
    <glyph glyph-name="braceright" unicode="}" horiz-adv-x="360" 
d="M20 -42q46 5 72 15.5t37 27t11 42.5q0 15 -6 69q-7 53 -7 78q0 36 13.5 62t35.5 39.5t47 16.5q-25 3 -47 16.5t-35.5 39t-13.5 62.5q0 26 7 78q6 54 6 69q0 26 -11 42t-37 25t-72 11l18 95q101 -9 155 -47t54 -112q0 -12 -3 -37.5t-4 -37.5q-8 -58 -8 -78q0 -32 8.5 -49
t27.5 -24.5t52 -8.5v-88q-33 -1 -52 -8.5t-27.5 -24.5t-8.5 -49q0 -20 8 -78q1 -12 4 -37.5t3 -37.5q0 -74 -54 -112t-155 -47z" />
    <glyph glyph-name="bracketleft" unicode="[" horiz-adv-x="360" 
d="M80 -121v859h262v-93h-153v-673h153v-93h-262z" />
    <glyph glyph-name="bracketright" unicode="]" horiz-adv-x="360" 
d="M18 -121v93h153v673h-153v93h262v-859h-262z" />
    <glyph glyph-name="braceleft.case" horiz-adv-x="360" 
d="M167 -63q-54 38 -54 112q0 12 3 37.5t4 37.5q8 58 8 78q0 32 -8.5 49t-27.5 24.5t-52 8.5v88q33 1 52 8.5t27.5 24.5t8.5 49q0 20 -8 78q-1 12 -4 37.5t-3 37.5q0 74 54 112t155 47l18 -95q-46 -2 -72 -11t-37 -25t-11 -42q0 -15 6 -69q7 -52 7 -78q0 -37 -13.5 -62.5
t-35.5 -39t-47 -16.5q25 -3 47 -16.5t35.5 -39.5t13.5 -62q0 -25 -7 -78q-6 -54 -6 -69q0 -26 11 -42.5t37 -27t72 -15.5l-18 -88q-101 9 -155 47z" />
    <glyph glyph-name="braceright.case" horiz-adv-x="360" 
d="M20 -22q46 5 72 15.5t37 27t11 42.5q0 15 -6 69q-7 53 -7 78q0 36 13.5 62t35.5 39.5t47 16.5q-25 3 -47 16.5t-35.5 39t-13.5 62.5q0 26 7 78q6 54 6 69q0 26 -11 42t-37 25t-72 11l18 95q101 -9 155 -47t54 -112q0 -12 -3 -37.5t-4 -37.5q-8 -58 -8 -78q0 -32 8.5 -49
t27.5 -24.5t52 -8.5v-88q-33 -1 -52 -8.5t-27.5 -24.5t-8.5 -49q0 -20 8 -78q1 -12 4 -37.5t3 -37.5q0 -74 -54 -112t-155 -47z" />
    <glyph glyph-name="bracketleft.case" horiz-adv-x="360" 
d="M80 -101v859h262v-93h-153v-673h153v-93h-262z" />
    <glyph glyph-name="bracketright.case" horiz-adv-x="360" 
d="M18 -101v93h153v673h-153v93h262v-859h-262z" />
    <glyph glyph-name="parenleft.case" horiz-adv-x="360" 
d="M162.5 6q-46.5 62 -72.5 140t-26 177q0 100 26 178t72 139.5t116 125.5l62 -52q-79 -80 -122 -173t-43 -218q0 -124 43 -216.5t122 -173.5l-62 -52q-69 63 -115.5 125z" />
    <glyph glyph-name="parenright.case" horiz-adv-x="360" 
d="M20 -67q79 81 122 173.5t43 216.5q0 125 -43 218t-122 173l62 52q70 -64 116 -125.5t72 -139.5t26 -178q0 -99 -26 -177t-72.5 -140t-115.5 -125z" />
    <glyph glyph-name="parenleft" unicode="(" horiz-adv-x="360" 
d="M162.5 -14q-46.5 62 -72.5 140t-26 177q0 100 26 178t72 139.5t116 125.5l62 -52q-79 -80 -122 -173t-43 -218q0 -124 43 -216.5t122 -173.5l-62 -52q-69 63 -115.5 125z" />
    <glyph glyph-name="parenright" unicode=")" horiz-adv-x="360" 
d="M20 -87q79 81 122 173.5t43 216.5q0 125 -43 218t-122 173l62 52q70 -64 116 -125.5t72 -139.5t26 -178q0 -99 -26 -177t-72.5 -140t-115.5 -125z" />
    <glyph glyph-name="emdash.case" horiz-adv-x="1000" 
d="M47 276v96h906v-96h-906z" />
    <glyph glyph-name="endash.case" horiz-adv-x="600" 
d="M47 276v96h506v-96h-506z" />
    <glyph glyph-name="uni2015.case" horiz-adv-x="1000" 
d="M-2 276v96h1004v-96h-1004z" />
    <glyph glyph-name="hyphen.case" horiz-adv-x="380" 
d="M47 276v96h286v-96h-286z" />
    <glyph glyph-name="uni00AD.case" horiz-adv-x="380" 
d="M47 276v96h286v-96h-286z" />
    <glyph glyph-name="emdash" unicode="&#x2014;" horiz-adv-x="1000" 
d="M47 220v96h906v-96h-906z" />
    <glyph glyph-name="endash" unicode="&#x2013;" horiz-adv-x="600" 
d="M47 220v96h506v-96h-506z" />
    <glyph glyph-name="figuredash" unicode="&#x2012;" horiz-adv-x="540" 
d="M47 276v96h446v-96h-446z" />
    <glyph glyph-name="uni2015" unicode="&#x2015;" horiz-adv-x="1000" 
d="M-2 220v96h1004v-96h-1004z" />
    <glyph glyph-name="hyphen" unicode="-" horiz-adv-x="380" 
d="M47 220v96h286v-96h-286z" />
    <glyph glyph-name="uni00AD" unicode="&#xad;" horiz-adv-x="380" 
d="M47 220v96h286v-96h-286z" />
    <glyph glyph-name="guillemotleft.case" horiz-adv-x="520" 
d="M197 116l-151 163v91l151 162l57 -42l-111 -166l111 -165zM397 116l-151 163v91l151 162l57 -42l-111 -166l111 -165z" />
    <glyph glyph-name="guillemotright.case" horiz-adv-x="520" 
d="M323 116l-57 43l111 165l-111 166l57 42l151 -162v-91zM123 116l-57 43l111 165l-111 166l57 42l151 -162v-91z" />
    <glyph glyph-name="guilsinglleft.case" horiz-adv-x="320" 
d="M197 116l-151 163v91l151 162l57 -42l-111 -166l111 -165z" />
    <glyph glyph-name="guilsinglright.case" horiz-adv-x="320" 
d="M123 116l-57 43l111 165l-111 166l57 42l151 -162v-91z" />
    <glyph glyph-name="guillemotleft" unicode="&#xab;" horiz-adv-x="520" 
d="M197 60l-151 163v91l151 162l57 -42l-111 -166l111 -165zM397 60l-151 163v91l151 162l57 -42l-111 -166l111 -165z" />
    <glyph glyph-name="guillemotright" unicode="&#xbb;" horiz-adv-x="520" 
d="M323 60l-57 43l111 165l-111 166l57 42l151 -162v-91zM123 60l-57 43l111 165l-111 166l57 42l151 -162v-91z" />
    <glyph glyph-name="guilsinglleft" unicode="&#x2039;" horiz-adv-x="320" 
d="M197 60l-151 163v91l151 162l57 -42l-111 -166l111 -165z" />
    <glyph glyph-name="guilsinglright" unicode="&#x203a;" horiz-adv-x="320" 
d="M123 60l-57 43l111 165l-111 166l57 42l151 -162v-91z" />
    <glyph glyph-name="quotedblbase" unicode="&#x201e;" horiz-adv-x="359" 
d="M24 -112q22 30 35 52.5t13 39.5q0 14 -11 22q-17 13 -25.5 24t-8.5 32q0 26 17.5 43t46.5 17t48.5 -20.5t19.5 -56.5q0 -47 -23 -90t-65 -93zM197 -112q22 30 35 52.5t13 39.5q0 14 -11 22q-17 13 -25.5 24t-8.5 32q0 26 17.5 43t46.5 17t48.5 -20.5t19.5 -56.5
q0 -47 -23 -90t-65 -93z" />
    <glyph glyph-name="quotedblleft" unicode="&#x201c;" horiz-adv-x="359" 
d="M46.5 421.5q-19.5 20.5 -19.5 56.5q0 47 23 90t65 93l47 -30q-22 -30 -35 -52.5t-13 -39.5q0 -14 11 -22q17 -13 25.5 -24t8.5 -32q0 -26 -17.5 -43t-46.5 -17t-48.5 20.5zM218.5 421.5q-19.5 20.5 -19.5 56.5q0 46 23 89t65 94l47 -30q-22 -32 -34.5 -53.5t-12.5 -38.5
q0 -14 11 -22q17 -13 25.5 -24t8.5 -32q0 -26 -17.5 -43t-46.5 -17q-30 0 -49.5 20.5z" />
    <glyph glyph-name="quotedblright" unicode="&#x201d;" horiz-adv-x="359" 
d="M24 431q22 30 35 52.5t13 39.5q0 14 -11 22q-17 13 -25.5 24t-8.5 32q0 26 17.5 43t46.5 17t48.5 -20.5t19.5 -56.5q0 -47 -23 -90t-65 -93zM197 431q22 30 35 52.5t13 39.5q0 14 -11 22q-17 13 -25.5 24t-8.5 32q0 26 17.5 43t46.5 17t48.5 -20.5t19.5 -56.5
q0 -47 -23 -90t-65 -93z" />
    <glyph glyph-name="quoteleft" unicode="&#x2018;" horiz-adv-x="186" 
d="M46.5 421.5q-19.5 20.5 -19.5 56.5q0 47 23 90t65 93l47 -30q-22 -30 -35 -52.5t-13 -39.5q0 -14 11 -22q17 -13 25.5 -24t8.5 -32q0 -26 -17.5 -43t-46.5 -17t-48.5 20.5z" />
    <glyph glyph-name="quoteright" unicode="&#x2019;" horiz-adv-x="186" 
d="M24 431q22 30 35 52.5t13 39.5q0 14 -11 22q-17 13 -25.5 24t-8.5 32q0 26 17.5 43t46.5 17t48.5 -20.5t19.5 -56.5q0 -47 -23 -90t-65 -93z" />
    <glyph glyph-name="quotesinglbase" unicode="&#x201a;" horiz-adv-x="186" 
d="M24 -112q22 30 35 52.5t13 39.5q0 14 -11 22q-17 13 -25.5 24t-8.5 32q0 26 17.5 43t46.5 17t48.5 -20.5t19.5 -56.5q0 -47 -23 -90t-65 -93z" />
    <glyph glyph-name="uni06D4" unicode="&#x6d4;" horiz-adv-x="281" 
d="M96.5 8q-41.5 8 -75.5 20l20 88l5 5q44 -11 79 -16.5t76 -5.5h33l-21 -99h-33q-42 0 -83.5 8z" />
    <glyph glyph-name="uni060C" unicode="&#x60c;" horiz-adv-x="209" 
d="M47 16.5q-20 22.5 -20 62.5q0 90 90 202l55 -31q-50 -69 -50 -102q0 -11 5 -17.5t15 -14.5q13 -10 20 -21t7 -32q0 -18 -9 -33.5t-25.5 -25.5t-36.5 -10q-31 0 -51 22.5z" />
    <glyph glyph-name="uni061B" unicode="&#x61b;" horiz-adv-x="196" 
d="M62.5 -1.5q-16.5 9.5 -26 25.5t-9.5 35t9.5 35t26 25.5t35.5 9.5t35.5 -9.5t26 -25.5t9.5 -35t-9.5 -35t-26 -25.5t-35.5 -9.5t-35.5 9.5zM47 262.5q-20 22.5 -20 62.5q0 90 90 202l55 -31q-50 -69 -50 -102q0 -11 5 -17.5t15 -14.5q13 -10 20 -21t7 -32q0 -18 -9 -33.5
t-25.5 -25.5t-36.5 -10q-31 0 -51 22.5z" />
    <glyph glyph-name="uni061F" unicode="&#x61f;" horiz-adv-x="425" 
d="M191 210v11q0 41 -17.5 70t-61.5 61q-47 34 -65.5 67t-18.5 79q0 52 26 89t71 55.5t102 18.5q44 0 87.5 -14t81.5 -39l-46 -83q-58 39 -111 39q-45 0 -68.5 -19.5t-23.5 -53.5q0 -22 13 -41.5t47 -47.5q50 -40 70.5 -77.5t20.5 -87.5q0 -12 -2 -38zM198.5 -1.5
q-16.5 9.5 -26 25.5t-9.5 35t9.5 35t26 25.5t35.5 9.5t35.5 -9.5t26 -25.5t9.5 -35t-9.5 -35t-26 -25.5t-35.5 -9.5t-35.5 9.5z" />
    </font>
</defs>
</svg>
