<?xml version="1.0" standalone="no"?>
<!DOCTYPE svg PUBLIC "-//W3C//DTD SVG 1.1//EN" "http://www.w3.org/Graphics/SVG/1.1/DTD/svg11.dtd" >
<svg>
<metadata>
Created by FontForge 20090622 at Wed May 11 09:42:23 2016
 By deploy user
Copyright (c) 1992 Image Club Graphics, Inc.
</metadata>
<defs>
<font id="OmniBold" horiz-adv-x="650" >
  <font-face 
    font-family="Omni"
    font-weight="7"
    font-stretch="normal"
    units-per-em="1100"
    panose-1="0 0 0 0 0 0 0 0 0 0"
    ascent="880"
    descent="-220"
    x-height="555"
    cap-height="800"
    bbox="-57 -300 1383 1100"
    underline-thickness="20"
    underline-position="-184"
    unicode-range="U+0020-U+F002"
  />
<missing-glyph horiz-adv-x="900" 
d="M56 0v900h788v-900h-788zM788 56v788h-676v-788h676z" />
    <glyph glyph-name=".notdef" horiz-adv-x="900" 
d="M56 0v900h788v-900h-788zM788 56v788h-676v-788h676z" />
    <glyph glyph-name=".null" horiz-adv-x="0" 
 />
    <glyph glyph-name="nonmarkingreturn" horiz-adv-x="325" 
 />
    <glyph glyph-name="space" unicode=" " horiz-adv-x="325" 
 />
    <glyph glyph-name="exclam" unicode="!" horiz-adv-x="309" 
d="M249 715l-2 -24l-75 -449h-31l-79 446l-2 22q0 42 25.5 73.5t69.5 31.5q47 0 72 -31q22 -27 22 -69zM250 80q0 -39 -28 -67t-67 -28t-67 28t-28 67q0 40 27 68t68 28q39 0 67 -28t28 -68z" />
    <glyph glyph-name="quotedbl" unicode="&#x22;" horiz-adv-x="402" 
d="M342 500q0 -19 -13 -32t-32 -13t-32 13t-13 32v270q0 19 13 32t32 13t32 -13t13 -32v-270zM150 500q0 -19 -13 -32t-32 -13t-32 13t-13 32v270q0 19 13 32t32 13t32 -13t13 -32v-270z" />
    <glyph glyph-name="numbersign" unicode="#" horiz-adv-x="619" 
d="M558 549l-9 -87h-106l-16 -123h107l-11 -89h-107l-19 -159h-62l19 159h-126l-19 -159h-61l19 159h-108l11 89h106l16 123h-107l10 87h107l20 162h63l-21 -162h126l20 162h62l-21 -162h107zM380 462h-127l-15 -123h127z" />
    <glyph glyph-name="dollar" unicode="$" horiz-adv-x="685" 
d="M625 235q0 -102 -70.5 -170.5t-185.5 -80.5v-126h-68v125q-73 0 -138 24q-52 19 -96 54l31 139h21q12 -53 65 -101t117 -57v278q-82 21 -113 34q-60 26 -91 68q-37 51 -37 132q0 101 66.5 166.5t174.5 65.5v94h68v-93q61 0 115 -16.5t91 -45.5l-44 -119h-16
q-12 45 -51 80t-95 43v-254q82 -21 119 -36q65 -27 97 -69q40 -52 40 -135zM301 495v234q-102 -19 -102 -120q0 -45 29 -73q24 -24 73 -41zM487 171q0 54 -34 87q-27 26 -84 44v-258q54 10 86 45t32 82z" />
    <glyph glyph-name="percent" unicode="%" horiz-adv-x="962" 
d="M459 618q0 -91 -56.5 -147.5t-147.5 -56.5q-96 0 -148 56q-47 51 -47 136q0 83 58.5 138.5t143.5 55.5q86 0 141.5 -50.5t55.5 -131.5zM740 815l-460 -830h-63l460 830h63zM902 204q0 -91 -56.5 -147.5t-147.5 -56.5q-96 0 -148 56q-47 51 -47 136q0 83 58.5 138.5
t143.5 55.5q86 0 141.5 -50.5t55.5 -131.5zM341 618q0 66 -16 101q-20 43 -63 43q-49 0 -69 -52q-15 -39 -15 -111t17.5 -110t60.5 -38q44 0 64.5 42t20.5 125zM784 204q0 66 -16 101q-20 43 -63 43q-49 0 -69 -52q-15 -39 -15 -111t17.5 -110t60.5 -38q44 0 64.5 42
t20.5 125z" />
    <glyph glyph-name="ampersand" unicode="&#x26;" horiz-adv-x="871" 
d="M821 391q-35 -48 -81 -104t-87 -99l154 -188h-203l-68 78q-25 -26 -90 -55q-85 -38 -162 -38q-110 0 -170 47q-64 50 -64 146q0 81 66 148q52 53 144 95q-45 64 -57 86q-29 55 -29 113q0 75 60.5 127.5t151.5 52.5t143 -40t52 -105t-53 -122q-29 -31 -95 -76l181 -223
q40 46 75 102q29 48 66 121zM489 655q0 35 -19 59q-23 30 -64 30q-43 0 -64 -31q-17 -25 -17 -58q0 -42 37 -103q11 -19 36 -53q37 33 60 68q31 47 31 88zM500 119l-208 256q-32 -20 -58 -56q-30 -42 -30 -82q0 -70 49.5 -115.5t121.5 -45.5q40 0 70 9t55 34z" />
    <glyph glyph-name="quotesingle" unicode="'" horiz-adv-x="212" 
d="M152 496q0 -17 -15 -28t-33 -11q-17 0 -30.5 10.5t-13.5 26.5v273q0 21 14 37t34 16q18 0 31 -15t13 -36v-273z" />
    <glyph glyph-name="parenleft" unicode="(" horiz-adv-x="397" 
d="M337 855q-77 -87 -114.5 -210.5t-37.5 -294.5q0 -166 46 -292q36 -97 104 -180l-31 -31q-121 102 -179 219q-65 131 -65 304q0 174 69 306q59 114 178 211z" />
    <glyph glyph-name="parenright" unicode=")" horiz-adv-x="396" 
d="M336 370q0 -159 -55 -282q-60 -134 -190 -240l-31 30q73 87 109 196q42 128 42 310q0 156 -39.5 276t-111.5 195l33 31q122 -101 180 -220q63 -128 63 -296z" />
    <glyph glyph-name="asterisk" unicode="*" horiz-adv-x="314" 
d="M254 671q0 -16 -10 -31t-20 -15q-6 0 -27.5 24.5t-24.5 22.5t8 -37q7 -21 7 -27q0 -7 -9 -10.5t-21 -3.5q-14 0 -22 2.5t-8 11.5q0 5 13 46q5 16 2 18t-16 -13q-29 -34 -36 -34q-9 0 -19.5 14.5t-10.5 31.5q0 9 34 16t34 10t-21 7q-47 9 -47 19q0 15 10.5 30.5t19.5 15.5
q6 0 27.5 -24.5t24.5 -22.5q4 2 -8 37q-7 21 -7 27q0 7 9 10.5t21 3.5t21 -3.5t9 -10.5q0 -9 -9 -35.5t-6 -28.5t16 13q29 34 36 34q12 0 23 -21q7 -14 7 -25q0 -8 -34.5 -15t-34.5 -11q0 -3 34.5 -10t34.5 -16z" />
    <glyph glyph-name="plus" unicode="+" horiz-adv-x="520" 
d="M460 237h-160v-160h-80v160h-160v80h160v160h80v-160h160v-80z" />
    <glyph glyph-name="comma" unicode="," horiz-adv-x="341" 
d="M281 104q0 -12 -6.5 -27t-15.5 -28l-191 -271l-28 13l63 258q17 69 39 98t59 29q31 0 55.5 -20.5t24.5 -51.5z" />
    <glyph glyph-name="hyphen" unicode="-" horiz-adv-x="414" 
d="M354 210h-294v130h294v-130z" />
    <glyph glyph-name="period" unicode="." horiz-adv-x="310" 
d="M250 80q0 -40 -27.5 -67.5t-67.5 -27.5t-67.5 27.5t-27.5 67.5t27 68t68 28q39 0 67 -28t28 -68z" />
    <glyph glyph-name="slash" unicode="/" horiz-adv-x="591" 
d="M551 880l-398 -959h-113l398 959h113z" />
    <glyph glyph-name="zero" unicode="0" 
d="M599 431q0 -221 -71 -333.5t-207 -112.5q-140 0 -213 110q-69 104 -69 287q0 186 67 290q73 113 216 113q138 0 210 -100q67 -93 67 -254zM425 391q0 188 -19 259q-22 82 -84 82q-69 0 -91 -94q-18 -75 -18 -292q0 -161 18 -225q23 -84 90 -84q59 0 83 89q21 78 21 265z
" />
    <glyph glyph-name="one" unicode="1" 
d="M463 0h-162v657l-136 -72l-41 52v9l328 154l11 -7v-793z" />
    <glyph glyph-name="two" unicode="2" 
d="M594 0h-518v40l211 226q53 56 90 134q43 90 43 170q0 78 -32 121t-88 43q-55 0 -90 -57q-31 -50 -31 -114l-11 -3l-92 78q27 74 93.5 111.5t154.5 37.5q127 0 198.5 -57.5t71.5 -159.5q0 -72 -36 -133q-29 -49 -93 -105l-193 -170h322v-162z" />
    <glyph glyph-name="three" unicode="3" 
d="M590 215q0 -105 -96 -170q-89 -60 -217 -60q-67 0 -123.5 21t-93.5 68l74 102h16q0 -58 35.5 -98.5t91.5 -40.5q63 0 101 51.5t38 126.5q0 82 -36.5 118.5t-112.5 36.5h-45v70h45q55 0 86 36.5t31 114.5q0 62 -22 99q-25 42 -73 42q-54 0 -83 -44q-24 -36 -29 -95h-19
l-78 79q41 61 93 87t140 26q100 0 167 -40q79 -48 79 -138q0 -83 -56 -134q-34 -31 -107 -59q104 -19 146 -58q48 -45 48 -141z" />
    <glyph glyph-name="four" unicode="4" 
d="M606 190h-98v-190h-162v190h-303v119l321 476h144v-469h98v-126zM346 316v343l-227 -343h227z" />
    <glyph glyph-name="five" unicode="5" 
d="M569 244q0 -110 -87.5 -184.5t-228.5 -74.5q-63 0 -109 13.5t-99 49.5l58 121h18q14 -56 41 -89q36 -43 91 -43q65 0 103.5 52.5t38.5 136.5q0 75 -41 124t-101 49q-54 0 -96 -48l-27 19v415h402v-162h-341v-195q24 15 56 23.5t72 8.5q111 0 180.5 -60t69.5 -156z" />
    <glyph glyph-name="six" unicode="6" 
d="M608 242q0 -123 -89 -194q-79 -63 -190 -63q-140 0 -213 104q-62 88 -62 220q0 204 89 332q100 144 284 144q10 0 21 -1q3 0 36 -5l20 -46l-7 -11q-14 4 -33 7t-37 3q-92 0 -145.5 -89.5t-53.5 -236.5q34 31 67.5 47t75.5 16q106 0 171.5 -62.5t65.5 -164.5zM434 222
q0 72 -23 120q-28 59 -82 59t-80 -56q-21 -45 -21 -115q0 -94 24 -143.5t77 -49.5q46 0 75.5 51t29.5 134z" />
    <glyph glyph-name="seven" unicode="7" 
d="M593 765l-389 -765h-123v15l368 608h-388v162h532v-20z" />
    <glyph glyph-name="eight" unicode="8" 
d="M611 215q0 -118 -85 -178q-74 -52 -195 -52q-124 0 -196 51q-84 59 -84 179q0 84 55 147q50 57 114 67q-63 19 -100 60q-41 46 -41 115q0 87 79 137q70 44 173 44q104 0 173 -43q79 -49 79 -138q0 -69 -41 -115q-37 -41 -100 -60q64 -10 114 -67q55 -63 55 -147zM422 583
q0 72 -18 107q-22 42 -73 42q-46 0 -68.5 -39t-22.5 -108q0 -58 21 -96q25 -44 70 -44t68 40t23 98zM437 215q0 76 -20 124q-27 64 -86 64q-58 0 -85 -63q-21 -49 -21 -125q0 -74 24 -122q28 -56 82 -56q52 0 81 55q25 48 25 123z" />
    <glyph glyph-name="nine" unicode="9" 
d="M605 455q0 -228 -115 -356q-102 -114 -256 -114q-27 0 -48 4t-38 11l-29 73l8 9q25 -19 52.5 -32t50.5 -13q97 0 154 106q51 94 51 224q-29 -29 -67.5 -47t-82.5 -18q-98 0 -162 57q-68 61 -68 162q0 118 66 189q70 75 197 75q152 0 225 -100q62 -85 62 -230zM432 547
q0 80 -18 124q-25 61 -82 61q-51 0 -77.5 -51t-26.5 -120q0 -87 27.5 -139t76.5 -52q48 0 74 46t26 131z" />
    <glyph glyph-name="colon" unicode=":" horiz-adv-x="310" 
d="M250 459q0 -39 -28 -67t-67 -28t-67 28t-28 67q0 40 27 68t68 28q39 0 67 -28t28 -68zM250 80q0 -40 -27.5 -67.5t-67.5 -27.5t-67.5 27.5t-27.5 67.5t27 68t68 28q39 0 67 -28t28 -68z" />
    <glyph glyph-name="semicolon" unicode=";" horiz-adv-x="356" 
d="M296 459q0 -39 -28 -67t-67 -28t-67 28t-28 67q0 40 27 68t68 28q39 0 67 -28t28 -68zM281 104q0 -12 -6.5 -27t-15.5 -28l-191 -271l-28 13l63 258q17 69 39 98t59 29q31 0 55.5 -20.5t24.5 -51.5z" />
    <glyph glyph-name="less" unicode="&#x3c;" horiz-adv-x="570" 
d="M510 47l-450 192v77l450 191v-86l-340 -144l340 -144v-86z" />
    <glyph glyph-name="equal" unicode="=" horiz-adv-x="570" 
d="M510 332h-450v80h450v-80zM510 142h-450v80h450v-80z" />
    <glyph glyph-name="greater" unicode="&#x3e;" horiz-adv-x="570" 
d="M510 239l-450 -192v86l337 144l-337 144v86l450 -192v-76z" />
    <glyph glyph-name="question" unicode="?" horiz-adv-x="473" 
d="M423 653q0 -67 -48 -127l-89 -89q-48 -48 -48 -87q0 -17 18 -33t38 -16q11 0 26 3.5t25 12.5l11 -6l-17 -48q-27 -5 -43 -7t-29 -2q-67 0 -114 35q-54 40 -54 108t84.5 153.5t84.5 125.5q0 37 -25.5 58t-62.5 21q-33 0 -52 -16q-15 -13 -31 -46h-18l-19 80
q37 23 70.5 32.5t79.5 9.5q94 0 153.5 -43.5t59.5 -118.5zM328 80q0 -39 -28 -67t-67 -28t-67 28t-28 67q0 40 27 68t68 28q39 0 67 -28t28 -68z" />
    <glyph glyph-name="at" unicode="@" horiz-adv-x="866" 
d="M806 462q0 -115 -79 -206q-75 -86 -157 -86q-30 0 -58.5 21.5t-43.5 52.5q-21 -31 -46 -49q-34 -25 -71 -25q-63 0 -107 54t-44 134q0 113 70 193.5t167 80.5q60 0 86 -45l9 36h129l-82 -329q-3 -10 -4.5 -19.5t-1.5 -18.5q0 -17 8 -17q47 0 97 62q58 71 58 161
q0 120 -77.5 195.5t-207.5 75.5q-129 0 -225.5 -95.5t-96.5 -236.5q0 -136 94.5 -233.5t227.5 -97.5q92 0 162 41q64 37 99 102h80q-35 -80 -103 -135q-97 -78 -238 -78q-165 0 -278 119.5t-113 281.5q0 157 107 274q114 125 284 125q161 0 260 -98q95 -94 95 -240zM492 502
q0 22 -12 45t-32 23q-51 0 -85 -73t-34 -176q0 -37 5 -53q9 -29 35 -29q44 0 85 96q38 90 38 167z" />
    <glyph glyph-name="A" unicode="A" horiz-adv-x="820" 
d="M780 0h-197l-83 237h-263l-91 -237h-106l330 800h89zM475 307l-105 272l-107 -272h212z" />
    <glyph glyph-name="B" unicode="B" horiz-adv-x="665" 
d="M615 224q0 -109 -90 -170q-80 -54 -206 -54h-259v800h269q125 0 190 -35q78 -42 78 -139q0 -87 -67 -141q-55 -44 -136 -56q96 -10 151 -51q70 -53 70 -154zM422 604q0 59 -37.5 92.5t-98.5 33.5h-49v-275h49q56 0 94 37q42 41 42 112zM433 224q0 95 -51 134
q-36 27 -96 27h-49v-315h49q65 0 106 42t41 112z" />
    <glyph glyph-name="C" unicode="C" horiz-adv-x="806" 
d="M756 759l-27 -121h-17q-31 45 -76 73q-56 35 -118 35q-133 0 -208 -110q-66 -97 -66 -236q0 -158 71 -251.5t203 -93.5q53 0 106 20q62 23 109 68l16 -7l-26 -101q-55 -29 -121 -41q-49 -9 -115 -9q-183 0 -302 98q-135 111 -135 317q0 199 139 312q128 104 329 104
q63 0 123 -14.5t115 -42.5z" />
    <glyph glyph-name="D" unicode="D" horiz-adv-x="866" 
d="M816 420q0 -174 -110 -292q-119 -128 -318 -128h-328v800h333q209 0 313 -89q110 -94 110 -291zM621 421q0 164 -73 239q-68 70 -205 70h-106v-660h106q131 0 204.5 91t73.5 260z" />
    <glyph glyph-name="E" unicode="E" horiz-adv-x="549" 
d="M499 0h-439v800h439v-85h-262v-260h257v-85h-257v-285h262v-85z" />
    <glyph glyph-name="F" unicode="F" horiz-adv-x="549" 
d="M499 715h-262v-260h257v-85h-257v-370h-177v800h439v-85z" />
    <glyph glyph-name="G" unicode="G" horiz-adv-x="893" 
d="M833 39q-81 -24 -132 -34q-97 -20 -188 -20q-215 0 -339 104.5t-124 291.5q0 192 129 311q134 123 363 123q73 0 143 -17t133 -55l-32 -118h-16q-43 61 -100.5 90.5t-128.5 29.5q-125 0 -206 -88q-90 -98 -90 -276q0 -166 74 -249q68 -77 194 -77q47 0 78.5 8.5
t64.5 27.5v284h177v-336z" />
    <glyph glyph-name="H" unicode="H" horiz-adv-x="834" 
d="M774 0h-177v370h-360v-370h-177v800h177v-345h360v345h177v-800z" />
    <glyph glyph-name="I" unicode="I" horiz-adv-x="297" 
d="M237 0h-177v800h177v-800z" />
    <glyph glyph-name="J" unicode="J" horiz-adv-x="317" 
d="M257 136q0 -168 -83 -247q-59 -56 -179 -77l-17 54q55 26 73 55q29 47 29 164v715h177v-664z" />
    <glyph glyph-name="K" unicode="K" horiz-adv-x="738" 
d="M698 0h-208l-253 369v-369h-177v800h177v-369l311 369h116l-287 -332z" />
    <glyph glyph-name="L" unicode="L" horiz-adv-x="549" 
d="M499 0h-439v800h177v-715h262v-85z" />
    <glyph glyph-name="M" unicode="M" horiz-adv-x="1056" 
d="M1006 0h-183l-53 541l-261 -541h-43l-260 541l-57 -541h-99l119 800h97l270 -556l278 556h95z" />
    <glyph glyph-name="N" unicode="N" horiz-adv-x="837" 
d="M777 0h-103l-520 566v-566h-94v800h116l507 -551v551h94v-800z" />
    <glyph glyph-name="O" unicode="O" horiz-adv-x="998" 
d="M948 391q0 -176 -133.5 -291t-327.5 -115q-190 0 -305 93q-132 107 -132 313q0 183 118 300q125 124 336 124q214 0 329 -110t115 -314zM753 422q0 135 -62 225q-68 99 -187 99q-141 0 -207 -124q-52 -97 -52 -252t72 -239q65 -76 170 -76q120 0 193 97.5t73 269.5z" />
    <glyph glyph-name="P" unicode="P" horiz-adv-x="651" 
d="M601 600q0 -144 -100 -205q-87 -53 -264 -53v-342h-177v800h272q126 0 189 -38q80 -48 80 -162zM419 577q0 82 -40 121q-33 32 -86 32h-56v-318q81 0 126 33q56 41 56 132z" />
    <glyph glyph-name="Q" unicode="Q" horiz-adv-x="997" 
d="M953 -179l-155 -58l-317 216q-188 0 -304 101q-127 110 -127 311q0 197 130 313q124 111 323 111q188 0 307 -98q137 -113 137 -326q0 -141 -86 -248q-82 -102 -212 -144zM752 422q0 129 -56 217q-67 106 -194 106q-131 0 -196 -102q-61 -95 -61 -273q0 -157 70 -242
q65 -79 174 -79q135 0 205 123q58 102 58 250z" />
    <glyph glyph-name="R" unicode="R" horiz-adv-x="709" 
d="M669 0h-212l-210 370h-10v-370h-177v800h293q123 0 186.5 -48.5t63.5 -138.5q0 -86 -51.5 -143.5t-132.5 -72.5zM422 588q0 67 -22 98q-31 44 -112 44h-51v-311q87 0 128 29q57 40 57 140z" />
    <glyph glyph-name="S" unicode="S" horiz-adv-x="595" 
d="M545 235q0 -111 -87.5 -180.5t-220.5 -69.5q-58 0 -102 10.5t-91 40.5l36 149h21q9 -57 55.5 -93.5t106.5 -36.5q65 0 101 32t36 84q0 42 -22 72q-26 36 -106 72.5t-103 50.5q-56 34 -84 76q-35 53 -35 132q0 106 73 173.5t194 67.5q60 0 104.5 -12.5t84.5 -42.5
l-37 -117h-18q-12 47 -50 74.5t-84 27.5q-61 0 -95 -25.5t-34 -81.5q0 -60 75 -106q18 -11 91 -48q115 -59 155 -120q36 -54 36 -129z" />
    <glyph glyph-name="T" unicode="T" horiz-adv-x="699" 
d="M649 715h-211v-715h-177v715h-211v85h599v-85z" />
    <glyph glyph-name="U" unicode="U" horiz-adv-x="824" 
d="M764 370q0 -385 -343 -385q-196 0 -281 95q-80 90 -80 290v430h177v-430q0 -145 36 -214q47 -91 169 -91q127 0 182 89q46 74 46 216v430h94v-430z" />
    <glyph glyph-name="V" unicode="V" horiz-adv-x="809" 
d="M769 800l-323 -800h-113l-293 800h189l220 -583l223 583h97z" />
    <glyph glyph-name="W" unicode="W" horiz-adv-x="1209" 
d="M1169 800l-267 -800h-132l-175 573l-203 -573h-132l-220 800h182l163 -590l205 590h115l184 -590l180 590h100z" />
    <glyph glyph-name="X" unicode="X" horiz-adv-x="741" 
d="M701 0h-209l-157 286l-182 -286h-113l254 362l-241 438h207l152 -279l173 279h107l-239 -354z" />
    <glyph glyph-name="Y" unicode="Y" horiz-adv-x="752" 
d="M712 800l-247 -434v-366h-177v338l-248 462h189l195 -357l180 357h108z" />
    <glyph glyph-name="Z" unicode="Z" horiz-adv-x="762" 
d="M712 0h-662v20l427 695h-375v85h610v-20l-427 -695h427v-85z" />
    <glyph glyph-name="bracketleft" unicode="[" horiz-adv-x="370" 
d="M310 -100h-250v980h250v-35h-130v-910h130v-35z" />
    <glyph glyph-name="backslash" unicode="\" horiz-adv-x="591" 
d="M551 -79h-113l-398 959h113z" />
    <glyph glyph-name="bracketright" unicode="]" horiz-adv-x="370" 
d="M310 -100h-250v40h130v900h-130v40h250v-980z" />
    <glyph glyph-name="asciicircum" unicode="^" horiz-adv-x="540" 
d="M480 400h-84l-126 292l-127 -292h-83l172 400h75z" />
    <glyph glyph-name="underscore" unicode="_" horiz-adv-x="351" 
d="M351 -100h-351v40h351v-40z" />
    <glyph glyph-name="grave" unicode="`" horiz-adv-x="401" 
d="M341 640h-66l-154 95q-28 17 -38 26q-23 21 -23 44q0 21 17 37t39 16q21 0 41 -13q15 -10 33 -30z" />
    <glyph glyph-name="a" unicode="a" horiz-adv-x="631" 
d="M591 15q-33 -14 -49 -19q-33 -11 -57 -11q-41 0 -71.5 22.5t-44.5 62.5q-23 -42 -65.5 -63.5t-89.5 -21.5q-78 0 -121 39t-43 104q0 74 55 122q42 36 127 63l137 36v43q0 49 -38.5 75.5t-83.5 26.5q-42 0 -76 -20.5t-49 -52.5h-18l-14 70q42 40 101 59.5t115 19.5
q109 0 167 -44t58 -134v-307q0 -41 34 -41q14 0 26 5v-34zM369 191v111q-72 -24 -98 -42q-56 -39 -56 -107q0 -40 12 -62q16 -30 54 -30q42 0 65 35t23 95z" />
    <glyph glyph-name="b" unicode="b" horiz-adv-x="661" 
d="M611 295q0 -136 -68 -221q-71 -89 -194 -89q-55 0 -97 21t-67 60l-100 -66h-25v880h162v-406q21 44 61.5 70t98.5 26q102 0 165.5 -75.5t63.5 -199.5zM438 272q0 102 -19 154q-25 68 -85 68q-59 0 -85.5 -58t-26.5 -168q0 -131 31 -186q25 -45 73 -45q54 0 85 73
q27 65 27 162z" />
    <glyph glyph-name="c" unicode="c" horiz-adv-x="611" 
d="M561 517l-45 -122h-29q-8 48 -32 80q-33 43 -88 43q-68 0 -108 -76q-35 -66 -35 -153q0 -114 45.5 -171t128.5 -57q41 0 67.5 12.5t58.5 41.5l20 -16l-29 -72q-37 -22 -74.5 -32t-87.5 -10q-144 0 -223.5 78.5t-79.5 210.5q0 145 94 224q86 72 223 72q55 0 100.5 -12
t93.5 -41z" />
    <glyph glyph-name="d" unicode="d" horiz-adv-x="659" 
d="M599 0h-162v85q-24 -52 -61.5 -76t-98.5 -24q-107 0 -167 75t-60 218q0 129 58 208q62 84 169 84q58 0 98.5 -23t61.5 -60v154.5v137v101.5h162v-880zM442 286q0 89 -20 140q-27 68 -87 68q-61 0 -89 -72q-22 -56 -22 -144q0 -93 19 -146q26 -71 84 -71q59 0 89 68
q26 60 26 157z" />
    <glyph glyph-name="e" unicode="e" horiz-adv-x="612" 
d="M562 274h-338q0 -108 42 -161.5t118 -53.5q38 0 75 15t66 39l14 -11l-27 -67q-45 -26 -84.5 -38.5t-86.5 -12.5q-144 0 -220 87q-71 81 -71 220q0 151 91 223q70 56 178 56q134 0 192 -80q51 -70 51 -216zM399 339q0 75 -16 120q-21 59 -65 59q-49 0 -71.5 -51
t-22.5 -128h175z" />
    <glyph glyph-name="f" unicode="f" horiz-adv-x="484" 
d="M434 726l-18 -7q-24 15 -43 22q-32 12 -62 12t-47.5 -16.5t-17.5 -45.5q0 -37 11 -69.5t32 -66.5h117v-70h-110v-485h-162v485h-84v70h84q17 137 71 221q67 104 179 104q27 0 50 -10v-144z" />
    <glyph glyph-name="g" unicode="g" horiz-adv-x="635" 
d="M585 -70q0 -109 -94 -172q-86 -58 -218 -58q-97 0 -157 30q-74 37 -74 115q0 59 38 98q30 31 82 48q-72 20 -72 94q0 42 35.5 79.5t73.5 42.5q-65 17 -98 48q-51 48 -51 142q0 80 66.5 126.5t177.5 46.5q43 0 69 -2.5t50 -12.5h172v-70h-84q29 -44 29 -98q0 -99 -79 -150
q-64 -41 -160 -41q-42 0 -58 -7.5t-16 -35.5q0 -34 37 -47t118 -13q98 0 155.5 -41t57.5 -122zM366 394q0 62 -18.5 98t-53.5 36q-44 0 -64 -46q-16 -37 -16 -95q0 -69 18 -107.5t59 -38.5q40 0 59 45q16 39 16 108zM451 -130q0 58 -43.5 85t-124.5 27q-63 0 -99 -30
t-36 -83q0 -55 45.5 -88t108.5 -33q62 0 105.5 33t43.5 89z" />
    <glyph glyph-name="h" unicode="h" horiz-adv-x="642" 
d="M582 0h-162v307q0 86 -22 125.5t-74 39.5t-77 -37.5t-25 -127.5v-307h-162v880h162v-405q23 36 70 63q54 32 109 32q75 0 124 -45q57 -53 57 -155v-370z" />
    <glyph glyph-name="i" unicode="i" horiz-adv-x="282" 
d="M234 737q0 -39 -27 -66t-66 -27t-66 27t-27 66t27 66t66 27t66 -27t27 -66zM222 0h-162v555h162v-555z" />
    <glyph glyph-name="j" unicode="j" horiz-adv-x="282" 
d="M234 737q0 -39 -27 -66t-66 -27t-66 27t-27 66t27 66t66 27t66 -27t27 -66zM222 15q0 -122 -77 -190q-64 -56 -164 -66l-13 39q59 24 77 63q15 34 15 124v570h162v-540z" />
    <glyph glyph-name="k" unicode="k" horiz-adv-x="616" 
d="M576 0h-186l-168 274v-274h-162v880h162v-582l229 258h107l-198 -207z" />
    <glyph glyph-name="l" unicode="l" horiz-adv-x="297" 
d="M222 0h-162v880h162v-880z" />
    <glyph glyph-name="m" unicode="m" horiz-adv-x="973" 
d="M913 0h-162v319q0 79 -16 112q-20 41 -70 41q-56 0 -76.5 -31t-20.5 -103v-338h-162v325q0 73 -18 109q-21 42 -69 42q-49 0 -73 -36.5t-24 -101.5v-338h-162v555h162v-85q17 33 56 61q54 39 122 39q57 0 100 -33q39 -30 52 -75q33 52 74 78q47 30 109 30q91 0 134.5 -51
t43.5 -161v-358z" />
    <glyph glyph-name="n" unicode="n" horiz-adv-x="642" 
d="M582 0h-162v316q0 73 -21 112q-24 44 -75 44t-76.5 -44.5t-25.5 -111.5v-316h-162v555h162v-85q17 32 58 61q56 39 122 39q100 0 142 -61q38 -55 38 -170v-339z" />
    <glyph glyph-name="o" unicode="o" horiz-adv-x="675" 
d="M625 296q0 -139 -75 -223q-78 -88 -216 -88q-135 0 -209.5 77.5t-74.5 206.5q0 135 74 216q78 85 217 85q129 0 206.5 -73.5t77.5 -200.5zM452 296q0 123 -33 177q-27 45 -78 45q-64 0 -93 -74q-24 -62 -24 -175q0 -109 27 -170.5t83 -61.5q58 0 90 79q28 70 28 180z" />
    <glyph glyph-name="p" unicode="p" horiz-adv-x="658" 
d="M608 280q0 -128 -61 -209q-65 -86 -174 -86q-53 0 -90.5 21.5t-60.5 61.5v-368h-162v855h162v-93q21 48 57 76q42 32 102 32q108 0 167.5 -75.5t59.5 -214.5zM435 280q0 107 -24.5 160.5t-78.5 53.5q-55 0 -82.5 -57.5t-27.5 -167.5q0 -101 24.5 -154.5t74.5 -53.5
q54 0 84 58t30 161z" />
    <glyph glyph-name="q" unicode="q" horiz-adv-x="658" 
d="M598 -300h-162v368q-24 -40 -60.5 -61.5t-90.5 -21.5q-110 0 -172.5 83t-62.5 212q0 140 59 215t168 75q58 0 101 -32q38 -28 58 -76v93h162v-855zM436 269q0 112 -26.5 168.5t-83.5 56.5q-54 0 -78.5 -53t-24.5 -161q0 -103 29.5 -161t84.5 -58q49 0 74 55t25 153z" />
    <glyph glyph-name="r" unicode="r" horiz-adv-x="457" 
d="M407 415l-10 -10q-28 16 -62 16q-57 0 -85 -36.5t-28 -101.5v-283h-162v555h162v-146q18 71 56 110q49 51 129 51v-155z" />
    <glyph glyph-name="s" unicode="s" horiz-adv-x="489" 
d="M439 169q0 -85 -61.5 -134.5t-162.5 -49.5q-46 0 -93.5 12t-75.5 35l18 110h30q16 -43 52.5 -70.5t83.5 -27.5q44 0 71 27q21 21 21 42q0 30 -25 50q-18 15 -63 33q-94 39 -121 60q-63 48 -63 132q0 79 55.5 130.5t145.5 51.5q111 0 172 -52l-28 -103h-34
q-6 39 -38.5 67.5t-71.5 28.5q-40 0 -63.5 -17.5t-23.5 -49.5q0 -40 53 -65q6 -3 66 -25q74 -27 106 -57q50 -47 50 -128z" />
    <glyph glyph-name="t" unicode="t" horiz-adv-x="449" 
d="M399 11q-26 -10 -58.5 -18.5t-65.5 -8.5q-79 0 -115 50q-32 44 -32 130v321h-78v70h78v140l162 74v-214h97v-70h-97v-331q0 -63 11.5 -84.5t45.5 -21.5q28 0 52 8v-45z" />
    <glyph glyph-name="u" unicode="u" horiz-adv-x="643" 
d="M583 0h-162v82q-18 -33 -57 -60q-53 -37 -114 -37q-93 0 -141.5 50.5t-48.5 140.5v379h162v-328q0 -67 25.5 -106t72.5 -39q52 0 76.5 36t24.5 119v318h162v-555z" />
    <glyph glyph-name="v" unicode="v" horiz-adv-x="598" 
d="M568 556l-218 -556h-121l-189 556h163l138 -401l142 401h85z" />
    <glyph glyph-name="w" unicode="w" horiz-adv-x="937" 
d="M897 556l-194 -556h-124l-117 382l-123 -382h-128l-171 556h160l123 -396l121 396h130l117 -396l123 396h83z" />
    <glyph glyph-name="x" unicode="x" horiz-adv-x="601" 
d="M561 0h-189l-109 187l-132 -187h-91l187 250l-178 305h189l98 -167l118 167h98l-181 -228z" />
    <glyph glyph-name="y" unicode="y" horiz-adv-x="621" 
d="M581 556l-370 -856h-86l144 300l-229 556h170l148 -354l129 354h94z" />
    <glyph glyph-name="z" unicode="z" horiz-adv-x="617" 
d="M567 0h-517v47l308 439h-264v69h473v-37l-315 -448h315v-70z" />
    <glyph glyph-name="braceleft" unicode="{" horiz-adv-x="440" 
d="M380 -100h-83q-75 0 -119 43t-44 122v226q0 41 -24 68q-20 22 -50 31q31 9 50 30q24 27 24 69v226q0 77 44 121t119 44h83v-35h-50q-37 0 -56.5 -21.5t-19.5 -61.5v-251q0 -52 -15.5 -81.5t-40.5 -39.5q25 -10 40.5 -39.5t15.5 -81.5v-251q0 -83 76 -83h50v-35z" />
    <glyph glyph-name="bar" unicode="|" horiz-adv-x="240" 
d="M180 -200h-120v1080h120v-1080z" />
    <glyph glyph-name="braceright" unicode="}" horiz-adv-x="440" 
d="M380 390q-31 -9 -50 -30q-24 -27 -24 -69v-226q0 -77 -44 -121t-119 -44h-83v35h50q37 0 56.5 21.5t19.5 61.5v251q0 52 17 84q14 27 39 37q-25 10 -39 37q-17 32 -17 84v251q0 83 -76 83h-50v35h83q75 0 119 -43t44 -122v-226q0 -41 24 -68q20 -22 50 -31z" />
    <glyph glyph-name="asciitilde" unicode="~" horiz-adv-x="584" 
d="M524 293l-15 -20q-27 -37 -57 -51.5t-72 -14.5q-21 0 -40 5t-39 15l-55 29q-12 6 -20.5 8.5t-21.5 2.5q-21 0 -35.5 -7t-29.5 -27l-15 -20l-64 48l15 20q27 37 57 51.5t72 14.5q25 0 42.5 -5t36.5 -15l54 -28q9 -5 19.5 -8.5t23.5 -3.5q21 0 35.5 7.5t29.5 26.5l15 20z
" />
    <glyph glyph-name="Adieresis" unicode="&#xc4;" horiz-adv-x="820" 
d="M780 0h-197l-83 237h-263l-91 -237h-106l330 800h89zM475 307l-105 272l-107 -272h212zM616 956q0 -32 -22 -54t-54 -22t-54 22t-22 54t22 54t54 22t54 -22t22 -54zM371 956q0 -32 -22 -54t-54 -22t-54 22t-22 54t22 54t54 22t54 -22t22 -54z" />
    <glyph glyph-name="Aring" unicode="&#xc5;" horiz-adv-x="820" 
d="M780 0h-197l-83 237h-263l-91 -237h-106l330 800h89zM475 307l-105 272l-107 -272h212zM537 980q0 -50 -35 -85t-85 -35t-85 35t-35 85t35 85t85 35t85 -35t35 -85zM485 980q0 28 -20 48t-48 20t-48 -20t-20 -48t20 -48t48 -20t48 20t20 48z" />
    <glyph glyph-name="Ccedilla" unicode="&#xc7;" horiz-adv-x="806" 
d="M756 759l-27 -121h-17q-31 45 -76 73q-56 35 -118 35q-133 0 -208 -110q-66 -97 -66 -236q0 -158 71 -251.5t203 -93.5q53 0 106 20q62 23 109 68l16 -7l-26 -101q-55 -29 -121 -41q-49 -9 -115 -9q-42 0 -83 6l-28 -66q10 3 19 5t21 2q42 0 72 -22.5t30 -63.5
q0 -52 -48 -76q-40 -20 -111 -20q-24 0 -56.5 5t-51.5 13l20 44q31 -17 77 -17q27 0 43 11.5t16 34.5q0 18 -12 30t-38 12q-23 0 -35 -6l-14 8l52 114q-139 33 -219 127q-91 106 -91 274q0 199 139 312q128 104 329 104q63 0 123 -14.5t115 -42.5z" />
    <glyph glyph-name="Eacute" unicode="&#xc9;" horiz-adv-x="549" 
d="M499 0h-439v800h439v-85h-262v-260h257v-85h-257v-285h262v-85zM434 1026q0 -28 -30 -50l-31 -21l-154 -95h-66l151 175q19 21 25 26q21 17 53 17q22 0 37 -15t15 -37z" />
    <glyph glyph-name="Ntilde" unicode="&#xd1;" horiz-adv-x="837" 
d="M777 0h-103l-520 566v-566h-94v800h116l507 -551v551h94v-800zM648 1021q-12 -57 -45 -97q-40 -48 -96 -48q-36 0 -78 18q-93 40 -114 40q-35 0 -51 -19q-2 -3 -20 -38h-40q12 59 45 98q39 47 96 47q36 0 78 -18q92 -39 114 -39q35 0 51 18q4 4 20 38h40z" />
    <glyph glyph-name="Odieresis" unicode="&#xd6;" horiz-adv-x="998" 
d="M948 391q0 -176 -133.5 -291t-327.5 -115q-190 0 -305 93q-132 107 -132 313q0 183 118 300q125 124 336 124q214 0 329 -110t115 -314zM753 422q0 135 -62 225q-68 99 -187 99q-141 0 -207 -124q-52 -97 -52 -252t72 -239q65 -76 170 -76q120 0 193 97.5t73 269.5z
M712 955q0 -32 -22 -54t-54 -22t-54 22t-22 54t22 54t54 22t54 -22t22 -54zM467 955q0 -32 -22 -54t-54 -22t-54 22t-22 54t22 54t54 22t54 -22t22 -54z" />
    <glyph glyph-name="Udieresis" unicode="&#xdc;" horiz-adv-x="824" 
d="M764 370q0 -385 -343 -385q-196 0 -281 95q-80 90 -80 290v430h177v-430q0 -145 36 -214q47 -91 169 -91q127 0 182 89q46 74 46 216v430h94v-430zM609 954q0 -32 -22 -54t-54 -22t-54 22t-22 54t22 54t54 22t54 -22t22 -54zM364 954q0 -32 -22 -54t-54 -22t-54 22
t-22 54t22 54t54 22t54 -22t22 -54z" />
    <glyph glyph-name="aacute" unicode="&#xe1;" horiz-adv-x="631" 
d="M591 15q-33 -14 -49 -19q-33 -11 -57 -11q-41 0 -71.5 22.5t-44.5 62.5q-23 -42 -65.5 -63.5t-89.5 -21.5q-78 0 -121 39t-43 104q0 74 55 122q42 36 127 63l137 36v43q0 49 -38.5 75.5t-83.5 26.5q-42 0 -76 -20.5t-49 -52.5h-18l-14 70q42 40 101 59.5t115 19.5
q109 0 167 -44t58 -134v-307q0 -41 34 -41q14 0 26 5v-34zM369 191v111q-72 -24 -98 -42q-56 -39 -56 -107q0 -40 12 -62q16 -30 54 -30q42 0 65 35t23 95zM469 806q0 -28 -30 -50l-31 -21l-154 -95h-66l151 175q19 21 25 26q21 17 53 17q22 0 37 -15t15 -37z" />
    <glyph glyph-name="agrave" unicode="&#xe0;" horiz-adv-x="631" 
d="M591 15q-33 -14 -49 -19q-33 -11 -57 -11q-41 0 -71.5 22.5t-44.5 62.5q-23 -42 -65.5 -63.5t-89.5 -21.5q-78 0 -121 39t-43 104q0 74 55 122q42 36 127 63l137 36v43q0 49 -38.5 75.5t-83.5 26.5q-42 0 -76 -20.5t-49 -52.5h-18l-14 70q42 40 101 59.5t115 19.5
q109 0 167 -44t58 -134v-307q0 -41 34 -41q14 0 26 5v-34zM369 191v111q-72 -24 -98 -42q-56 -39 -56 -107q0 -40 12 -62q16 -30 54 -30q42 0 65 35t23 95zM439 640h-66l-154 95q-28 17 -38 26q-23 21 -23 44q0 21 17 37t39 16q21 0 41 -13q15 -10 33 -30z" />
    <glyph glyph-name="acircumflex" unicode="&#xe2;" horiz-adv-x="631" 
d="M591 15q-33 -14 -49 -19q-33 -11 -57 -11q-41 0 -71.5 22.5t-44.5 62.5q-23 -42 -65.5 -63.5t-89.5 -21.5q-78 0 -121 39t-43 104q0 74 55 122q42 36 127 63l137 36v43q0 49 -38.5 75.5t-83.5 26.5q-42 0 -76 -20.5t-49 -52.5h-18l-14 70q42 40 101 59.5t115 19.5
q109 0 167 -44t58 -134v-307q0 -41 34 -41q14 0 26 5v-34zM369 191v111q-72 -24 -98 -42q-56 -39 -56 -107q0 -40 12 -62q16 -30 54 -30q42 0 65 35t23 95zM508 640h-68l-129 129l-129 -129h-68l143 207h108z" />
    <glyph glyph-name="adieresis" unicode="&#xe4;" horiz-adv-x="631" 
d="M591 15q-33 -14 -49 -19q-33 -11 -57 -11q-41 0 -71.5 22.5t-44.5 62.5q-23 -42 -65.5 -63.5t-89.5 -21.5q-78 0 -121 39t-43 104q0 74 55 122q42 36 127 63l137 36v43q0 49 -38.5 75.5t-83.5 26.5q-42 0 -76 -20.5t-49 -52.5h-18l-14 70q42 40 101 59.5t115 19.5
q109 0 167 -44t58 -134v-307q0 -41 34 -41q14 0 26 5v-34zM369 191v111q-72 -24 -98 -42q-56 -39 -56 -107q0 -40 12 -62q16 -30 54 -30q42 0 65 35t23 95zM519 724q0 -32 -22 -54t-54 -22t-54 22t-22 54t22 54t54 22t54 -22t22 -54zM274 724q0 -32 -22 -54t-54 -22t-54 22
t-22 54t22 54t54 22t54 -22t22 -54z" />
    <glyph glyph-name="atilde" unicode="&#xe3;" horiz-adv-x="631" 
d="M591 15q-33 -14 -49 -19q-33 -11 -57 -11q-41 0 -71.5 22.5t-44.5 62.5q-23 -42 -65.5 -63.5t-89.5 -21.5q-78 0 -121 39t-43 104q0 74 55 122q42 36 127 63l137 36v43q0 49 -38.5 75.5t-83.5 26.5q-42 0 -76 -20.5t-49 -52.5h-18l-14 70q42 40 101 59.5t115 19.5
q109 0 167 -44t58 -134v-307q0 -41 34 -41q14 0 26 5v-34zM369 191v111q-72 -24 -98 -42q-56 -39 -56 -107q0 -40 12 -62q16 -30 54 -30q42 0 65 35t23 95zM540 799q-12 -57 -45 -97q-40 -48 -96 -48q-36 0 -78 18q-93 40 -114 40q-35 0 -51 -19q-2 -3 -20 -38h-40
q12 59 45 98q39 47 96 47q36 0 78 -18q92 -39 114 -39q35 0 51 18q4 4 20 38h40z" />
    <glyph glyph-name="aring" unicode="&#xe5;" horiz-adv-x="631" 
d="M591 15q-33 -14 -49 -19q-33 -11 -57 -11q-41 0 -71.5 22.5t-44.5 62.5q-23 -42 -65.5 -63.5t-89.5 -21.5q-78 0 -121 39t-43 104q0 74 55 122q42 36 127 63l137 36v43q0 49 -38.5 75.5t-83.5 26.5q-42 0 -76 -20.5t-49 -52.5h-18l-14 70q42 40 101 59.5t115 19.5
q109 0 167 -44t58 -134v-307q0 -41 34 -41q14 0 26 5v-34zM369 191v111q-72 -24 -98 -42q-56 -39 -56 -107q0 -40 12 -62q16 -30 54 -30q42 0 65 35t23 95zM430 760q0 -50 -35 -85t-85 -35t-85 35t-35 85t35 85t85 35t85 -35t35 -85zM378 760q0 28 -20 48t-48 20t-48 -20
t-20 -48t20 -48t48 -20t48 20t20 48z" />
    <glyph glyph-name="ccedilla" unicode="&#xe7;" horiz-adv-x="611" 
d="M561 517l-45 -122h-29q-8 48 -32 80q-33 43 -88 43q-66 0 -107 -76q-36 -67 -36 -153q0 -114 45.5 -171t128.5 -57q41 0 67.5 12.5t58.5 41.5l20 -16l-29 -72q-37 -22 -74.5 -32t-87.5 -10l-55 3l-27 -63q10 3 19 5t21 2q42 0 72 -22.5t30 -63.5q0 -52 -48 -76
q-40 -20 -111 -20q-24 0 -56.5 5t-51.5 13l20 44q31 -17 77 -17q27 0 43 11.5t16 34.5q0 18 -12 30t-38 12q-23 0 -35 -6l-14 8l50 112q-98 25 -150.5 97.5t-52.5 179.5q0 145 94 224q86 72 223 72q55 0 100.5 -12t93.5 -41z" />
    <glyph glyph-name="eacute" unicode="&#xe9;" horiz-adv-x="612" 
d="M562 274h-338q0 -108 42 -161.5t118 -53.5q38 0 75 15t66 39l14 -11l-27 -67q-45 -26 -84.5 -38.5t-86.5 -12.5q-144 0 -220 87q-71 81 -71 220q0 151 91 223q70 56 178 56q134 0 192 -80q51 -70 51 -216zM399 339q0 75 -16 120q-21 59 -65 59q-49 0 -71.5 -51
t-22.5 -128h175zM473 806q0 -28 -30 -50l-31 -21l-154 -95h-66l151 175q19 21 25 26q21 17 53 17q22 0 37 -15t15 -37z" />
    <glyph glyph-name="egrave" unicode="&#xe8;" horiz-adv-x="612" 
d="M562 274h-338q0 -108 42 -161.5t118 -53.5q38 0 75 15t66 39l14 -11l-27 -67q-45 -26 -84.5 -38.5t-86.5 -12.5q-144 0 -220 87q-71 81 -71 220q0 151 91 223q70 56 178 56q134 0 192 -80q51 -70 51 -216zM399 339q0 75 -16 120q-21 59 -65 59q-49 0 -71.5 -51
t-22.5 -128h175zM457 640h-66l-154 95q-28 17 -38 26q-23 21 -23 44q0 21 17 37t39 16q21 0 41 -13q15 -10 33 -30z" />
    <glyph glyph-name="ecircumflex" unicode="&#xea;" horiz-adv-x="612" 
d="M562 274h-338q0 -108 42 -161.5t118 -53.5q38 0 75 15t66 39l14 -11l-27 -67q-45 -26 -84.5 -38.5t-86.5 -12.5q-144 0 -220 87q-71 81 -71 220q0 151 91 223q70 56 178 56q134 0 192 -80q51 -70 51 -216zM399 339q0 75 -16 120q-21 59 -65 59q-49 0 -71.5 -51
t-22.5 -128h175zM510 640h-68l-129 129l-129 -129h-68l143 207h108z" />
    <glyph glyph-name="edieresis" unicode="&#xeb;" horiz-adv-x="612" 
d="M562 274h-338q0 -108 42 -161.5t118 -53.5q38 0 75 15t66 39l14 -11l-27 -67q-45 -26 -84.5 -38.5t-86.5 -12.5q-144 0 -220 87q-71 81 -71 220q0 151 91 223q70 56 178 56q134 0 192 -80q51 -70 51 -216zM399 339q0 75 -16 120q-21 59 -65 59q-49 0 -71.5 -51
t-22.5 -128h175zM513 724q0 -32 -22 -54t-54 -22t-54 22t-22 54t22 54t54 22t54 -22t22 -54zM268 724q0 -32 -22 -54t-54 -22t-54 22t-22 54t22 54t54 22t54 -22t22 -54z" />
    <glyph glyph-name="iacute" unicode="&#xed;" horiz-adv-x="282" 
d="M222 0h-162v555h162v-555zM301 806q0 -28 -30 -50l-31 -21l-154 -95h-66l151 175q19 21 25 26q21 17 53 17q22 0 37 -15t15 -37z" />
    <glyph glyph-name="igrave" unicode="&#xec;" horiz-adv-x="282" 
d="M222 0h-162v555h162v-555zM262 640h-66l-154 95q-28 17 -38 26q-23 21 -23 44q0 21 17 37t39 16q21 0 41 -13q15 -10 33 -30z" />
    <glyph glyph-name="icircumflex" unicode="&#xee;" horiz-adv-x="282" 
d="M222 0h-162v555h162v-555zM340 640h-68l-129 129l-129 -129h-68l143 207h108z" />
    <glyph glyph-name="idieresis" unicode="&#xef;" horiz-adv-x="282" 
d="M222 0h-162v555h162v-555zM340 724q0 -32 -22 -54t-54 -22t-54 22t-22 54t22 54t54 22t54 -22t22 -54zM95 724q0 -32 -22 -54t-54 -22t-54 22t-22 54t22 54t54 22t54 -22t22 -54z" />
    <glyph glyph-name="ntilde" unicode="&#xf1;" horiz-adv-x="642" 
d="M582 0h-162v316q0 73 -21 112q-24 44 -75 44t-76.5 -44.5t-25.5 -111.5v-316h-162v555h162v-85q17 32 58 61q56 39 122 39q100 0 142 -61q38 -55 38 -170v-339zM547 799q-12 -57 -45 -97q-40 -48 -96 -48q-36 0 -78 18q-93 40 -114 40q-35 0 -51 -19q-2 -3 -20 -38h-40
q12 59 45 98q39 47 96 47q36 0 78 -18q92 -39 114 -39q35 0 51 18q4 4 20 38h40z" />
    <glyph glyph-name="oacute" unicode="&#xf3;" horiz-adv-x="675" 
d="M625 296q0 -139 -75 -223q-78 -88 -216 -88q-135 0 -209.5 77.5t-74.5 206.5q0 135 74 216q78 85 217 85q129 0 206.5 -73.5t77.5 -200.5zM452 296q0 123 -33 177q-27 45 -78 45q-64 0 -93 -74q-24 -62 -24 -175q0 -109 27 -170.5t83 -61.5q58 0 90 79q28 70 28 180z
M493 806q0 -28 -30 -50l-31 -21l-154 -95h-66l151 175q19 21 25 26q21 17 53 17q22 0 37 -15t15 -37z" />
    <glyph glyph-name="ograve" unicode="&#xf2;" horiz-adv-x="675" 
d="M625 296q0 -139 -75 -223q-78 -88 -216 -88q-135 0 -209.5 77.5t-74.5 206.5q0 135 74 216q78 85 217 85q129 0 206.5 -73.5t77.5 -200.5zM452 296q0 123 -33 177q-27 45 -78 45q-64 0 -93 -74q-24 -62 -24 -175q0 -109 27 -170.5t83 -61.5q58 0 90 79q28 70 28 180z
M467 640h-66l-154 95q-28 17 -38 26q-23 21 -23 44q0 21 17 37t39 16q21 0 41 -13q15 -10 33 -30z" />
    <glyph glyph-name="ocircumflex" unicode="&#xf4;" horiz-adv-x="675" 
d="M625 296q0 -139 -75 -223q-78 -88 -216 -88q-135 0 -209.5 77.5t-74.5 206.5q0 135 74 216q78 85 217 85q129 0 206.5 -73.5t77.5 -200.5zM452 296q0 123 -33 177q-27 45 -78 45q-64 0 -93 -74q-24 -62 -24 -175q0 -109 27 -170.5t83 -61.5q58 0 90 79q28 70 28 180z
M536 640h-68l-129 129l-129 -129h-68l143 207h108z" />
    <glyph glyph-name="odieresis" unicode="&#xf6;" horiz-adv-x="675" 
d="M625 296q0 -139 -75 -223q-78 -88 -216 -88q-135 0 -209.5 77.5t-74.5 206.5q0 135 74 216q78 85 217 85q129 0 206.5 -73.5t77.5 -200.5zM452 296q0 123 -33 177q-27 45 -78 45q-64 0 -93 -74q-24 -62 -24 -175q0 -109 27 -170.5t83 -61.5q58 0 90 79q28 70 28 180z
M538 724q0 -32 -22 -54t-54 -22t-54 22t-22 54t22 54t54 22t54 -22t22 -54zM293 724q0 -32 -22 -54t-54 -22t-54 22t-22 54t22 54t54 22t54 -22t22 -54z" />
    <glyph glyph-name="otilde" unicode="&#xf5;" horiz-adv-x="675" 
d="M625 296q0 -139 -75 -223q-78 -88 -216 -88q-135 0 -209.5 77.5t-74.5 206.5q0 135 74 216q78 85 217 85q129 0 206.5 -73.5t77.5 -200.5zM452 296q0 123 -33 177q-27 45 -78 45q-64 0 -93 -74q-24 -62 -24 -175q0 -109 27 -170.5t83 -61.5q58 0 90 79q28 70 28 180z
M567 799q-12 -57 -45 -97q-40 -48 -96 -48q-36 0 -78 18q-93 40 -114 40q-35 0 -51 -19q-2 -3 -20 -38h-40q12 59 45 98q39 47 96 47q36 0 78 -18q92 -39 114 -39q35 0 51 18q4 4 20 38h40z" />
    <glyph glyph-name="uacute" unicode="&#xfa;" horiz-adv-x="643" 
d="M583 0h-162v82q-18 -33 -57 -60q-53 -37 -114 -37q-93 0 -141.5 50.5t-48.5 140.5v379h162v-328q0 -67 25.5 -106t72.5 -39q52 0 76.5 36t24.5 119v318h162v-555zM472 806q0 -28 -30 -50l-31 -21l-154 -95h-66l151 175q19 21 25 26q21 17 53 17q22 0 37 -15t15 -37z" />
    <glyph glyph-name="ugrave" unicode="&#xf9;" horiz-adv-x="643" 
d="M583 0h-162v82q-18 -33 -57 -60q-53 -37 -114 -37q-93 0 -141.5 50.5t-48.5 140.5v379h162v-328q0 -67 25.5 -106t72.5 -39q52 0 76.5 36t24.5 119v318h162v-555zM452 640h-66l-154 95q-28 17 -38 26q-23 21 -23 44q0 21 17 37t39 16q21 0 41 -13q15 -10 33 -30z" />
    <glyph glyph-name="ucircumflex" unicode="&#xfb;" horiz-adv-x="643" 
d="M583 0h-162v82q-18 -33 -57 -60q-53 -37 -114 -37q-93 0 -141.5 50.5t-48.5 140.5v379h162v-328q0 -67 25.5 -106t72.5 -39q52 0 76.5 36t24.5 119v318h162v-555zM517 640h-68l-129 129l-129 -129h-68l143 207h108z" />
    <glyph glyph-name="udieresis" unicode="&#xfc;" horiz-adv-x="643" 
d="M583 0h-162v82q-18 -33 -57 -60q-53 -37 -114 -37q-93 0 -141.5 50.5t-48.5 140.5v379h162v-328q0 -67 25.5 -106t72.5 -39q52 0 76.5 36t24.5 119v318h162v-555zM521 724q0 -32 -22 -54t-54 -22t-54 22t-22 54t22 54t54 22t54 -22t22 -54zM276 724q0 -32 -22 -54
t-54 -22t-54 22t-22 54t22 54t54 22t54 -22t22 -54z" />
    <glyph glyph-name="dagger" unicode="&#x2020;" horiz-adv-x="544" 
d="M484 550q0 -23 -15.5 -36.5t-34.5 -13.5q-7 0 -22 5q-46 19 -66 25q-32 10 -61 10q0 -30 0.5 -60t6.5 -60q11 -39 13 -43q9 -26 22 -43q-10 -30 -17 -66.5t-13 -80.5q-12 -95 -12 -187v-100h-26v100q0 92 -12 187q-8 59 -11 73q-7 36 -19 74q14 18 25 53q3 9 10 33
q3 15 5 45t2 75q-34 0 -76 -15q-17 -6 -51 -20q-15 -5 -22 -5q-20 0 -35 13t-15 37q0 23 15.5 36.5t34.5 13.5q9 0 22 -5q46 -19 66 -25q32 -10 61 -10q0 26 -12 68q-27 94 -27 124q0 24 15.5 36t36.5 12q23 0 37.5 -11t14.5 -37q0 -35 -19.5 -101t-19.5 -91q34 0 76 15
q17 6 51 20q13 5 22 5q20 0 35 -13t15 -37z" />
    <glyph glyph-name="degree" unicode="&#xb0;" horiz-adv-x="420" 
d="M360 650q0 -62 -44 -106t-106 -44t-106 44t-44 106q0 63 43.5 106.5t106.5 43.5t106.5 -43.5t43.5 -106.5zM303 650q0 39 -27.5 66.5t-65.5 27.5q-39 0 -66.5 -27.5t-27.5 -66.5t27 -66t67 -27q39 0 66 27t27 66z" />
    <glyph glyph-name="cent" unicode="&#xa2;" horiz-adv-x="611" 
d="M564 517l-45 -122h-29q-4 26 -12 46.5t-26 39.5l-125 -406q31 -14 74 -14q41 0 67.5 12.5t58.5 41.5l20 -16l-29 -72q-37 -22 -74.5 -32t-87.5 -10q-31 0 -55 4l-46 -151l-60 18l45 145q-91 28 -139 99.5t-48 173.5q0 145 94 224q86 72 223 72l44 -3l43 140l60 -15
l-42 -136q43 -13 89 -39zM398 514q-12 4 -28 4q-68 0 -108 -76q-35 -66 -35 -153q0 -116 48 -175z" />
    <glyph glyph-name="sterling" unicode="&#xa3;" horiz-adv-x="679" 
d="M626 741l-65 -116h-16q0 48 -21 82q-27 44 -79 44q-53 0 -75.5 -40t-22.5 -124q0 -36 2 -75t4 -72h208v-70h-211q-13 -74 -42 -125q-32 -56 -88 -98h401v-147h-563v147q59 0 91 26q40 32 40 104q0 58 -5 93h-98v70h90q0 17 -2.5 49.5t-2.5 44.5q0 113 57 182
q70 84 217 84q50 0 99 -15.5t82 -43.5z" />
    <glyph glyph-name="section" unicode="&#xa7;" horiz-adv-x="608" 
d="M553 351q0 -52 -31 -96q-10 -14 -56 -63q35 -30 51 -58t16 -69q0 -96 -80 -155q-74 -54 -176 -54q-57 0 -114.5 15.5t-94.5 44.5l21 123h22q17 -44 58 -79q49 -42 108 -42q60 0 93 28t33 68q0 57 -91 100l-171 79q-92 59 -92 154q0 43 21 83q28 52 79 86q-30 27 -37 39
q-18 28 -18 73q0 84 60.5 135.5t163.5 51.5q71 0 115.5 -14t83.5 -42l-51 -98h-15q-7 40 -45 66t-88 26q-46 0 -72.5 -20t-26.5 -60q0 -50 86 -94q160 -81 161 -82q87 -59 87 -146zM462 288q0 51 -106 104q-156 78 -177 94q-21 -20 -30 -35.5t-9 -40.5q0 -58 153 -125
q104 -46 136 -67q33 32 33 70z" />
    <glyph glyph-name="bullet" unicode="&#x2022;" horiz-adv-x="440" 
d="M380 400q0 -66 -47 -113t-113 -47t-113 47t-47 113t47 113t113 47t113 -47t47 -113z" />
    <glyph glyph-name="paragraph" unicode="&#xb6;" horiz-adv-x="657" 
d="M597 -100h-107v835h-68v-835h-107v470h-47q-104 0 -165 57t-61 152q0 104 63.5 162.5t185.5 58.5h306v-900zM315 408v327q-51 0 -72.5 -36.5t-21.5 -119.5q0 -85 22 -128t72 -43z" />
    <glyph glyph-name="germandbls" unicode="&#xdf;" horiz-adv-x="668" 
d="M618 227q0 -91 -73.5 -166.5t-162.5 -75.5q-59 0 -106 25l27 110h18q16 -26 38 -43q31 -24 64 -24q36 0 59.5 20.5t23.5 53.5q0 50 -56 98l-104 84q-57 54 -57 114q0 43 38 98l70 95q39 59 39 106q0 44 -26 75q-29 34 -78 34q-58 0 -86 -48q-24 -41 -24 -110v-673h-162
v616q0 116 70 188q74 76 200 76q80 0 131 -33q60 -39 60 -110q0 -56 -59 -118t-59 -101q0 -38 55 -81q99 -78 104 -83q56 -57 56 -127z" />
    <glyph glyph-name="registered" unicode="&#xae;" horiz-adv-x="920" 
d="M860 401q0 -165 -118 -283t-283 -118q-166 0 -283 117t-117 284q0 165 117 282t283 117q165 0 283 -117t118 -282zM790 401q0 137 -97 233t-234 96t-233 -96t-96 -233t96 -234t233 -97t234 97t97 234zM652 170h-79q-9 19 -12.5 45t-3.5 56q0 49 -22 68t-68 19h-101v-188
h-70v461h173q74 0 115 -25q54 -33 54 -110q0 -42 -13.5 -68.5t-36.5 -42.5q19 -18 28.5 -45t9.5 -69q0 -38 4.5 -54t21.5 -47zM568 496q0 39 -26 52.5t-68 13.5h-108v-134h108q42 0 64 12q30 16 30 56z" />
    <glyph glyph-name="copyright" unicode="&#xa9;" horiz-adv-x="920" 
d="M860 401q0 -165 -118 -283t-283 -118q-166 0 -283 117t-117 284q0 165 117 282t283 117q165 0 283 -117t118 -282zM790 401q0 137 -97 233t-234 96t-233 -96t-96 -233t96 -234t233 -97t234 97t97 234zM660 328q0 -63 -49 -112q-58 -57 -152 -57q-96 0 -156 69.5
t-60 172.5q0 100 60 170t156 70q93 0 151 -57q50 -50 50 -111h-74q0 36 -30 65q-36 35 -97 35q-72 0 -112 -59q-33 -49 -33 -113q0 -63 33 -113q40 -61 112 -61q61 0 96 34q31 30 31 67h74z" />
    <glyph glyph-name="trademark" unicode="&#x2122;" horiz-adv-x="846" 
d="M786 400h-67v262l-98 -261h-70l-97 261v-262h-67v400h87l112 -297l112 297h88v-400zM357 736h-115v-336h-67v336h-115v64h297v-64z" />
    <glyph glyph-name="acute" unicode="&#xb4;" horiz-adv-x="444" 
d="M384 806q0 -28 -30 -50l-31 -21l-154 -95h-66l151 175q19 21 25 26q21 17 53 17q22 0 37 -15t15 -37z" />
    <glyph glyph-name="dieresis" unicode="&#xa8;" horiz-adv-x="517" 
d="M457 724q0 -32 -22 -54t-54 -22t-54 22t-22 54t22 54t54 22t54 -22t22 -54zM212 724q0 -32 -22 -54t-54 -22t-54 22t-22 54t22 54t54 22t54 -22t22 -54z" />
    <glyph glyph-name="notequal" unicode="&#x2260;" horiz-adv-x="570" 
d="M510 142h-252l-53 -104l-67 38l34 66h-112v80h153l56 110h-209v80h250l54 106l68 -37l-36 -69h114v-80h-154l-57 -110h211v-80z" />
    <glyph glyph-name="AE" unicode="&#xc6;" horiz-adv-x="1069" 
d="M1019 0h-439v281h-261l-162 -281h-117l490 800h489v-85h-262v-260h257v-85h-257v-285h262v-85zM580 351v364l-220 -364h220z" />
    <glyph glyph-name="Oslash" unicode="&#xd8;" horiz-adv-x="998" 
d="M941 391q0 -176 -133.5 -291t-327.5 -115q-79 0 -147 16.5t-124 52.5l-112 -119l-47 43l108 115q-55 50 -85 124.5t-30 173.5q0 183 118 300q125 124 336 124q166 0 274 -67l110 117l47 -43l-106 -113q119 -110 119 -318zM680 651q-32 45 -78 70t-105 25
q-141 0 -207 -124q-52 -97 -52 -252q0 -48 7 -88.5t20 -74.5zM746 422q0 95 -33 170l-417 -444q33 -46 81 -69.5t103 -23.5q120 0 193 97.5t73 269.5z" />
    <glyph glyph-name="infinity" unicode="&#x221e;" horiz-adv-x="872" 
d="M812 277q0 -69 -49.5 -119.5t-115.5 -50.5q-49 0 -102.5 29t-101.5 78l-7 7l-7 -7q-49 -49 -101.5 -78t-102.5 -29q-66 0 -115.5 50.5t-49.5 119.5q0 68 49.5 116.5t116.5 48.5q50 0 104 -28.5t99 -73.5l7 -7l7 7q47 47 97 73q55 29 106 29q67 0 116.5 -48.5t49.5 -116.5
zM732 277q0 35 -26 60t-60 25q-35 0 -74 -22t-73 -56l-7 -7l7 -7q39 -38 72 -58q41 -25 76 -25t60 27t25 63zM380 277l-7 7q-35 35 -70 55q-41 23 -77 23q-34 0 -60 -25t-26 -60q0 -36 25 -63t60 -27t75 24q33 20 73 59z" />
    <glyph glyph-name="plusminus" unicode="&#xb1;" horiz-adv-x="520" 
d="M460 317h-160v-160h-80v160h-160v80h160v160h80v-160h160v-80zM460 27h-400v80h400v-80z" />
    <glyph glyph-name="lessequal" unicode="&#x2264;" horiz-adv-x="520" 
d="M460 120l-400 173v75l400 172v-85l-290 -125l290 -125v-85zM460 0h-400v80h400v-80z" />
    <glyph glyph-name="greaterequal" unicode="&#x2265;" horiz-adv-x="520" 
d="M460 293l-400 -173v85l290 125l-290 125v85l400 -172v-75zM460 0h-400v80h400v-80z" />
    <glyph glyph-name="yen" unicode="&#xa5;" horiz-adv-x="752" 
d="M712 800l-180 -316h141v-94h-194l-14 -24v-82h208v-94h-208v-190h-177v190h-208v94h208v54l-28 52h-180v94h130l-170 316h189l195 -357l180 357h108z" />
    <glyph glyph-name="mu" unicode="&#xb5;" horiz-adv-x="677" 
d="M615 145q0 -57 -26 -105q-30 -55 -77 -55q-62 0 -90 62q-30 -30 -70.5 -46t-82.5 -16q-67 0 -118 39l-26 -223h-87l73 700h88l-31 -314q-1 -5 -1 -15q0 -45 29.5 -72.5t72.5 -27.5q52 0 91 33.5t45 90.5l28 305h88l-31 -313l-2 -42q0 -74 41 -74q44 0 44 73h42z" />
    <glyph glyph-name="partialdiff" unicode="&#x2202;" horiz-adv-x="603" 
d="M543 388q0 -155 -71 -274q-80 -134 -208 -134q-84 0 -144 66.5t-60 157.5q0 105 61.5 174.5t156.5 69.5q46 0 89 -21q25 -12 61 -40q4 19 6 45.5t2 49.5q0 112 -41 184q-44 78 -120 78q-34 0 -64 -8t-59 -29l-56 74q36 21 78 30t81 9q134 0 216 -142q72 -125 72 -290z
M416 319q-21 24 -42 38q-30 20 -61 20q-61 0 -100.5 -63.5t-39.5 -140.5q0 -54 28 -94t74 -40q63 0 102 108q19 54 39 172z" />
    <glyph glyph-name="summation" unicode="&#x3a3;" horiz-adv-x="863" 
d="M803 161l-47 -273q-23 6 -47.5 11t-40.5 5h-501q-27 0 -57.5 -6l-49.5 -10l372 433l-372 490q33 -11 63 -15.5t53 -4.5h543l14 -196h-35q-5 31 -17.5 54t-30 37.5t-43 21t-67.5 6.5h-225l257 -335l-288 -335h344q32 0 53.5 6t36 21.5t30 41.5t20.5 48h35z" />
    <glyph glyph-name="product" unicode="&#x220f;" horiz-adv-x="952" 
d="M886 -100h-350v35q54 0 74 15q26 19 26 73v705h-326v-705q0 -53 26 -72q22 -16 74 -16v-35h-350v35q54 0 74 15q26 19 26 73v634q0 64 -39 91q-25 17 -61 17v35h826v-35q-50 0 -75 -28.5t-25 -79.5v-634q0 -53 26 -72q22 -16 74 -16v-35z" />
    <glyph glyph-name="pi" unicode="&#x3c0;" horiz-adv-x="613" 
d="M553 165q0 -94 -40 -142q-31 -37 -74 -37q-41 0 -68 36q-34 45 -34 139q0 21 2 50t4 44l16 145h-83l-23 -230q-7 -68 -24 -114q-26 -70 -67 -70q-26 0 -41 18.5t-15 43.5q0 20 33 58t37 71l24 223h-30q-37 0 -68 -59h-42q15 64 49 108q40 52 93 52h351v-101h-119
l-14 -135q-3 -32 -4.5 -50.5t-1.5 -22.5q0 -53 8 -75t34 -22q20 0 35 18t20 52h42z" />
    <glyph glyph-name="integral" unicode="&#x222b;" horiz-adv-x="402" 
d="M342 836q0 -24 -15 -39t-40 -15q-13 0 -26 12t-21 12q-6 0 -6 -9v-15q0 -21 11 -160q6 -76 6 -139v-85v-50q0 -104 -3.5 -166t-20.5 -153q-11 -61 -27 -88q-25 -41 -76 -41q-27 0 -45.5 18.5t-18.5 45.5q0 21 14.5 37.5t34.5 16.5q16 0 31 -15t19 -15q8 0 12 18t4 62
q0 24 -3.5 126t-3.5 147v231q0 89 6.5 152.5t24.5 111.5q9 28 28.5 46t45.5 18q30 0 49.5 -17.5t19.5 -46.5z" />
    <glyph glyph-name="ordfeminine" unicode="&#xaa;" horiz-adv-x="441" 
d="M391 484q-24 -10 -30 -12q-20 -7 -33 -7q-30 0 -48 12.5t-30 36.5q-14 -21 -39.5 -35t-51.5 -14q-49 0 -77 22q-32 25 -32 76q0 37 45 62q16 9 155 47v26q0 25 -21 40.5t-47 15.5t-52.5 -11t-35.5 -28h-8l-11 39q49 46 138 46q76 0 110 -32q30 -28 30 -79v-166
q0 -12 6 -18t17 -6l15 3v-18zM368 336h-303v65h303v-65zM250 583v63q-46 -15 -64 -26q-34 -22 -34 -57q0 -51 44 -51q26 0 40 17t14 54z" />
    <glyph glyph-name="ordmasculine" unicode="&#xba;" horiz-adv-x="453" 
d="M403 644q0 -82 -47.5 -130.5t-131.5 -48.5q-80 0 -127 44t-47 118q0 79 50 126t130 47t126.5 -43.5t46.5 -112.5zM388 336h-323v65h323v-65zM301 644q0 46 -12 79q-18 50 -59 50q-36 0 -57 -43.5t-21 -102.5q0 -60 18.5 -97t53.5 -37q39 0 58 39.5t19 111.5z" />
    <glyph glyph-name="Omega" unicode="&#x3a9;" horiz-adv-x="944" 
d="M884 1h-364l15 202q55 8 101 63q64 77 64 210q0 132 -59.5 204.5t-169.5 72.5q-107 0 -167.5 -75.5t-60.5 -201.5q0 -134 63 -210q46 -55 103 -63l13 -202h-362v231h35q4 -41 26 -64t62 -23h161v15q-62 16 -111 44q-68 39 -106 98q-48 74 -48 174q0 148 109.5 243.5
t282.5 95.5q175 0 284 -93t109 -246q0 -99 -47 -172q-38 -59 -106 -99q-50 -29 -111 -45v-15h161q41 0 62.5 22.5t25.5 64.5h35v-231z" />
    <glyph glyph-name="ae" unicode="&#xe6;" horiz-adv-x="919" 
d="M869 274h-347q0 -108 47 -163q44 -52 122 -52q38 0 75 15t66 39l14 -11l-27 -67q-45 -26 -84.5 -38.5t-86.5 -12.5q-86 0 -152.5 36t-93.5 92q-19 -53 -67 -88q-55 -40 -127 -40q-76 0 -117 45t-41 128q0 61 56 102q44 32 128 57l138 36v40q0 50 -35 76t-87 26
q-36 0 -67.5 -20.5t-46.5 -52.5h-18l-14 70q88 79 188 79q55 0 98.5 -19.5t68.5 -52.5q30 33 73 52.5t94 19.5q134 0 192 -80q51 -70 51 -216zM706 339q0 85 -16 126q-21 53 -71 53q-48 0 -72.5 -52t-24.5 -127h184zM374 181v129q-81 -24 -114 -51q-46 -37 -46 -102
q0 -46 15.5 -71t54.5 -25q41 0 65.5 35t24.5 85z" />
    <glyph glyph-name="oslash" unicode="&#xf8;" horiz-adv-x="675" 
d="M649 587l-91 -102q67 -72 67 -189q0 -139 -75 -223q-78 -88 -216 -88q-107 0 -178 51l-86 -97l-43 38l87 97q-64 75 -64 195q0 135 74 216q78 85 217 85q105 0 177 -49l92 102zM436 430q-13 42 -33 63q-24 25 -62 25q-64 0 -93 -74q-24 -62 -24 -175l3 -70zM452 296
l-3 67l-209 -233q14 -45 37 -69t57 -24q58 0 90 79q28 70 28 180z" />
    <glyph glyph-name="questiondown" unicode="&#xbf;" horiz-adv-x="473" 
d="M335 535q0 -40 -27 -68t-68 -28q-39 0 -67 28t-28 68q0 39 28 67t67 28t67 -28t28 -67zM413 -158q-37 -23 -70.5 -32.5t-79.5 -9.5q-94 0 -153.5 43.5t-59.5 118.5q0 67 48 127l90.5 90.5t46.5 85.5q0 17 -18 33t-38 16q-11 0 -26 -3.5t-25 -12.5l-11 6l17 48q27 5 43 7
t29 2q67 0 114 -35q54 -40 54 -108t-84.5 -153.5t-84.5 -125.5q0 -37 25.5 -58t62.5 -21q73 0 102 62h18v-80z" />
    <glyph glyph-name="exclamdown" unicode="&#xa1;" horiz-adv-x="309" 
d="M249 535q0 -40 -27 -68t-68 -28q-39 0 -67 28t-28 68q0 39 28 67t67 28t67 -28t28 -67zM249 -95q0 -42 -25.5 -73.5t-69.5 -31.5q-47 0 -70.5 29t-23.5 71l2 24l75 449h31l79 -446z" />
    <glyph glyph-name="logicalnot" unicode="&#xac;" horiz-adv-x="660" 
d="M600 142h-80v190h-460v80h540v-270z" />
    <glyph glyph-name="radical" unicode="&#x221a;" horiz-adv-x="559" 
d="M499 863l-123 -878l-216 451l-77 -36l-23 50l144 71l148 -311l95 660z" />
    <glyph glyph-name="florin" unicode="&#x192;" horiz-adv-x="640" 
d="M580 742q0 -24 -16.5 -41.5t-41.5 -17.5q-23 0 -34 19.5t-14 19.5q-25 0 -40 -73l-22 -132l-2 -17h106l-12 -69h-107l-29 -165q-21 -113 -88 -229q-79 -137 -157 -137q-31 0 -47.5 17.5t-16.5 41.5q0 26 16 42.5t39 16.5q25 0 38 -26q6 -13 11 -13q25 0 44 69
q8 30 28 135l45 248h-106l13 69h106l3 20q22 113 91 196.5t130 83.5q24 0 43.5 -14.5t19.5 -43.5z" />
    <glyph glyph-name="approxequal" unicode="&#x2248;" horiz-adv-x="584" 
d="M524 388l-15 -20q-27 -37 -57 -51.5t-72 -14.5q-21 0 -40 5t-39 15l-55 29q-12 6 -20.5 8.5t-21.5 2.5q-21 0 -35.5 -7t-29.5 -27l-15 -20l-64 48l15 20q27 37 57 51.5t72 14.5q25 0 42.5 -5t36.5 -15l54 -28q9 -5 19.5 -8.5t23.5 -3.5q21 0 35.5 7.5t29.5 26.5l15 20z
M524 198l-15 -20q-27 -37 -57 -51.5t-72 -14.5q-21 0 -40 5t-39 15l-55 29q-12 6 -20.5 8.5t-21.5 2.5q-21 0 -35.5 -7t-29.5 -27l-15 -20l-64 48l15 20q27 37 57 51.5t72 14.5q25 0 42.5 -5t36.5 -15l54 -28q9 -5 19.5 -8.5t23.5 -3.5q21 0 35.5 7.5t29.5 26.5l15 20z" />
    <glyph glyph-name="Delta" unicode="&#x2206;" horiz-adv-x="834" 
d="M773 1h-714l379 815zM586 85l-191 462l-213 -462h404z" />
    <glyph glyph-name="guillemotleft" unicode="&#xab;" horiz-adv-x="521" 
d="M461 105l-61 -45l-148 218l148 218l61 -45l-118 -173zM269 105l-61 -45l-148 218l148 218l61 -45l-118 -173z" />
    <glyph glyph-name="guillemotright" unicode="&#xbb;" horiz-adv-x="521" 
d="M461 278l-148 -218l-61 45l118 173l-118 173l61 45zM269 278l-148 -218l-61 45l118 173l-118 173l61 45z" />
    <glyph glyph-name="ellipsis" unicode="&#x2026;" horiz-adv-x="930" 
d="M870 80q0 -40 -27.5 -67.5t-67.5 -27.5t-67.5 27.5t-27.5 67.5t27 68t68 28q39 0 67 -28t28 -68zM560 80q0 -40 -27.5 -67.5t-67.5 -27.5t-67.5 27.5t-27.5 67.5t27 68t68 28q39 0 67 -28t28 -68zM250 80q0 -40 -27.5 -67.5t-67.5 -27.5t-67.5 27.5t-27.5 67.5t27 68
t68 28q39 0 67 -28t28 -68z" />
    <glyph glyph-name="nonbreakingspace" unicode="&#xa0;" 
 />
    <glyph glyph-name="Agrave" unicode="&#xc0;" horiz-adv-x="820" 
d="M780 0h-197l-83 237h-263l-91 -237h-106l330 800h89zM475 307l-105 272l-107 -272h212zM548 860h-66l-154 95q-28 17 -38 26q-23 21 -23 44q0 21 17 37t39 16q21 0 41 -13q15 -10 33 -30z" />
    <glyph glyph-name="Atilde" unicode="&#xc3;" horiz-adv-x="820" 
d="M780 0h-197l-83 237h-263l-91 -237h-106l330 800h89zM475 307l-105 272l-107 -272h212zM642 1024q-12 -57 -45 -97q-40 -48 -96 -48q-36 0 -78 18q-93 40 -114 40q-35 0 -51 -19q-2 -3 -20 -38h-40q12 59 45 98q39 47 96 47q36 0 78 -18q92 -39 114 -39q35 0 51 18
q4 4 20 38h40z" />
    <glyph glyph-name="Otilde" unicode="&#xd5;" horiz-adv-x="998" 
d="M948 391q0 -176 -133.5 -291t-327.5 -115q-190 0 -305 93q-132 107 -132 313q0 183 118 300q125 124 336 124q214 0 329 -110t115 -314zM753 422q0 135 -62 225q-68 99 -187 99q-141 0 -207 -124q-52 -97 -52 -252t72 -239q65 -76 170 -76q120 0 193 97.5t73 269.5z
M727 1024q-12 -57 -45 -97q-40 -48 -96 -48q-36 0 -78 18q-93 40 -114 40q-35 0 -51 -19q-2 -3 -20 -38h-40q12 59 45 98q39 47 96 47q36 0 78 -18q92 -39 114 -39q35 0 51 18q4 4 20 38h40z" />
    <glyph glyph-name="OE" unicode="&#x152;" horiz-adv-x="1231" 
d="M1181 0h-439v123q-51 -66 -125 -102t-168 -36q-174 0 -286.5 115.5t-112.5 290.5q0 193 119 311q114 113 290 113q85 0 158 -33.5t125 -95.5v114h439v-85h-262v-260h257v-85h-257v-285h262v-85zM742 422q0 154 -58 236q-62 88 -185 88q-113 0 -183.5 -96t-70.5 -259
q0 -161 66 -248.5t178 -87.5q123 0 184 80q69 90 69 287z" />
    <glyph glyph-name="oe" unicode="&#x153;" horiz-adv-x="1062" 
d="M1012 348v-19q0 -27 -3 -54h-364q0 -104 60 -163q53 -52 129 -52q38 0 75 15t66 39l14 -11l-27 -67q-45 -26 -84.5 -38.5t-86.5 -12.5q-161 0 -230 100q-37 -49 -89.5 -74.5t-123.5 -25.5q-137 0 -217.5 78.5t-80.5 205.5q0 133 83 217t224 84q144 0 214 -92
q32 46 82 71.5t116 25.5q102 0 172.5 -64.5t70.5 -162.5zM849 340q0 83 -25 132.5t-72 49.5q-50 0 -78.5 -50.5t-28.5 -131.5h204zM485 283q0 109 -32 172t-96 63q-66 0 -101 -74q-31 -66 -31 -175q0 -105 33 -168.5t90 -63.5q70 0 103.5 63.5t33.5 182.5z" />
    <glyph glyph-name="endash" unicode="&#x2013;" horiz-adv-x="837" 
d="M777 210h-717v130h717v-130z" />
    <glyph glyph-name="emdash" unicode="&#x2014;" horiz-adv-x="1056" 
d="M996 210h-936v130h936v-130z" />
    <glyph glyph-name="quotedblleft" unicode="&#x201c;" horiz-adv-x="604" 
d="M544 802l-63 -258q-17 -69 -39 -98t-59 -29q-31 0 -55.5 20.5t-24.5 51.5q0 12 6.5 27t15.5 28l191 271zM301 802l-63 -258q-17 -69 -39 -98t-59 -29q-31 0 -55.5 20.5t-24.5 51.5q0 12 6.5 27t15.5 28l191 271z" />
    <glyph glyph-name="quotedblright" unicode="&#x201d;" horiz-adv-x="604" 
d="M544 743q0 -12 -6.5 -27t-15.5 -28l-191 -271l-28 13l63 258q17 69 39 98t59 29q31 0 55.5 -20.5t24.5 -51.5zM301 743q0 -12 -6.5 -27t-15.5 -28l-191 -271l-28 13l63 258q17 69 39 98t59 29q31 0 55.5 -20.5t24.5 -51.5z" />
    <glyph glyph-name="quoteleft" unicode="&#x2018;" horiz-adv-x="361" 
d="M301 802l-63 -258q-17 -69 -39 -98t-59 -29q-31 0 -55.5 20.5t-24.5 51.5q0 12 6.5 27t15.5 28l191 271z" />
    <glyph glyph-name="quoteright" unicode="&#x2019;" horiz-adv-x="361" 
d="M301 743q0 -12 -6.5 -27t-15.5 -28l-191 -271l-28 13l63 258q17 69 39 98t59 29q31 0 55.5 -20.5t24.5 -51.5z" />
    <glyph glyph-name="divide" unicode="&#xf7;" horiz-adv-x="570" 
d="M345 422q0 -24 -18 -42t-42 -18t-42 18t-18 42t18 42t42 18t42 -18t18 -42zM510 237h-450v80h450v-80zM345 132q0 -24 -18 -42t-42 -18t-42 18t-18 42t18 42t42 18t42 -18t18 -42z" />
    <glyph glyph-name="lozenge" unicode="&#x25ca;" horiz-adv-x="620" 
d="M560 402l-215 -402h-71l-214 402l214 398h71zM465 401l-155 291l-156 -291l156 -292z" />
    <glyph glyph-name="ydieresis" unicode="&#xff;" horiz-adv-x="596" 
d="M581 556l-370 -856h-86l144 300l-229 556h170l148 -354l129 354h94zM518 724q0 -32 -22 -54t-54 -22t-54 22t-22 54t22 54t54 22t54 -22t22 -54zM273 724q0 -32 -22 -54t-54 -22t-54 22t-22 54t22 54t54 22t54 -22t22 -54z" />
    <glyph glyph-name="Ydieresis" unicode="&#x178;" horiz-adv-x="728" 
d="M712 800l-247 -434v-366h-177v338l-248 462h189l195 -357l180 357h108zM572 955q0 -32 -22 -54t-54 -22t-54 22t-22 54t22 54t54 22t54 -22t22 -54zM327 955q0 -32 -22 -54t-54 -22t-54 22t-22 54t22 54t54 22t54 -22t22 -54z" />
    <glyph glyph-name="fraction" unicode="&#x2215;" horiz-adv-x="623" 
d="M583 815l-460 -830h-83l460 830h83z" />
    <glyph glyph-name="currency" unicode="&#xa4;" horiz-adv-x="603" 
d="M543 218l-56 -56l-54 50q-30 -20 -61 -30.5t-69 -10.5q-39 0 -71 11.5t-62 32.5l-55 -53l-55 55l54 54q-19 27 -29.5 59t-10.5 70q0 74 41 131l-55 56l55 58l56 -58q30 21 62 32t70 11q40 0 69 -9.5t59 -31.5l56 56l55 -58l-54 -53q21 -30 32 -62t11 -72
q0 -42 -9.5 -71.5t-31.5 -60.5zM434 400q0 54 -38.5 92.5t-92.5 38.5t-93 -38t-39 -93q0 -54 39 -92t93 -38q53 0 92 38t39 92z" />
    <glyph glyph-name="guilsinglleft" unicode="&#x2039;" horiz-adv-x="329" 
d="M269 105l-61 -45l-148 218l148 218l61 -45l-118 -173z" />
    <glyph glyph-name="guilsinglright" unicode="&#x203a;" horiz-adv-x="329" 
d="M269 278l-148 -218l-61 45l118 173l-118 173l61 45z" />
    <glyph glyph-name="fi" unicode="&#xf001;" horiz-adv-x="766" 
d="M718 737q0 -39 -27 -66t-66 -27t-66 27t-27 66t27 66t66 27t66 -27t27 -66zM434 732l-18 -7q-24 15 -43 22q-32 12 -62 12q-65 0 -65 -58q0 -29 20 -86l23 -60h117v-70h-110v-485h-162v485h-84v70h84q17 138 71 224q67 107 179 107q25 0 50 -6v-148zM706 0h-162v555h162
v-555z" />
    <glyph glyph-name="fl" unicode="&#xf002;" horiz-adv-x="766" 
d="M434 732l-18 -7q-24 15 -43 22q-32 12 -62 12q-65 0 -65 -58q0 -29 20 -86l23 -60h117v-70h-110v-485h-162v485h-84v70h84q17 138 71 224q67 107 179 107q25 0 50 -6v-148zM706 0h-162v880h162v-880z" />
    <glyph glyph-name="daggerdbl" unicode="&#x2021;" horiz-adv-x="544" 
d="M484 118q0 -23 -15.5 -36.5t-34.5 -13.5q-9 0 -22 5q-46 19 -66 25q-32 10 -61 10q0 -26 12 -68q27 -94 27 -124q0 -24 -15 -36t-37 -12t-35 10q-17 13 -17 38q0 35 19.5 101t19.5 91q-34 0 -76 -15q-17 -6 -51 -20q-13 -5 -22 -5q-20 0 -35 13t-15 37q0 23 15.5 36.5
t34.5 13.5q7 0 22 -5q46 -19 66 -25q32 -10 61 -10v30v11q0 43 -7 79q-11 39 -13 43q-9 26 -22 43q14 18 25 53q3 9 10 33q3 15 5 45t2 75q-34 0 -76 -15q-17 -6 -51 -20q-15 -5 -22 -5q-20 0 -35 13t-15 37q0 23 15.5 36.5t34.5 13.5q9 0 22 -5q46 -19 66 -25
q32 -10 61 -10q0 26 -12 68q-27 94 -27 124q0 24 15.5 36t36.5 12q23 0 37.5 -11t14.5 -37q0 -35 -19.5 -101t-19.5 -91q34 0 76 15q17 6 51 20q13 5 22 5q20 0 35 -13t15 -37q0 -23 -15.5 -36.5t-34.5 -13.5q-7 0 -22 5q-46 19 -66 25q-32 10 -61 10q0 -30 0.5 -60t6.5 -60
q11 -39 13 -43q9 -26 22 -43q-14 -18 -25 -53q-3 -9 -10 -33q-4 -22 -5.5 -41t-1.5 -49v-30q34 0 76 15q17 6 51 20q15 5 22 5q20 0 35 -13t15 -37z" />
    <glyph glyph-name="periodcentered" unicode="&#xb7;" horiz-adv-x="310" 
d="M250 400q0 -40 -27.5 -67.5t-67.5 -27.5t-67.5 27.5t-27.5 67.5t27 68t68 28q39 0 67 -28t28 -68z" />
    <glyph glyph-name="periodcentered" unicode="&#x2219;" horiz-adv-x="310" 
d="M250 400q0 -40 -27.5 -67.5t-67.5 -27.5t-67.5 27.5t-27.5 67.5t27 68t68 28q39 0 67 -28t28 -68z" />
    <glyph glyph-name="quotesinglbase" unicode="&#x201a;" horiz-adv-x="341" 
d="M281 104q0 -12 -6.5 -27t-15.5 -28l-191 -271l-28 13l63 258q17 69 39 98t59 29q31 0 55.5 -20.5t24.5 -51.5z" />
    <glyph glyph-name="quotedblbase" unicode="&#x201e;" horiz-adv-x="604" 
d="M544 104q0 -12 -6.5 -27t-15.5 -28l-191 -271l-28 13l63 258q17 69 39 98t59 29q31 0 55.5 -20.5t24.5 -51.5zM281 104q0 -12 -6.5 -27t-15.5 -28l-191 -271l-28 13l63 258q17 69 39 98t59 29q31 0 55.5 -20.5t24.5 -51.5z" />
    <glyph glyph-name="perthousand" unicode="&#x2030;" horiz-adv-x="1443" 
d="M459 618q0 -91 -56.5 -147.5t-147.5 -56.5q-96 0 -148 56q-47 51 -47 136q0 83 58.5 138.5t143.5 55.5q86 0 141.5 -50.5t55.5 -131.5zM717 815l-400 -830h-63l400 830h63zM1383 204q0 -91 -56.5 -147.5t-147.5 -56.5q-96 0 -148 56q-47 51 -47 136q0 83 58.5 138.5
t143.5 55.5q86 0 141.5 -50.5t55.5 -131.5zM916 204q0 -91 -56.5 -147.5t-147.5 -56.5q-96 0 -148 56q-47 51 -47 136q0 83 58.5 138.5t143.5 55.5q86 0 141.5 -50.5t55.5 -131.5zM341 618q0 66 -16 101q-20 43 -63 43q-49 0 -69 -52q-15 -39 -15 -111t17.5 -110t60.5 -38
q44 0 64.5 42t20.5 125zM1265 204q0 66 -16 101q-20 43 -63 43q-49 0 -69 -52q-15 -39 -15 -111t17.5 -110t60.5 -38q44 0 64.5 42t20.5 125zM798 204q0 66 -16 101q-20 43 -63 43q-49 0 -69 -52q-15 -39 -15 -111t17.5 -110t60.5 -38q44 0 64.5 42t20.5 125z" />
    <glyph glyph-name="Acircumflex" unicode="&#xc2;" horiz-adv-x="820" 
d="M780 0h-197l-83 237h-263l-91 -237h-106l330 800h89zM475 307l-105 272l-107 -272h212zM616 860h-68l-129 129l-129 -129h-68l143 207h108z" />
    <glyph glyph-name="Ecircumflex" unicode="&#xca;" horiz-adv-x="549" 
d="M499 0h-439v800h439v-85h-262v-260h257v-85h-257v-285h262v-85zM479 880h-68l-129 129l-129 -129h-68l143 207h108z" />
    <glyph glyph-name="Aacute" unicode="&#xc1;" horiz-adv-x="820" 
d="M780 0h-197l-83 237h-263l-91 -237h-106l330 800h89zM475 307l-105 272l-107 -272h212zM568 1026q0 -28 -30 -50l-31 -21l-154 -95h-66l151 175q19 21 25 26q21 17 53 17q22 0 37 -15t15 -37z" />
    <glyph glyph-name="Edieresis" unicode="&#xcb;" horiz-adv-x="549" 
d="M499 0h-439v800h439v-85h-262v-260h257v-85h-257v-285h262v-85zM480 955q0 -32 -22 -54t-54 -22t-54 22t-22 54t22 54t54 22t54 -22t22 -54zM235 955q0 -32 -22 -54t-54 -22t-54 22t-22 54t22 54t54 22t54 -22t22 -54z" />
    <glyph glyph-name="Egrave" unicode="&#xc8;" horiz-adv-x="549" 
d="M499 0h-439v800h439v-85h-262v-260h257v-85h-257v-285h262v-85zM430 860h-66l-154 95q-28 17 -38 26q-23 21 -23 44q0 21 17 37t39 16q21 0 41 -13q15 -10 33 -30z" />
    <glyph glyph-name="Iacute" unicode="&#xcd;" horiz-adv-x="297" 
d="M237 0h-177v800h177v-800zM309 1026q0 -28 -30 -50l-31 -21l-154 -95h-66l151 175q19 21 25 26q21 17 53 17q22 0 37 -15t15 -37z" />
    <glyph glyph-name="Icircumflex" unicode="&#xce;" horiz-adv-x="297" 
d="M237 0h-177v800h177v-800zM346 858h-68l-129 129l-129 -129h-68l143 207h108z" />
    <glyph glyph-name="Idieresis" unicode="&#xcf;" horiz-adv-x="297" 
d="M237 0h-177v800h177v-800zM349 956q0 -32 -22 -54t-54 -22t-54 22t-22 54t22 54t54 22t54 -22t22 -54zM104 956q0 -32 -22 -54t-54 -22t-54 22t-22 54t22 54t54 22t54 -22t22 -54z" />
    <glyph glyph-name="Igrave" unicode="&#xcc;" horiz-adv-x="297" 
d="M237 0h-177v800h177v-800zM275 859h-66l-154 95q-28 17 -38 26q-23 21 -23 44q0 21 17 37t39 16q21 0 41 -13q15 -10 33 -30z" />
    <glyph glyph-name="Oacute" unicode="&#xd3;" horiz-adv-x="998" 
d="M948 391q0 -176 -133.5 -291t-327.5 -115q-190 0 -305 93q-132 107 -132 313q0 183 118 300q125 124 336 124q214 0 329 -110t115 -314zM753 422q0 135 -62 225q-68 99 -187 99q-141 0 -207 -124q-52 -97 -52 -252t72 -239q65 -76 170 -76q120 0 193 97.5t73 269.5z
M667 1035q0 -28 -30 -50l-31 -21l-154 -95h-66l151 175q19 21 25 26q21 17 53 17q22 0 37 -15t15 -37z" />
    <glyph glyph-name="Ocircumflex" unicode="&#xd4;" horiz-adv-x="998" 
d="M948 391q0 -176 -133.5 -291t-327.5 -115q-190 0 -305 93q-132 107 -132 313q0 183 118 300q125 124 336 124q214 0 329 -110t115 -314zM753 422q0 135 -62 225q-68 99 -187 99q-141 0 -207 -124q-52 -97 -52 -252t72 -239q65 -76 170 -76q120 0 193 97.5t73 269.5z
M705 870h-68l-129 129l-129 -129h-68l143 207h108z" />
    <glyph glyph-name="apple" unicode="&#xf000;" horiz-adv-x="807" 
d="M582 820q1 -8 1 -14q0 -24 -7 -46q-11 -35 -38.5 -68.5t-62.5 -50.5q-21 -10 -55 -15q-1 3 -1 5q-1 7 -1 16q0 24 8.5 49.5t34.5 56.5q37 44 83 60q15 5 38 7zM747 219q-33 -73 -55 -109q-69 -110 -135 -110q-39 0 -64 10q-54 22 -69 22q-29 0 -78 -21q-26 -11 -53 -11
q-87 0 -162 129q-71 122 -71 244q0 136 91 207q63 49 129 49q27 0 69 -15t68 -15q11 0 73 20q31 10 66 10q57 0 97 -18t73 -59q-18 -11 -29 -20q-65 -56 -65 -149q0 -79 57 -129q19 -16 58 -35z" />
    <glyph glyph-name="Ograve" unicode="&#xd2;" horiz-adv-x="998" 
d="M948 391q0 -176 -133.5 -291t-327.5 -115q-190 0 -305 93q-132 107 -132 313q0 183 118 300q125 124 336 124q214 0 329 -110t115 -314zM753 422q0 135 -62 225q-68 99 -187 99q-141 0 -207 -124q-52 -97 -52 -252t72 -239q65 -76 170 -76q120 0 193 97.5t73 269.5z
M643 870h-66l-154 95q-28 17 -38 26q-23 21 -23 44q0 21 17 37t39 16q21 0 41 -13q15 -10 33 -30z" />
    <glyph glyph-name="Uacute" unicode="&#xda;" horiz-adv-x="824" 
d="M764 370q0 -385 -343 -385q-196 0 -281 95q-80 90 -80 290v430h177v-430q0 -145 36 -214q47 -91 169 -91q127 0 182 89q46 74 46 216v430h94v-430zM585 1026q0 -28 -30 -50l-31 -21l-154 -95h-66l151 175q19 21 25 26q21 17 53 17q22 0 37 -15t15 -37z" />
    <glyph glyph-name="Ucircumflex" unicode="&#xdb;" horiz-adv-x="824" 
d="M764 370q0 -385 -343 -385q-196 0 -281 95q-80 90 -80 290v430h177v-430q0 -145 36 -214q47 -91 169 -91q127 0 182 89q46 74 46 216v430h94v-430zM615 860h-68l-129 129l-129 -129h-68l143 207h108z" />
    <glyph glyph-name="Ugrave" unicode="&#xd9;" horiz-adv-x="824" 
d="M764 370q0 -385 -343 -385q-196 0 -281 95q-80 90 -80 290v430h177v-430q0 -145 36 -214q47 -91 169 -91q127 0 182 89q46 74 46 216v430h94v-430zM560 859h-66l-154 95q-28 17 -38 26q-23 21 -23 44q0 21 17 37t39 16q21 0 41 -13q15 -10 33 -30z" />
    <glyph glyph-name="dotlessi" unicode="&#x131;" horiz-adv-x="282" 
d="M222 0h-162v555h162v-555z" />
    <glyph glyph-name="circumflex" unicode="&#x2c6;" horiz-adv-x="514" 
d="M454 640h-68l-129 129l-129 -129h-68l143 207h108z" />
    <glyph glyph-name="tilde" unicode="&#x2dc;" horiz-adv-x="564" 
d="M504 799q-12 -57 -45 -97q-40 -48 -96 -48q-36 0 -78 18q-93 40 -114 40q-35 0 -51 -19q-2 -3 -20 -38h-40q12 59 45 98q39 47 96 47q36 0 78 -18q92 -39 114 -39q35 0 51 18q4 4 20 38h40z" />
    <glyph glyph-name="macron" unicode="&#xaf;" horiz-adv-x="466" 
d="M406 674h-346v85h346v-85z" />
    <glyph glyph-name="breve" unicode="&#x2d8;" horiz-adv-x="476" 
d="M416 832q0 -87 -48.5 -139.5t-129.5 -52.5q-85 0 -131.5 51.5t-46.5 140.5h51q9 -53 41.5 -77t85.5 -24q52 0 85 24t42 77h51z" />
    <glyph glyph-name="dotaccent" unicode="&#x2d9;" horiz-adv-x="272" 
d="M212 724q0 -32 -22 -54t-54 -22t-54 22t-22 54t22 54t54 22t54 -22t22 -54z" />
    <glyph glyph-name="ring" unicode="&#x2da;" horiz-adv-x="360" 
d="M300 760q0 -50 -35 -85t-85 -35t-85 35t-35 85t35 85t85 35t85 -35t35 -85zM248 760q0 28 -20 48t-48 20t-48 -20t-20 -48t20 -48t48 -20t48 20t20 48z" />
    <glyph glyph-name="cedilla" unicode="&#xb8;" horiz-adv-x="391" 
d="M327 -154q0 -52 -48 -76q-40 -20 -111 -20q-24 0 -56.5 5t-51.5 13l20 44q31 -17 77 -17q27 0 43 11.5t16 34.5q0 18 -12 30t-38 12q-23 0 -35 -6l-14 8l52 115h48l-32 -75q10 3 19 5t21 2q42 0 72 -22.5t30 -63.5z" />
    <glyph glyph-name="hungarumlaut" unicode="&#x2ba;" horiz-adv-x="646" 
d="M586 806q0 -28 -30 -50l-31 -21l-154 -95h-66l151 175q19 21 25 26q21 17 53 17q22 0 37 -15t15 -37zM341 806q0 -28 -30 -50l-31 -21l-154 -95h-66l151 175q19 21 25 26q21 17 53 17q22 0 37 -15t15 -37z" />
    <glyph glyph-name="ogonek" unicode="&#x2db;" horiz-adv-x="331" 
d="M271 -118q-34 -32 -66.5 -48t-67.5 -16q-34 0 -55.5 20.5t-21.5 56.5q0 26 28 60q24 29 49 45h53q-29 -26 -45 -46q-19 -24 -19 -40t9.5 -26.5t26.5 -10.5t38.5 11t40.5 28z" />
    <glyph glyph-name="caron" unicode="&#x2c7;" horiz-adv-x="514" 
d="M454 847l-143 -207h-108l-143 207h68l129 -129l129 129h68z" />
    <glyph glyph-name="Lslash" unicode="&#x141;" horiz-adv-x="632" 
d="M582 0h-439v358l-93 -54v84l93 54v358h177v-255l94 54v-84l-94 -54v-376h262v-85z" />
    <glyph glyph-name="lslash" unicode="&#x142;" horiz-adv-x="426" 
d="M376 517l-82 -46v-471h-162v381l-82 -46v117l82 46v382h162v-292l82 46v-117z" />
    <glyph glyph-name="Scaron" unicode="&#x160;" horiz-adv-x="595" 
d="M545 235q0 -111 -87.5 -180.5t-220.5 -69.5q-58 0 -102 10.5t-91 40.5l36 149h21q9 -57 55.5 -93.5t106.5 -36.5q65 0 101 32t36 84q0 42 -22 72q-26 36 -106 72.5t-103 50.5q-56 34 -84 76q-35 53 -35 132q0 106 73 173.5t194 67.5q60 0 104.5 -12.5t84.5 -42.5
l-37 -117h-18q-12 47 -50 74.5t-84 27.5q-61 0 -95 -25.5t-34 -81.5q0 -60 75 -106q18 -11 91 -48q115 -59 155 -120q36 -54 36 -129zM491 1087l-143 -207h-108l-143 207h68l129 -129l129 129h68z" />
    <glyph glyph-name="scaron" unicode="&#x161;" horiz-adv-x="489" 
d="M439 169q0 -85 -61.5 -134.5t-162.5 -49.5q-46 0 -93.5 12t-75.5 35l18 110h30q16 -43 52.5 -70.5t83.5 -27.5q44 0 71 27q21 21 21 42q0 30 -25 50q-18 15 -63 33q-94 39 -121 60q-63 48 -63 132q0 79 55.5 130.5t145.5 51.5q111 0 172 -52l-28 -103h-34
q-6 39 -38.5 67.5t-71.5 28.5q-40 0 -63.5 -17.5t-23.5 -49.5q0 -40 53 -65q6 -3 66 -25q74 -27 106 -57q50 -47 50 -128zM440 847l-143 -207h-108l-143 207h68l129 -129l129 129h68z" />
    <glyph glyph-name="Zcaron" unicode="&#x17d;" horiz-adv-x="762" 
d="M712 0h-662v20l427 695h-375v85h610v-20l-427 -695h427v-85zM593 1087l-143 -207h-108l-143 207h68l129 -129l129 129h68z" />
    <glyph glyph-name="zcaron" unicode="&#x17e;" horiz-adv-x="617" 
d="M567 0h-517v47l308 439h-264v69h473v-37l-315 -448h315v-70zM522 847l-143 -207h-108l-143 207h68l129 -129l129 129h68z" />
    <glyph glyph-name="brokenbar" unicode="&#xa6;" horiz-adv-x="240" 
d="M180 437h-120v443h120v-443zM180 -200h-120v443h120v-443z" />
    <glyph glyph-name="Eth" unicode="&#xd0;" horiz-adv-x="950" 
d="M900 420q0 -174 -110 -292q-119 -128 -318 -128h-328v370h-94v85h94v344h333q209 0 313 -89q110 -94 110 -290zM705 421q0 164 -73 239q-68 70 -205 70h-106v-275h117v-85h-117v-300h106q131 0 204.5 91t73.5 260z" />
    <glyph glyph-name="eth" unicode="&#xf0;" horiz-adv-x="683" 
d="M623 750l-142 -95q28 -57 44.5 -129.5t16.5 -140.5q0 -152 -71 -271q-80 -134 -207 -134q-83 0 -143.5 66.5t-60.5 156.5q0 103 61.5 172.5t156.5 69.5q46 0 89 -21q23 -11 60 -40q9 48 9 95q0 70 -21 133l-131 -88l-46 73l138 91q-41 51 -102 51q-52 0 -105 -36l-49 79
q38 18 69.5 25.5t64.5 7.5q55 0 99 -23t81 -67l143 95zM415 317q-20 24 -41 38q-30 20 -61 20q-62 0 -103 -66q-37 -59 -37 -137q0 -54 28 -93.5t74 -39.5q63 0 101 108q20 55 39 170z" />
    <glyph glyph-name="Yacute" unicode="&#xdd;" horiz-adv-x="752" 
d="M712 800l-247 -434v-366h-177v338l-248 462h189l195 -357l180 357h108zM544 1026q0 -28 -30 -50l-31 -21l-154 -95h-66l151 175q19 21 25 26q21 17 53 17q22 0 37 -15t15 -37z" />
    <glyph glyph-name="yacute" unicode="&#xfd;" horiz-adv-x="621" 
d="M581 556l-370 -856h-86l144 300l-229 556h170l148 -354l129 354h94zM454 806q0 -28 -30 -50l-31 -21l-154 -95h-66l151 175q19 21 25 26q21 17 53 17q22 0 37 -15t15 -37z" />
    <glyph glyph-name="Thorn" unicode="&#xde;" horiz-adv-x="651" 
d="M601 455q0 -120 -100 -170q-86 -43 -264 -43v-242h-177v800h177v-178h95q124 0 189 -33q80 -41 80 -134zM419 435q0 70 -40 104q-33 28 -86 28h-56v-270q84 0 130 31q52 35 52 107z" />
    <glyph glyph-name="thorn" unicode="&#xfe;" horiz-adv-x="658" 
d="M608 280q0 -128 -61 -209q-65 -86 -174 -86q-53 0 -90.5 21.5t-60.5 61.5v-368h-162v1180h162v-418q21 48 57 76q42 32 102 32q108 0 167.5 -75.5t59.5 -214.5zM435 280q0 107 -24.5 160.5t-78.5 53.5q-55 0 -82.5 -57.5t-27.5 -167.5q0 -101 24.5 -154.5t74.5 -53.5
q54 0 84 58t30 161z" />
    <glyph glyph-name="minus" unicode="&#xad;" horiz-adv-x="520" 
d="M460 237h-400v80h400v-80z" />
    <glyph glyph-name="multiply" unicode="&#xd7;" horiz-adv-x="520" 
d="M460 422l-146 -145l145 -144l-54 -56l-145 145l-144 -145l-55 55l144 145l-145 146l56 54l144 -145l144 145z" />
    <glyph glyph-name="onesuperior" unicode="&#xb9;" horiz-adv-x="290" 
d="M230 400h-81v329l-68 -36l-21 26v4l164 77l6 -3v-397z" />
    <glyph glyph-name="twosuperior" unicode="&#xb2;" horiz-adv-x="380" 
d="M319 400h-259v20l106 113q28 30 45 67q21 44 21 85q0 38 -16 60t-44 22t-44 -26.5t-16 -58.5l-6 -2l-46 39q14 36 47.5 55.5t76.5 19.5q63 0 99 -29t36 -80q0 -35 -16.5 -63t-47.5 -56l-97 -85h161v-81z" />
    <glyph glyph-name="threesuperior" unicode="&#xb3;" horiz-adv-x="386" 
d="M325 508q0 -52 -46.5 -84t-109.5 -32q-34 0 -62 10.5t-47 34.5l37 51h8q0 -28 18.5 -48.5t45.5 -20.5q31 0 50 26t19 63q0 77 -74 77h-23v35h23q28 0 43 18t15 58q0 30 -11.5 50t-35.5 20q-27 0 -40 -19.5t-16 -49.5h-10l-39 39q21 30 46.5 43.5t70.5 13.5
q50 0 86.5 -21.5t36.5 -67.5q0 -42 -28 -67q-18 -16 -54 -30q52 -10 74.5 -30.5t22.5 -68.5z" />
    <glyph glyph-name="onehalf" unicode="&#xbd;" horiz-adv-x="794" 
d="M230 400h-81v329l-68 -36l-21 26v4l164 77l6 -3v-397zM649 815l-460 -830h-83l460 830h83zM734 0h-259v20l106 113q28 30 45 67q21 44 21 85q0 38 -16 60t-44 22t-44 -26.5t-16 -58.5l-6 -2l-46 39q14 36 47.5 55.5t76.5 19.5q63 0 99 -29t36 -80q0 -35 -16.5 -63
t-47.5 -56l-97 -85h161v-81z" />
    <glyph glyph-name="onequarter" unicode="&#xbc;" horiz-adv-x="778" 
d="M230 400h-81v329l-68 -36l-21 26v4l164 77l6 -3v-397zM659 815l-460 -830h-83l460 830h83zM718 95h-49v-95h-81v95h-151v60l160 238h72v-235h49v-63zM588 158v172l-113 -172h113z" />
    <glyph glyph-name="threequarters" unicode="&#xbe;" horiz-adv-x="808" 
d="M708 815l-460 -830h-83l460 830h83zM747 95h-49v-95h-81v95h-151v60l160 238h72v-235h49v-63zM617 158v172l-113 -172h113zM325 508q0 -52 -46.5 -84t-109.5 -32q-34 0 -62 10.5t-47 34.5l37 51h8q0 -28 18.5 -48.5t45.5 -20.5q31 0 50 26t19 63q0 77 -74 77h-23v35h23
q28 0 43 18t15 58q0 30 -11.5 50t-35.5 20q-27 0 -40 -19.5t-16 -49.5h-10l-39 39q21 30 46.5 43.5t70.5 13.5q50 0 86.5 -21.5t36.5 -67.5q0 -42 -28 -67q-18 -16 -54 -30q52 -10 74.5 -30.5t22.5 -68.5z" />
    </font>
</defs>
</svg>
